%FSLAX35Y35*%
%MOIN*%
G04 EasyPC Gerber Version 18.0.8 Build 3632 *
%ADD77R,0.05400X0.05400*%
%ADD18R,0.06000X0.06000*%
%ADD23R,0.06000X0.06000*%
%ADD76C,0.00787*%
%ADD71C,0.01500*%
%ADD70C,0.02500*%
%ADD20C,0.05000*%
%ADD79C,0.05276*%
%ADD78C,0.05400*%
%ADD24C,0.06000*%
%ADD25C,0.08000*%
X0Y0D02*
D02*
D18*
X65250Y110250D03*
Y170250D03*
X75250Y110250D03*
Y170250D03*
X85250Y110250D03*
Y170250D03*
X95250Y110250D03*
Y170250D03*
X105250Y110250D03*
Y170250D03*
X115250Y110250D03*
Y170250D03*
X125250Y110250D03*
Y170250D03*
X135250Y110250D03*
Y170250D03*
X230250Y110250D03*
Y170250D03*
X240250Y110250D03*
Y170250D03*
X250250Y110250D03*
Y170250D03*
X260250Y110250D03*
Y170250D03*
X270250Y110250D03*
Y170250D03*
X280250Y110250D03*
Y170250D03*
X290250Y110250D03*
Y170250D03*
X300250Y110250D03*
Y170250D03*
X440250Y115250D03*
X450250D03*
X460250D03*
X470250D03*
X480250D03*
X490250D03*
D02*
D70*
X65250Y65250D02*
Y60250D01*
X25250Y25250*
X65250Y215250D02*
Y220250D01*
X25250Y250250*
X75250Y65250D02*
Y60250D01*
X45250Y25250*
X75250Y215250D02*
Y220250D01*
X45250Y250250*
X85250Y65250D02*
Y60250D01*
X65250Y25250*
X85250Y215250D02*
Y220250D01*
X65250Y250250*
X95250Y65250D02*
Y60250D01*
X85250Y25250*
X95250Y215250D02*
Y220250D01*
X85250Y250250*
X105250Y65250D02*
Y25250D01*
Y215250D02*
Y250250D01*
X115250Y65250D02*
Y60250D01*
X125250Y25250*
X115250Y215250D02*
Y220250D01*
X125250Y245250*
Y250250*
Y65250D02*
Y60250D01*
X145250Y25250*
X125250Y215250D02*
Y220250D01*
X145250Y250250*
X135250Y65250D02*
Y60250D01*
X165250Y25250*
X135250Y215250D02*
Y220250D01*
X165250Y250250*
X230250Y65250D02*
Y60250D01*
X185250Y25250*
X230250Y215250D02*
Y220250D01*
X185250Y250250*
X240250Y65250D02*
Y60250D01*
X205250Y25250*
X240250Y215250D02*
Y220250D01*
X205250Y250250*
X250250Y65250D02*
Y60250D01*
X225250Y25250*
X250250Y215250D02*
Y220250D01*
X225250Y250250*
X260250Y65250D02*
Y60250D01*
X245250Y25250*
X260250Y215250D02*
Y220250D01*
X245250Y250250*
X270250Y65250D02*
Y60250D01*
X265250Y30250*
Y25250*
X270250Y215250D02*
Y220250D01*
X265250Y250250*
X280250Y65250D02*
Y60250D01*
X285250Y25250*
X280250Y215250D02*
Y220250D01*
X285250Y250250*
X290250Y65250D02*
Y60250D01*
X305250Y25250*
X290250Y215250D02*
Y220250D01*
X305250Y250250*
X300250Y65250D02*
Y60250D01*
X325250Y25250*
X300250Y215250D02*
Y220250D01*
X325250Y250250*
X395250Y25250D02*
X440250D01*
X435250Y160250D02*
X465250D01*
X440250Y115250D02*
Y25250D01*
X465250Y160250D02*
X475250D01*
X490250Y145250*
Y115250*
X470250Y175565D02*
Y165250D01*
X465250Y160250*
D02*
D71*
X65250Y110250D02*
Y95250D01*
Y130250D02*
Y110250D01*
Y170250D02*
Y150250D01*
Y170250D02*
Y185250D01*
X75250Y110250D02*
Y95250D01*
Y130250D02*
Y110250D01*
Y170250D02*
Y150250D01*
Y170250D02*
Y185250D01*
X85250Y110250D02*
Y95250D01*
Y130250D02*
Y110250D01*
Y170250D02*
Y150250D01*
Y170250D02*
Y185250D01*
X95250Y110250D02*
Y95250D01*
Y130250D02*
Y110250D01*
Y170250D02*
Y150250D01*
Y170250D02*
Y185250D01*
X105250Y110250D02*
Y95250D01*
Y130250D02*
Y110250D01*
Y170250D02*
Y150250D01*
Y170250D02*
Y185250D01*
X115250Y110250D02*
Y95250D01*
Y130250D02*
Y110250D01*
Y170250D02*
Y150250D01*
Y170250D02*
Y185250D01*
X125250Y110250D02*
Y95250D01*
Y130250D02*
Y110250D01*
Y170250D02*
Y150250D01*
Y170250D02*
Y185250D01*
X135250Y110250D02*
Y95250D01*
Y130250D02*
Y110250D01*
Y170250D02*
Y150250D01*
Y170250D02*
Y185250D01*
X230250Y95250D02*
Y110250D01*
Y130250D02*
Y110250D01*
Y170250D02*
Y150250D01*
Y185250D02*
Y170250D01*
X240250Y95250D02*
Y110250D01*
Y130250D02*
Y110250D01*
Y170250D02*
Y150250D01*
Y185250D02*
Y170250D01*
X250250Y95250D02*
Y110250D01*
Y130250D02*
Y110250D01*
Y170250D02*
Y150250D01*
Y185250D02*
Y170250D01*
X260250Y95250D02*
Y110250D01*
Y130250D02*
Y110250D01*
Y170250D02*
Y150250D01*
Y185250D02*
Y170250D01*
X270250Y95250D02*
Y110250D01*
Y130250D02*
Y110250D01*
Y170250D02*
Y150250D01*
Y185250D02*
Y170250D01*
X280250Y95250D02*
Y110250D01*
Y130250D02*
Y110250D01*
Y170250D02*
Y150250D01*
Y185250D02*
Y170250D01*
X290250Y95250D02*
Y110250D01*
Y130250D02*
Y110250D01*
Y170250D02*
Y150250D01*
Y185250D02*
Y170250D01*
X300250Y95250D02*
Y110250D01*
Y130250D02*
Y110250D01*
Y170250D02*
Y150250D01*
Y185250D02*
Y170250D01*
X450250Y40250D02*
Y25250D01*
Y115250D02*
Y70250D01*
X460250Y40250D02*
Y25250D01*
Y115250D02*
Y70250D01*
X470250Y40250D02*
Y25250D01*
Y115250D02*
Y70250D01*
X480250Y40250D02*
Y25250D01*
Y115250D02*
Y70250D01*
D02*
D20*
X55250Y75250D02*
Y65250D01*
Y95250D02*
Y150250D01*
Y95250D02*
Y85250D01*
X145250*
X165250*
X145250Y75250D02*
X165250D01*
X145250D02*
X55250D01*
X145250Y185250D02*
X150250Y195250D01*
X175250*
X145250Y205250D02*
X175250D01*
X145250D02*
X40250D01*
X25250Y190250*
Y95250*
X45250Y75250*
X55250*
X145250Y215250D02*
Y205250D01*
X165250Y75250D02*
Y70250D01*
Y75250D02*
X190250D01*
X165250Y85250D02*
Y89935D01*
Y85250D02*
X190250D01*
X175250Y195250D02*
Y190565D01*
Y195250D02*
X205250D01*
X175250Y205250D02*
X200250D01*
X175250Y210250D02*
Y205250D01*
X190250Y75250D02*
Y70250D01*
Y75250D02*
X220250D01*
X190250Y85250D02*
X210250D01*
X190250Y89935D02*
Y85250D01*
X200250Y205250D02*
X220250D01*
X200250Y210250D02*
Y205250D01*
X205250Y195250D02*
X200250D01*
Y190565*
X205250Y195250D02*
X220250D01*
X210250Y85250D02*
X305250D01*
X325250Y105250*
Y120250*
Y134750*
Y170250*
X310250Y185250*
X220250Y65250D02*
Y75250D01*
X365250*
X375250Y65250*
X220250Y95250D02*
Y85250D01*
X210250*
X220250Y150250D02*
Y130250D01*
Y195250D02*
Y150250D01*
X310250Y195250D02*
X375250D01*
X310250D02*
X220250D01*
X310250D02*
Y185250D01*
Y205250D02*
Y215250D01*
Y205250D02*
X220250D01*
X365250Y250250D02*
X335250Y210250D01*
X330250Y205250*
X310250*
X375250Y65250D02*
Y25250D01*
Y75250D02*
Y65250D01*
Y160250D02*
Y75250D01*
Y195250D02*
X400250D01*
X385250Y250250D02*
X365250D01*
X395250Y25250D02*
Y190250D01*
X400250Y195250*
X435250*
X405250Y250250D02*
X385250D01*
X425250D02*
X405250D01*
X435250Y195250D02*
X470250D01*
D02*
D23*
X65250Y185250D03*
X135250Y95250D03*
X230250Y185250D03*
X300250Y95250D03*
X480250Y70250D03*
D02*
D24*
X55250Y65250D03*
Y95250D03*
X65250Y65250D03*
Y95250D03*
Y215250D03*
X75250Y65250D03*
Y95250D03*
Y185250D03*
Y215250D03*
X85250Y65250D03*
Y95250D03*
Y185250D03*
Y215250D03*
X95250Y65250D03*
Y95250D03*
Y185250D03*
Y215250D03*
X105250Y65250D03*
Y95250D03*
Y185250D03*
Y215250D03*
X115250Y65250D03*
Y95250D03*
Y185250D03*
Y215250D03*
X125250Y65250D03*
Y95250D03*
Y185250D03*
Y215250D03*
X135250Y65250D03*
Y185250D03*
Y215250D03*
X145250Y185250D03*
Y215250D03*
X220250Y65250D03*
Y95250D03*
X230250Y65250D03*
Y95250D03*
Y215250D03*
X240250Y65250D03*
Y95250D03*
Y185250D03*
Y215250D03*
X250250Y65250D03*
Y95250D03*
Y185250D03*
Y215250D03*
X260250Y65250D03*
Y95250D03*
Y185250D03*
Y215250D03*
X270250Y65250D03*
Y95250D03*
Y185250D03*
Y215250D03*
X280250Y65250D03*
Y95250D03*
Y185250D03*
Y215250D03*
X290250Y65250D03*
Y95250D03*
Y185250D03*
Y215250D03*
X300250Y65250D03*
Y185250D03*
Y215250D03*
X310250Y185250D03*
Y215250D03*
X440250Y25250D03*
X450250D03*
Y40250D03*
Y70250D03*
X460250Y25250D03*
Y40250D03*
Y70250D03*
X470250Y25250D03*
Y40250D03*
Y70250D03*
X480250Y25250D03*
Y40250D03*
D02*
D25*
X25250Y25250D03*
Y250250D03*
X45250Y25250D03*
Y250250D03*
X65250Y25250D03*
Y250250D03*
X85250Y25250D03*
Y250250D03*
X105250Y25250D03*
Y250250D03*
X125250Y25250D03*
Y250250D03*
X145250Y25250D03*
Y250250D03*
X165250Y25250D03*
Y250250D03*
X185250Y25250D03*
Y250250D03*
X205250Y25250D03*
Y250250D03*
X225250Y25250D03*
Y250250D03*
X245250Y25250D03*
Y250250D03*
X265250Y25250D03*
Y250250D03*
X285250Y25250D03*
Y250250D03*
X305250Y25250D03*
Y250250D03*
X325250Y25250D03*
Y250250D03*
X365250D03*
X375250Y25250D03*
Y160250D03*
Y195250D03*
X385250Y250250D03*
X395250Y25250D03*
X405250Y250250D03*
X425250D03*
X435250Y160250D03*
Y195250D03*
D02*
D76*
X205250Y156800D02*
Y157022D01*
X205028Y157686*
X204807Y157907*
X204364Y158129*
X203921*
X203478Y157907*
X203257Y157686*
X203035Y157022*
Y156800*
X203257Y156357*
X203478Y156136*
X203921Y155915*
X204364*
X204807Y156136*
X205028Y156357*
X205250Y156800*
X203700D02*
X204143Y156579D01*
X204585Y156800*
Y157243*
X204143Y157465*
X203700Y157243*
X198163Y155915D02*
Y158572D01*
X196835*
X196392Y158350*
X196170Y158129*
X195949Y157686*
Y156800*
X196170Y156357*
X196392Y156136*
X196835Y155915*
X198163*
X194620Y157686D02*
Y156579D01*
X194398Y156136*
X193956Y155915*
X193513*
X193070Y156136*
X192848Y156579*
Y157686D02*
Y155915D01*
X191077Y156136D02*
X190634Y155915D01*
X189748*
X189305Y156136*
Y156579*
X189748Y156800*
X190634*
X191077Y157022*
Y157465*
X190634Y157686*
X189748*
X189305Y157465*
X187533D02*
X187091Y157686D01*
X186426*
X185983Y157465*
X185762Y157022*
Y156357*
X185983Y156136*
X186426Y155915*
X186869*
X187312Y156136*
X187533Y156357*
Y156579*
X187312Y156800*
X186869Y157022*
X186426*
X185983Y156800*
X185762Y156579*
Y156357D02*
Y155915D01*
X183990D02*
Y157686D01*
Y157022D02*
X183769Y157465D01*
X183326Y157686*
X182883*
X182440Y157465*
X182219Y157022*
Y155915*
X176904Y158572D02*
X174689D01*
X176904Y155915*
X174689*
X173360Y157465D02*
X172917Y157686D01*
X172253*
X171810Y157465*
X171589Y157022*
Y156357*
X171810Y156136*
X172253Y155915*
X172696*
X173139Y156136*
X173360Y156357*
Y156579*
X173139Y156800*
X172696Y157022*
X172253*
X171810Y156800*
X171589Y156579*
Y156357D02*
Y155915D01*
X169374Y157686D02*
X168488D01*
X168931Y158129D02*
Y156136D01*
X168709Y155915*
X168488*
X168267Y156136*
X166274Y155915D02*
Y158572D01*
Y156800D02*
X165609D01*
X164502Y157686*
X165609Y156800D02*
X164502Y155915D01*
X162730Y156579D02*
X162509Y156136D01*
X162066Y155915*
X161623*
X161180Y156136*
X160959Y156579*
Y157022*
X161180Y157465*
X161623Y157686*
X162066*
X162509Y157465*
X162730Y157022*
Y156579*
X159187Y157686D02*
X158301Y155915D01*
X157415Y157686*
X155644Y156136D02*
X155201Y155915D01*
X154315*
X153872Y156136*
Y156579*
X154315Y156800*
X155201*
X155644Y157022*
Y157465*
X155201Y157686*
X154315*
X153872Y157465*
X152100Y155915D02*
Y158572D01*
Y156800D02*
X151436D01*
X150329Y157686*
X151436Y156800D02*
X150329Y155915D01*
X148557Y157686D02*
X148335Y156800D01*
X147893Y156357*
X147450*
X147007Y156800*
X146785Y157686*
X147007Y156800D02*
X147228Y155915D01*
X147450Y155472*
X147893Y155250*
X148335Y155472*
X205250Y160915D02*
Y163572D01*
X203700*
X203257Y163350*
X203035Y162907*
X203257Y162465*
X203700Y162243*
X205250*
X203700D02*
X203035Y160915D01*
X199935Y161136D02*
X200156Y160915D01*
X200599*
X201042*
X201485Y161136*
X201707Y161579*
Y162243*
X201485Y162465*
X201042Y162686*
X200599*
X200156Y162465*
X199935Y162243*
Y162022*
X200156Y161800*
X200599Y161579*
X201042*
X201485Y161800*
X201707Y162022*
X197056Y160915D02*
X197278D01*
Y163572*
X194620Y162465D02*
X194177Y162686D01*
X193513*
X193070Y162465*
X192848Y162022*
Y161357*
X193070Y161136*
X193513Y160915*
X193956*
X194398Y161136*
X194620Y161357*
Y161579*
X194398Y161800*
X193956Y162022*
X193513*
X193070Y161800*
X192848Y161579*
Y161357D02*
Y160915D01*
X191077Y162686D02*
X190855Y161800D01*
X190412Y161357*
X189969*
X189526Y161800*
X189305Y162686*
X189526Y161800D02*
X189748Y160915D01*
X189969Y160472*
X190412Y160250*
X190855Y160472*
X185762Y162022D02*
X185983Y162465D01*
X186426Y162686*
X186869*
X187312Y162465*
X187533Y162022*
Y161579*
X187312Y161136*
X186869Y160915*
X186426*
X185983Y161136*
X185762Y161579*
Y160915D02*
Y163572D01*
X183990Y162686D02*
Y161579D01*
X183769Y161136*
X183326Y160915*
X182883*
X182440Y161136*
X182219Y161579*
Y162686D02*
Y160915D01*
X179561D02*
Y162686D01*
Y163350D02*
X176904Y160915*
Y162686D01*
Y162022D02*
X176682Y162465D01*
X176239Y162686*
X175796*
X175353Y162465*
X175132Y162022*
Y160915*
X173360Y161579D02*
X173139Y161136D01*
X172696Y160915*
X172253*
X171810Y161136*
X171589Y161579*
Y162022*
X171810Y162465*
X172253Y162686*
X172696*
X173139Y162465*
X173360Y162022*
Y161579*
X166274Y162686D02*
X165388Y160915D01*
X164502Y162686*
X162509Y161136D02*
X162066Y160915D01*
X161623*
X161180Y161136*
X160959Y161579*
Y162907*
X161180Y163350*
X161623Y163572*
X162066*
X162509Y163350*
X162730Y162907*
Y161579*
X162509Y161136*
X161180Y163350*
X158965Y160915D02*
X158744Y161136D01*
X158965Y161357*
X159187Y161136*
X158965Y160915*
X155201D02*
X154315D01*
X154758D02*
Y163572D01*
X155201Y163129*
X363700Y187022D02*
X363035D01*
Y186800*
X363257Y186357*
X363478Y186136*
X363921Y185915*
X364364*
X364807Y186136*
X365028Y186357*
X365250Y186800*
Y187686*
X365028Y188129*
X364807Y188350*
X364364Y188572*
X363921*
X363478Y188350*
X363257Y188129*
X363035Y187686*
X361707Y185915D02*
Y188572D01*
X359492Y185915*
Y188572*
X358163Y185915D02*
Y188572D01*
X356835*
X356392Y188350*
X356170Y188129*
X355949Y187686*
Y186800*
X356170Y186357*
X356392Y186136*
X356835Y185915*
X358163*
X370250Y16800D02*
X368478D01*
X369364Y15915D02*
Y17686D01*
X361392Y15915D02*
X363163D01*
X361613Y17465*
X361392Y17907*
X361613Y18350*
X362056Y18572*
X362720*
X363163Y18350*
X358513Y15915D02*
Y18572D01*
X359620Y16800*
X357848*
X356077Y18572D02*
X354969Y15915D01*
X353862Y18572*
X369585Y155915D02*
X368700D01*
X369143D02*
Y158572D01*
X369585D02*
X368700D01*
X366707Y155915D02*
Y158572D01*
X364492Y155915*
Y158572*
X359620Y156800D02*
X357848D01*
X358734Y155915D02*
Y157686D01*
X354305Y155915D02*
X356077D01*
X354526Y157465*
X354305Y157907*
X354526Y158350*
X354969Y158572*
X355634*
X356077Y158350*
X351426Y155915D02*
Y158572D01*
X352533Y156800*
X350762*
X348990Y158572D02*
X347883Y155915D01*
X346776Y158572*
X375250Y261800D02*
X373478D01*
X374364Y260915D02*
Y262686D01*
X366392Y260915D02*
X368163D01*
X366613Y262465*
X366392Y262907*
X366613Y263350*
X367056Y263572*
X367720*
X368163Y263350*
X363513Y260915D02*
Y263572D01*
X364620Y261800*
X362848*
X361077Y263572D02*
X359969Y260915D01*
X358862Y263572*
X408700Y17022D02*
X408035D01*
Y16800*
X408257Y16357*
X408478Y16136*
X408921Y15915*
X409364*
X409807Y16136*
X410028Y16357*
X410250Y16800*
Y17686*
X410028Y18129*
X409807Y18350*
X409364Y18572*
X408921*
X408478Y18350*
X408257Y18129*
X408035Y17686*
X406707Y15915D02*
Y18572D01*
X404492Y15915*
Y18572*
X403163Y15915D02*
Y18572D01*
X401835*
X401392Y18350*
X401170Y18129*
X400949Y17686*
Y16800*
X401170Y16357*
X401392Y16136*
X401835Y15915*
X403163*
X410250Y261800D02*
X408478D01*
X409364Y260915D02*
Y262686D01*
X401392Y260915D02*
X403163D01*
X401613Y262465*
X401392Y262907*
X401613Y263350*
X402056Y263572*
X402720*
X403163Y263350*
X398513Y260915D02*
Y263572D01*
X399620Y261800*
X397848*
X396077Y263572D02*
X394969Y260915D01*
X393862Y263572*
X433700Y102022D02*
X433035D01*
Y101800*
X433257Y101357*
X433478Y101136*
X433921Y100915*
X434364*
X434807Y101136*
X435028Y101357*
X435250Y101800*
Y102686*
X435028Y103129*
X434807Y103350*
X434364Y103572*
X433921*
X433478Y103350*
X433257Y103129*
X433035Y102686*
X431707Y100915D02*
Y103572D01*
X429492Y100915*
Y103572*
X428163Y100915D02*
Y103572D01*
X426835*
X426392Y103350*
X426170Y103129*
X425949Y102686*
Y101800*
X426170Y101357*
X426392Y101136*
X426835Y100915*
X428163*
X433700Y187022D02*
X433035D01*
Y186800*
X433257Y186357*
X433478Y186136*
X433921Y185915*
X434364*
X434807Y186136*
X435028Y186357*
X435250Y186800*
Y187686*
X435028Y188129*
X434807Y188350*
X434364Y188572*
X433921*
X433478Y188350*
X433257Y188129*
X433035Y187686*
X431707Y185915D02*
Y188572D01*
X429492Y185915*
Y188572*
X428163Y185915D02*
Y188572D01*
X426835*
X426392Y188350*
X426170Y188129*
X425949Y187686*
Y186800*
X426170Y186357*
X426392Y186136*
X426835Y185915*
X428163*
X450250Y151800D02*
Y152686D01*
X450028Y153129*
X449807Y153350*
X449364Y153572*
X448921*
X448478Y153350*
X448257Y153129*
X448035Y152686*
Y151800*
X448257Y151357*
X448478Y151136*
X448921Y150915*
X449364*
X449807Y151136*
X450028Y151357*
X450250Y151800*
X446707Y153572D02*
Y151579D01*
X446485Y151136*
X446042Y150915*
X445156*
X444713Y151136*
X444492Y151579*
Y153572*
X442056Y150915D02*
Y153572D01*
X443163D02*
X440949D01*
X436077Y151800D02*
X434305D01*
X435191Y150915D02*
Y152686D01*
X432533Y151136D02*
X432091Y150915D01*
X431426*
X430983Y151136*
X430762Y151579*
Y151800*
X430983Y152243*
X431426Y152465*
X432533*
Y153572*
X430762*
X428990D02*
X427883Y150915D01*
X426776Y153572*
X500250Y101800D02*
X498478D01*
X499364Y100915D02*
Y102686D01*
X496707Y101136D02*
X496264Y100915D01*
X495599*
X495156Y101136*
X494935Y101579*
Y101800*
X495156Y102243*
X495599Y102465*
X496707*
Y103572*
X494935*
X493163D02*
X492056Y100915D01*
X490949Y103572*
D02*
D77*
X165250Y89935D03*
X175250Y190565D03*
X190250Y89935D03*
X200250Y190565D03*
X470250Y175565D03*
D02*
D78*
X165250Y70250D03*
X175250Y210250D03*
X190250Y70250D03*
X200250Y210250D03*
X470250Y195250D03*
D02*
D79*
X55250Y130250D03*
Y150250D03*
X65250Y130250D03*
Y150250D03*
X75250Y130250D03*
Y150250D03*
X85250Y130250D03*
Y150250D03*
X95250Y130250D03*
Y150250D03*
X105250Y130250D03*
Y150250D03*
X115250Y130250D03*
Y150250D03*
X125250Y130250D03*
Y150250D03*
X135250Y130250D03*
Y150250D03*
X220250Y130250D03*
Y150250D03*
X230250Y130250D03*
Y150250D03*
X240250Y130250D03*
Y150250D03*
X250250Y130250D03*
Y150250D03*
X260250Y130250D03*
Y150250D03*
X270250Y130250D03*
Y150250D03*
X280250Y130250D03*
Y150250D03*
X290250Y130250D03*
Y150250D03*
X300250Y130250D03*
Y150250D03*
X0Y0D02*
M02*
