%FSLAX35Y35*%
%MOIN*%
G04 EasyPC Gerber Version 18.0.8 Build 3632 *
%ADD21C,0.00100*%
%ADD13C,0.00300*%
%ADD11C,0.00500*%
%ADD12C,0.00600*%
%ADD14C,0.01000*%
X0Y0D02*
D02*
D11*
X433250Y35687D02*
Y39437D01*
X435437*
X436063Y39125*
X436375Y38500*
X436063Y37875*
X435437Y37563*
X433250*
X435437D02*
X436375Y35687D01*
X438250Y36000D02*
X438875Y35687D01*
X439813*
X440437Y36000*
X440750Y36625*
Y36937*
X440437Y37563*
X439813Y37875*
X438250*
Y39437*
X440750*
X434750Y30750D02*
X487750D01*
Y19750*
X437250*
X434750Y22250*
Y30750*
D02*
D12*
X15250Y234150D02*
X55250D01*
Y266350*
X15250*
Y234150*
X51057Y66250D02*
X46450D01*
Y94250*
X51057*
X55250Y41350D02*
X15250D01*
Y9150*
X55250*
Y41350*
Y234150D02*
X95250D01*
Y266350*
X55250*
Y234150*
X56450Y199050D02*
G75*
G03Y201450J1200D01*
G01*
X59443Y66250D02*
X61057D01*
Y94250D02*
X59443D01*
X61057Y214250D02*
X56450D01*
Y186250*
X60940*
X69443Y66250D02*
X71057D01*
X69560Y186250D02*
X71057D01*
Y94250D02*
X69443D01*
X71057Y214250D02*
X69443D01*
X79443Y66250D02*
X81057D01*
X79443Y186250D02*
X81057D01*
Y94250D02*
X79443D01*
X81057Y214250D02*
X79443D01*
X89443Y66250D02*
X91057D01*
X89443Y186250D02*
X91057D01*
Y94250D02*
X89443D01*
X91057Y214250D02*
X89443D01*
X95250Y41350D02*
X55250D01*
Y9150*
X95250*
Y41350*
Y234150D02*
X135250D01*
Y266350*
X95250*
Y234150*
X99443Y66250D02*
X101057D01*
X99443Y186250D02*
X101057D01*
Y94250D02*
X99443D01*
X101057Y214250D02*
X99443D01*
X109443Y66250D02*
X111057D01*
X109443Y186250D02*
X111057D01*
Y94250D02*
X109443D01*
X111057Y214250D02*
X109443D01*
X119443Y66250D02*
X121057D01*
X119443Y186250D02*
X121057D01*
Y94250D02*
X119443D01*
X121057Y214250D02*
X119443D01*
X129443Y66250D02*
X131057D01*
X129443Y186250D02*
X131057D01*
X130940Y94250D02*
X129443D01*
X131057Y214250D02*
X129443D01*
X135250Y41350D02*
X95250D01*
Y9150*
X135250*
Y41350*
Y234150D02*
X175250D01*
Y266350*
X135250*
Y234150*
X139443Y66250D02*
X144050D01*
Y94250*
X139560*
X139443Y186250D02*
X141057D01*
Y214250D02*
X139443D01*
X144050Y81450D02*
G75*
G03Y79050J-1200D01*
G01*
X149443Y214250D02*
X154050D01*
Y186250*
X149443*
X161240Y92039D02*
G75*
G03X155400Y83043I4010J-8997D01*
G01*
Y77143*
G75*
G03X162057Y67824I9850*
G01*
X168443D02*
G75*
G03X175100Y77143I-3193J9318D01*
G01*
Y83043*
G75*
G03X169260Y92039I-9850*
G01*
X172057Y212676D02*
G75*
G03X165400Y203357I3193J-9318D01*
G01*
Y197457*
G75*
G03X171240Y188461I9850*
G01*
X175250Y41350D02*
X135250D01*
Y9150*
X175250*
Y41350*
Y234150D02*
X215250D01*
Y266350*
X175250*
Y234150*
X179260Y188461D02*
G75*
G03X185100Y197457I-4010J8997D01*
G01*
Y203357*
G75*
G03X178443Y212676I-9850*
G01*
X186240Y92039D02*
G75*
G03X180400Y83043I4010J-8997D01*
G01*
Y77143*
G75*
G03X187057Y67824I9850*
G01*
X193443D02*
G75*
G03X200100Y77143I-3193J9318D01*
G01*
Y83043*
G75*
G03X194260Y92039I-9850*
G01*
X197057Y212676D02*
G75*
G03X190400Y203357I3193J-9318D01*
G01*
Y197457*
G75*
G03X196240Y188461I9850*
G01*
X204260D02*
G75*
G03X210100Y197457I-4010J8997D01*
G01*
Y203357*
G75*
G03X203443Y212676I-9850*
G01*
X215250Y41350D02*
X175250D01*
Y9150*
X215250*
Y41350*
Y234150D02*
X255250D01*
Y266350*
X215250*
Y234150*
X216057Y66250D02*
X211450D01*
Y94250*
X216057*
X221450Y199050D02*
G75*
G03Y201450J1200D01*
G01*
X224443Y66250D02*
X226057D01*
Y94250D02*
X224443D01*
X226057Y214250D02*
X221450D01*
Y186250*
X225940*
X234443Y66250D02*
X236057D01*
X234560Y186250D02*
X236057D01*
Y94250D02*
X234443D01*
X236057Y214250D02*
X234443D01*
X244443Y66250D02*
X246057D01*
X244443Y186250D02*
X246057D01*
Y94250D02*
X244443D01*
X246057Y214250D02*
X244443D01*
X254443Y66250D02*
X256057D01*
X254443Y186250D02*
X256057D01*
X255250Y41350D02*
X215250D01*
Y9150*
X255250*
Y41350*
Y234150D02*
X295250D01*
Y266350*
X255250*
Y234150*
X256057Y94250D02*
X254443D01*
X256057Y214250D02*
X254443D01*
X264443Y66250D02*
X266057D01*
X264443Y186250D02*
X266057D01*
Y94250D02*
X264443D01*
X266057Y214250D02*
X264443D01*
X274443Y66250D02*
X276057D01*
X274443Y186250D02*
X276057D01*
Y94250D02*
X274443D01*
X276057Y214250D02*
X274443D01*
X284443Y66250D02*
X286057D01*
X284443Y186250D02*
X286057D01*
Y94250D02*
X284443D01*
X286057Y214250D02*
X284443D01*
X294443Y66250D02*
X296057D01*
X294443Y186250D02*
X296057D01*
X295250Y41350D02*
X255250D01*
Y9150*
X295250*
Y41350*
Y234150D02*
X335250D01*
Y266350*
X295250*
Y234150*
X295940Y94250D02*
X294443D01*
X296057Y214250D02*
X294443D01*
X304443Y66250D02*
X309050D01*
Y94250*
X304560*
X304443Y186250D02*
X306057D01*
Y214250D02*
X304443D01*
X309050Y81450D02*
G75*
G03Y79050J-1200D01*
G01*
X314443Y214250D02*
X319050D01*
Y186250*
X314443*
X335250Y41350D02*
X295250D01*
Y9150*
X335250*
Y41350*
X365250Y9150D02*
X405250D01*
Y41350*
X365250*
Y9150*
X367750Y150250D02*
X445250D01*
Y203850*
X367750*
Y150250*
X395250Y266350D02*
X355250D01*
Y234150*
X395250*
Y266350*
X435250D02*
X395250D01*
Y234150*
X435250*
Y266350*
X445947Y40500D02*
X441350D01*
Y70000*
X445947*
X454553Y40500D02*
X455947D01*
Y70000D02*
X454553D01*
X464553Y40500D02*
X465947D01*
Y70000D02*
X464553D01*
X467057Y197676D02*
G75*
G03X460400Y188357I3193J-9318D01*
G01*
Y182457*
G75*
G03X466240Y173461I9850*
G01*
X474260D02*
G75*
G03X480100Y182457I-4010J8997D01*
G01*
Y188357*
G75*
G03X473443Y197676I-9850*
G01*
X474553Y40500D02*
X475947D01*
X475940Y70000D02*
X474553D01*
X484553Y40500D02*
X489150D01*
Y70000*
X484560*
X489150Y56450D02*
G75*
G03Y54050J-1200D01*
G01*
D02*
D13*
X20250Y252437D02*
Y249625D01*
X20563Y249000*
X21187Y248687*
X22437*
X23063Y249000*
X23375Y249625*
Y252437*
X25250Y248687D02*
X27750Y252437D01*
X25250*
X50250Y23063D02*
Y25875D01*
X49937Y26500*
X49313Y26813*
X48063*
X47437Y26500*
X47125Y25875*
Y23063*
X42750Y26813D02*
X45250D01*
X43063Y24625*
X42750Y24000*
X43063Y23375*
X43687Y23063*
X44625*
X45250Y23375*
X39937Y26500D02*
X39313Y26813D01*
X38687*
X38063Y26500*
X37750Y25875*
Y24000*
X38063Y23375*
X38687Y23063*
X39313*
X39937Y23375*
X40250Y24000*
Y25875*
X39937Y26500*
X38063Y23375*
X60250Y252437D02*
Y249625D01*
X60563Y249000*
X61187Y248687*
X62437*
X63063Y249000*
X63375Y249625*
Y252437*
X66187Y250563D02*
X66813D01*
X67437Y250875*
X67750Y251500*
X67437Y252125*
X66813Y252437*
X66187*
X65563Y252125*
X65250Y251500*
X65563Y250875*
X66187Y250563*
X65563Y250250*
X65250Y249625*
X65563Y249000*
X66187Y248687*
X66813*
X67437Y249000*
X67750Y249625*
X67437Y250250*
X66813Y250563*
X59563Y182750D02*
Y185250D01*
X60813Y183375D02*
X58313Y184625D01*
Y183375D02*
X60813Y184625D01*
X90250Y23063D02*
Y25875D01*
X89937Y26500*
X89313Y26813*
X88063*
X87437Y26500*
X87125Y25875*
Y23063*
X84625Y26813D02*
X83375D01*
X84000D02*
Y23063D01*
X84625Y23687*
X79313Y26813D02*
X78687Y26500D01*
X78063Y25875*
X77750Y24937*
Y24000*
X78063Y23375*
X78687Y23063*
X79313*
X79937Y23375*
X80250Y24000*
X79937Y24625*
X79313Y24937*
X78687*
X78063Y24625*
X77750Y24000*
X94937Y90250D02*
X92125D01*
X91500Y89937*
X91187Y89313*
Y88063*
X91500Y87437*
X92125Y87125*
X94937*
X91187Y84625D02*
Y83375D01*
Y84000D02*
X94937D01*
X94313Y84625*
X91187Y77750D02*
Y80250D01*
X93375Y78063*
X94000Y77750*
X94625Y78063*
X94937Y78687*
Y79625*
X94625Y80250*
X100250Y252437D02*
Y249625D01*
X100563Y249000*
X101187Y248687*
X102437*
X103063Y249000*
X103375Y249625*
Y252437*
X106187Y248687D02*
X106813Y249000D01*
X107437Y249625*
X107750Y250563*
Y251500*
X107437Y252125*
X106813Y252437*
X106187*
X105563Y252125*
X105250Y251500*
X105563Y250875*
X106187Y250563*
X106813*
X107437Y250875*
X107750Y251500*
X103063Y185250D02*
X105875D01*
X106500Y185563*
X106813Y186187*
Y187437*
X106500Y188063*
X105875Y188375*
X103063*
X106813Y192750D02*
Y190250D01*
X104625Y192437*
X104000Y192750*
X103375Y192437*
X103063Y191813*
Y190875*
X103375Y190250*
X130250Y23063D02*
Y25875D01*
X129937Y26500*
X129313Y26813*
X128063*
X127437Y26500*
X127125Y25875*
Y23063*
X124625Y26813D02*
X123375D01*
X124000D02*
Y23063D01*
X124625Y23687*
X119313Y24937D02*
X118687D01*
X118063Y24625*
X117750Y24000*
X118063Y23375*
X118687Y23063*
X119313*
X119937Y23375*
X120250Y24000*
X119937Y24625*
X119313Y24937*
X119937Y25250*
X120250Y25875*
X119937Y26500*
X119313Y26813*
X118687*
X118063Y26500*
X117750Y25875*
X118063Y25250*
X118687Y24937*
X140937Y97750D02*
Y95250D01*
X139687Y97125D02*
X142187Y95875D01*
Y97125D02*
X139687Y95875D01*
X140250Y252437D02*
Y249625D01*
X140563Y249000*
X141187Y248687*
X142437*
X143063Y249000*
X143375Y249625*
Y252437*
X145875Y248687D02*
X147125D01*
X146500D02*
Y252437D01*
X145875Y251813*
X150563Y249000D02*
X151187Y248687D01*
X151813*
X152437Y249000*
X152750Y249625*
Y251500*
X152437Y252125*
X151813Y252437*
X151187*
X150563Y252125*
X150250Y251500*
Y249625*
X150563Y249000*
X152437Y252125*
X164313Y91967D02*
X164000Y92280D01*
X163687Y92905*
Y93843*
X164000Y94467*
X164313Y94780*
X164937Y95093*
X166187*
X166813Y94780*
X167125Y94467*
X167437Y93843*
Y92905*
X167125Y92280*
X166813Y91967*
X164000Y89780D02*
X163687Y89155D01*
Y88530*
X164000Y87905*
X164625Y87593*
X165250Y87905*
X165563Y88530*
Y89155*
Y88530D02*
X165875Y87905D01*
X166500Y87593*
X167125Y87905*
X167437Y88530*
Y89155*
X167125Y89780*
X170250Y23063D02*
Y25875D01*
X169937Y26500*
X169313Y26813*
X168063*
X167437Y26500*
X167125Y25875*
Y23063*
X164625Y26813D02*
X163375D01*
X164000D02*
Y23063D01*
X164625Y23687*
X160250Y26813D02*
X157750Y23063D01*
X160250*
X176187Y188533D02*
X176500Y188220D01*
X176813Y187595*
Y186657*
X176500Y186033*
X176187Y185720*
X175563Y185407*
X174313*
X173687Y185720*
X173375Y186033*
X173063Y186657*
Y187595*
X173375Y188220*
X173687Y188533*
X176813Y191970D02*
X173063D01*
X175563Y190407*
Y192907*
X189313Y91967D02*
X189000Y92280D01*
X188687Y92905*
Y93843*
X189000Y94467*
X189313Y94780*
X189937Y95093*
X191187*
X191813Y94780*
X192125Y94467*
X192437Y93843*
Y92905*
X192125Y92280*
X191813Y91967*
X188687Y87593D02*
Y90093D01*
X190875Y87905*
X191500Y87593*
X192125Y87905*
X192437Y88530*
Y89467*
X192125Y90093*
X190250Y252437D02*
Y249625D01*
X190563Y249000*
X191187Y248687*
X192437*
X193063Y249000*
X193375Y249625*
Y252437*
X195563Y249000D02*
X196187Y248687D01*
X196813*
X197437Y249000*
X197750Y249625*
X197437Y250250*
X196813Y250563*
X196187*
X196813D02*
X197437Y250875D01*
X197750Y251500*
X197437Y252125*
X196813Y252437*
X196187*
X195563Y252125*
X201187Y188533D02*
X201500Y188220D01*
X201813Y187595*
Y186657*
X201500Y186033*
X201187Y185720*
X200563Y185407*
X199313*
X198687Y185720*
X198375Y186033*
X198063Y186657*
Y187595*
X198375Y188220*
X198687Y188533*
X200875Y190407D02*
X200250Y190720D01*
X199937Y191345*
Y191970*
X200250Y192595*
X200875Y192907*
X201500Y192595*
X201813Y191970*
Y191345*
X201500Y190720*
X200875Y190407*
X199937*
X199000Y190720*
X198375Y191345*
X198063Y191970*
X210250Y15563D02*
Y18375D01*
X209937Y19000*
X209313Y19313*
X208063*
X207437Y19000*
X207125Y18375*
Y15563*
X204625Y19313D02*
X203375D01*
X204000D02*
Y15563D01*
X204625Y16187*
X200250Y18375D02*
X199937Y17750D01*
X199313Y17437*
X198687*
X198063Y17750*
X197750Y18375*
X198063Y19000*
X198687Y19313*
X199313*
X199937Y19000*
X200250Y18375*
Y17437*
X199937Y16500*
X199313Y15875*
X198687Y15563*
X220250Y252437D02*
Y249625D01*
X220563Y249000*
X221187Y248687*
X222437*
X223063Y249000*
X223375Y249625*
Y252437*
X226813Y248687D02*
Y252437D01*
X225250Y249937*
X227750*
X224563Y182750D02*
Y185250D01*
X225813Y183375D02*
X223313Y184625D01*
Y183375D02*
X225813Y184625D01*
X250250Y23063D02*
Y25875D01*
X249937Y26500*
X249313Y26813*
X248063*
X247437Y26500*
X247125Y25875*
Y23063*
X244625Y26813D02*
X243375D01*
X244000D02*
Y23063D01*
X244625Y23687*
X240250Y26500D02*
X239625Y26813D01*
X238687*
X238063Y26500*
X237750Y25875*
Y25563*
X238063Y24937*
X238687Y24625*
X240250*
Y23063*
X237750*
X254937Y90250D02*
X252125D01*
X251500Y89937*
X251187Y89313*
Y88063*
X251500Y87437*
X252125Y87125*
X254937*
X251187Y84625D02*
Y83375D01*
Y84000D02*
X254937D01*
X254313Y84625*
X251187Y79625D02*
Y78375D01*
Y79000D02*
X254937D01*
X254313Y79625*
X260250Y252437D02*
Y249625D01*
X260563Y249000*
X261187Y248687*
X262437*
X263063Y249000*
X263375Y249625*
Y252437*
X265250Y249000D02*
X265875Y248687D01*
X266813*
X267437Y249000*
X267750Y249625*
Y249937*
X267437Y250563*
X266813Y250875*
X265250*
Y252437*
X267750*
X268063Y185250D02*
X270875D01*
X271500Y185563*
X271813Y186187*
Y187437*
X271500Y188063*
X270875Y188375*
X268063*
X271813Y190875D02*
Y192125D01*
Y191500D02*
X268063D01*
X268687Y190875*
X290250Y23063D02*
Y25875D01*
X289937Y26500*
X289313Y26813*
X288063*
X287437Y26500*
X287125Y25875*
Y23063*
X284625Y26813D02*
X283375D01*
X284000D02*
Y23063D01*
X284625Y23687*
X278687Y26813D02*
Y23063D01*
X280250Y25563*
X277750*
X305937Y97750D02*
Y95250D01*
X304687Y97125D02*
X307187Y95875D01*
Y97125D02*
X304687Y95875D01*
X310250Y244937D02*
Y242125D01*
X310563Y241500*
X311187Y241187*
X312437*
X313063Y241500*
X313375Y242125*
Y244937*
X315250Y242125D02*
X315563Y242750D01*
X316187Y243063*
X316813*
X317437Y242750*
X317750Y242125*
X317437Y241500*
X316813Y241187*
X316187*
X315563Y241500*
X315250Y242125*
Y243063*
X315563Y244000*
X316187Y244625*
X316813Y244937*
X330250Y23063D02*
Y25875D01*
X329937Y26500*
X329313Y26813*
X328063*
X327437Y26500*
X327125Y25875*
Y23063*
X324625Y26813D02*
X323375D01*
X324000D02*
Y23063D01*
X324625Y23687*
X319937Y26500D02*
X319313Y26813D01*
X318687*
X318063Y26500*
X317750Y25875*
X318063Y25250*
X318687Y24937*
X319313*
X318687D02*
X318063Y24625D01*
X317750Y24000*
X318063Y23375*
X318687Y23063*
X319313*
X319937Y23375*
X370250Y27437D02*
Y24625D01*
X370563Y24000*
X371187Y23687*
X372437*
X373063Y24000*
X373375Y24625*
Y27437*
X377750Y23687D02*
X375250D01*
X377437Y25875*
X377750Y26500*
X377437Y27125*
X376813Y27437*
X375875*
X375250Y27125*
X380875Y23687D02*
X382125D01*
X381500D02*
Y27437D01*
X380875Y26813*
X390250Y248063D02*
Y250875D01*
X389937Y251500*
X389313Y251813*
X388063*
X387437Y251500*
X387125Y250875*
Y248063*
X382750Y251813D02*
X385250D01*
X383063Y249625*
X382750Y249000*
X383063Y248375*
X383687Y248063*
X384625*
X385250Y248375*
X379937Y251500D02*
X379313Y251813D01*
X378687*
X378063Y251500*
X377750Y250875*
X378063Y250250*
X378687Y249937*
X379313*
X378687D02*
X378063Y249625D01*
X377750Y249000*
X378063Y248375*
X378687Y248063*
X379313*
X379937Y248375*
X430250Y248063D02*
Y250875D01*
X429937Y251500*
X429313Y251813*
X428063*
X427437Y251500*
X427125Y250875*
Y248063*
X422750Y251813D02*
X425250D01*
X423063Y249625*
X422750Y249000*
X423063Y248375*
X423687Y248063*
X424625*
X425250Y248375*
X417750Y251813D02*
X420250D01*
X418063Y249625*
X417750Y249000*
X418063Y248375*
X418687Y248063*
X419625*
X420250Y248375*
X473687Y183375D02*
X474000Y183063D01*
X474313Y182437*
Y181500*
X474000Y180875*
X473687Y180563*
X473063Y180250*
X471813*
X471187Y180563*
X470875Y180875*
X470563Y181500*
Y182437*
X470875Y183063*
X471187Y183375*
X474313Y185875D02*
Y187125D01*
Y186500D02*
X470563D01*
X471187Y185875*
X485937Y72750D02*
Y70250D01*
X484687Y72125D02*
X487187Y70875D01*
Y72125D02*
X484687Y70875D01*
X492337Y45500D02*
X493587D01*
X494213Y45187*
X494525Y44875*
X494837Y44250*
Y43625*
X494525Y43000*
X494213Y42687*
X493587Y42375*
X492337*
X491713Y42687*
X491400Y43000*
X491087Y43625*
Y44250*
X491400Y44875*
X491713Y45187*
X492337Y45500*
X491087Y40500D02*
X494837D01*
X491087Y37375*
X494837*
X492337Y77500D02*
X493587D01*
X494213Y77187*
X494525Y76875*
X494837Y76250*
Y75625*
X494525Y75000*
X494213Y74687*
X493587Y74375*
X492337*
X491713Y74687*
X491400Y75000*
X491087Y75625*
Y76250*
X491400Y76875*
X491713Y77187*
X492337Y77500*
X491087Y72500D02*
X494837D01*
Y69375*
X492963Y70000D02*
Y72500D01*
X491087Y67500D02*
X494837D01*
Y64375*
X492963Y65000D02*
Y67500D01*
D02*
D14*
X50348Y125348D02*
Y135152D01*
X140152*
Y125348*
X50348*
Y145348D02*
Y155152D01*
X140152*
Y145348*
X50348*
X53789Y121190D02*
G75*
G02X52827I-481D01*
G01*
X53789D02*
G75*
G02X52827I-481D01*
G01*
G75*
G02X53789I481*
G01*
Y141190D02*
G75*
G02X52827I-481D01*
G01*
X53789D02*
G75*
G02X52827I-481D01*
G01*
G75*
G02X53789I481*
G01*
X60250Y105250D02*
X70250D01*
Y115250*
X60250*
Y105250*
X70250D02*
X80250D01*
Y115250*
X70250*
Y105250*
Y175250D02*
X60250D01*
Y165250*
X70250*
Y175250*
X80250Y105250D02*
X90250D01*
Y115250*
X80250*
Y105250*
Y175250D02*
X70250D01*
Y165250*
X80250*
Y175250*
X90250Y105250D02*
X100250D01*
Y115250*
X90250*
Y105250*
Y175250D02*
X80250D01*
Y165250*
X90250*
Y175250*
X100250Y105250D02*
X110250D01*
Y115250*
X100250*
Y105250*
Y175250D02*
X90250D01*
Y165250*
X100250*
Y175250*
X110250Y105250D02*
X120250D01*
Y115250*
X110250*
Y105250*
Y175250D02*
X100250D01*
Y165250*
X110250*
Y175250*
X120250Y105250D02*
X130250D01*
Y115250*
X120250*
Y105250*
Y175250D02*
X110250D01*
Y165250*
X120250*
Y175250*
X130250Y105250D02*
X140250D01*
Y115250*
X130250*
Y105250*
Y175250D02*
X120250D01*
Y165250*
X130250*
Y175250*
X140250D02*
X130250D01*
Y165250*
X140250*
Y175250*
X215348Y125348D02*
Y135152D01*
X305152*
Y125348*
X215348*
Y145348D02*
Y155152D01*
X305152*
Y145348*
X215348*
X218789Y121190D02*
G75*
G02X217827I-481D01*
G01*
X218789D02*
G75*
G02X217827I-481D01*
G01*
G75*
G02X218789I481*
G01*
Y141190D02*
G75*
G02X217827I-481D01*
G01*
X218789D02*
G75*
G02X217827I-481D01*
G01*
G75*
G02X218789I481*
G01*
X225250Y105250D02*
X235250D01*
Y115250*
X225250*
Y105250*
X235250D02*
X245250D01*
Y115250*
X235250*
Y105250*
Y175250D02*
X225250D01*
Y165250*
X235250*
Y175250*
X245250Y105250D02*
X255250D01*
Y115250*
X245250*
Y105250*
Y175250D02*
X235250D01*
Y165250*
X245250*
Y175250*
X255250Y105250D02*
X265250D01*
Y115250*
X255250*
Y105250*
Y175250D02*
X245250D01*
Y165250*
X255250*
Y175250*
X265250Y105250D02*
X275250D01*
Y115250*
X265250*
Y105250*
Y175250D02*
X255250D01*
Y165250*
X265250*
Y175250*
X275250Y105250D02*
X285250D01*
Y115250*
X275250*
Y105250*
Y175250D02*
X265250D01*
Y165250*
X275250*
Y175250*
X285250Y115250D02*
Y105250D01*
X295250*
Y115250*
X285250*
Y175250D02*
X275250D01*
Y165250*
X285250*
Y175250*
X295250D02*
X285250D01*
Y165250*
X295250*
Y175250*
X305250Y115250D02*
X295250D01*
Y105250*
X305250*
Y115250*
Y175250D02*
X295250D01*
Y165250*
X305250*
Y175250*
X435250Y120250D02*
Y110250D01*
X445250*
Y120250*
X435250*
X445250D02*
Y110250D01*
X455250*
Y120250*
X445250*
X455250D02*
Y110250D01*
X465250*
Y120250*
X455250*
X465250D02*
Y110250D01*
X475250*
Y120250*
X465250*
X475250D02*
Y110250D01*
X485250*
Y120250*
X475250*
X495250Y110250D02*
Y120250D01*
X485250*
Y110250*
X495250*
D02*
D21*
X93653Y130072D02*
Y131947D01*
X94746*
X95059Y131791*
X95215Y131478*
X95059Y131166*
X94746Y131009*
X93653*
X94746D02*
X95215Y130072D01*
X96309Y130228D02*
X96622Y130072D01*
X96934*
X97246Y130228*
X97403Y130541*
X97246Y130853*
X96934Y131009*
X96622*
X96934D02*
X97246Y131166D01*
X97403Y131478*
X97246Y131791*
X96934Y131947*
X96622*
X96309Y131791*
X98653Y130228D02*
X98965Y130072D01*
X99434*
X99746Y130228*
X99903Y130541*
Y130697*
X99746Y131009*
X99434Y131166*
X98653*
Y131947*
X99903*
X93653Y150072D02*
Y151947D01*
X94746*
X95059Y151791*
X95215Y151478*
X95059Y151166*
X94746Y151009*
X93653*
X94746D02*
X95215Y150072D01*
X96309Y150228D02*
X96622Y150072D01*
X96934*
X97246Y150228*
X97403Y150541*
X97246Y150853*
X96934Y151009*
X96622*
X96934D02*
X97246Y151166D01*
X97403Y151478*
X97246Y151791*
X96934Y151947*
X96622*
X96309Y151791*
X99434Y150072D02*
Y151947D01*
X98653Y150697*
X99903*
X258653Y130072D02*
Y131947D01*
X259746*
X260059Y131791*
X260215Y131478*
X260059Y131166*
X259746Y131009*
X258653*
X259746D02*
X260215Y130072D01*
X261309Y130228D02*
X261622Y130072D01*
X261934*
X262246Y130228*
X262403Y130541*
X262246Y130853*
X261934Y131009*
X261622*
X261934D02*
X262246Y131166D01*
X262403Y131478*
X262246Y131791*
X261934Y131947*
X261622*
X261309Y131791*
X263653Y130541D02*
X263809Y130853D01*
X264122Y131009*
X264434*
X264746Y130853*
X264903Y130541*
X264746Y130228*
X264434Y130072*
X264122*
X263809Y130228*
X263653Y130541*
Y131009*
X263809Y131478*
X264122Y131791*
X264434Y131947*
X258653Y150072D02*
Y151947D01*
X259746*
X260059Y151791*
X260215Y151478*
X260059Y151166*
X259746Y151009*
X258653*
X259746D02*
X260215Y150072D01*
X261309Y150228D02*
X261622Y150072D01*
X261934*
X262246Y150228*
X262403Y150541*
X262246Y150853*
X261934Y151009*
X261622*
X261934D02*
X262246Y151166D01*
X262403Y151478*
X262246Y151791*
X261934Y151947*
X261622*
X261309Y151791*
X263809Y150228D02*
X264122Y150072D01*
X264434*
X264746Y150228*
X264903Y150541*
X264746Y150853*
X264434Y151009*
X264122*
X264434D02*
X264746Y151166D01*
X264903Y151478*
X264746Y151791*
X264434Y151947*
X264122*
X263809Y151791*
X0Y0D02*
M02*
