G04 EasyPC Gerber Version 20.0.2 Build 4112 *
G04 #@! TF.Part,Single*
G04 #@! TF.FileFunction,Legend,Top *
%FSLAX35Y35*%
%MOIN*%
%ADD21C,0.00100*%
%ADD13C,0.00300*%
%ADD11C,0.00500*%
%ADD12C,0.00600*%
%ADD76C,0.00787*%
%ADD14C,0.01000*%
X0Y0D02*
D02*
D11*
X40250Y250D02*
X60250D01*
Y30250*
X40250*
Y250*
Y250289D02*
X60250D01*
Y280289*
X40250*
Y250289*
X52750Y147750D02*
Y125250D01*
X62750*
Y147750*
X52750*
X60250Y250D02*
X80250D01*
Y30250*
X60250*
Y250*
Y250289D02*
X80250D01*
Y280289*
X60250*
Y250289*
X62750Y147750D02*
Y125250D01*
X72750*
Y147750*
X62750*
X80250Y250D02*
X100250D01*
Y30250*
X80250*
Y250*
Y250289D02*
X100250D01*
Y280289*
X80250*
Y250289*
X100250Y250D02*
X120250D01*
Y30250*
X100250*
Y250*
Y250289D02*
X120250D01*
Y280289*
X100250*
Y250289*
X120250Y250D02*
X140250D01*
Y30250*
X120250*
Y250*
Y250289D02*
X140250D01*
Y280289*
X120250*
Y250289*
X140250Y250D02*
X160250D01*
Y30250*
X140250*
Y250*
Y250289D02*
X160250D01*
Y280289*
X140250*
Y250289*
X160250Y250D02*
X180250D01*
Y30250*
X160250*
Y250*
Y250289D02*
X180250D01*
Y280289*
X160250*
Y250289*
X180250Y250D02*
X200250D01*
Y30250*
X180250*
Y250*
Y250289D02*
X200250D01*
Y280289*
X180250*
Y250289*
X185250Y195187D02*
Y198937D01*
X187125*
X187750Y198625*
X188063Y198313*
X188375Y197687*
Y196437*
X188063Y195813*
X187750Y195500*
X187125Y195187*
X185250*
X191187D02*
X192437D01*
X191813D02*
Y198937D01*
X191187D02*
X192437D01*
X195250Y195187D02*
Y198937D01*
X197437*
X198063Y198625*
X198375Y198000*
X198063Y197375*
X197437Y197063*
X195250*
X200875Y195187D02*
X202125D01*
X201500D02*
Y198937D01*
X200875Y198313*
X207750Y52750D02*
Y62750D01*
X222750*
Y52750*
X207750*
Y57750D02*
X195250D01*
X208250Y77750D02*
X195750D01*
X212250Y65187D02*
Y68937D01*
X214125*
X214750Y68625*
X215063Y68313*
X215375Y67687*
Y66437*
X215063Y65813*
X214750Y65500*
X214125Y65187*
X212250*
X217875D02*
X219125D01*
X218500D02*
Y68937D01*
X217875Y68313*
X212250Y85187D02*
Y88937D01*
X214125*
X214750Y88625*
X215063Y88313*
X215375Y87687*
Y86437*
X215063Y85813*
X214750Y85500*
X214125Y85187*
X212250*
X219750D02*
X217250D01*
X219437Y87375*
X219750Y88000*
X219437Y88625*
X218813Y88937*
X217875*
X217250Y88625*
X212750Y250D02*
X232750D01*
Y30250*
X212750*
Y250*
Y250250D02*
X232750D01*
Y280250*
X212750*
Y250250*
X217533Y176612D02*
X165250D01*
Y221494*
X217533*
Y176612*
X222750Y57750D02*
X235250D01*
X223250Y77750D02*
X235750D01*
X223250Y82750D02*
Y72750D01*
X208250*
Y82750*
X223250*
X229187Y207250D02*
X232937D01*
Y205063*
X232625Y204437*
X232000Y204125*
X231375Y204437*
X231063Y205063*
Y207250*
Y205063D02*
X229187Y204125D01*
Y201625D02*
Y200375D01*
Y201000D02*
X232937D01*
X232313Y201625*
X231250Y173250D02*
X180250D01*
Y163250*
X231250*
Y166750*
X230250*
Y169250*
X231250*
Y173250*
X232750Y250D02*
X252750D01*
Y30250*
X232750*
Y250*
Y250250D02*
X252750D01*
Y280250*
X232750*
Y250250*
X237750Y166687D02*
Y170437D01*
X239937*
X240563Y170125*
X240875Y169500*
X240563Y168875*
X239937Y168563*
X237750*
X239937D02*
X240875Y166687D01*
X245250D02*
X242750D01*
X244937Y168875*
X245250Y169500*
X244937Y170125*
X244313Y170437*
X243375*
X242750Y170125*
X240250Y190250D02*
Y195250D01*
Y215250D02*
Y220250D01*
X245250Y195250D02*
X235250D01*
Y215250*
X245250*
Y195250*
X254250Y134813D02*
X254563Y134500D01*
X255187Y134187*
X255813Y134500*
X256125Y134813*
Y137937*
X256750*
X256125D02*
X254875D01*
X259875Y134187D02*
X261125D01*
X260500D02*
Y137937D01*
X259875Y137313*
X264937Y235250D02*
X261187D01*
Y232125*
Y230250D02*
X264937D01*
Y227125*
X263063Y227750D02*
Y230250D01*
X261187D02*
Y227125D01*
Y225250D02*
X264937D01*
Y223375*
X264625Y222750*
X264313Y222437*
X263687Y222125*
X262437*
X261813Y222437*
X261500Y222750*
X261187Y223375*
Y225250*
Y219625D02*
Y218375D01*
Y219000D02*
X264937D01*
X264313Y219625*
X288750Y227750D02*
G75*
G03X277750Y238750I-11000D01*
G01*
G75*
G03X266750Y227750J-11000*
G01*
G75*
G03X271050Y217450I14583J41*
G01*
X284450*
G75*
G03X288750Y227750I-10283J10341*
G01*
D02*
D12*
X56057Y71250D02*
X51450D01*
Y99250*
X56057*
X56450Y196550D02*
G75*
G03Y198950J1200D01*
G01*
X61057Y211750D02*
X56450D01*
Y183750*
X60940*
X64443Y71250D02*
X66057D01*
Y99250D02*
X64443D01*
X69560Y183750D02*
X71057D01*
Y211750D02*
X69443D01*
X74443Y71250D02*
X76057D01*
Y99250D02*
X74443D01*
X77750Y139750D02*
G75*
G03Y142150J1200D01*
G01*
Y155700D02*
Y126200D01*
X79443Y183750D02*
X81057D01*
Y211750D02*
X79443D01*
X84443Y71250D02*
X86057D01*
Y99250D02*
X84443D01*
X87010Y126200D02*
X88497D01*
Y155700D02*
X87003D01*
X89443Y183750D02*
X91057D01*
Y211750D02*
X89443D01*
X94443Y71250D02*
X96057D01*
Y99250D02*
X94443D01*
X97003Y126200D02*
X98497D01*
Y155700D02*
X97003D01*
X99443Y183750D02*
X101057D01*
Y211750D02*
X99443D01*
X104443Y71250D02*
X106057D01*
Y99250D02*
X104443D01*
X107003Y126200D02*
X108497D01*
Y155700D02*
X107003D01*
X109443Y183750D02*
X111057D01*
Y211750D02*
X109443D01*
X114443Y71250D02*
X116057D01*
Y99250D02*
X114443D01*
X117003Y126200D02*
X118497D01*
Y155700D02*
X117003D01*
X119443Y183750D02*
X121057D01*
Y211750D02*
X119443D01*
X124443Y71250D02*
X126057D01*
Y99250D02*
X124443D01*
X127003Y126200D02*
X128497D01*
Y155700D02*
X127003D01*
X129443Y183750D02*
X131057D01*
Y211750D02*
X129443D01*
X134443Y71250D02*
X136057D01*
X135940Y99250D02*
X134443D01*
X137003Y126200D02*
X138497D01*
Y155700D02*
X137003D01*
X139443Y183750D02*
X141057D01*
Y211750D02*
X139443D01*
X144443Y71250D02*
X149050D01*
Y99250*
X144560*
X147003Y126200D02*
X148497D01*
Y155700D02*
X147003D01*
X149050Y86450D02*
G75*
G03Y84050J-1200D01*
G01*
X149443Y211750D02*
X154050D01*
Y183750*
X149443*
X157003Y126200D02*
X158497D01*
Y155700D02*
X157003D01*
X167003Y126200D02*
X168497D01*
Y155700D02*
X167003D01*
X177003Y126200D02*
X178497D01*
Y155700D02*
X177003D01*
X187003Y126200D02*
X188497D01*
Y155700D02*
X187003D01*
X197003Y126200D02*
X198497D01*
Y155700D02*
X197003D01*
X207003Y126200D02*
X208497D01*
Y155700D02*
X207003D01*
X217750Y126200D02*
Y155700D01*
D02*
D13*
X56813Y154625D02*
X56500Y154937D01*
X56187Y155563*
Y156500*
X56500Y157125*
X56813Y157437*
X57437Y157750*
X58687*
X59313Y157437*
X59625Y157125*
X59937Y156500*
Y155563*
X59625Y154937*
X59313Y154625*
X56187Y152125D02*
Y150875D01*
Y151500D02*
X59937D01*
X59313Y152125*
X59563Y180250D02*
Y182750D01*
X60813Y180875D02*
X58313Y182125D01*
Y180875D02*
X60813Y182125D01*
X66813Y154625D02*
X66500Y154937D01*
X66187Y155563*
Y156500*
X66500Y157125*
X66813Y157437*
X67437Y157750*
X68687*
X69313Y157437*
X69625Y157125*
X69937Y156500*
Y155563*
X69625Y154937*
X69313Y154625*
X66187Y150250D02*
Y152750D01*
X68375Y150563*
X69000Y150250*
X69625Y150563*
X69937Y151187*
Y152125*
X69625Y152750*
X77113Y123450D02*
Y125950D01*
X78363Y124075D02*
X75863Y125325D01*
Y124075D02*
X78363Y125325D01*
X95250Y87437D02*
Y84625D01*
X95563Y84000*
X96187Y83687*
X97437*
X98063Y84000*
X98375Y84625*
Y87437*
X100250D02*
Y83687D01*
X103375*
X105250D02*
Y87437D01*
X108375Y83687*
Y87437*
X112750Y83687D02*
X110250D01*
X112437Y85875*
X112750Y86500*
X112437Y87125*
X111813Y87437*
X110875*
X110250Y87125*
X97750Y199937D02*
Y197125D01*
X98063Y196500*
X98687Y196187*
X99937*
X100563Y196500*
X100875Y197125*
Y199937*
X102750D02*
Y196187D01*
X105875*
X107750D02*
Y199937D01*
X110875Y196187*
Y199937*
X113375Y196187D02*
X114625D01*
X114000D02*
Y199937D01*
X113375Y199313*
X140250Y141187D02*
Y144937D01*
X141813Y143063*
X143375Y144937*
Y141187*
X148375Y141813D02*
X148063Y141500D01*
X147437Y141187*
X146500*
X145875Y141500*
X145563Y141813*
X145250Y142437*
Y143687*
X145563Y144313*
X145875Y144625*
X146500Y144937*
X147437*
X148063Y144625*
X148375Y144313*
X150250Y141187D02*
Y144937D01*
X152437*
X153063Y144625*
X153375Y144000*
X153063Y143375*
X152437Y143063*
X150250*
X155875Y141187D02*
X157125D01*
X156500D02*
Y144937D01*
X155875Y144313*
X145937Y102750D02*
Y100250D01*
X144687Y102125D02*
X147187Y100875D01*
Y102125D02*
X144687Y100875D01*
D02*
D14*
X211750Y73050D02*
Y82450D01*
X219250Y62450D02*
Y53050D01*
D02*
D21*
X51726Y41726D02*
X52711Y42219D01*
X53695Y43203*
X54187Y44679*
Y46156*
X53695Y47140*
X52711Y47632*
X51726*
X50742Y47140*
X50250Y46156*
X50742Y45171*
X51726Y44679*
X52711*
X53695Y45171*
X54187Y46156*
X51726Y239679D02*
X52711D01*
X53695Y240171*
X54187Y241156*
X53695Y242140*
X52711Y242632*
X51726*
X50742Y242140*
X50250Y241156*
X50742Y240171*
X51726Y239679*
X50742Y239187*
X50250Y238203*
X50742Y237219*
X51726Y236726*
X52711*
X53695Y237219*
X54187Y238203*
X53695Y239187*
X52711Y239679*
X61234Y41726D02*
X63203D01*
X62219D02*
Y47632D01*
X61234Y46648*
X68616Y42219D02*
X69600Y41726D01*
X70585*
X71569Y42219*
X72061Y43203*
Y46156*
X71569Y47140*
X70585Y47632*
X69600*
X68616Y47140*
X68124Y46156*
Y43203*
X68616Y42219*
X71569Y47140*
X70250Y236726D02*
X74187Y242632D01*
X70250*
X81234Y41726D02*
X83203D01*
X82219D02*
Y47632D01*
X81234Y46648*
X89108Y41726D02*
X91077D01*
X90093D02*
Y47632D01*
X89108Y46648*
X90250Y238203D02*
X90742Y239187D01*
X91726Y239679*
X92711*
X93695Y239187*
X94187Y238203*
X93695Y237219*
X92711Y236726*
X91726*
X90742Y237219*
X90250Y238203*
Y239679*
X90742Y241156*
X91726Y242140*
X92711Y242632*
X101234Y41726D02*
X103203D01*
X102219D02*
Y47632D01*
X101234Y46648*
X112061Y41726D02*
X108124D01*
X111569Y45171*
X112061Y46156*
X111569Y47140*
X110585Y47632*
X109108*
X108124Y47140*
X110250Y237219D02*
X111234Y236726D01*
X112711*
X113695Y237219*
X114187Y238203*
Y238695*
X113695Y239679*
X112711Y240171*
X110250*
Y242632*
X114187*
X121234Y41726D02*
X123203D01*
X122219D02*
Y47632D01*
X121234Y46648*
X128616Y42219D02*
X129600Y41726D01*
X130585*
X131569Y42219*
X132061Y43203*
X131569Y44187*
X130585Y44679*
X129600*
X130585D02*
X131569Y45171D01*
X132061Y46156*
X131569Y47140*
X130585Y47632*
X129600*
X128616Y47140*
X132711Y236726D02*
Y242632D01*
X130250Y238695*
X134187*
X141234Y41726D02*
X143203D01*
X142219D02*
Y47632D01*
X141234Y46648*
X150585Y41726D02*
Y47632D01*
X148124Y43695*
X152061*
X150742Y237219D02*
X151726Y236726D01*
X152711*
X153695Y237219*
X154187Y238203*
X153695Y239187*
X152711Y239679*
X151726*
X152711D02*
X153695Y240171D01*
X154187Y241156*
X153695Y242140*
X152711Y242632*
X151726*
X150742Y242140*
X161234Y41726D02*
X163203D01*
X162219D02*
Y47632D01*
X161234Y46648*
X168124Y42219D02*
X169108Y41726D01*
X170585*
X171569Y42219*
X172061Y43203*
Y43695*
X171569Y44679*
X170585Y45171*
X168124*
Y47632*
X172061*
X174187Y236726D02*
X170250D01*
X173695Y240171*
X174187Y241156*
X173695Y242140*
X172711Y242632*
X171234*
X170250Y242140*
X181234Y41726D02*
X183203D01*
X182219D02*
Y47632D01*
X181234Y46648*
X188124Y43203D02*
X188616Y44187D01*
X189600Y44679*
X190585*
X191569Y44187*
X192061Y43203*
X191569Y42219*
X190585Y41726*
X189600*
X188616Y42219*
X188124Y43203*
Y44679*
X188616Y46156*
X189600Y47140*
X190585Y47632*
X191234Y236726D02*
X193203D01*
X192219D02*
Y242632D01*
X191234Y241648*
X219750Y44695D02*
X223687D01*
X221719Y42726D02*
Y46663D01*
X220250Y238695D02*
X224187D01*
X222219Y236726D02*
Y240663D01*
X228488Y43488D02*
X229472D01*
X228980D02*
Y46441D01*
X228488D02*
X229472D01*
X231687Y43488D02*
Y46441D01*
X234148Y43488*
Y46441*
X239750Y44695D02*
X243687D01*
X240250Y238695D02*
X244187D01*
X242219Y236726D02*
Y240663D01*
D02*
D76*
X250250Y120250D02*
Y159423D01*
X232750*
Y110604*
X242750*
X0Y0D02*
M02*
