G04 EasyPC Gerber Version 20.0.2 Build 4112 *
G04 #@! TF.Part,Single*
%FSLAX35Y35*%
%MOIN*%
%ADD127C,0.00197*%
%ADD11C,0.00500*%
X0Y0D02*
D02*
D11*
X70256Y87750D02*
X60256D01*
Y97750*
X70256*
Y87750*
Y97750D02*
X60256D01*
Y107750*
X70256*
Y97750*
X80256Y87750D02*
X70256D01*
Y97750*
X80256*
Y87750*
Y97750D02*
X70256D01*
Y107750*
X80256*
Y97750*
X90256Y87750D02*
X80256D01*
Y97750*
X90256*
Y87750*
Y97750D02*
X80256D01*
Y107750*
X90256*
Y97750*
X100256Y87750D02*
X90256D01*
Y97750*
X100256*
Y87750*
Y97750D02*
X90256D01*
Y107750*
X100256*
Y97750*
X110256Y87750D02*
X100256D01*
Y97750*
X110256*
Y87750*
Y97750D02*
X100256D01*
Y107750*
X110256*
Y97750*
X120256Y87750D02*
X110256D01*
Y97750*
X120256*
Y87750*
Y107750D02*
Y97750D01*
X110256*
Y107750*
X120256*
X130256Y87750D02*
X120256D01*
Y97750*
X130256*
Y87750*
Y107750D02*
Y97750D01*
X120256*
Y107750*
X130256*
X140256Y87750D02*
X130256D01*
Y97750*
X140256*
Y87750*
Y107750D02*
Y97750D01*
X130256*
Y107750*
X140256*
X147756Y250D02*
X167756D01*
Y30250*
X147756*
Y250*
X150256Y87750D02*
X140256D01*
Y97750*
X150256*
Y87750*
Y107750D02*
Y97750D01*
X140256*
Y107750*
X150256*
X160256Y87750D02*
X150256D01*
Y97750*
X160256*
Y87750*
Y97750D02*
X150256D01*
Y107750*
X160256*
Y97750*
X167756Y250D02*
X187756D01*
Y30250*
X167756*
Y250*
X170256Y87750D02*
X160256D01*
Y97750*
X170256*
Y87750*
Y97750D02*
X160256D01*
Y107750*
X170256*
Y97750*
X180256D02*
Y87750D01*
X170256*
Y97750*
X180256*
X170256*
Y107750*
X180256*
Y97750*
X187756Y250D02*
X207756D01*
Y30250*
X187756*
Y250*
X190256Y97750D02*
Y87750D01*
X180256*
Y97750*
X190256*
Y107750D02*
Y97750D01*
X180256*
Y107750*
X190256*
X200256Y97750D02*
Y87750D01*
X190256*
Y97750*
X200256*
X190256*
Y107750*
X200256*
Y97750*
X207756Y250D02*
X227756D01*
Y30250*
X207756*
Y250*
X210256Y87750D02*
X200256D01*
Y97750*
X210256*
Y87750*
Y97750D02*
X200256D01*
Y107750*
X210256*
Y97750*
X220256Y87750D02*
X210256D01*
Y97750*
X220256*
Y87750*
Y97750D02*
X210256D01*
Y107750*
X220256*
Y97750*
X230256Y87750D02*
X220256D01*
Y97750*
X230256*
Y87750*
Y97750D02*
X220256D01*
Y107750*
X230256*
Y97750*
X240256Y87750D02*
X230256D01*
Y97750*
X240256*
Y87750*
Y97750D02*
X230256D01*
Y107750*
X240256*
Y97750*
Y127750D02*
X230256D01*
Y137750*
X240256*
Y127750*
Y137750D02*
X230256D01*
Y147750*
X240256*
Y137750*
Y147750D02*
X230256D01*
Y157750*
X240256*
Y147750*
Y157750D02*
X230256D01*
Y167750*
X240256*
Y157750*
D02*
D127*
X50886Y46750D02*
Y26250D01*
X98*
Y46750*
X50886*
Y91750D02*
Y71250D01*
X98*
Y91750*
X50886*
Y136750D02*
Y116250D01*
X98*
Y136750*
X50886*
Y181750D02*
Y161250D01*
X98*
Y181750*
X50886*
X249626Y23750D02*
Y44250D01*
X300413*
Y23750*
X249626*
Y68750D02*
Y89250D01*
X300413*
Y68750*
X249626*
Y113750D02*
Y134250D01*
X300413*
Y113750*
X249626*
Y158750D02*
Y179250D01*
X300413*
Y158750*
X249626*
X0Y0D02*
M02*
