G04 EasyPC Gerber Version 20.0.2 Build 4112 *
G04 #@! TF.Part,Single*
G04 #@! TF.FileFunction,Copper,L2,Bot *
%FSLAX35Y35*%
%MOIN*%
G04 #@! TA.AperFunction,SMDPad*
%ADD113R,0.15748X0.19685*%
G04 #@! TA.AperFunction,ComponentPad*
%ADD102R,0.05400X0.05400*%
%ADD108R,0.07874X0.07874*%
%ADD105R,0.08000X0.08000*%
G04 #@! TD.AperFunction*
%ADD112C,0.03937*%
%ADD89C,0.04800*%
G04 #@! TA.AperFunction,ComponentPad*
%ADD103C,0.05400*%
G04 #@! TD.AperFunction*
%ADD22C,0.06000*%
G04 #@! TA.AperFunction,ComponentPad*
%ADD107C,0.07874*%
%ADD106C,0.08000*%
%ADD101C,0.09843*%
G04 #@! TA.AperFunction,WasherPad*
%ADD100C,0.12205*%
G04 #@! TA.AperFunction,ComponentPad*
%ADD110C,0.12992*%
G04 #@! TD.AperFunction*
%ADD115C,0.15748*%
G04 #@! TA.AperFunction,SMDPad*
%ADD114R,0.08000X0.06000*%
X0Y0D02*
D02*
D22*
X150256Y127750D03*
Y167750D03*
X160256Y127750D03*
Y167750D03*
X175256Y140250D03*
Y180250D03*
X242756Y10250D03*
Y50250D03*
D02*
D89*
X135256Y117750D03*
X175256D03*
D02*
D100*
X235256D03*
D02*
D101*
X78169Y28695D03*
Y62159D03*
X135256Y28695D03*
Y62159D03*
D02*
D102*
X62756Y52750D03*
X132756Y147750D03*
D02*
D103*
X62756Y40250D03*
X132756Y160250D03*
D02*
D105*
X40256Y37750D03*
Y82750D03*
Y127750D03*
Y172750D03*
X260256Y32750D03*
Y77750D03*
Y122750D03*
Y167750D03*
D02*
D106*
X10728Y37750D03*
Y82750D03*
Y127750D03*
Y172750D03*
X20571Y37750D03*
Y82750D03*
Y127750D03*
Y172750D03*
X30413Y37750D03*
Y82750D03*
Y127750D03*
Y172750D03*
X270098Y32750D03*
Y77750D03*
Y122750D03*
Y167750D03*
X279941Y32750D03*
Y77750D03*
Y122750D03*
Y167750D03*
X289783Y32750D03*
Y77750D03*
Y122750D03*
Y167750D03*
D02*
D107*
X75222Y127750D03*
Y157750D03*
X75256Y172750D03*
X85222Y127750D03*
Y157750D03*
X85256Y172750D03*
X95222Y127750D03*
Y157750D03*
X95256Y172750D03*
X105222Y127750D03*
Y157750D03*
X105256Y172750D03*
D02*
D108*
X65256D03*
D02*
D110*
X152717Y60250D03*
X152756Y42750D03*
X217756Y60250D03*
X217795Y42750D03*
D02*
D112*
X10728Y82750D02*
Y37750D01*
Y127750D02*
Y82750D01*
Y172750D02*
Y175722D01*
X15256Y180250*
X175256*
X10728Y172750D02*
Y127750D01*
X20571Y37750D02*
X20256D01*
Y15250*
X25256Y10250*
X97756*
X102756Y15250*
Y67750*
X107756Y72750*
X227756*
X232756Y67750*
Y15250*
X237756Y10250*
X242756*
X20571Y82750D02*
Y37750D01*
Y127750D02*
Y82750D01*
Y172750D02*
Y127750D01*
X30413Y37750D02*
X30256D01*
Y21866*
X34372Y17750*
X85256*
X90256Y22750*
Y62750*
X30413Y82750D02*
Y37750D01*
Y127750D02*
Y82750D01*
Y172750D02*
Y127750D01*
X40256Y37750D02*
Y30250D01*
X41756Y28750*
X62756*
X40256Y82750D02*
Y37750D01*
Y127750D02*
Y82750D01*
Y172750D02*
X55256D01*
X40256D02*
Y127750D01*
X55256Y172750D02*
X57024D01*
X55256Y170982*
Y152750*
X60256Y147750*
X112756*
X117756Y152750*
Y167750*
X122756Y172750*
X132756*
X55256D02*
X65256D01*
X62756Y28750D02*
X78169Y28695D01*
X62756Y28750D02*
Y40250D01*
X75256Y172750D02*
X75222Y157750D01*
X78169Y62159D02*
Y62750D01*
X67165*
X62756Y58341*
Y52750*
X78169Y62159D02*
Y62750D01*
X90256*
X78169Y80250D02*
X90256D01*
X85256Y172750D02*
X85222Y157750D01*
X90256Y62750D02*
Y80250D01*
X95256Y172750D02*
X95222Y157750D01*
X105256Y172750D02*
X105222Y157750D01*
X132756Y137750D02*
X55256D01*
X50256Y132750*
Y85250*
X55256Y80250*
X78169*
X132756Y147750D02*
Y137750D01*
Y160250D02*
Y172750D01*
X150256*
X135256Y28695D02*
Y37750D01*
X140256Y42750*
X152756*
X135256Y62159D02*
Y60250D01*
X152717*
X135256Y117750D02*
Y127750*
X150256D01*
Y167750D02*
Y172750D01*
X162756*
X160256Y127750D02*
X175256D01*
X160256Y167750D02*
Y172750D01*
X162756*
X257756*
X260256Y170250*
Y167750*
X175256Y117750D02*
Y140250*
X147756D01*
X145256Y137750*
X132756*
X175256Y180250D02*
X285256D01*
X289783Y175722*
Y167750*
X217756Y60250D02*
X182756D01*
X177756Y55250*
Y15250*
X217795Y42750D02*
X217756Y15250D01*
X242756Y10250D02*
X275256D01*
X280256Y15250*
Y32750*
X279941*
X242756Y50250D02*
Y75250D01*
X237756Y80250*
X90256*
X260256Y77750D02*
Y32750D01*
Y122750D02*
Y77750D01*
Y167750D02*
Y122750D01*
X270098Y32750D02*
X270256D01*
Y24366*
X266140Y20250*
X247756*
X242756Y25250*
Y50250*
X270098Y77750D02*
Y32750D01*
Y122750D02*
Y77750D01*
Y167750D02*
Y122750D01*
X279941Y77750D02*
Y32750D01*
Y122750D02*
Y77750D01*
Y167750D02*
Y122750D01*
X289783Y77750D02*
Y32750D01*
Y122750D02*
Y77750D01*
Y167750D02*
Y122750D01*
D02*
D113*
X157756Y15250D03*
X177756D03*
X197756D03*
X217756D03*
D02*
D114*
X135256Y117750D03*
Y127750D03*
X175256Y117750D03*
Y127750D03*
D02*
D115*
X157756Y15250D02*
X177756D01*
X197756D02*
X217756D01*
X0Y0D02*
M02*
