G04 EasyPC Gerber Version 20.0.2 Build 4112 *
G04 #@! TF.Part,Single*
G04 #@! TF.FileFunction,Legend,Top *
%FSLAX35Y35*%
%MOIN*%
%ADD13C,0.00300*%
%ADD11C,0.00500*%
%ADD12C,0.00600*%
%ADD76C,0.00787*%
X0Y0D02*
D02*
D11*
X39935Y218459D02*
X565D01*
Y53104*
X39935*
Y218459*
X246500Y257868D02*
X241500D01*
X266500Y262868D02*
Y252868D01*
X246500*
Y262868*
X266500*
X270250Y182868D02*
X220250D01*
Y172868*
X270250*
Y182868*
X271500Y257868D02*
X266500D01*
X274138Y245152D02*
Y192868D01*
X229256*
Y245152*
X274138*
X286700Y235947D02*
G75*
G03X297700Y224947I11000D01*
G01*
G75*
G03X308700Y235947J11000*
G01*
G75*
G03X304400Y246247I-14583J-41*
G01*
X291000*
G75*
G03X286700Y235947I10283J-10341*
G01*
X317435Y218459D02*
X278065D01*
Y53104*
X317435*
Y218459*
D02*
D12*
X48400Y224368D02*
Y196368D01*
X55900Y69168D02*
G75*
G03Y71568J1200D01*
G01*
Y84368D02*
Y56368D01*
X56943Y196368D02*
X58557D01*
Y224368D02*
X56943D01*
X64560Y56368D02*
X66057D01*
Y84368D02*
X64443D01*
X66943Y196368D02*
X68557D01*
Y224368D02*
X66943D01*
X74443Y56368D02*
X76057D01*
Y84368D02*
X74443D01*
X76943Y196368D02*
X78557D01*
Y224368D02*
X76943D01*
X84443Y56368D02*
X86057D01*
Y84368D02*
X84443D01*
X86943Y196368D02*
X88557D01*
Y224368D02*
X86943D01*
X94443Y56368D02*
X96057D01*
Y84368D02*
X94443D01*
X96943Y196368D02*
X98557D01*
Y224368D02*
X96943D01*
X104443Y56368D02*
X106057D01*
Y84368D02*
X104443D01*
X106943Y196368D02*
X108557D01*
Y224368D02*
X106943D01*
X110250Y139868D02*
G75*
G03Y142268J1200D01*
G01*
Y155818D02*
Y126318D01*
X114443Y56368D02*
X116057D01*
Y84368D02*
X114443D01*
X116943Y196368D02*
X118557D01*
X118440Y224368D02*
X116943D01*
X119510Y126318D02*
X120997D01*
Y155818D02*
X119503D01*
X124443Y56368D02*
X126057D01*
Y84368D02*
X124443D01*
X127100Y196368D02*
Y224368D01*
Y211568D02*
G75*
G03Y209168J-1200D01*
G01*
X129503Y126318D02*
X130997D01*
Y155818D02*
X129503D01*
X134600Y56368D02*
Y84368D01*
X138400Y224368D02*
Y196368D01*
X139503Y126318D02*
X140997D01*
Y155818D02*
X139503D01*
X145900Y69168D02*
G75*
G03Y71568J1200D01*
G01*
Y84368D02*
Y56368D01*
X146943Y196368D02*
X148557D01*
Y224368D02*
X146943D01*
X149503Y126318D02*
X150997D01*
Y155818D02*
X149503D01*
X154560Y56368D02*
X156057D01*
Y84368D02*
X154443D01*
X156943Y196368D02*
X158557D01*
Y224368D02*
X156943D01*
X159503Y126318D02*
X160997D01*
Y155818D02*
X159503D01*
X164443Y56368D02*
X166057D01*
Y84368D02*
X164443D01*
X166943Y196368D02*
X168557D01*
Y224368D02*
X166943D01*
X169503Y126318D02*
X170997D01*
Y155818D02*
X169503D01*
X174443Y56368D02*
X176057D01*
Y84368D02*
X174443D01*
X176943Y196368D02*
X178557D01*
Y224368D02*
X176943D01*
X179503Y126318D02*
X180997D01*
Y155818D02*
X179503D01*
X184443Y56368D02*
X186057D01*
Y84368D02*
X184443D01*
X186943Y196368D02*
X188557D01*
Y224368D02*
X186943D01*
X189503Y126318D02*
X190997D01*
Y155818D02*
X189503D01*
X194443Y56368D02*
X196057D01*
Y84368D02*
X194443D01*
X196943Y196368D02*
X198557D01*
Y224368D02*
X196943D01*
X199503Y126318D02*
X200997D01*
Y155818D02*
X199503D01*
X204443Y56368D02*
X206057D01*
Y84368D02*
X204443D01*
X206943Y196368D02*
X208557D01*
X208440Y224368D02*
X206943D01*
X209503Y126318D02*
X210997D01*
Y155818D02*
X209503D01*
X214443Y56368D02*
X216057D01*
Y84368D02*
X214443D01*
X217100Y196368D02*
Y224368D01*
Y211568D02*
G75*
G03Y209168J-1200D01*
G01*
X219503Y126318D02*
X220997D01*
Y155818D02*
X219503D01*
X224600Y56368D02*
Y84368D01*
X229503Y126318D02*
X230997D01*
Y155818D02*
X229503D01*
X239503Y126318D02*
X240997D01*
Y155818D02*
X239503D01*
X250250Y126318D02*
Y155818D01*
D02*
D13*
X54563Y52868D02*
Y55368D01*
X55813Y53493D02*
X53313Y54743D01*
Y53493D02*
X55813Y54743D01*
X109613Y123568D02*
Y126068D01*
X110863Y124193D02*
X108363Y125443D01*
Y124193D02*
X110863Y125443D01*
X128437Y227868D02*
Y225368D01*
X127187Y227243D02*
X129687Y225993D01*
Y227243D02*
X127187Y225993D01*
X144563Y52868D02*
Y55368D01*
X145813Y53493D02*
X143313Y54743D01*
Y53493D02*
X145813Y54743D01*
X218437Y227868D02*
Y225368D01*
X217187Y227243D02*
X219687Y225993D01*
Y227243D02*
X217187Y225993D01*
D02*
D76*
X237750Y102061D02*
Y62888D01*
X255250*
Y111707*
X245250*
X0Y0D02*
M02*
