%FSLAX35Y35*%
%MOIN*%
G04 EasyPC Gerber Version 18.0.8 Build 3632 *
%ADD21C,0.00100*%
X0Y0D02*
D02*
D21*
X380719Y160719D02*
X381344D01*
X381031D02*
Y162594D01*
X380719D02*
X381344D01*
X382750Y160719D02*
Y162594D01*
X384313Y160719*
Y162594*
X385250Y160719D02*
X386813D01*
X387750Y162594D02*
X388531Y160719D01*
X389313Y162594*
X391813Y161031D02*
X391656Y160875D01*
X391344Y160719*
X390875*
X390563Y160875*
X390406Y161031*
X390250Y161344*
Y161969*
X390406Y162281*
X390563Y162437*
X390875Y162594*
X391344*
X391656Y162437*
X391813Y162281*
X394313Y161031D02*
X394156Y160875D01*
X393844Y160719*
X393375*
X393063Y160875*
X392906Y161031*
X392750Y161344*
Y161969*
X392906Y162281*
X393063Y162437*
X393375Y162594*
X393844*
X394156Y162437*
X394313Y162281*
X380719Y195719D02*
X381344D01*
X381031D02*
Y197594D01*
X380719D02*
X381344D01*
X382750Y195719D02*
Y197594D01*
X384313Y195719*
Y197594*
X385250Y195719D02*
X386813D01*
X388844Y196500D02*
X389313D01*
Y196344*
X389156Y196031*
X389000Y195875*
X388687Y195719*
X388375*
X388063Y195875*
X387906Y196031*
X387750Y196344*
Y196969*
X387906Y197281*
X388063Y197437*
X388375Y197594*
X388687*
X389000Y197437*
X389156Y197281*
X389313Y196969*
X390250Y195719D02*
Y197594D01*
X391813Y195719*
Y197594*
X392750Y195719D02*
Y197594D01*
X393687*
X394000Y197437*
X394156Y197281*
X394313Y196969*
Y196344*
X394156Y196031*
X394000Y195875*
X393687Y195719*
X392750*
X412750Y161344D02*
Y161969D01*
X412906Y162281*
X413063Y162437*
X413375Y162594*
X413687*
X414000Y162437*
X414156Y162281*
X414313Y161969*
Y161344*
X414156Y161031*
X414000Y160875*
X413687Y160719*
X413375*
X413063Y160875*
X412906Y161031*
X412750Y161344*
X415250Y162594D02*
Y161187D01*
X415406Y160875*
X415719Y160719*
X416344*
X416656Y160875*
X416813Y161187*
Y162594*
X418531Y160719D02*
Y162594D01*
X417750D02*
X419313D01*
X420250Y160719D02*
X421813D01*
X422750Y162594D02*
X423531Y160719D01*
X424313Y162594*
X426813Y161031D02*
X426656Y160875D01*
X426344Y160719*
X425875*
X425563Y160875*
X425406Y161031*
X425250Y161344*
Y161969*
X425406Y162281*
X425563Y162437*
X425875Y162594*
X426344*
X426656Y162437*
X426813Y162281*
X429313Y161031D02*
X429156Y160875D01*
X428844Y160719*
X428375*
X428063Y160875*
X427906Y161031*
X427750Y161344*
Y161969*
X427906Y162281*
X428063Y162437*
X428375Y162594*
X428844*
X429156Y162437*
X429313Y162281*
X412750Y196344D02*
Y196969D01*
X412906Y197281*
X413063Y197437*
X413375Y197594*
X413687*
X414000Y197437*
X414156Y197281*
X414313Y196969*
Y196344*
X414156Y196031*
X414000Y195875*
X413687Y195719*
X413375*
X413063Y195875*
X412906Y196031*
X412750Y196344*
X415250Y197594D02*
Y196187D01*
X415406Y195875*
X415719Y195719*
X416344*
X416656Y195875*
X416813Y196187*
Y197594*
X418531Y195719D02*
Y197594D01*
X417750D02*
X419313D01*
X420250Y195719D02*
X421813D01*
X423844Y196500D02*
X424313D01*
Y196344*
X424156Y196031*
X424000Y195875*
X423687Y195719*
X423375*
X423063Y195875*
X422906Y196031*
X422750Y196344*
Y196969*
X422906Y197281*
X423063Y197437*
X423375Y197594*
X423687*
X424000Y197437*
X424156Y197281*
X424313Y196969*
X425250Y195719D02*
Y197594D01*
X426813Y195719*
Y197594*
X427750Y195719D02*
Y197594D01*
X428687*
X429000Y197437*
X429156Y197281*
X429313Y196969*
Y196344*
X429156Y196031*
X429000Y195875*
X428687Y195719*
X427750*
X0Y0D02*
M02*
