G04 EasyPC Gerber Version 20.0.2 Build 4112 *
G04 #@! TF.Part,Single*
%FSLAX35Y35*%
%MOIN*%
%ADD11C,0.00500*%
%ADD10C,0.10000*%
X0Y0D02*
D02*
D10*
X10728Y37750D03*
Y82750D03*
Y127750D03*
Y172750D03*
X20571Y37750D03*
Y82750D03*
Y127750D03*
Y172750D03*
X30413Y37750D03*
Y82750D03*
Y127750D03*
Y172750D03*
X40256Y37750D03*
Y82750D03*
Y102750D03*
Y127750D03*
Y172750D03*
X62756Y40250D03*
Y52750D03*
X65256Y92750D03*
Y102750D03*
Y172750D03*
X75222Y127750D03*
Y157750D03*
X75256Y92750D03*
Y102750D03*
Y112750D03*
Y172750D03*
X78169Y28695D03*
Y62159D03*
X85222Y127750D03*
Y157750D03*
X85256Y92750D03*
Y102750D03*
Y112750D03*
Y172750D03*
X95222Y127750D03*
Y157750D03*
X95256Y92750D03*
Y102750D03*
Y112750D03*
Y172750D03*
X105222Y127750D03*
Y157750D03*
X105256Y92750D03*
Y102750D03*
Y112750D03*
Y172750D03*
X115256Y92750D03*
Y102750D03*
X125256Y92750D03*
Y102750D03*
X132756Y147750D03*
Y160250D03*
X135256Y28695D03*
Y62159D03*
Y92750D03*
Y102750D03*
Y117750D03*
Y127750D03*
X145256Y92750D03*
Y102750D03*
X150256Y127750D03*
Y167750D03*
X152717Y60250D03*
X152756Y42750D03*
X155256Y92750D03*
Y102750D03*
Y117750D03*
X157756Y15250D03*
X160256Y127750D03*
Y167750D03*
X165256Y92750D03*
Y102750D03*
X172756Y142750D03*
Y182750D03*
X175256Y92750D03*
Y102750D03*
Y117750D03*
Y127750D03*
X177756Y15250D03*
X185256Y92750D03*
Y102750D03*
X195256Y92750D03*
Y102750D03*
Y117750D03*
X197756Y15250D03*
X205256Y92750D03*
Y102750D03*
X215256Y92750D03*
Y102750D03*
X217756Y15250D03*
Y60250D03*
X217795Y42750D03*
X225256Y92750D03*
Y102750D03*
X235256Y82750D03*
Y92750D03*
Y102750D03*
Y117750D03*
Y132750D03*
Y142750D03*
Y152750D03*
Y162750D03*
X242756Y10250D03*
Y50250D03*
X260256Y32750D03*
Y77750D03*
Y122750D03*
Y167750D03*
X270098Y32750D03*
Y77750D03*
Y122750D03*
Y167750D03*
X279941Y32750D03*
Y77750D03*
Y122750D03*
Y167750D03*
X280006Y153000D03*
X289756Y142750D03*
X289783Y32750D03*
Y77750D03*
Y122750D03*
Y167750D03*
D02*
D11*
X20728Y44937D02*
Y46187D01*
X21041Y46813*
X21354Y47125*
X21978Y47437*
X22604*
X23228Y47125*
X23541Y46813*
X23854Y46187*
Y44937*
X23541Y44313*
X23228Y44000*
X22604Y43687*
X21978*
X21354Y44000*
X21041Y44313*
X20728Y44937*
Y89937D02*
Y91187D01*
X21041Y91813*
X21354Y92125*
X21978Y92437*
X22604*
X23228Y92125*
X23541Y91813*
X23854Y91187*
Y89937*
X23541Y89313*
X23228Y89000*
X22604Y88687*
X21978*
X21354Y89000*
X21041Y89313*
X20728Y89937*
Y134937D02*
Y136187D01*
X21041Y136813*
X21354Y137125*
X21978Y137437*
X22604*
X23228Y137125*
X23541Y136813*
X23854Y136187*
Y134937*
X23541Y134313*
X23228Y134000*
X22604Y133687*
X21978*
X21354Y134000*
X21041Y134313*
X20728Y134937*
Y179937D02*
Y181187D01*
X21041Y181813*
X21354Y182125*
X21978Y182437*
X22604*
X23228Y182125*
X23541Y181813*
X23854Y181187*
Y179937*
X23541Y179313*
X23228Y179000*
X22604Y178687*
X21978*
X21354Y179000*
X21041Y179313*
X20728Y179937*
X30571Y44937D02*
Y46187D01*
X30883Y46813*
X31196Y47125*
X31821Y47437*
X32446*
X33071Y47125*
X33383Y46813*
X33696Y46187*
Y44937*
X33383Y44313*
X33071Y44000*
X32446Y43687*
X31821*
X31196Y44000*
X30883Y44313*
X30571Y44937*
Y89937D02*
Y91187D01*
X30883Y91813*
X31196Y92125*
X31821Y92437*
X32446*
X33071Y92125*
X33383Y91813*
X33696Y91187*
Y89937*
X33383Y89313*
X33071Y89000*
X32446Y88687*
X31821*
X31196Y89000*
X30883Y89313*
X30571Y89937*
Y134937D02*
Y136187D01*
X30883Y136813*
X31196Y137125*
X31821Y137437*
X32446*
X33071Y137125*
X33383Y136813*
X33696Y136187*
Y134937*
X33383Y134313*
X33071Y134000*
X32446Y133687*
X31821*
X31196Y134000*
X30883Y134313*
X30571Y134937*
Y179937D02*
Y181187D01*
X30883Y181813*
X31196Y182125*
X31821Y182437*
X32446*
X33071Y182125*
X33383Y181813*
X33696Y181187*
Y179937*
X33383Y179313*
X33071Y179000*
X32446Y178687*
X31821*
X31196Y179000*
X30883Y179313*
X30571Y179937*
X40413Y44937D02*
Y46187D01*
X40726Y46813*
X41039Y47125*
X41663Y47437*
X42289*
X42913Y47125*
X43226Y46813*
X43539Y46187*
Y44937*
X43226Y44313*
X42913Y44000*
X42289Y43687*
X41663*
X41039Y44000*
X40726Y44313*
X40413Y44937*
Y89937D02*
Y91187D01*
X40726Y91813*
X41039Y92125*
X41663Y92437*
X42289*
X42913Y92125*
X43226Y91813*
X43539Y91187*
Y89937*
X43226Y89313*
X42913Y89000*
X42289Y88687*
X41663*
X41039Y89000*
X40726Y89313*
X40413Y89937*
Y134937D02*
Y136187D01*
X40726Y136813*
X41039Y137125*
X41663Y137437*
X42289*
X42913Y137125*
X43226Y136813*
X43539Y136187*
Y134937*
X43226Y134313*
X42913Y134000*
X42289Y133687*
X41663*
X41039Y134000*
X40726Y134313*
X40413Y134937*
Y179937D02*
Y181187D01*
X40726Y181813*
X41039Y182125*
X41663Y182437*
X42289*
X42913Y182125*
X43226Y181813*
X43539Y181187*
Y179937*
X43226Y179313*
X42913Y179000*
X42289Y178687*
X41663*
X41039Y179000*
X40726Y179313*
X40413Y179937*
X50256Y44937D02*
Y46187D01*
X50569Y46813*
X50881Y47125*
X51506Y47437*
X52131*
X52756Y47125*
X53069Y46813*
X53381Y46187*
Y44937*
X53069Y44313*
X52756Y44000*
X52131Y43687*
X51506*
X50881Y44000*
X50569Y44313*
X50256Y44937*
Y89937D02*
Y91187D01*
X50569Y91813*
X50881Y92125*
X51506Y92437*
X52131*
X52756Y92125*
X53069Y91813*
X53381Y91187*
Y89937*
X53069Y89313*
X52756Y89000*
X52131Y88687*
X51506*
X50881Y89000*
X50569Y89313*
X50256Y89937*
Y108687D02*
Y112437D01*
X52443*
X53069Y112125*
X53381Y111500*
X53069Y110875*
X52443Y110563*
X50256*
X52443D02*
X53381Y108687D01*
X50256Y134937D02*
Y136187D01*
X50569Y136813*
X50881Y137125*
X51506Y137437*
X52131*
X52756Y137125*
X53069Y136813*
X53381Y136187*
Y134937*
X53069Y134313*
X52756Y134000*
X52131Y133687*
X51506*
X50881Y134000*
X50569Y134313*
X50256Y134937*
Y179937D02*
Y181187D01*
X50569Y181813*
X50881Y182125*
X51506Y182437*
X52131*
X52756Y182125*
X53069Y181813*
X53381Y181187*
Y179937*
X53069Y179313*
X52756Y179000*
X52131Y178687*
X51506*
X50881Y179000*
X50569Y179313*
X50256Y179937*
X73693Y46187D02*
X74943D01*
X74319D02*
Y49937D01*
X73693D02*
X74943D01*
X73693Y58687D02*
X74943D01*
X74319D02*
Y62437D01*
X73693D02*
X74943D01*
X75256Y98687D02*
Y102437D01*
X76819Y100563*
X78381Y102437*
Y98687*
X75256Y108687D02*
Y112437D01*
X76819Y110563*
X78381Y112437*
Y108687*
X75256Y178687D02*
Y182437D01*
X76819Y180563*
X78381Y182437*
Y178687*
X87410Y135563D02*
X88035Y135250D01*
X88348Y134625*
X88035Y134000*
X87410Y133687*
X85222*
Y137437*
X87410*
X88035Y137125*
X88348Y136500*
X88035Y135875*
X87410Y135563*
X85222*
X87410Y165563D02*
X88035Y165250D01*
X88348Y164625*
X88035Y164000*
X87410Y163687*
X85222*
Y167437*
X87410*
X88035Y167125*
X88348Y166500*
X88035Y165875*
X87410Y165563*
X85222*
X85256Y98687D02*
Y102437D01*
X86819Y100563*
X88381Y102437*
Y98687*
X85256Y108687D02*
Y112437D01*
X86819Y110563*
X88381Y112437*
Y108687*
X85256Y118687D02*
Y122437D01*
X87443*
X88069Y122125*
X88381Y121500*
X88069Y120875*
X87443Y120563*
X85256*
X87443D02*
X88381Y118687D01*
X85256Y178687D02*
Y182437D01*
X86819Y180563*
X88381Y182437*
Y178687*
X88169Y34632D02*
Y38382D01*
X89732Y36507*
X91294Y38382*
Y34632*
X88169Y68097D02*
Y71847D01*
X89732Y69972*
X91294Y71847*
Y68097*
X97410Y135563D02*
X98035Y135250D01*
X98348Y134625*
X98035Y134000*
X97410Y133687*
X95222*
Y137437*
X97410*
X98035Y137125*
X98348Y136500*
X98035Y135875*
X97410Y135563*
X95222*
X97410Y165563D02*
X98035Y165250D01*
X98348Y164625*
X98035Y164000*
X97410Y163687*
X95222*
Y167437*
X97410*
X98035Y167125*
X98348Y166500*
X98035Y165875*
X97410Y165563*
X95222*
X95256Y98687D02*
Y102437D01*
X96819Y100563*
X98381Y102437*
Y98687*
X95256Y108687D02*
Y112437D01*
X96819Y110563*
X98381Y112437*
Y108687*
X95256Y118687D02*
Y122437D01*
X97443*
X98069Y122125*
X98381Y121500*
X98069Y120875*
X97443Y120563*
X95256*
X97443D02*
X98381Y118687D01*
X95256Y178687D02*
Y182437D01*
X96819Y180563*
X98381Y182437*
Y178687*
X107410Y135563D02*
X108035Y135250D01*
X108348Y134625*
X108035Y134000*
X107410Y133687*
X105222*
Y137437*
X107410*
X108035Y137125*
X108348Y136500*
X108035Y135875*
X107410Y135563*
X105222*
X107410Y165563D02*
X108035Y165250D01*
X108348Y164625*
X108035Y164000*
X107410Y163687*
X105222*
Y167437*
X107410*
X108035Y167125*
X108348Y166500*
X108035Y165875*
X107410Y165563*
X105222*
X105256Y98687D02*
Y102437D01*
X106819Y100563*
X108381Y102437*
Y98687*
X105256Y108687D02*
Y112437D01*
X106819Y110563*
X108381Y112437*
Y108687*
X105256Y118687D02*
Y122437D01*
X107443*
X108069Y122125*
X108381Y121500*
X108069Y120875*
X107443Y120563*
X105256*
X107443D02*
X108381Y118687D01*
X105256Y178687D02*
Y182437D01*
X106819Y180563*
X108381Y182437*
Y178687*
X117410Y135563D02*
X118035Y135250D01*
X118348Y134625*
X118035Y134000*
X117410Y133687*
X115222*
Y137437*
X117410*
X118035Y137125*
X118348Y136500*
X118035Y135875*
X117410Y135563*
X115222*
X117410Y165563D02*
X118035Y165250D01*
X118348Y164625*
X118035Y164000*
X117410Y163687*
X115222*
Y167437*
X117410*
X118035Y167125*
X118348Y166500*
X118035Y165875*
X117410Y165563*
X115222*
X115256Y98687D02*
Y102437D01*
X116819Y100563*
X118381Y102437*
Y98687*
X115256Y108687D02*
Y112437D01*
X116819Y110563*
X118381Y112437*
Y108687*
X115256Y118687D02*
Y122437D01*
X117443*
X118069Y122125*
X118381Y121500*
X118069Y120875*
X117443Y120563*
X115256*
X117443D02*
X118381Y118687D01*
X115256Y178687D02*
Y182437D01*
X116819Y180563*
X118381Y182437*
Y178687*
X125256Y98687D02*
Y102437D01*
X126819Y100563*
X128381Y102437*
Y98687*
X125256Y108687D02*
Y112437D01*
X126819Y110563*
X128381Y112437*
Y108687*
X135256Y98687D02*
Y102437D01*
X136819Y100563*
X138381Y102437*
Y98687*
X135256Y108687D02*
Y112437D01*
X136819Y110563*
X138381Y112437*
Y108687*
X143693Y153687D02*
X144943D01*
X144319D02*
Y157437D01*
X143693D02*
X144943D01*
X143693Y166187D02*
X144943D01*
X144319D02*
Y169937D01*
X143693D02*
X144943D01*
X145256Y34632D02*
Y38382D01*
X146819Y36507*
X148381Y38382*
Y34632*
X145256Y68097D02*
Y71847D01*
X146819Y69972*
X148381Y71847*
Y68097*
X145256Y98687D02*
Y102437D01*
X146819Y100563*
X148381Y102437*
Y98687*
X145256Y108687D02*
Y112437D01*
X146819Y110563*
X148381Y112437*
Y108687*
X145256Y123687D02*
Y127437D01*
X147443*
X148069Y127125*
X148381Y126500*
X148069Y125875*
X147443Y125563*
X145256*
Y133687D02*
Y137437D01*
X147443*
X148069Y137125*
X148381Y136500*
X148069Y135875*
X147443Y135563*
X145256*
X155256Y98687D02*
Y102437D01*
X156819Y100563*
X158381Y102437*
Y98687*
X155256Y108687D02*
Y112437D01*
X156819Y110563*
X158381Y112437*
Y108687*
X160256Y133687D02*
X161819Y137437D01*
X163381Y133687*
X160881Y135250D02*
X162756D01*
X160256Y173687D02*
X161819Y177437D01*
X163381Y173687*
X160881Y175250D02*
X162756D01*
X162717Y67437D02*
Y68687D01*
X163029Y69313*
X163342Y69625*
X163967Y69937*
X164592*
X165217Y69625*
X165529Y69313*
X165842Y68687*
Y67437*
X165529Y66813*
X165217Y66500*
X164592Y66187*
X163967*
X163342Y66500*
X163029Y66813*
X162717Y67437*
X164904Y67125D02*
X165842Y66187D01*
X162756Y49937D02*
Y51187D01*
X163069Y51813*
X163381Y52125*
X164006Y52437*
X164631*
X165256Y52125*
X165569Y51813*
X165881Y51187*
Y49937*
X165569Y49313*
X165256Y49000*
X164631Y48687*
X164006*
X163381Y49000*
X163069Y49313*
X162756Y49937*
X164943Y49625D02*
X165881Y48687D01*
X165256Y98687D02*
Y102437D01*
X166819Y100563*
X168381Y102437*
Y98687*
X165256Y108687D02*
Y112437D01*
X166819Y110563*
X168381Y112437*
Y108687*
X165256Y123687D02*
Y127437D01*
X167443*
X168069Y127125*
X168381Y126500*
X168069Y125875*
X167443Y125563*
X165256*
X167443D02*
X168381Y123687D01*
X167756Y21187D02*
Y24937D01*
X170881Y21187*
Y24937*
X170256Y133687D02*
X171819Y137437D01*
X173381Y133687*
X170881Y135250D02*
X172756D01*
X170256Y173687D02*
X171819Y177437D01*
X173381Y173687*
X170881Y175250D02*
X172756D01*
X175256Y98687D02*
Y102437D01*
X176819Y100563*
X178381Y102437*
Y98687*
X175256Y108687D02*
Y112437D01*
X176819Y110563*
X178381Y112437*
Y108687*
X182756Y148687D02*
X184319Y152437D01*
X185881Y148687*
X183381Y150250D02*
X185256D01*
X182756Y188687D02*
X184319Y192437D01*
X185881Y188687*
X183381Y190250D02*
X185256D01*
Y98687D02*
Y102437D01*
X186819Y100563*
X188381Y102437*
Y98687*
X185256Y108687D02*
Y112437D01*
X186819Y110563*
X188381Y112437*
Y108687*
X185256Y123687D02*
Y127437D01*
X187443*
X188069Y127125*
X188381Y126500*
X188069Y125875*
X187443Y125563*
X185256*
Y133687D02*
Y137437D01*
X187443*
X188069Y137125*
X188381Y136500*
X188069Y135875*
X187443Y135563*
X185256*
X187756Y21187D02*
Y24937D01*
X190881Y21187*
Y24937*
X195256Y98687D02*
Y102437D01*
X196819Y100563*
X198381Y102437*
Y98687*
X195256Y108687D02*
Y112437D01*
X196819Y110563*
X198381Y112437*
Y108687*
X205256Y98687D02*
Y102437D01*
X206819Y100563*
X208381Y102437*
Y98687*
X205256Y108687D02*
Y112437D01*
X206819Y110563*
X208381Y112437*
Y108687*
X205256Y123687D02*
Y127437D01*
X207443*
X208069Y127125*
X208381Y126500*
X208069Y125875*
X207443Y125563*
X205256*
X207443D02*
X208381Y123687D01*
X207756Y21187D02*
Y24937D01*
X210881Y21187*
Y24937*
X215256Y98687D02*
Y102437D01*
X216819Y100563*
X218381Y102437*
Y98687*
X215256Y108687D02*
Y112437D01*
X216819Y110563*
X218381Y112437*
Y108687*
X225256Y98687D02*
Y102437D01*
X226819Y100563*
X228381Y102437*
Y98687*
X225256Y108687D02*
Y112437D01*
X226819Y110563*
X228381Y112437*
Y108687*
X227756Y21187D02*
Y24937D01*
X230881Y21187*
Y24937*
X227756Y67437D02*
Y68687D01*
X228069Y69313*
X228381Y69625*
X229006Y69937*
X229631*
X230256Y69625*
X230569Y69313*
X230881Y68687*
Y67437*
X230569Y66813*
X230256Y66500*
X229631Y66187*
X229006*
X228381Y66500*
X228069Y66813*
X227756Y67437*
X229943Y67125D02*
X230881Y66187D01*
X227795Y49937D02*
Y51187D01*
X228108Y51813*
X228420Y52125*
X229045Y52437*
X229670*
X230295Y52125*
X230608Y51813*
X230920Y51187*
Y49937*
X230608Y49313*
X230295Y49000*
X229670Y48687*
X229045*
X228420Y49000*
X228108Y49313*
X227795Y49937*
X229983Y49625D02*
X230920Y48687D01*
X235256Y98687D02*
Y102437D01*
X236819Y100563*
X238381Y102437*
Y98687*
X235256Y108687D02*
Y112437D01*
X236819Y110563*
X238381Y112437*
Y108687*
X245256Y88687D02*
Y92437D01*
X247443*
X248069Y92125*
X248381Y91500*
X248069Y90875*
X247443Y90563*
X245256*
X247443D02*
X248381Y88687D01*
X245256Y98687D02*
Y102437D01*
X246819Y100563*
X248381Y102437*
Y98687*
X245256Y108687D02*
Y112437D01*
X246819Y110563*
X248381Y112437*
Y108687*
X247443Y125250D02*
X248381D01*
Y124937*
X248069Y124313*
X247756Y124000*
X247131Y123687*
X246506*
X245881Y124000*
X245569Y124313*
X245256Y124937*
Y126187*
X245569Y126813*
X245881Y127125*
X246506Y127437*
X247131*
X247756Y127125*
X248069Y126813*
X248381Y126187*
X245256Y138687D02*
Y142437D01*
X246819Y140563*
X248381Y142437*
Y138687*
X245256Y148687D02*
Y152437D01*
X246819Y150563*
X248381Y152437*
Y148687*
X245256Y158687D02*
Y162437D01*
X246819Y160563*
X248381Y162437*
Y158687*
X245256Y168687D02*
Y172437D01*
X246819Y170563*
X248381Y172437*
Y168687*
X252756Y16187D02*
X254319Y19937D01*
X255881Y16187*
X253381Y17750D02*
X255256D01*
X252756Y56187D02*
X254319Y59937D01*
X255881Y56187*
X253381Y57750D02*
X255256D01*
X270256Y39937D02*
Y41187D01*
X270569Y41813*
X270881Y42125*
X271506Y42437*
X272131*
X272756Y42125*
X273069Y41813*
X273381Y41187*
Y39937*
X273069Y39313*
X272756Y39000*
X272131Y38687*
X271506*
X270881Y39000*
X270569Y39313*
X270256Y39937*
Y84937D02*
Y86187D01*
X270569Y86813*
X270881Y87125*
X271506Y87437*
X272131*
X272756Y87125*
X273069Y86813*
X273381Y86187*
Y84937*
X273069Y84313*
X272756Y84000*
X272131Y83687*
X271506*
X270881Y84000*
X270569Y84313*
X270256Y84937*
Y129937D02*
Y131187D01*
X270569Y131813*
X270881Y132125*
X271506Y132437*
X272131*
X272756Y132125*
X273069Y131813*
X273381Y131187*
Y129937*
X273069Y129313*
X272756Y129000*
X272131Y128687*
X271506*
X270881Y129000*
X270569Y129313*
X270256Y129937*
Y174937D02*
Y176187D01*
X270569Y176813*
X270881Y177125*
X271506Y177437*
X272131*
X272756Y177125*
X273069Y176813*
X273381Y176187*
Y174937*
X273069Y174313*
X272756Y174000*
X272131Y173687*
X271506*
X270881Y174000*
X270569Y174313*
X270256Y174937*
X280098Y39937D02*
Y41187D01*
X280411Y41813*
X280724Y42125*
X281348Y42437*
X281974*
X282598Y42125*
X282911Y41813*
X283224Y41187*
Y39937*
X282911Y39313*
X282598Y39000*
X281974Y38687*
X281348*
X280724Y39000*
X280411Y39313*
X280098Y39937*
Y84937D02*
Y86187D01*
X280411Y86813*
X280724Y87125*
X281348Y87437*
X281974*
X282598Y87125*
X282911Y86813*
X283224Y86187*
Y84937*
X282911Y84313*
X282598Y84000*
X281974Y83687*
X281348*
X280724Y84000*
X280411Y84313*
X280098Y84937*
Y129937D02*
Y131187D01*
X280411Y131813*
X280724Y132125*
X281348Y132437*
X281974*
X282598Y132125*
X282911Y131813*
X283224Y131187*
Y129937*
X282911Y129313*
X282598Y129000*
X281974Y128687*
X281348*
X280724Y129000*
X280411Y129313*
X280098Y129937*
Y174937D02*
Y176187D01*
X280411Y176813*
X280724Y177125*
X281348Y177437*
X281974*
X282598Y177125*
X282911Y176813*
X283224Y176187*
Y174937*
X282911Y174313*
X282598Y174000*
X281974Y173687*
X281348*
X280724Y174000*
X280411Y174313*
X280098Y174937*
X289941Y39937D02*
Y41187D01*
X290254Y41813*
X290566Y42125*
X291191Y42437*
X291816*
X292441Y42125*
X292754Y41813*
X293066Y41187*
Y39937*
X292754Y39313*
X292441Y39000*
X291816Y38687*
X291191*
X290566Y39000*
X290254Y39313*
X289941Y39937*
Y84937D02*
Y86187D01*
X290254Y86813*
X290566Y87125*
X291191Y87437*
X291816*
X292441Y87125*
X292754Y86813*
X293066Y86187*
Y84937*
X292754Y84313*
X292441Y84000*
X291816Y83687*
X291191*
X290566Y84000*
X290254Y84313*
X289941Y84937*
Y129937D02*
Y131187D01*
X290254Y131813*
X290566Y132125*
X291191Y132437*
X291816*
X292441Y132125*
X292754Y131813*
X293066Y131187*
Y129937*
X292754Y129313*
X292441Y129000*
X291816Y128687*
X291191*
X290566Y129000*
X290254Y129313*
X289941Y129937*
Y174937D02*
Y176187D01*
X290254Y176813*
X290566Y177125*
X291191Y177437*
X291816*
X292441Y177125*
X292754Y176813*
X293066Y176187*
Y174937*
X292754Y174313*
X292441Y174000*
X291816Y173687*
X291191*
X290566Y174000*
X290254Y174313*
X289941Y174937*
X290006Y158937D02*
Y162687D01*
X292193*
X292819Y162375*
X293131Y161750*
X292819Y161125*
X292193Y160813*
X290006*
X292193D02*
X293131Y158937D01*
X299756Y148687D02*
Y152437D01*
X301943*
X302569Y152125*
X302881Y151500*
X302569Y150875*
X301943Y150563*
X299756*
X301943D02*
X302881Y148687D01*
X299783Y39937D02*
Y41187D01*
X300096Y41813*
X300409Y42125*
X301033Y42437*
X301659*
X302283Y42125*
X302596Y41813*
X302909Y41187*
Y39937*
X302596Y39313*
X302283Y39000*
X301659Y38687*
X301033*
X300409Y39000*
X300096Y39313*
X299783Y39937*
Y84937D02*
Y86187D01*
X300096Y86813*
X300409Y87125*
X301033Y87437*
X301659*
X302283Y87125*
X302596Y86813*
X302909Y86187*
Y84937*
X302596Y84313*
X302283Y84000*
X301659Y83687*
X301033*
X300409Y84000*
X300096Y84313*
X299783Y84937*
Y129937D02*
Y131187D01*
X300096Y131813*
X300409Y132125*
X301033Y132437*
X301659*
X302283Y132125*
X302596Y131813*
X302909Y131187*
Y129937*
X302596Y129313*
X302283Y129000*
X301659Y128687*
X301033*
X300409Y129000*
X300096Y129313*
X299783Y129937*
Y174937D02*
Y176187D01*
X300096Y176813*
X300409Y177125*
X301033Y177437*
X301659*
X302283Y177125*
X302596Y176813*
X302909Y176187*
Y174937*
X302596Y174313*
X302283Y174000*
X301659Y173687*
X301033*
X300409Y174000*
X300096Y174313*
X299783Y174937*
X0Y0D02*
M02*
