G04 EasyPC Gerber Version 20.0.2 Build 4112 *
G04 #@! TF.Part,Single*
G04 #@! TF.FileFunction,Copper,L1,Top *
%FSLAX35Y35*%
%MOIN*%
G04 #@! TA.AperFunction,SMDPad*
%ADD104R,0.07874X0.07874*%
G04 #@! TA.AperFunction,ComponentPad*
%ADD102R,0.05400X0.05400*%
%ADD108R,0.07874X0.07874*%
%ADD105R,0.08000X0.08000*%
G04 #@! TD.AperFunction*
%ADD112C,0.03937*%
G04 #@! TA.AperFunction,ComponentPad*
%ADD103C,0.05400*%
G04 #@! TA.AperFunction,ViaPad*
%ADD111C,0.05591*%
G04 #@! TD.AperFunction*
%ADD22C,0.06000*%
G04 #@! TA.AperFunction,ComponentPad*
%ADD107C,0.07874*%
%ADD106C,0.08000*%
%ADD101C,0.09843*%
G04 #@! TA.AperFunction,WasherPad*
%ADD100C,0.12205*%
G04 #@! TA.AperFunction,ComponentPad*
%ADD110C,0.12992*%
G04 #@! TA.AperFunction,SMDPad*
%ADD109R,0.07874X0.07874*%
X0Y0D02*
D02*
D22*
X150256Y127750D03*
Y167750D03*
X160256Y127750D03*
Y167750D03*
X172756Y142750D03*
Y182750D03*
X242756Y10250D03*
Y50250D03*
D02*
D100*
X235256Y117750D03*
D02*
D101*
X78169Y28695D03*
Y62159D03*
X135256Y28695D03*
Y62159D03*
D02*
D102*
X62756Y52750D03*
X132756Y147750D03*
D02*
D103*
X62756Y40250D03*
X132756Y160250D03*
D02*
D104*
X65256Y92750D03*
Y102750D03*
X75256Y92750D03*
Y102750D03*
X85256Y92750D03*
Y102750D03*
X95256Y92750D03*
Y102750D03*
X105256Y92750D03*
Y102750D03*
X115256Y92750D03*
X125256D03*
X135256D03*
X145256D03*
X155256D03*
Y102750D03*
X165256Y92750D03*
Y102750D03*
X175256D03*
X195256D03*
X205256Y92750D03*
Y102750D03*
X215256Y92750D03*
Y102750D03*
X225256Y92750D03*
Y102750D03*
X235256Y92750D03*
Y102750D03*
Y132750D03*
Y142750D03*
Y152750D03*
Y162750D03*
D02*
D105*
X40256Y37750D03*
Y82750D03*
Y127750D03*
Y172750D03*
X260256Y32750D03*
Y77750D03*
Y122750D03*
Y167750D03*
D02*
D106*
X10728Y37750D03*
Y82750D03*
Y127750D03*
Y172750D03*
X20571Y37750D03*
Y82750D03*
Y127750D03*
Y172750D03*
X30413Y37750D03*
Y82750D03*
Y127750D03*
Y172750D03*
X270098Y32750D03*
Y77750D03*
Y122750D03*
Y167750D03*
X279941Y32750D03*
Y77750D03*
Y122750D03*
Y167750D03*
X289783Y32750D03*
Y77750D03*
Y122750D03*
Y167750D03*
D02*
D107*
X75222Y127750D03*
Y157750D03*
X75256Y172750D03*
X85222Y127750D03*
Y157750D03*
X85256Y172750D03*
X95222Y127750D03*
Y157750D03*
X95256Y172750D03*
X105222Y127750D03*
Y157750D03*
X105256Y172750D03*
D02*
D108*
X65256D03*
D02*
D109*
X115256Y102750D03*
X125256D03*
X135256D03*
X145256D03*
X175256Y92750D03*
X185256D03*
Y102750D03*
X195256Y92750D03*
D02*
D110*
X152717Y60250D03*
X152756Y42750D03*
X217756Y60250D03*
X217795Y42750D03*
D02*
D111*
X40256Y102750D03*
X75256Y112750D03*
X85256D03*
X95256D03*
X105256D03*
X155256Y117750D03*
X195256D03*
X235256Y82750D03*
X280006Y153000D03*
X289756Y142750D03*
D02*
D112*
X40256Y102750D02*
X65256D01*
Y92750*
X75256Y102750D02*
Y112750D01*
X85256Y102750D02*
Y112750D01*
X95256Y102750D02*
Y112750D01*
X105256Y102750D02*
Y112750D01*
X155256Y102750D02*
Y117750D01*
X195256Y102750D02*
Y117750D01*
X235256Y92750D02*
Y82750D01*
Y102750D02*
Y92750D01*
X280006Y153000D02*
X280256Y152750D01*
X251140*
X241140Y142750*
X235256*
X289756D02*
X255256D01*
X245256Y132750*
X235256*
X0Y0D02*
M02*
