G04 EasyPC Gerber Version 20.0.2 Build 4112 *
G04 #@! TF.Part,Single*
G04 #@! TF.FileFunction,Soldermask,Top *
%FSLAX35Y35*%
%MOIN*%
G04 #@! TA.AperFunction,SMDPad*
%ADD120R,0.08874X0.08874*%
G04 #@! TA.AperFunction,ComponentPad*
%ADD118R,0.06400X0.06400*%
%ADD124R,0.08874X0.08874*%
%ADD121R,0.09000X0.09000*%
%ADD119C,0.06400*%
G04 #@! TD.AperFunction*
%ADD27C,0.07000*%
G04 #@! TA.AperFunction,ComponentPad*
%ADD123C,0.08874*%
%ADD122C,0.09000*%
%ADD117C,0.10843*%
G04 #@! TA.AperFunction,WasherPad*
%ADD116C,0.13205*%
G04 #@! TA.AperFunction,ComponentPad*
%ADD126C,0.13992*%
G04 #@! TA.AperFunction,SMDPad*
%ADD125R,0.08874X0.08874*%
X0Y0D02*
D02*
D27*
X150256Y127750D03*
Y167750D03*
X160256Y127750D03*
Y167750D03*
X172756Y142750D03*
Y182750D03*
X242756Y10250D03*
Y50250D03*
D02*
D116*
X235256Y117750D03*
D02*
D117*
X78169Y28695D03*
Y62159D03*
X135256Y28695D03*
Y62159D03*
D02*
D118*
X62756Y52750D03*
X132756Y147750D03*
D02*
D119*
X62756Y40250D03*
X132756Y160250D03*
D02*
D120*
X65256Y92750D03*
Y102750D03*
X75256Y92750D03*
Y102750D03*
X85256Y92750D03*
Y102750D03*
X95256Y92750D03*
Y102750D03*
X105256Y92750D03*
Y102750D03*
X115256Y92750D03*
X125256D03*
X135256D03*
X145256D03*
X155256D03*
Y102750D03*
X165256Y92750D03*
Y102750D03*
X175256D03*
X195256D03*
X205256Y92750D03*
Y102750D03*
X215256Y92750D03*
Y102750D03*
X225256Y92750D03*
Y102750D03*
X235256Y92750D03*
Y102750D03*
Y132750D03*
Y142750D03*
Y152750D03*
Y162750D03*
D02*
D121*
X40256Y37750D03*
Y82750D03*
Y127750D03*
Y172750D03*
X260256Y32750D03*
Y77750D03*
Y122750D03*
Y167750D03*
D02*
D122*
X10728Y37750D03*
Y82750D03*
Y127750D03*
Y172750D03*
X20571Y37750D03*
Y82750D03*
Y127750D03*
Y172750D03*
X30413Y37750D03*
Y82750D03*
Y127750D03*
Y172750D03*
X270098Y32750D03*
Y77750D03*
Y122750D03*
Y167750D03*
X279941Y32750D03*
Y77750D03*
Y122750D03*
Y167750D03*
X289783Y32750D03*
Y77750D03*
Y122750D03*
Y167750D03*
D02*
D123*
X75222Y127750D03*
Y157750D03*
X75256Y172750D03*
X85222Y127750D03*
Y157750D03*
X85256Y172750D03*
X95222Y127750D03*
Y157750D03*
X95256Y172750D03*
X105222Y127750D03*
Y157750D03*
X105256Y172750D03*
D02*
D124*
X65256D03*
D02*
D125*
X115256Y102750D03*
X125256D03*
X135256D03*
X145256D03*
X175256Y92750D03*
X185256D03*
Y102750D03*
X195256Y92750D03*
D02*
D126*
X152717Y60250D03*
X152756Y42750D03*
X217756Y60250D03*
X217795Y42750D03*
X0Y0D02*
M02*
