G04 EasyPC Gerber Version 20.0.2 Build 4112 *
G04 #@! TF.Part,Single*
%FSLAX35Y35*%
%MOIN*%
%ADD11C,0.00500*%
%ADD10C,0.10000*%
X0Y0D02*
D02*
D10*
X20250Y62573D03*
Y111785D03*
Y160998D03*
X50250Y50250D03*
Y140250D03*
Y180250D03*
Y205250D03*
X65250Y162750D03*
X70250Y205250D03*
X75250Y15250D03*
Y162750D03*
X90250Y180250D03*
X95250Y15250D03*
X105250Y50250D03*
Y140250D03*
Y180250D03*
Y205250D03*
X120250Y162750D03*
X125250Y205250D03*
X130250Y162750D03*
X145250Y180250D03*
X160250Y50250D03*
Y140250D03*
Y180250D03*
Y205250D03*
X175250Y15250D03*
Y162750D03*
X180250Y205250D03*
X185250Y162750D03*
X195250Y15250D03*
X200250Y180250D03*
X215250Y50250D03*
Y140250D03*
Y180250D03*
Y205250D03*
X230250Y162750D03*
X235250Y205250D03*
X240250Y162750D03*
X255250Y180250D03*
X270250Y50250D03*
Y140250D03*
Y180250D03*
Y205250D03*
X285250Y162750D03*
X290250Y205250D03*
X295250Y162750D03*
X310250Y180250D03*
X325250Y50250D03*
Y140250D03*
Y180250D03*
Y205250D03*
X340250Y162750D03*
X345250Y205250D03*
X350250Y162750D03*
X365250Y180250D03*
X380250Y50250D03*
Y140250D03*
Y180250D03*
Y205250D03*
X395250Y162750D03*
X400250Y205250D03*
X405250Y162750D03*
X420250Y180250D03*
X435250Y50250D03*
Y140250D03*
Y180250D03*
Y205250D03*
X450250Y162750D03*
X455250Y205250D03*
X460250Y162750D03*
X475250Y180250D03*
X490250Y100250D03*
Y120250D03*
Y180250D03*
Y205250D03*
X500250Y50250D03*
X505250Y162750D03*
X510250Y205250D03*
X515250Y162750D03*
X530250Y180250D03*
X540250Y100250D03*
Y120250D03*
Y180250D03*
Y205250D03*
X555250Y162750D03*
X560250Y205250D03*
X565250Y162750D03*
X580250Y180250D03*
X590250Y50250D03*
Y100250D03*
Y120250D03*
Y180250D03*
Y205250D03*
X605250Y162750D03*
X610250Y205250D03*
X615250Y162750D03*
X630250Y180250D03*
X640250Y100250D03*
Y120250D03*
Y180250D03*
Y205250D03*
X655250Y162750D03*
X660250Y205250D03*
X665250Y162750D03*
X680250Y180250D03*
X715250Y62573D03*
Y111785D03*
Y160998D03*
D02*
D11*
X32437Y70073D02*
X33375D01*
Y69760*
X33063Y69135*
X32750Y68823*
X32125Y68510*
X31500*
X30875Y68823*
X30563Y69135*
X30250Y69760*
Y71010*
X30563Y71635*
X30875Y71948*
X31500Y72260*
X32125*
X32750Y71948*
X33063Y71635*
X33375Y71010*
X32437Y119285D02*
X33375D01*
Y118973*
X33063Y118348*
X32750Y118035*
X32125Y117723*
X31500*
X30875Y118035*
X30563Y118348*
X30250Y118973*
Y120223*
X30563Y120848*
X30875Y121161*
X31500Y121473*
X32125*
X32750Y121161*
X33063Y120848*
X33375Y120223*
X32437Y168498D02*
X33375D01*
Y168185*
X33063Y167561*
X32750Y167248*
X32125Y166935*
X31500*
X30875Y167248*
X30563Y167561*
X30250Y168185*
Y169435*
X30563Y170061*
X30875Y170373*
X31500Y170685*
X32125*
X32750Y170373*
X33063Y170061*
X33375Y169435*
X60250Y56187D02*
Y59937D01*
X62125*
X62750Y59625*
X63063Y59313*
X63375Y58687*
Y57437*
X63063Y56813*
X62750Y56500*
X62125Y56187*
X60250*
Y146187D02*
Y149937D01*
X62125*
X62750Y149625*
X63063Y149313*
X63375Y148687*
Y147437*
X63063Y146813*
X62750Y146500*
X62125Y146187*
X60250*
Y186187D02*
X61813Y189937D01*
X63375Y186187*
X60875Y187750D02*
X62750D01*
X60250Y211187D02*
Y214937D01*
X63375Y211187*
Y214937*
X75250Y168687D02*
Y172437D01*
X77437*
X78063Y172125*
X78375Y171500*
X78063Y170875*
X77437Y170563*
X75250*
X80250Y211187D02*
Y214937D01*
X83375Y211187*
Y214937*
X85250Y21187D02*
Y24937D01*
X88375Y21187*
Y24937*
X85250Y168687D02*
Y172437D01*
X87437*
X88063Y172125*
X88375Y171500*
X88063Y170875*
X87437Y170563*
X85250*
X100250Y186187D02*
X101813Y189937D01*
X103375Y186187*
X100875Y187750D02*
X102750D01*
X105250Y21187D02*
Y24937D01*
X108375Y21187*
Y24937*
X115250Y56187D02*
Y59937D01*
X117125*
X117750Y59625*
X118063Y59313*
X118375Y58687*
Y57437*
X118063Y56813*
X117750Y56500*
X117125Y56187*
X115250*
Y146187D02*
Y149937D01*
X117125*
X117750Y149625*
X118063Y149313*
X118375Y148687*
Y147437*
X118063Y146813*
X117750Y146500*
X117125Y146187*
X115250*
Y186187D02*
X116813Y189937D01*
X118375Y186187*
X115875Y187750D02*
X117750D01*
X115250Y211187D02*
Y214937D01*
X118375Y211187*
Y214937*
X130250Y168687D02*
Y172437D01*
X132437*
X133063Y172125*
X133375Y171500*
X133063Y170875*
X132437Y170563*
X130250*
X135250Y211187D02*
Y214937D01*
X138375Y211187*
Y214937*
X140250Y168687D02*
Y172437D01*
X142437*
X143063Y172125*
X143375Y171500*
X143063Y170875*
X142437Y170563*
X140250*
X155250Y186187D02*
X156813Y189937D01*
X158375Y186187*
X155875Y187750D02*
X157750D01*
X170250Y56187D02*
Y59937D01*
X172125*
X172750Y59625*
X173063Y59313*
X173375Y58687*
Y57437*
X173063Y56813*
X172750Y56500*
X172125Y56187*
X170250*
Y146187D02*
Y149937D01*
X172125*
X172750Y149625*
X173063Y149313*
X173375Y148687*
Y147437*
X173063Y146813*
X172750Y146500*
X172125Y146187*
X170250*
Y186187D02*
X171813Y189937D01*
X173375Y186187*
X170875Y187750D02*
X172750D01*
X170250Y211187D02*
Y214937D01*
X173375Y211187*
Y214937*
X185250Y21187D02*
Y24937D01*
X188375Y21187*
Y24937*
X185250Y168687D02*
Y172437D01*
X187437*
X188063Y172125*
X188375Y171500*
X188063Y170875*
X187437Y170563*
X185250*
X190250Y211187D02*
Y214937D01*
X193375Y211187*
Y214937*
X195250Y168687D02*
Y172437D01*
X197437*
X198063Y172125*
X198375Y171500*
X198063Y170875*
X197437Y170563*
X195250*
X205250Y21187D02*
Y24937D01*
X208375Y21187*
Y24937*
X210250Y186187D02*
X211813Y189937D01*
X213375Y186187*
X210875Y187750D02*
X212750D01*
X225250Y56187D02*
Y59937D01*
X227125*
X227750Y59625*
X228063Y59313*
X228375Y58687*
Y57437*
X228063Y56813*
X227750Y56500*
X227125Y56187*
X225250*
Y146187D02*
Y149937D01*
X227125*
X227750Y149625*
X228063Y149313*
X228375Y148687*
Y147437*
X228063Y146813*
X227750Y146500*
X227125Y146187*
X225250*
Y186187D02*
X226813Y189937D01*
X228375Y186187*
X225875Y187750D02*
X227750D01*
X225250Y211187D02*
Y214937D01*
X228375Y211187*
Y214937*
X240250Y168687D02*
Y172437D01*
X242437*
X243063Y172125*
X243375Y171500*
X243063Y170875*
X242437Y170563*
X240250*
X245250Y211187D02*
Y214937D01*
X248375Y211187*
Y214937*
X250250Y168687D02*
Y172437D01*
X252437*
X253063Y172125*
X253375Y171500*
X253063Y170875*
X252437Y170563*
X250250*
X265250Y186187D02*
X266813Y189937D01*
X268375Y186187*
X265875Y187750D02*
X267750D01*
X280250Y56187D02*
Y59937D01*
X282125*
X282750Y59625*
X283063Y59313*
X283375Y58687*
Y57437*
X283063Y56813*
X282750Y56500*
X282125Y56187*
X280250*
Y146187D02*
Y149937D01*
X282125*
X282750Y149625*
X283063Y149313*
X283375Y148687*
Y147437*
X283063Y146813*
X282750Y146500*
X282125Y146187*
X280250*
Y186187D02*
X281813Y189937D01*
X283375Y186187*
X280875Y187750D02*
X282750D01*
X280250Y211187D02*
Y214937D01*
X283375Y211187*
Y214937*
X295250Y168687D02*
Y172437D01*
X297437*
X298063Y172125*
X298375Y171500*
X298063Y170875*
X297437Y170563*
X295250*
X300250Y211187D02*
Y214937D01*
X303375Y211187*
Y214937*
X305250Y168687D02*
Y172437D01*
X307437*
X308063Y172125*
X308375Y171500*
X308063Y170875*
X307437Y170563*
X305250*
X320250Y186187D02*
X321813Y189937D01*
X323375Y186187*
X320875Y187750D02*
X322750D01*
X335250Y56187D02*
Y59937D01*
X337125*
X337750Y59625*
X338063Y59313*
X338375Y58687*
Y57437*
X338063Y56813*
X337750Y56500*
X337125Y56187*
X335250*
Y146187D02*
Y149937D01*
X337125*
X337750Y149625*
X338063Y149313*
X338375Y148687*
Y147437*
X338063Y146813*
X337750Y146500*
X337125Y146187*
X335250*
Y186187D02*
X336813Y189937D01*
X338375Y186187*
X335875Y187750D02*
X337750D01*
X335250Y211187D02*
Y214937D01*
X338375Y211187*
Y214937*
X350250Y168687D02*
Y172437D01*
X352437*
X353063Y172125*
X353375Y171500*
X353063Y170875*
X352437Y170563*
X350250*
X355250Y211187D02*
Y214937D01*
X358375Y211187*
Y214937*
X360250Y168687D02*
Y172437D01*
X362437*
X363063Y172125*
X363375Y171500*
X363063Y170875*
X362437Y170563*
X360250*
X375250Y186187D02*
X376813Y189937D01*
X378375Y186187*
X375875Y187750D02*
X377750D01*
X390250Y56187D02*
Y59937D01*
X392125*
X392750Y59625*
X393063Y59313*
X393375Y58687*
Y57437*
X393063Y56813*
X392750Y56500*
X392125Y56187*
X390250*
Y146187D02*
Y149937D01*
X392125*
X392750Y149625*
X393063Y149313*
X393375Y148687*
Y147437*
X393063Y146813*
X392750Y146500*
X392125Y146187*
X390250*
Y186187D02*
X391813Y189937D01*
X393375Y186187*
X390875Y187750D02*
X392750D01*
X390250Y211187D02*
Y214937D01*
X393375Y211187*
Y214937*
X405250Y168687D02*
Y172437D01*
X407437*
X408063Y172125*
X408375Y171500*
X408063Y170875*
X407437Y170563*
X405250*
X410250Y211187D02*
Y214937D01*
X413375Y211187*
Y214937*
X415250Y168687D02*
Y172437D01*
X417437*
X418063Y172125*
X418375Y171500*
X418063Y170875*
X417437Y170563*
X415250*
X430250Y186187D02*
X431813Y189937D01*
X433375Y186187*
X430875Y187750D02*
X432750D01*
X445250Y56187D02*
Y59937D01*
X447125*
X447750Y59625*
X448063Y59313*
X448375Y58687*
Y57437*
X448063Y56813*
X447750Y56500*
X447125Y56187*
X445250*
Y146187D02*
Y149937D01*
X447125*
X447750Y149625*
X448063Y149313*
X448375Y148687*
Y147437*
X448063Y146813*
X447750Y146500*
X447125Y146187*
X445250*
Y186187D02*
X446813Y189937D01*
X448375Y186187*
X445875Y187750D02*
X447750D01*
X445250Y211187D02*
Y214937D01*
X448375Y211187*
Y214937*
X460250Y168687D02*
Y172437D01*
X462437*
X463063Y172125*
X463375Y171500*
X463063Y170875*
X462437Y170563*
X460250*
X465250Y211187D02*
Y214937D01*
X468375Y211187*
Y214937*
X470250Y168687D02*
Y172437D01*
X472437*
X473063Y172125*
X473375Y171500*
X473063Y170875*
X472437Y170563*
X470250*
X485250Y186187D02*
X486813Y189937D01*
X488375Y186187*
X485875Y187750D02*
X487750D01*
X500250Y109937D02*
X501813Y106187D01*
X503375Y109937*
X500250Y129937D02*
X501813Y126187D01*
X503375Y129937*
X500250Y186187D02*
X501813Y189937D01*
X503375Y186187*
X500875Y187750D02*
X502750D01*
X500250Y211187D02*
Y214937D01*
X503375Y211187*
Y214937*
X510250Y56187D02*
Y59937D01*
X512125*
X512750Y59625*
X513063Y59313*
X513375Y58687*
Y57437*
X513063Y56813*
X512750Y56500*
X512125Y56187*
X510250*
X515250Y168687D02*
Y172437D01*
X517437*
X518063Y172125*
X518375Y171500*
X518063Y170875*
X517437Y170563*
X515250*
X520250Y211187D02*
Y214937D01*
X523375Y211187*
Y214937*
X525250Y168687D02*
Y172437D01*
X527437*
X528063Y172125*
X528375Y171500*
X528063Y170875*
X527437Y170563*
X525250*
X540250Y186187D02*
X541813Y189937D01*
X543375Y186187*
X540875Y187750D02*
X542750D01*
X550250Y109937D02*
X551813Y106187D01*
X553375Y109937*
X550250Y129937D02*
X551813Y126187D01*
X553375Y129937*
X550250Y186187D02*
X551813Y189937D01*
X553375Y186187*
X550875Y187750D02*
X552750D01*
X550250Y211187D02*
Y214937D01*
X553375Y211187*
Y214937*
X565250Y168687D02*
Y172437D01*
X567437*
X568063Y172125*
X568375Y171500*
X568063Y170875*
X567437Y170563*
X565250*
X570250Y211187D02*
Y214937D01*
X573375Y211187*
Y214937*
X575250Y168687D02*
Y172437D01*
X577437*
X578063Y172125*
X578375Y171500*
X578063Y170875*
X577437Y170563*
X575250*
X590250Y186187D02*
X591813Y189937D01*
X593375Y186187*
X590875Y187750D02*
X592750D01*
X600250Y56187D02*
Y59937D01*
X602125*
X602750Y59625*
X603063Y59313*
X603375Y58687*
Y57437*
X603063Y56813*
X602750Y56500*
X602125Y56187*
X600250*
Y109937D02*
X601813Y106187D01*
X603375Y109937*
X600250Y129937D02*
X601813Y126187D01*
X603375Y129937*
X600250Y186187D02*
X601813Y189937D01*
X603375Y186187*
X600875Y187750D02*
X602750D01*
X600250Y211187D02*
Y214937D01*
X603375Y211187*
Y214937*
X615250Y168687D02*
Y172437D01*
X617437*
X618063Y172125*
X618375Y171500*
X618063Y170875*
X617437Y170563*
X615250*
X620250Y211187D02*
Y214937D01*
X623375Y211187*
Y214937*
X625250Y168687D02*
Y172437D01*
X627437*
X628063Y172125*
X628375Y171500*
X628063Y170875*
X627437Y170563*
X625250*
X640250Y186187D02*
X641813Y189937D01*
X643375Y186187*
X640875Y187750D02*
X642750D01*
X650250Y109937D02*
X651813Y106187D01*
X653375Y109937*
X650250Y129937D02*
X651813Y126187D01*
X653375Y129937*
X650250Y186187D02*
X651813Y189937D01*
X653375Y186187*
X650875Y187750D02*
X652750D01*
X650250Y211187D02*
Y214937D01*
X653375Y211187*
Y214937*
X665250Y168687D02*
Y172437D01*
X667437*
X668063Y172125*
X668375Y171500*
X668063Y170875*
X667437Y170563*
X665250*
X670250Y211187D02*
Y214937D01*
X673375Y211187*
Y214937*
X675250Y168687D02*
Y172437D01*
X677437*
X678063Y172125*
X678375Y171500*
X678063Y170875*
X677437Y170563*
X675250*
X690250Y186187D02*
X691813Y189937D01*
X693375Y186187*
X690875Y187750D02*
X692750D01*
X727437Y70073D02*
X728375D01*
Y69760*
X728063Y69135*
X727750Y68823*
X727125Y68510*
X726500*
X725875Y68823*
X725563Y69135*
X725250Y69760*
Y71010*
X725563Y71635*
X725875Y71948*
X726500Y72260*
X727125*
X727750Y71948*
X728063Y71635*
X728375Y71010*
X727437Y119285D02*
X728375D01*
Y118973*
X728063Y118348*
X727750Y118035*
X727125Y117723*
X726500*
X725875Y118035*
X725563Y118348*
X725250Y118973*
Y120223*
X725563Y120848*
X725875Y121161*
X726500Y121473*
X727125*
X727750Y121161*
X728063Y120848*
X728375Y120223*
X727437Y168498D02*
X728375D01*
Y168185*
X728063Y167561*
X727750Y167248*
X727125Y166935*
X726500*
X725875Y167248*
X725563Y167561*
X725250Y168185*
Y169435*
X725563Y170061*
X725875Y170373*
X726500Y170685*
X727125*
X727750Y170373*
X728063Y170061*
X728375Y169435*
X0Y0D02*
M02*
