G04 EasyPC Gerber Version 20.0.2 Build 4112 *
G04 #@! TF.Part,Single*
G04 #@! TF.FileFunction,Legend,Top *
%FSLAX35Y35*%
%MOIN*%
%ADD11C,0.00500*%
%ADD143C,0.01969*%
X0Y0D02*
D02*
D11*
X40250Y47750D02*
X30250D01*
Y145250*
X40250*
Y190250D02*
X60250D01*
Y220250*
X40250*
Y190250*
X60250Y47750D02*
X70250D01*
Y145250*
X60250*
Y180250D02*
X55250D01*
X60250Y190250D02*
X80250D01*
Y220250*
X60250*
Y190250*
X65250Y250D02*
X85250D01*
Y30250*
X65250*
Y250*
X70250Y151750D02*
G75*
G03X81250Y162750J11000D01*
G01*
G75*
G03X70250Y173750I-11000*
G01*
G75*
G03X59950Y169450I41J-14583*
G01*
Y156050*
G75*
G03X70250Y151750I10341J10283*
G01*
X74313Y127750D02*
X70563D01*
Y130875*
X72437Y130250D02*
Y127750D01*
X73375Y132750D02*
X74000Y133063D01*
X74313Y133687*
Y134937*
X74000Y135563*
X73375Y135875*
X72750Y135563*
X72437Y134937*
Y133687*
X72125Y133063*
X71500Y132750*
X70875Y133063*
X70563Y133687*
Y134937*
X70875Y135563*
X71500Y135875*
X74313Y138375D02*
Y139625D01*
Y139000D02*
X70563D01*
X71187Y138375*
X80250Y185250D02*
Y175250D01*
X60250*
Y185250*
X80250*
X85250Y250D02*
X105250D01*
Y30250*
X85250*
Y250*
Y180250D02*
X80250D01*
X95250Y47750D02*
X85250D01*
Y145250*
X95250*
Y190250D02*
X115250D01*
Y220250*
X95250*
Y190250*
X115250Y47750D02*
X125250D01*
Y145250*
X115250*
Y180250D02*
X110250D01*
X115250Y190250D02*
X135250D01*
Y220250*
X115250*
Y190250*
X125250Y151750D02*
G75*
G03X136250Y162750J11000D01*
G01*
G75*
G03X125250Y173750I-11000*
G01*
G75*
G03X114950Y169450I41J-14583*
G01*
Y156050*
G75*
G03X125250Y151750I10341J10283*
G01*
X129313Y127750D02*
X125563D01*
Y130875*
X127437Y130250D02*
Y127750D01*
X128375Y132750D02*
X129000Y133063D01*
X129313Y133687*
Y134937*
X129000Y135563*
X128375Y135875*
X127750Y135563*
X127437Y134937*
Y133687*
X127125Y133063*
X126500Y132750*
X125875Y133063*
X125563Y133687*
Y134937*
X125875Y135563*
X126500Y135875*
X127437Y138687D02*
Y139313D01*
X127125Y139937*
X126500Y140250*
X125875Y139937*
X125563Y139313*
Y138687*
X125875Y138063*
X126500Y137750*
X127125Y138063*
X127437Y138687*
X127750Y138063*
X128375Y137750*
X129000Y138063*
X129313Y138687*
Y139313*
X129000Y139937*
X128375Y140250*
X127750Y139937*
X127437Y139313*
X135250Y185250D02*
Y175250D01*
X115250*
Y185250*
X135250*
X140250Y180250D02*
X135250D01*
X150250Y47750D02*
X140250D01*
Y145250*
X150250*
Y190250D02*
X170250D01*
Y220250*
X150250*
Y190250*
X165250Y250D02*
X185250D01*
Y30250*
X165250*
Y250*
X170250Y47750D02*
X180250D01*
Y145250*
X170250*
Y180250D02*
X165250D01*
X170250Y190250D02*
X190250D01*
Y220250*
X170250*
Y190250*
X180250Y151750D02*
G75*
G03X191250Y162750J11000D01*
G01*
G75*
G03X180250Y173750I-11000*
G01*
G75*
G03X169950Y169450I41J-14583*
G01*
Y156050*
G75*
G03X180250Y151750I10341J10283*
G01*
X185250Y250D02*
X205250D01*
Y30250*
X185250*
Y250*
X184313Y127750D02*
X180563D01*
Y130875*
X182437Y130250D02*
Y127750D01*
X183375Y132750D02*
X184000Y133063D01*
X184313Y133687*
Y134937*
X184000Y135563*
X183375Y135875*
X182750Y135563*
X182437Y134937*
Y133687*
X182125Y133063*
X181500Y132750*
X180875Y133063*
X180563Y133687*
Y134937*
X180875Y135563*
X181500Y135875*
X184000Y137750D02*
X184313Y138375D01*
Y139313*
X184000Y139937*
X183375Y140250*
X183063*
X182437Y139937*
X182125Y139313*
Y137750*
X180563*
Y140250*
X190250Y185250D02*
Y175250D01*
X170250*
Y185250*
X190250*
X195250Y180250D02*
X190250D01*
X205250Y47750D02*
X195250D01*
Y145250*
X205250*
Y190250D02*
X225250D01*
Y220250*
X205250*
Y190250*
X225250Y47750D02*
X235250D01*
Y145250*
X225250*
Y180250D02*
X220250D01*
X225250Y190250D02*
X245250D01*
Y220250*
X225250*
Y190250*
X235250Y151750D02*
G75*
G03X246250Y162750J11000D01*
G01*
G75*
G03X235250Y173750I-11000*
G01*
G75*
G03X224950Y169450I41J-14583*
G01*
Y156050*
G75*
G03X235250Y151750I10341J10283*
G01*
X239313Y127750D02*
X235563D01*
Y130875*
X237437Y130250D02*
Y127750D01*
X238375Y132750D02*
X239000Y133063D01*
X239313Y133687*
Y134937*
X239000Y135563*
X238375Y135875*
X237750Y135563*
X237437Y134937*
Y133687*
X237125Y133063*
X236500Y132750*
X235875Y133063*
X235563Y133687*
Y134937*
X235875Y135563*
X236500Y135875*
X239313Y137750D02*
X235563Y140250D01*
Y137750*
X245250Y185250D02*
Y175250D01*
X225250*
Y185250*
X245250*
X250250Y180250D02*
X245250D01*
X260250Y47750D02*
X250250D01*
Y145250*
X260250*
Y190250D02*
X280250D01*
Y220250*
X260250*
Y190250*
X280250Y47750D02*
X290250D01*
Y145250*
X280250*
Y180250D02*
X275250D01*
X280250Y190250D02*
X300250D01*
Y220250*
X280250*
Y190250*
X290250Y151750D02*
G75*
G03X301250Y162750J11000D01*
G01*
G75*
G03X290250Y173750I-11000*
G01*
G75*
G03X279950Y169450I41J-14583*
G01*
Y156050*
G75*
G03X290250Y151750I10341J10283*
G01*
X294313Y127750D02*
X290563D01*
Y130875*
X292437Y130250D02*
Y127750D01*
X293375Y132750D02*
X294000Y133063D01*
X294313Y133687*
Y134937*
X294000Y135563*
X293375Y135875*
X292750Y135563*
X292437Y134937*
Y133687*
X292125Y133063*
X291500Y132750*
X290875Y133063*
X290563Y133687*
Y134937*
X290875Y135563*
X291500Y135875*
X293375Y137750D02*
X292750Y138063D01*
X292437Y138687*
Y139313*
X292750Y139937*
X293375Y140250*
X294000Y139937*
X294313Y139313*
Y138687*
X294000Y138063*
X293375Y137750*
X292437*
X291500Y138063*
X290875Y138687*
X290563Y139313*
X300250Y185250D02*
Y175250D01*
X280250*
Y185250*
X300250*
X305250Y180250D02*
X300250D01*
X315250Y47750D02*
X305250D01*
Y145250*
X315250*
Y190250D02*
X335250D01*
Y220250*
X315250*
Y190250*
X335250Y47750D02*
X345250D01*
Y145250*
X335250*
Y180250D02*
X330250D01*
X335250Y190250D02*
X355250D01*
Y220250*
X335250*
Y190250*
X345250Y151750D02*
G75*
G03X356250Y162750J11000D01*
G01*
G75*
G03X345250Y173750I-11000*
G01*
G75*
G03X334950Y169450I41J-14583*
G01*
Y156050*
G75*
G03X345250Y151750I10341J10283*
G01*
X349313Y127750D02*
X345563D01*
Y130875*
X347437Y130250D02*
Y127750D01*
X348375Y132750D02*
X349000Y133063D01*
X349313Y133687*
Y134937*
X349000Y135563*
X348375Y135875*
X347750Y135563*
X347437Y134937*
Y133687*
X347125Y133063*
X346500Y132750*
X345875Y133063*
X345563Y133687*
Y134937*
X345875Y135563*
X346500Y135875*
X349313Y140250D02*
Y137750D01*
X347125Y139937*
X346500Y140250*
X345875Y139937*
X345563Y139313*
Y138375*
X345875Y137750*
X355250Y185250D02*
Y175250D01*
X335250*
Y185250*
X355250*
X360250Y180250D02*
X355250D01*
X370250Y47750D02*
X360250D01*
Y145250*
X370250*
Y190250D02*
X390250D01*
Y220250*
X370250*
Y190250*
X390250Y47750D02*
X400250D01*
Y145250*
X390250*
Y180250D02*
X385250D01*
X390250Y190250D02*
X410250D01*
Y220250*
X390250*
Y190250*
X400250Y151750D02*
G75*
G03X411250Y162750J11000D01*
G01*
G75*
G03X400250Y173750I-11000*
G01*
G75*
G03X389950Y169450I41J-14583*
G01*
Y156050*
G75*
G03X400250Y151750I10341J10283*
G01*
X404313Y127750D02*
X400563D01*
Y130875*
X402437Y130250D02*
Y127750D01*
X403375Y132750D02*
X404000Y133063D01*
X404313Y133687*
Y134937*
X404000Y135563*
X403375Y135875*
X402750Y135563*
X402437Y134937*
Y133687*
X402125Y133063*
X401500Y132750*
X400875Y133063*
X400563Y133687*
Y134937*
X400875Y135563*
X401500Y135875*
X404000Y138063D02*
X404313Y138687D01*
Y139313*
X404000Y139937*
X403375Y140250*
X402750Y139937*
X402437Y139313*
Y138687*
Y139313D02*
X402125Y139937D01*
X401500Y140250*
X400875Y139937*
X400563Y139313*
Y138687*
X400875Y138063*
X410250Y185250D02*
Y175250D01*
X390250*
Y185250*
X410250*
X415250Y180250D02*
X410250D01*
X425250Y47750D02*
X415250D01*
Y145250*
X425250*
Y190250D02*
X445250D01*
Y220250*
X425250*
Y190250*
X445250Y47750D02*
X455250D01*
Y145250*
X445250*
Y180250D02*
X440250D01*
X445250Y190250D02*
X465250D01*
Y220250*
X445250*
Y190250*
X455250Y151750D02*
G75*
G03X466250Y162750J11000D01*
G01*
G75*
G03X455250Y173750I-11000*
G01*
G75*
G03X444950Y169450I41J-14583*
G01*
Y156050*
G75*
G03X455250Y151750I10341J10283*
G01*
X459313Y127750D02*
X455563D01*
Y130875*
X457437Y130250D02*
Y127750D01*
X458375Y132750D02*
X459000Y133063D01*
X459313Y133687*
Y134937*
X459000Y135563*
X458375Y135875*
X457750Y135563*
X457437Y134937*
Y133687*
X457125Y133063*
X456500Y132750*
X455875Y133063*
X455563Y133687*
Y134937*
X455875Y135563*
X456500Y135875*
X459313Y139313D02*
X455563D01*
X458063Y137750*
Y140250*
X465250Y185250D02*
Y175250D01*
X445250*
Y185250*
X465250*
X470250Y180250D02*
X465250D01*
X480250Y190250D02*
X500250D01*
Y220250*
X480250*
Y190250*
X497750Y40250D02*
Y30250D01*
X595250*
Y40250*
X497750Y60250D02*
Y70250D01*
X595250*
Y60250*
X500250Y180250D02*
X495250D01*
X500250Y190250D02*
X520250D01*
Y220250*
X500250*
Y190250*
X510250Y151750D02*
G75*
G03X521250Y162750J11000D01*
G01*
G75*
G03X510250Y173750I-11000*
G01*
G75*
G03X499950Y169450I41J-14583*
G01*
Y156050*
G75*
G03X510250Y151750I10341J10283*
G01*
X520250Y185250D02*
Y175250D01*
X500250*
Y185250*
X520250*
X525250Y180250D02*
X520250D01*
X530250Y190250D02*
X550250D01*
Y220250*
X530250*
Y190250*
X550250Y180250D02*
X545250D01*
X550250Y190250D02*
X570250D01*
Y220250*
X550250*
Y190250*
X560250Y151750D02*
G75*
G03X571250Y162750J11000D01*
G01*
G75*
G03X560250Y173750I-11000*
G01*
G75*
G03X549950Y169450I41J-14583*
G01*
Y156050*
G75*
G03X560250Y151750I10341J10283*
G01*
X570250Y185250D02*
Y175250D01*
X550250*
Y185250*
X570250*
X575250Y180250D02*
X570250D01*
X577750Y26187D02*
Y29937D01*
X580875*
X580250Y28063D02*
X577750D01*
X582750Y27125D02*
X583063Y26500D01*
X583687Y26187*
X584937*
X585563Y26500*
X585875Y27125*
X585563Y27750*
X584937Y28063*
X583687*
X583063Y28375*
X582750Y29000*
X583063Y29625*
X583687Y29937*
X584937*
X585563Y29625*
X585875Y29000*
X588687Y26187D02*
X589313Y26500D01*
X589937Y27125*
X590250Y28063*
Y29000*
X589937Y29625*
X589313Y29937*
X588687*
X588063Y29625*
X587750Y29000*
X588063Y28375*
X588687Y28063*
X589313*
X589937Y28375*
X590250Y29000*
X580250Y190250D02*
X600250D01*
Y220250*
X580250*
Y190250*
X600250Y180250D02*
X595250D01*
X600250Y190250D02*
X620250D01*
Y220250*
X600250*
Y190250*
X610250Y151750D02*
G75*
G03X621250Y162750J11000D01*
G01*
G75*
G03X610250Y173750I-11000*
G01*
G75*
G03X599950Y169450I41J-14583*
G01*
Y156050*
G75*
G03X610250Y151750I10341J10283*
G01*
X620250Y185250D02*
Y175250D01*
X600250*
Y185250*
X620250*
X625250Y180250D02*
X620250D01*
X630250Y190250D02*
X650250D01*
Y220250*
X630250*
Y190250*
X650250Y180250D02*
X645250D01*
X650250Y190250D02*
X670250D01*
Y220250*
X650250*
Y190250*
X660250Y151750D02*
G75*
G03X671250Y162750J11000D01*
G01*
G75*
G03X660250Y173750I-11000*
G01*
G75*
G03X649950Y169450I41J-14583*
G01*
Y156050*
G75*
G03X660250Y151750I10341J10283*
G01*
X670250Y185250D02*
Y175250D01*
X650250*
Y185250*
X670250*
X675250Y180250D02*
X670250D01*
D02*
D143*
X17750Y22514D02*
X22671Y10703D01*
X27593Y22514*
X43341Y12671D02*
X42356Y11687D01*
X40388Y10703*
X37435*
X35467Y11687*
X34482Y12671*
X33498Y14640*
Y18577*
X34482Y20545*
X35467Y21530*
X37435Y22514*
X40388*
X42356Y21530*
X43341Y20545*
X59089Y12671D02*
X58104Y11687D01*
X56136Y10703*
X53183*
X51215Y11687*
X50230Y12671*
X49246Y14640*
Y18577*
X50230Y20545*
X51215Y21530*
X53183Y22514*
X56136*
X58104Y21530*
X59089Y20545*
X45250Y232140D02*
X53124D01*
X49187Y228203D02*
Y236077D01*
X65250Y232140D02*
X73124D01*
X100250D02*
X108124D01*
X104187Y228203D02*
Y236077D01*
X120250Y232140D02*
X128124D01*
X155250D02*
X163124D01*
X159187Y228203D02*
Y236077D01*
X175250Y232140D02*
X183124D01*
X210250D02*
X218124D01*
X214187Y228203D02*
Y236077D01*
X222140Y15624D02*
X225093D01*
Y14640*
X224108Y12671*
X223124Y11687*
X221156Y10703*
X219187*
X217219Y11687*
X216234Y12671*
X215250Y14640*
Y18577*
X216234Y20545*
X217219Y21530*
X219187Y22514*
X221156*
X223124Y21530*
X224108Y20545*
X225093Y18577*
X230998Y10703D02*
Y22514D01*
X240841Y10703*
Y22514*
X246746Y10703D02*
Y22514D01*
X252652*
X254620Y21530*
X255604Y20545*
X256589Y18577*
Y14640*
X255604Y12671*
X254620Y11687*
X252652Y10703*
X246746*
X230250Y232140D02*
X238124D01*
X265250D02*
X273124D01*
X269187Y228203D02*
Y236077D01*
X285250Y232140D02*
X293124D01*
X320250D02*
X328124D01*
X324187Y228203D02*
Y236077D01*
X340250Y232140D02*
X348124D01*
X375250D02*
X383124D01*
X379187Y228203D02*
Y236077D01*
X395250Y232140D02*
X403124D01*
X430250D02*
X438124D01*
X434187Y228203D02*
Y236077D01*
X450250Y232140D02*
X458124D01*
X485250D02*
X493124D01*
X489187Y228203D02*
Y236077D01*
X505250Y232140D02*
X513124D01*
X535250D02*
X543124D01*
X539187Y228203D02*
Y236077D01*
X555250Y232140D02*
X563124D01*
X585250D02*
X593124D01*
X589187Y228203D02*
Y236077D01*
X605250Y232140D02*
X613124D01*
X635250D02*
X643124D01*
X639187Y228203D02*
Y236077D01*
X655250Y232140D02*
X663124D01*
X0Y0D02*
M02*
