G04 EasyPC Gerber Version 20.0.2 Build 4112 *
G04 #@! TF.Part,Single*
G04 #@! TF.FileFunction,Copper,L1,Bot *
%FSLAX35Y35*%
%MOIN*%
G04 #@! TA.AperFunction,SMDPad*
%ADD142R,0.06000X0.08000*%
%ADD113R,0.15748X0.19685*%
G04 #@! TD.AperFunction*
%ADD20C,0.05000*%
%ADD22C,0.06000*%
G04 #@! TA.AperFunction,ComponentPad*
%ADD107C,0.07874*%
%ADD101C,0.09843*%
G04 #@! TD.AperFunction*
%ADD115C,0.15748*%
G04 #@! TA.AperFunction,SMDPad*
%ADD141C,0.17500*%
X0Y0D02*
D02*
D20*
X65250Y162750D02*
Y205250D01*
X70250*
X90250Y180250D02*
X80250D01*
X75250Y175250*
Y162750*
X105250Y180250D02*
Y165250D01*
X120250Y162750D02*
Y205250D01*
X125250*
X145250Y180250D02*
X135250D01*
X130250Y175250*
Y162750*
X160250Y180250D02*
Y165250D01*
X180250Y205250D02*
X175250D01*
Y162750*
X200250Y180250D02*
X190250D01*
X185250Y175250*
Y162750*
X215250Y180250D02*
Y165250D01*
X230250Y162750D02*
Y205250D01*
X235250*
X255250Y180250D02*
X245250D01*
X240250Y175250*
Y162750*
X290250Y205250D02*
X285250D01*
Y162750*
X310250Y180250D02*
X300250D01*
X295250Y175250*
Y162750*
X325250Y180250D02*
Y165250D01*
X345250Y205250D02*
Y212750D01*
X340250*
Y162750*
X365250Y180250D02*
X355250D01*
X350250Y175250*
Y162750*
X380250Y180250D02*
Y165250D01*
X400250Y205250D02*
X395250D01*
Y162750*
X420250Y180250D02*
X410250D01*
X405250Y175250*
Y162750*
X455250Y205250D02*
X450250D01*
Y162750*
X475250Y180250D02*
X465250D01*
X460250Y175250*
Y162750*
X490250Y165250D02*
Y120250D01*
Y180250D02*
Y165250D01*
Y205250D02*
Y165250D01*
X510250Y205250D02*
X505250D01*
Y162750*
X530250Y180250D02*
X520250D01*
X515250Y175250*
Y162750*
X540250Y165250D02*
Y120250D01*
Y180250D02*
Y165250D01*
Y205250D02*
Y165250D01*
X560250Y205250D02*
X555250D01*
Y162750*
X580250Y180250D02*
X570250D01*
X565250Y175250*
Y162750*
X590250Y165250D02*
Y120250D01*
Y180250D02*
Y165250D01*
Y205250D02*
Y165250D01*
X610250Y205250D02*
X605250D01*
Y162750*
X630250Y180250D02*
X620250D01*
X615250Y175250*
Y162750*
X640250Y165250D02*
Y120250D01*
Y180250D02*
Y165250D01*
Y205250D02*
Y165250D01*
X660250Y205250D02*
X655250D01*
Y162750*
X680250Y180250D02*
X670250D01*
X665250Y175250*
Y162750*
D02*
D22*
X50250Y180250D03*
X90250D03*
X105250D03*
X145250D03*
X160250D03*
X200250D03*
X215250D03*
X255250D03*
X270250D03*
X310250D03*
X325250D03*
X365250D03*
X380250D03*
X420250D03*
X435250D03*
X475250D03*
X490250D03*
X530250D03*
X540250D03*
X580250D03*
X590250D03*
X630250D03*
X640250D03*
X680250D03*
D02*
D101*
X490250Y100250D03*
Y120250D03*
X540250Y100250D03*
Y120250D03*
X590250Y100250D03*
Y120250D03*
X640250Y100250D03*
Y120250D03*
D02*
D107*
X50250Y180250D02*
Y140250D01*
Y205250D02*
Y180250D01*
X105250Y165250D02*
Y140250D01*
Y205250D02*
Y165250D01*
X160250D02*
Y140250D01*
Y205250D02*
Y165250D01*
X215250D02*
Y140250D01*
Y205250D02*
Y165250D01*
X270250Y180250D02*
Y140250D01*
Y205250D02*
Y180250D01*
X325250Y165250D02*
Y140250D01*
Y205250D02*
Y165250D01*
X380250D02*
Y140250D01*
Y205250D02*
Y165250D01*
X435250D02*
Y140250D01*
Y180250D02*
Y165250D01*
Y205250D02*
Y180250D01*
X490250Y100250D02*
X540250D01*
X590250*
Y50250D02*
Y100250D01*
X640250*
D02*
D113*
X50250Y205250D03*
X70250D03*
X75250Y15250D03*
X95250D03*
X105250Y205250D03*
X125250D03*
X160250D03*
X175250Y15250D03*
X180250Y205250D03*
X195250Y15250D03*
X215250Y205250D03*
X235250D03*
X270250D03*
X290250D03*
X325250D03*
X345250D03*
X380250D03*
X400250D03*
X435250D03*
X455250D03*
X490250D03*
X510250D03*
X540250D03*
X560250D03*
X590250D03*
X610250D03*
X640250D03*
X660250D03*
D02*
D115*
X20250Y62573D03*
Y111785D03*
Y160998D03*
X50250Y50250D02*
X85250D01*
Y15250*
X95250*
X50250Y50250D02*
X105250D01*
X95250Y15250D02*
X75250D01*
X105250Y50250D02*
X160250D01*
X125250Y205250D02*
Y230250D01*
X150343*
X70250*
Y205250*
X160250Y50250D02*
X215250D01*
X180250Y205250D02*
Y230250D01*
X150343*
X195250Y15250D02*
X175250D01*
X215250Y50250D02*
X270250D01*
X235250Y205250D02*
Y230250D01*
X350250*
X235250D02*
X180250D01*
X270250Y50250D02*
X325250D01*
X290250Y205250D02*
Y230250D01*
X350250*
X345250Y205250D02*
Y230250D01*
X350250*
X380250Y50250D02*
X435250D01*
X380250D02*
X325250D01*
X400250Y205250D02*
Y230250D01*
X345250*
X435250Y50250D02*
X500250D01*
X455250Y205250D02*
Y230250D01*
X630250*
X510250Y205250D02*
Y230250D01*
X560250*
Y205250D02*
Y230250D01*
X610250*
Y205250D02*
Y230250D01*
X660250*
X630250D02*
X510250D01*
X630250D02*
X400250D01*
X660250Y205250D02*
Y230250D01*
X680250*
X695250Y215250*
Y30250*
X680250Y15250*
X195250*
X715250Y62573D03*
Y111785D03*
Y160998D03*
D02*
D141*
X50250Y50250D03*
Y140250D03*
X105250Y50250D03*
Y140250D03*
X160250Y50250D03*
Y140250D03*
X215250Y50250D03*
Y140250D03*
X270250Y50250D03*
Y140250D03*
X325250Y50250D03*
Y140250D03*
X380250Y50250D03*
Y140250D03*
X435250Y50250D03*
Y140250D03*
X500250Y50250D03*
X590250D03*
D02*
D142*
X65250Y162750D03*
X75250D03*
X120250D03*
X130250D03*
X175250D03*
X185250D03*
X230250D03*
X240250D03*
X285250D03*
X295250D03*
X340250D03*
X350250D03*
X395250D03*
X405250D03*
X450250D03*
X460250D03*
X505250D03*
X515250D03*
X555250D03*
X565250D03*
X605250D03*
X615250D03*
X655250D03*
X665250D03*
X0Y0D02*
M02*
