%FSLAX35Y35*%
%MOIN*%
G04 EasyPC Gerber Version 18.0.8 Build 3632 *
%ADD18R,0.06000X0.06000*%
%ADD70C,0.02500*%
%ADD26C,0.05600*%
%ADD22C,0.06000*%
X0Y0D02*
D02*
D18*
X9000Y180250D03*
X19000D03*
X29000D03*
X39000D03*
X74000Y10250D03*
Y20250D03*
Y30250D03*
Y40250D03*
Y50250D03*
Y60250D03*
Y70250D03*
Y80250D03*
Y90250D03*
Y100250D03*
Y110250D03*
Y120250D03*
Y130250D03*
Y140250D03*
Y150250D03*
Y160250D03*
Y170250D03*
Y180250D03*
X84000Y10250D03*
Y20250D03*
Y30250D03*
Y40250D03*
Y50250D03*
Y60250D03*
Y70250D03*
Y80250D03*
Y90250D03*
Y100250D03*
Y110250D03*
Y120250D03*
Y130250D03*
Y140250D03*
Y150250D03*
Y160250D03*
Y170250D03*
Y180250D03*
D02*
D70*
X9000D02*
Y165250D01*
X19000Y180250D02*
Y165250D01*
X29000Y180250D02*
Y165250D01*
X39000Y180250D02*
Y165250D01*
X64000Y20250D02*
X74000D01*
X64000Y30250D02*
X74000D01*
X64000Y40250D02*
X74000D01*
X64000Y50250D02*
X74000D01*
X64000Y60250D02*
X74000D01*
X64000Y70250D02*
X74000D01*
X64000Y80250D02*
X74000D01*
X64000Y90250D02*
X74000D01*
X64000Y100250D02*
X74000D01*
X64000Y110250D02*
X74000D01*
X64000Y120250D02*
X74000D01*
X64000Y130250D02*
X74000D01*
X64000Y140250D02*
X74000D01*
X64000Y150250D02*
X74000D01*
X64000Y160250D02*
X74000D01*
X64000Y170250D02*
X74000D01*
X84000Y10250D02*
X74000D01*
X84000Y20250D02*
X94000D01*
X84000Y30250D02*
X94000D01*
X84000Y40250D02*
X94000D01*
X84000Y50250D02*
X94000D01*
X84000Y60250D02*
X94000D01*
X84000Y70250D02*
X94000D01*
X84000Y80250D02*
X94000D01*
X84000Y90250D02*
X94000D01*
X84000Y100250D02*
X94000D01*
X84000Y110250D02*
X94000D01*
X84000Y120250D02*
X94000D01*
X84000Y130250D02*
X94000D01*
X84000Y140250D02*
X94000D01*
X84000Y150250D02*
X94000D01*
X84000Y160250D02*
X94000D01*
X84000Y170250D02*
X94000D01*
X84000Y180250D02*
X74000D01*
D02*
D22*
X54000Y20250D03*
Y30250D03*
Y40250D03*
Y50250D03*
Y60250D03*
Y70250D03*
Y80250D03*
Y90250D03*
Y100250D03*
Y110250D03*
Y120250D03*
Y130250D03*
Y140250D03*
Y150250D03*
Y160250D03*
Y170250D03*
X94000Y20250D03*
Y30250D03*
Y40250D03*
Y50250D03*
Y60250D03*
Y70250D03*
Y80250D03*
Y90250D03*
Y100250D03*
Y110250D03*
Y120250D03*
Y130250D03*
Y140250D03*
Y150250D03*
Y160250D03*
Y170250D03*
X104000Y20250D03*
Y30250D03*
Y40250D03*
Y50250D03*
Y60250D03*
Y70250D03*
Y80250D03*
Y90250D03*
Y100250D03*
Y110250D03*
Y120250D03*
Y130250D03*
Y140250D03*
Y150250D03*
Y160250D03*
Y170250D03*
D02*
D26*
X9000Y165250D03*
X19000D03*
X29000D03*
X39000Y75250D03*
Y85250D03*
Y95250D03*
Y105250D03*
Y115250D03*
Y125250D03*
Y165250D03*
X64000Y20250D03*
Y30250D03*
Y40250D03*
Y50250D03*
Y60250D03*
Y70250D03*
Y80250D03*
Y90250D03*
Y100250D03*
Y110250D03*
Y120250D03*
Y130250D03*
Y140250D03*
Y150250D03*
Y160250D03*
Y170250D03*
X0Y0D02*
M02*
