G04 #@! TF.FileFunction,Soldermask,Top*
%FSLAX46Y46*%
G04 Gerber Fmt 4.6, Leading zero omitted, Abs format (unit mm)*
G04 Created by KiCad (PCBNEW 4.0.7) date 03/08/18 20:01:15*
%MOMM*%
%LPD*%
G01*
G04 APERTURE LIST*
%ADD10C,0.200000*%
%ADD11C,3.900000*%
%ADD12R,2.000000X2.000000*%
%ADD13O,2.000000X2.000000*%
%ADD14C,2.180000*%
%ADD15R,2.200000X2.200000*%
%ADD16O,2.200000X2.200000*%
%ADD17R,3.400000X3.400000*%
%ADD18R,3.200000X3.200000*%
%ADD19O,3.200000X3.200000*%
%ADD20R,2.400000X2.400000*%
%ADD21C,2.400000*%
%ADD22C,2.200000*%
%ADD23C,2.000000*%
%ADD24R,2.250000X2.250000*%
%ADD25C,2.250000*%
%ADD26C,5.400000*%
G04 APERTURE END LIST*
D10*
D11*
X167640000Y-152400000D03*
X186690000Y-152400000D03*
X166370000Y-102870000D03*
X186690000Y-102870000D03*
D12*
X168910000Y-109220000D03*
D13*
X184150000Y-142240000D03*
X168910000Y-111760000D03*
X184150000Y-139700000D03*
X168910000Y-114300000D03*
X184150000Y-137160000D03*
X168910000Y-116840000D03*
X184150000Y-134620000D03*
X168910000Y-119380000D03*
X184150000Y-132080000D03*
X168910000Y-121920000D03*
X184150000Y-129540000D03*
X168910000Y-124460000D03*
X184150000Y-127000000D03*
X168910000Y-127000000D03*
X184150000Y-124460000D03*
X168910000Y-129540000D03*
X184150000Y-121920000D03*
X168910000Y-132080000D03*
X184150000Y-119380000D03*
X168910000Y-134620000D03*
X184150000Y-116840000D03*
X168910000Y-137160000D03*
X184150000Y-114300000D03*
X168910000Y-139700000D03*
X184150000Y-111760000D03*
X168910000Y-142240000D03*
X184150000Y-109220000D03*
X168910000Y-144780000D03*
X184150000Y-144780000D03*
D14*
X168910000Y-106680000D03*
X184150000Y-106680000D03*
X184150000Y-147320000D03*
X168910000Y-147320000D03*
D15*
X193040000Y-121920000D03*
D16*
X193040000Y-119380000D03*
X193040000Y-116840000D03*
D17*
X191770000Y-160020000D03*
X195580000Y-160020000D03*
D18*
X195580000Y-153670000D03*
D19*
X195580000Y-140970000D03*
D20*
X198120000Y-86360000D03*
D21*
X201620000Y-86360000D03*
D12*
X163830000Y-113030000D03*
D13*
X161290000Y-113030000D03*
X158750000Y-113030000D03*
X156210000Y-113030000D03*
X153670000Y-113030000D03*
D15*
X156210000Y-135890000D03*
D22*
X158750000Y-135890000D03*
D15*
X161290000Y-135890000D03*
D22*
X163830000Y-135890000D03*
D23*
X157480000Y-161290000D03*
D13*
X157480000Y-151130000D03*
D23*
X161290000Y-161290000D03*
D13*
X161290000Y-151130000D03*
D12*
X194310000Y-133350000D03*
D23*
X191810000Y-133350000D03*
X143510000Y-158750000D03*
D13*
X153670000Y-158750000D03*
D23*
X143510000Y-156210000D03*
D13*
X153670000Y-156210000D03*
D18*
X191770000Y-153670000D03*
D19*
X191770000Y-140970000D03*
D18*
X191770000Y-74930000D03*
D19*
X204470000Y-74930000D03*
D12*
X162560000Y-125730000D03*
D13*
X154940000Y-120650000D03*
X162560000Y-123190000D03*
X154940000Y-123190000D03*
X162560000Y-120650000D03*
X154940000Y-125730000D03*
D24*
X140970000Y-78740000D03*
D25*
X143470000Y-78740000D03*
X145970000Y-78740000D03*
X148470000Y-78740000D03*
D24*
X140970000Y-88900000D03*
D25*
X143470000Y-88900000D03*
X145970000Y-88900000D03*
X148470000Y-88900000D03*
D24*
X140970000Y-99060000D03*
D25*
X143470000Y-99060000D03*
X145970000Y-99060000D03*
X148470000Y-99060000D03*
D24*
X140970000Y-109220000D03*
D25*
X143470000Y-109220000D03*
X145970000Y-109220000D03*
X148470000Y-109220000D03*
D24*
X140970000Y-119380000D03*
D25*
X143470000Y-119380000D03*
X145970000Y-119380000D03*
X148470000Y-119380000D03*
D24*
X140970000Y-129540000D03*
D25*
X143470000Y-129540000D03*
X145970000Y-129540000D03*
X148470000Y-129540000D03*
D24*
X140970000Y-149860000D03*
D25*
X143470000Y-149860000D03*
X145970000Y-149860000D03*
X148470000Y-149860000D03*
D24*
X140970000Y-139700000D03*
D25*
X143470000Y-139700000D03*
X145970000Y-139700000D03*
X148470000Y-139700000D03*
D26*
X134620000Y-116840000D03*
X134620000Y-103886000D03*
X134620000Y-129794000D03*
X201930000Y-116840000D03*
X201930000Y-103886000D03*
X201930000Y-129794000D03*
M02*
