M48
;DRILL file {KiCad 4.0.7} date 03/08/18 20:01:18
;FORMAT={-:-/ absolute / metric / decimal}
FMAT,2
METRIC,TZ
T1C0.800
T2C0.900
T3C1.000
T4C1.400
T5C4.000
%
G90
G05
M71
T1
X143.51Y-156.21
X143.51Y-158.75
X153.67Y-113.03
X153.67Y-156.21
X153.67Y-158.75
X154.94Y-120.65
X154.94Y-123.19
X154.94Y-125.73
X156.21Y-113.03
X157.48Y-151.13
X157.48Y-161.29
X158.75Y-113.03
X161.29Y-113.03
X161.29Y-151.13
X161.29Y-161.29
X162.56Y-120.65
X162.56Y-123.19
X162.56Y-125.73
X163.83Y-113.03
X168.91Y-109.22
X168.91Y-111.76
X168.91Y-114.3
X168.91Y-116.84
X168.91Y-119.38
X168.91Y-121.92
X168.91Y-124.46
X168.91Y-127.
X168.91Y-129.54
X168.91Y-132.08
X168.91Y-134.62
X168.91Y-137.16
X168.91Y-139.7
X168.91Y-142.24
X168.91Y-144.78
X184.15Y-109.22
X184.15Y-111.76
X184.15Y-114.3
X184.15Y-116.84
X184.15Y-119.38
X184.15Y-121.92
X184.15Y-124.46
X184.15Y-127.
X184.15Y-129.54
X184.15Y-132.08
X184.15Y-134.62
X184.15Y-137.16
X184.15Y-139.7
X184.15Y-142.24
X184.15Y-144.78
X191.81Y-133.35
X194.31Y-133.35
T2
X140.97Y-78.74
X140.97Y-88.9
X140.97Y-99.06
X140.97Y-109.22
X140.97Y-119.38
X140.97Y-129.54
X140.97Y-139.7
X140.97Y-149.86
X143.47Y-78.74
X143.47Y-88.9
X143.47Y-99.06
X143.47Y-109.22
X143.47Y-119.38
X143.47Y-129.54
X143.47Y-139.7
X143.47Y-149.86
X145.97Y-78.74
X145.97Y-88.9
X145.97Y-99.06
X145.97Y-109.22
X145.97Y-119.38
X145.97Y-129.54
X145.97Y-139.7
X145.97Y-149.86
X148.47Y-78.74
X148.47Y-88.9
X148.47Y-99.06
X148.47Y-109.22
X148.47Y-119.38
X148.47Y-129.54
X148.47Y-139.7
X148.47Y-149.86
X156.21Y-135.89
X158.75Y-135.89
X161.29Y-135.89
X163.83Y-135.89
T3
X191.77Y-160.02
X193.04Y-116.84
X193.04Y-119.38
X193.04Y-121.92
X195.58Y-160.02
X198.12Y-86.36
X201.62Y-86.36
T4
X191.77Y-74.93
X191.77Y-140.97
X191.77Y-153.67
X195.58Y-140.97
X195.58Y-153.67
X204.47Y-74.93
T5
X134.62Y-103.886
X134.62Y-116.84
X134.62Y-129.794
X201.93Y-103.886
X201.93Y-116.84
X201.93Y-129.794
T0
M30
