%FSLAX45Y45*%
G04 Gerber Fmt 4.5, Leading zero omitted, Abs format (unit mm)*
G04 Created by KiCad (PCBNEW 4.0.7) date 03/08/18 20:01:22*
%MOMM*%
%LPD*%
G01*
G04 APERTURE LIST*
%ADD10C,0.127000*%
%ADD11C,0.200000*%
%ADD12C,0.300000*%
G04 APERTURE END LIST*
D10*
D11*
X12954000Y-16510000D02*
X20701000Y-16510000D01*
X20701000Y-6604000D02*
X12954000Y-6604000D01*
X12954000Y-16510000D02*
X12954000Y-16383000D01*
X20701000Y-11176000D02*
X20701000Y-16510000D01*
X20701000Y-6604000D02*
X20701000Y-11176000D01*
X12954000Y-16383000D02*
X12954000Y-6604000D01*
D11*
X14311000Y-15581000D02*
X14391000Y-15661000D01*
X14391000Y-15581000D02*
X14311000Y-15661000D01*
X14311000Y-15835000D02*
X14391000Y-15915000D01*
X14391000Y-15835000D02*
X14311000Y-15915000D01*
X15327000Y-11263000D02*
X15407000Y-11343000D01*
X15407000Y-11263000D02*
X15327000Y-11343000D01*
X15327000Y-15581000D02*
X15407000Y-15661000D01*
X15407000Y-15581000D02*
X15327000Y-15661000D01*
X15327000Y-15835000D02*
X15407000Y-15915000D01*
X15407000Y-15835000D02*
X15327000Y-15915000D01*
X15454000Y-12025000D02*
X15534000Y-12105000D01*
X15534000Y-12025000D02*
X15454000Y-12105000D01*
X15454000Y-12279000D02*
X15534000Y-12359000D01*
X15534000Y-12279000D02*
X15454000Y-12359000D01*
X15454000Y-12533000D02*
X15534000Y-12613000D01*
X15534000Y-12533000D02*
X15454000Y-12613000D01*
X15581000Y-11263000D02*
X15661000Y-11343000D01*
X15661000Y-11263000D02*
X15581000Y-11343000D01*
X15708000Y-15073000D02*
X15788000Y-15153000D01*
X15788000Y-15073000D02*
X15708000Y-15153000D01*
X15708000Y-16089000D02*
X15788000Y-16169000D01*
X15788000Y-16089000D02*
X15708000Y-16169000D01*
X15835000Y-11263000D02*
X15915000Y-11343000D01*
X15915000Y-11263000D02*
X15835000Y-11343000D01*
X16089000Y-11263000D02*
X16169000Y-11343000D01*
X16169000Y-11263000D02*
X16089000Y-11343000D01*
X16089000Y-15073000D02*
X16169000Y-15153000D01*
X16169000Y-15073000D02*
X16089000Y-15153000D01*
X16089000Y-16089000D02*
X16169000Y-16169000D01*
X16169000Y-16089000D02*
X16089000Y-16169000D01*
X16216000Y-12025000D02*
X16296000Y-12105000D01*
X16296000Y-12025000D02*
X16216000Y-12105000D01*
X16216000Y-12279000D02*
X16296000Y-12359000D01*
X16296000Y-12279000D02*
X16216000Y-12359000D01*
X16216000Y-12533000D02*
X16296000Y-12613000D01*
X16296000Y-12533000D02*
X16216000Y-12613000D01*
X16343000Y-11263000D02*
X16423000Y-11343000D01*
X16423000Y-11263000D02*
X16343000Y-11343000D01*
X16851000Y-10882000D02*
X16931000Y-10962000D01*
X16931000Y-10882000D02*
X16851000Y-10962000D01*
X16851000Y-11136000D02*
X16931000Y-11216000D01*
X16931000Y-11136000D02*
X16851000Y-11216000D01*
X16851000Y-11390000D02*
X16931000Y-11470000D01*
X16931000Y-11390000D02*
X16851000Y-11470000D01*
X16851000Y-11644000D02*
X16931000Y-11724000D01*
X16931000Y-11644000D02*
X16851000Y-11724000D01*
X16851000Y-11898000D02*
X16931000Y-11978000D01*
X16931000Y-11898000D02*
X16851000Y-11978000D01*
X16851000Y-12152000D02*
X16931000Y-12232000D01*
X16931000Y-12152000D02*
X16851000Y-12232000D01*
X16851000Y-12406000D02*
X16931000Y-12486000D01*
X16931000Y-12406000D02*
X16851000Y-12486000D01*
X16851000Y-12660000D02*
X16931000Y-12740000D01*
X16931000Y-12660000D02*
X16851000Y-12740000D01*
X16851000Y-12914000D02*
X16931000Y-12994000D01*
X16931000Y-12914000D02*
X16851000Y-12994000D01*
X16851000Y-13168000D02*
X16931000Y-13248000D01*
X16931000Y-13168000D02*
X16851000Y-13248000D01*
X16851000Y-13422000D02*
X16931000Y-13502000D01*
X16931000Y-13422000D02*
X16851000Y-13502000D01*
X16851000Y-13676000D02*
X16931000Y-13756000D01*
X16931000Y-13676000D02*
X16851000Y-13756000D01*
X16851000Y-13930000D02*
X16931000Y-14010000D01*
X16931000Y-13930000D02*
X16851000Y-14010000D01*
X16851000Y-14184000D02*
X16931000Y-14264000D01*
X16931000Y-14184000D02*
X16851000Y-14264000D01*
X16851000Y-14438000D02*
X16931000Y-14518000D01*
X16931000Y-14438000D02*
X16851000Y-14518000D01*
X18375000Y-10882000D02*
X18455000Y-10962000D01*
X18455000Y-10882000D02*
X18375000Y-10962000D01*
X18375000Y-11136000D02*
X18455000Y-11216000D01*
X18455000Y-11136000D02*
X18375000Y-11216000D01*
X18375000Y-11390000D02*
X18455000Y-11470000D01*
X18455000Y-11390000D02*
X18375000Y-11470000D01*
X18375000Y-11644000D02*
X18455000Y-11724000D01*
X18455000Y-11644000D02*
X18375000Y-11724000D01*
X18375000Y-11898000D02*
X18455000Y-11978000D01*
X18455000Y-11898000D02*
X18375000Y-11978000D01*
X18375000Y-12152000D02*
X18455000Y-12232000D01*
X18455000Y-12152000D02*
X18375000Y-12232000D01*
X18375000Y-12406000D02*
X18455000Y-12486000D01*
X18455000Y-12406000D02*
X18375000Y-12486000D01*
X18375000Y-12660000D02*
X18455000Y-12740000D01*
X18455000Y-12660000D02*
X18375000Y-12740000D01*
X18375000Y-12914000D02*
X18455000Y-12994000D01*
X18455000Y-12914000D02*
X18375000Y-12994000D01*
X18375000Y-13168000D02*
X18455000Y-13248000D01*
X18455000Y-13168000D02*
X18375000Y-13248000D01*
X18375000Y-13422000D02*
X18455000Y-13502000D01*
X18455000Y-13422000D02*
X18375000Y-13502000D01*
X18375000Y-13676000D02*
X18455000Y-13756000D01*
X18455000Y-13676000D02*
X18375000Y-13756000D01*
X18375000Y-13930000D02*
X18455000Y-14010000D01*
X18455000Y-13930000D02*
X18375000Y-14010000D01*
X18375000Y-14184000D02*
X18455000Y-14264000D01*
X18455000Y-14184000D02*
X18375000Y-14264000D01*
X18375000Y-14438000D02*
X18455000Y-14518000D01*
X18455000Y-14438000D02*
X18375000Y-14518000D01*
X19141000Y-13295000D02*
X19221000Y-13375000D01*
X19221000Y-13295000D02*
X19141000Y-13375000D01*
X19391000Y-13295000D02*
X19471000Y-13375000D01*
X19471000Y-13295000D02*
X19391000Y-13375000D01*
X14142000Y-7874000D02*
G75*
G03X14142000Y-7874000I-45000J0D01*
G01*
X14142000Y-8890000D02*
G75*
G03X14142000Y-8890000I-45000J0D01*
G01*
X14142000Y-9906000D02*
G75*
G03X14142000Y-9906000I-45000J0D01*
G01*
X14142000Y-10922000D02*
G75*
G03X14142000Y-10922000I-45000J0D01*
G01*
X14142000Y-11938000D02*
G75*
G03X14142000Y-11938000I-45000J0D01*
G01*
X14142000Y-12954000D02*
G75*
G03X14142000Y-12954000I-45000J0D01*
G01*
X14142000Y-13970000D02*
G75*
G03X14142000Y-13970000I-45000J0D01*
G01*
X14142000Y-14986000D02*
G75*
G03X14142000Y-14986000I-45000J0D01*
G01*
X14392000Y-7874000D02*
G75*
G03X14392000Y-7874000I-45000J0D01*
G01*
X14392000Y-8890000D02*
G75*
G03X14392000Y-8890000I-45000J0D01*
G01*
X14392000Y-9906000D02*
G75*
G03X14392000Y-9906000I-45000J0D01*
G01*
X14392000Y-10922000D02*
G75*
G03X14392000Y-10922000I-45000J0D01*
G01*
X14392000Y-11938000D02*
G75*
G03X14392000Y-11938000I-45000J0D01*
G01*
X14392000Y-12954000D02*
G75*
G03X14392000Y-12954000I-45000J0D01*
G01*
X14392000Y-13970000D02*
G75*
G03X14392000Y-13970000I-45000J0D01*
G01*
X14392000Y-14986000D02*
G75*
G03X14392000Y-14986000I-45000J0D01*
G01*
X14642000Y-7874000D02*
G75*
G03X14642000Y-7874000I-45000J0D01*
G01*
X14642000Y-8890000D02*
G75*
G03X14642000Y-8890000I-45000J0D01*
G01*
X14642000Y-9906000D02*
G75*
G03X14642000Y-9906000I-45000J0D01*
G01*
X14642000Y-10922000D02*
G75*
G03X14642000Y-10922000I-45000J0D01*
G01*
X14642000Y-11938000D02*
G75*
G03X14642000Y-11938000I-45000J0D01*
G01*
X14642000Y-12954000D02*
G75*
G03X14642000Y-12954000I-45000J0D01*
G01*
X14642000Y-13970000D02*
G75*
G03X14642000Y-13970000I-45000J0D01*
G01*
X14642000Y-14986000D02*
G75*
G03X14642000Y-14986000I-45000J0D01*
G01*
X14892000Y-7874000D02*
G75*
G03X14892000Y-7874000I-45000J0D01*
G01*
X14892000Y-8890000D02*
G75*
G03X14892000Y-8890000I-45000J0D01*
G01*
X14892000Y-9906000D02*
G75*
G03X14892000Y-9906000I-45000J0D01*
G01*
X14892000Y-10922000D02*
G75*
G03X14892000Y-10922000I-45000J0D01*
G01*
X14892000Y-11938000D02*
G75*
G03X14892000Y-11938000I-45000J0D01*
G01*
X14892000Y-12954000D02*
G75*
G03X14892000Y-12954000I-45000J0D01*
G01*
X14892000Y-13970000D02*
G75*
G03X14892000Y-13970000I-45000J0D01*
G01*
X14892000Y-14986000D02*
G75*
G03X14892000Y-14986000I-45000J0D01*
G01*
X15666000Y-13589000D02*
G75*
G03X15666000Y-13589000I-45000J0D01*
G01*
X15920000Y-13589000D02*
G75*
G03X15920000Y-13589000I-45000J0D01*
G01*
X16174000Y-13589000D02*
G75*
G03X16174000Y-13589000I-45000J0D01*
G01*
X16428000Y-13589000D02*
G75*
G03X16428000Y-13589000I-45000J0D01*
G01*
X19177000Y-15952000D02*
X19177000Y-16052000D01*
X19127000Y-16002000D02*
X19227000Y-16002000D01*
X19304000Y-11634000D02*
X19304000Y-11734000D01*
X19254000Y-11684000D02*
X19354000Y-11684000D01*
X19304000Y-11888000D02*
X19304000Y-11988000D01*
X19254000Y-11938000D02*
X19354000Y-11938000D01*
X19304000Y-12142000D02*
X19304000Y-12242000D01*
X19254000Y-12192000D02*
X19354000Y-12192000D01*
X19558000Y-15952000D02*
X19558000Y-16052000D01*
X19508000Y-16002000D02*
X19608000Y-16002000D01*
X19812000Y-8586000D02*
X19812000Y-8686000D01*
X19762000Y-8636000D02*
X19862000Y-8636000D01*
X20162000Y-8586000D02*
X20162000Y-8686000D01*
X20112000Y-8636000D02*
X20212000Y-8636000D01*
X19226498Y-7542498D02*
X19226498Y-7443502D01*
X19127502Y-7443502D01*
X19127502Y-7542498D01*
X19226498Y-7542498D01*
X19226498Y-14146498D02*
X19226498Y-14047502D01*
X19127502Y-14047502D01*
X19127502Y-14146498D01*
X19226498Y-14146498D01*
X19226498Y-15416498D02*
X19226498Y-15317502D01*
X19127502Y-15317502D01*
X19127502Y-15416498D01*
X19226498Y-15416498D01*
X19607498Y-14146498D02*
X19607498Y-14047502D01*
X19508502Y-14047502D01*
X19508502Y-14146498D01*
X19607498Y-14146498D01*
X19607498Y-15416498D02*
X19607498Y-15317502D01*
X19508502Y-15317502D01*
X19508502Y-15416498D01*
X19607498Y-15416498D01*
X20496498Y-7542498D02*
X20496498Y-7443502D01*
X20397502Y-7443502D01*
X20397502Y-7542498D01*
X20496498Y-7542498D01*
X13462000Y-10588600D02*
X13662000Y-10388600D01*
X13462000Y-10188600D01*
X13262000Y-10388600D01*
X13462000Y-10588600D01*
X13462000Y-11884000D02*
X13662000Y-11684000D01*
X13462000Y-11484000D01*
X13262000Y-11684000D01*
X13462000Y-11884000D01*
X13462000Y-13179400D02*
X13662000Y-12979400D01*
X13462000Y-12779400D01*
X13262000Y-12979400D01*
X13462000Y-13179400D01*
X20193000Y-10588600D02*
X20393000Y-10388600D01*
X20193000Y-10188600D01*
X19993000Y-10388600D01*
X20193000Y-10588600D01*
X20193000Y-11884000D02*
X20393000Y-11684000D01*
X20193000Y-11484000D01*
X19993000Y-11684000D01*
X20193000Y-11884000D01*
X20193000Y-13179400D02*
X20393000Y-12979400D01*
X20193000Y-12779400D01*
X19993000Y-12979400D01*
X20193000Y-13179400D01*
D12*
X13215428Y-16985714D02*
X13215428Y-16685714D01*
X13286857Y-16685714D01*
X13329714Y-16700000D01*
X13358286Y-16728571D01*
X13372571Y-16757143D01*
X13386857Y-16814286D01*
X13386857Y-16857143D01*
X13372571Y-16914286D01*
X13358286Y-16942857D01*
X13329714Y-16971429D01*
X13286857Y-16985714D01*
X13215428Y-16985714D01*
X13515428Y-16985714D02*
X13515428Y-16785714D01*
X13515428Y-16842857D02*
X13529714Y-16814286D01*
X13544000Y-16800000D01*
X13572571Y-16785714D01*
X13601143Y-16785714D01*
X13701143Y-16985714D02*
X13701143Y-16785714D01*
X13701143Y-16685714D02*
X13686857Y-16700000D01*
X13701143Y-16714286D01*
X13715428Y-16700000D01*
X13701143Y-16685714D01*
X13701143Y-16714286D01*
X13886857Y-16985714D02*
X13858286Y-16971429D01*
X13844000Y-16942857D01*
X13844000Y-16685714D01*
X14044000Y-16985714D02*
X14015428Y-16971429D01*
X14001143Y-16942857D01*
X14001143Y-16685714D01*
X14386857Y-16985714D02*
X14386857Y-16685714D01*
X14486857Y-16900000D01*
X14586857Y-16685714D01*
X14586857Y-16985714D01*
X14858286Y-16985714D02*
X14858286Y-16828572D01*
X14844000Y-16800000D01*
X14815428Y-16785714D01*
X14758286Y-16785714D01*
X14729714Y-16800000D01*
X14858286Y-16971429D02*
X14829714Y-16985714D01*
X14758286Y-16985714D01*
X14729714Y-16971429D01*
X14715428Y-16942857D01*
X14715428Y-16914286D01*
X14729714Y-16885714D01*
X14758286Y-16871429D01*
X14829714Y-16871429D01*
X14858286Y-16857143D01*
X15001143Y-16785714D02*
X15001143Y-17085714D01*
X15001143Y-16800000D02*
X15029714Y-16785714D01*
X15086857Y-16785714D01*
X15115428Y-16800000D01*
X15129714Y-16814286D01*
X15144000Y-16842857D01*
X15144000Y-16928572D01*
X15129714Y-16957143D01*
X15115428Y-16971429D01*
X15086857Y-16985714D01*
X15029714Y-16985714D01*
X15001143Y-16971429D01*
X15272571Y-16957143D02*
X15286857Y-16971429D01*
X15272571Y-16985714D01*
X15258286Y-16971429D01*
X15272571Y-16957143D01*
X15272571Y-16985714D01*
X15272571Y-16800000D02*
X15286857Y-16814286D01*
X15272571Y-16828572D01*
X15258286Y-16814286D01*
X15272571Y-16800000D01*
X15272571Y-16828572D01*
X12864000Y-17440000D02*
X12944000Y-17520000D01*
X12944000Y-17440000D02*
X12864000Y-17520000D01*
X13272571Y-17315714D02*
X13301143Y-17315714D01*
X13329714Y-17330000D01*
X13344000Y-17344286D01*
X13358286Y-17372857D01*
X13372571Y-17430000D01*
X13372571Y-17501429D01*
X13358286Y-17558572D01*
X13344000Y-17587143D01*
X13329714Y-17601429D01*
X13301143Y-17615714D01*
X13272571Y-17615714D01*
X13244000Y-17601429D01*
X13229714Y-17587143D01*
X13215428Y-17558572D01*
X13201143Y-17501429D01*
X13201143Y-17430000D01*
X13215428Y-17372857D01*
X13229714Y-17344286D01*
X13244000Y-17330000D01*
X13272571Y-17315714D01*
X13501143Y-17587143D02*
X13515428Y-17601429D01*
X13501143Y-17615714D01*
X13486857Y-17601429D01*
X13501143Y-17587143D01*
X13501143Y-17615714D01*
X13686857Y-17444286D02*
X13658286Y-17430000D01*
X13644000Y-17415714D01*
X13629714Y-17387143D01*
X13629714Y-17372857D01*
X13644000Y-17344286D01*
X13658286Y-17330000D01*
X13686857Y-17315714D01*
X13744000Y-17315714D01*
X13772571Y-17330000D01*
X13786857Y-17344286D01*
X13801143Y-17372857D01*
X13801143Y-17387143D01*
X13786857Y-17415714D01*
X13772571Y-17430000D01*
X13744000Y-17444286D01*
X13686857Y-17444286D01*
X13658286Y-17458572D01*
X13644000Y-17472857D01*
X13629714Y-17501429D01*
X13629714Y-17558572D01*
X13644000Y-17587143D01*
X13658286Y-17601429D01*
X13686857Y-17615714D01*
X13744000Y-17615714D01*
X13772571Y-17601429D01*
X13786857Y-17587143D01*
X13801143Y-17558572D01*
X13801143Y-17501429D01*
X13786857Y-17472857D01*
X13772571Y-17458572D01*
X13744000Y-17444286D01*
X13986857Y-17315714D02*
X14015428Y-17315714D01*
X14044000Y-17330000D01*
X14058286Y-17344286D01*
X14072571Y-17372857D01*
X14086857Y-17430000D01*
X14086857Y-17501429D01*
X14072571Y-17558572D01*
X14058286Y-17587143D01*
X14044000Y-17601429D01*
X14015428Y-17615714D01*
X13986857Y-17615714D01*
X13958286Y-17601429D01*
X13944000Y-17587143D01*
X13929714Y-17558572D01*
X13915428Y-17501429D01*
X13915428Y-17430000D01*
X13929714Y-17372857D01*
X13944000Y-17344286D01*
X13958286Y-17330000D01*
X13986857Y-17315714D01*
X14215428Y-17615714D02*
X14215428Y-17415714D01*
X14215428Y-17444286D02*
X14229714Y-17430000D01*
X14258286Y-17415714D01*
X14301143Y-17415714D01*
X14329714Y-17430000D01*
X14344000Y-17458572D01*
X14344000Y-17615714D01*
X14344000Y-17458572D02*
X14358286Y-17430000D01*
X14386857Y-17415714D01*
X14429714Y-17415714D01*
X14458286Y-17430000D01*
X14472571Y-17458572D01*
X14472571Y-17615714D01*
X14615428Y-17615714D02*
X14615428Y-17415714D01*
X14615428Y-17444286D02*
X14629714Y-17430000D01*
X14658286Y-17415714D01*
X14701143Y-17415714D01*
X14729714Y-17430000D01*
X14744000Y-17458572D01*
X14744000Y-17615714D01*
X14744000Y-17458572D02*
X14758286Y-17430000D01*
X14786857Y-17415714D01*
X14829714Y-17415714D01*
X14858286Y-17430000D01*
X14872571Y-17458572D01*
X14872571Y-17615714D01*
X15458286Y-17301429D02*
X15201143Y-17687143D01*
X15844000Y-17315714D02*
X15872571Y-17315714D01*
X15901143Y-17330000D01*
X15915428Y-17344286D01*
X15929714Y-17372857D01*
X15944000Y-17430000D01*
X15944000Y-17501429D01*
X15929714Y-17558572D01*
X15915428Y-17587143D01*
X15901143Y-17601429D01*
X15872571Y-17615714D01*
X15844000Y-17615714D01*
X15815428Y-17601429D01*
X15801143Y-17587143D01*
X15786857Y-17558572D01*
X15772571Y-17501429D01*
X15772571Y-17430000D01*
X15786857Y-17372857D01*
X15801143Y-17344286D01*
X15815428Y-17330000D01*
X15844000Y-17315714D01*
X16072571Y-17587143D02*
X16086857Y-17601429D01*
X16072571Y-17615714D01*
X16058286Y-17601429D01*
X16072571Y-17587143D01*
X16072571Y-17615714D01*
X16272571Y-17315714D02*
X16301143Y-17315714D01*
X16329714Y-17330000D01*
X16344000Y-17344286D01*
X16358285Y-17372857D01*
X16372571Y-17430000D01*
X16372571Y-17501429D01*
X16358285Y-17558572D01*
X16344000Y-17587143D01*
X16329714Y-17601429D01*
X16301143Y-17615714D01*
X16272571Y-17615714D01*
X16244000Y-17601429D01*
X16229714Y-17587143D01*
X16215428Y-17558572D01*
X16201143Y-17501429D01*
X16201143Y-17430000D01*
X16215428Y-17372857D01*
X16229714Y-17344286D01*
X16244000Y-17330000D01*
X16272571Y-17315714D01*
X16472571Y-17315714D02*
X16658285Y-17315714D01*
X16558285Y-17430000D01*
X16601143Y-17430000D01*
X16629714Y-17444286D01*
X16644000Y-17458572D01*
X16658285Y-17487143D01*
X16658285Y-17558572D01*
X16644000Y-17587143D01*
X16629714Y-17601429D01*
X16601143Y-17615714D01*
X16515428Y-17615714D01*
X16486857Y-17601429D01*
X16472571Y-17587143D01*
X16944000Y-17615714D02*
X16772571Y-17615714D01*
X16858286Y-17615714D02*
X16858286Y-17315714D01*
X16829714Y-17358572D01*
X16801143Y-17387143D01*
X16772571Y-17401429D01*
X17058286Y-17315714D02*
X17058286Y-17372857D01*
X17172571Y-17315714D02*
X17172571Y-17372857D01*
X17615428Y-17730000D02*
X17601143Y-17715714D01*
X17572571Y-17672857D01*
X17558286Y-17644286D01*
X17544000Y-17601429D01*
X17529714Y-17530000D01*
X17529714Y-17472857D01*
X17544000Y-17401429D01*
X17558286Y-17358572D01*
X17572571Y-17330000D01*
X17601143Y-17287143D01*
X17615428Y-17272857D01*
X17872571Y-17315714D02*
X17729714Y-17315714D01*
X17715428Y-17458572D01*
X17729714Y-17444286D01*
X17758286Y-17430000D01*
X17829714Y-17430000D01*
X17858286Y-17444286D01*
X17872571Y-17458572D01*
X17886857Y-17487143D01*
X17886857Y-17558572D01*
X17872571Y-17587143D01*
X17858286Y-17601429D01*
X17829714Y-17615714D01*
X17758286Y-17615714D01*
X17729714Y-17601429D01*
X17715428Y-17587143D01*
X18172571Y-17615714D02*
X18001143Y-17615714D01*
X18086857Y-17615714D02*
X18086857Y-17315714D01*
X18058286Y-17358572D01*
X18029714Y-17387143D01*
X18001143Y-17401429D01*
X18529714Y-17615714D02*
X18529714Y-17315714D01*
X18658286Y-17615714D02*
X18658286Y-17458572D01*
X18644000Y-17430000D01*
X18615428Y-17415714D01*
X18572571Y-17415714D01*
X18544000Y-17430000D01*
X18529714Y-17444286D01*
X18844000Y-17615714D02*
X18815428Y-17601429D01*
X18801143Y-17587143D01*
X18786857Y-17558572D01*
X18786857Y-17472857D01*
X18801143Y-17444286D01*
X18815428Y-17430000D01*
X18844000Y-17415714D01*
X18886857Y-17415714D01*
X18915428Y-17430000D01*
X18929714Y-17444286D01*
X18944000Y-17472857D01*
X18944000Y-17558572D01*
X18929714Y-17587143D01*
X18915428Y-17601429D01*
X18886857Y-17615714D01*
X18844000Y-17615714D01*
X19115428Y-17615714D02*
X19086857Y-17601429D01*
X19072571Y-17572857D01*
X19072571Y-17315714D01*
X19344000Y-17601429D02*
X19315429Y-17615714D01*
X19258286Y-17615714D01*
X19229714Y-17601429D01*
X19215429Y-17572857D01*
X19215429Y-17458572D01*
X19229714Y-17430000D01*
X19258286Y-17415714D01*
X19315429Y-17415714D01*
X19344000Y-17430000D01*
X19358286Y-17458572D01*
X19358286Y-17487143D01*
X19215429Y-17515714D01*
X19472571Y-17601429D02*
X19501143Y-17615714D01*
X19558286Y-17615714D01*
X19586857Y-17601429D01*
X19601143Y-17572857D01*
X19601143Y-17558572D01*
X19586857Y-17530000D01*
X19558286Y-17515714D01*
X19515429Y-17515714D01*
X19486857Y-17501429D01*
X19472571Y-17472857D01*
X19472571Y-17458572D01*
X19486857Y-17430000D01*
X19515429Y-17415714D01*
X19558286Y-17415714D01*
X19586857Y-17430000D01*
X19701143Y-17730000D02*
X19715429Y-17715714D01*
X19744000Y-17672857D01*
X19758286Y-17644286D01*
X19772571Y-17601429D01*
X19786857Y-17530000D01*
X19786857Y-17472857D01*
X19772571Y-17401429D01*
X19758286Y-17358572D01*
X19744000Y-17330000D01*
X19715429Y-17287143D01*
X19701143Y-17272857D01*
X12944000Y-17876000D02*
G75*
G03X12944000Y-17876000I-45000J0D01*
G01*
X13272571Y-17711714D02*
X13301143Y-17711714D01*
X13329714Y-17726000D01*
X13344000Y-17740286D01*
X13358286Y-17768857D01*
X13372571Y-17826000D01*
X13372571Y-17897429D01*
X13358286Y-17954572D01*
X13344000Y-17983143D01*
X13329714Y-17997429D01*
X13301143Y-18011714D01*
X13272571Y-18011714D01*
X13244000Y-17997429D01*
X13229714Y-17983143D01*
X13215428Y-17954572D01*
X13201143Y-17897429D01*
X13201143Y-17826000D01*
X13215428Y-17768857D01*
X13229714Y-17740286D01*
X13244000Y-17726000D01*
X13272571Y-17711714D01*
X13501143Y-17983143D02*
X13515428Y-17997429D01*
X13501143Y-18011714D01*
X13486857Y-17997429D01*
X13501143Y-17983143D01*
X13501143Y-18011714D01*
X13658286Y-18011714D02*
X13715428Y-18011714D01*
X13744000Y-17997429D01*
X13758286Y-17983143D01*
X13786857Y-17940286D01*
X13801143Y-17883143D01*
X13801143Y-17768857D01*
X13786857Y-17740286D01*
X13772571Y-17726000D01*
X13744000Y-17711714D01*
X13686857Y-17711714D01*
X13658286Y-17726000D01*
X13644000Y-17740286D01*
X13629714Y-17768857D01*
X13629714Y-17840286D01*
X13644000Y-17868857D01*
X13658286Y-17883143D01*
X13686857Y-17897429D01*
X13744000Y-17897429D01*
X13772571Y-17883143D01*
X13786857Y-17868857D01*
X13801143Y-17840286D01*
X13986857Y-17711714D02*
X14015428Y-17711714D01*
X14044000Y-17726000D01*
X14058286Y-17740286D01*
X14072571Y-17768857D01*
X14086857Y-17826000D01*
X14086857Y-17897429D01*
X14072571Y-17954572D01*
X14058286Y-17983143D01*
X14044000Y-17997429D01*
X14015428Y-18011714D01*
X13986857Y-18011714D01*
X13958286Y-17997429D01*
X13944000Y-17983143D01*
X13929714Y-17954572D01*
X13915428Y-17897429D01*
X13915428Y-17826000D01*
X13929714Y-17768857D01*
X13944000Y-17740286D01*
X13958286Y-17726000D01*
X13986857Y-17711714D01*
X14215428Y-18011714D02*
X14215428Y-17811714D01*
X14215428Y-17840286D02*
X14229714Y-17826000D01*
X14258286Y-17811714D01*
X14301143Y-17811714D01*
X14329714Y-17826000D01*
X14344000Y-17854572D01*
X14344000Y-18011714D01*
X14344000Y-17854572D02*
X14358286Y-17826000D01*
X14386857Y-17811714D01*
X14429714Y-17811714D01*
X14458286Y-17826000D01*
X14472571Y-17854572D01*
X14472571Y-18011714D01*
X14615428Y-18011714D02*
X14615428Y-17811714D01*
X14615428Y-17840286D02*
X14629714Y-17826000D01*
X14658286Y-17811714D01*
X14701143Y-17811714D01*
X14729714Y-17826000D01*
X14744000Y-17854572D01*
X14744000Y-18011714D01*
X14744000Y-17854572D02*
X14758286Y-17826000D01*
X14786857Y-17811714D01*
X14829714Y-17811714D01*
X14858286Y-17826000D01*
X14872571Y-17854572D01*
X14872571Y-18011714D01*
X15458286Y-17697429D02*
X15201143Y-18083143D01*
X15844000Y-17711714D02*
X15872571Y-17711714D01*
X15901143Y-17726000D01*
X15915428Y-17740286D01*
X15929714Y-17768857D01*
X15944000Y-17826000D01*
X15944000Y-17897429D01*
X15929714Y-17954572D01*
X15915428Y-17983143D01*
X15901143Y-17997429D01*
X15872571Y-18011714D01*
X15844000Y-18011714D01*
X15815428Y-17997429D01*
X15801143Y-17983143D01*
X15786857Y-17954572D01*
X15772571Y-17897429D01*
X15772571Y-17826000D01*
X15786857Y-17768857D01*
X15801143Y-17740286D01*
X15815428Y-17726000D01*
X15844000Y-17711714D01*
X16072571Y-17983143D02*
X16086857Y-17997429D01*
X16072571Y-18011714D01*
X16058286Y-17997429D01*
X16072571Y-17983143D01*
X16072571Y-18011714D01*
X16272571Y-17711714D02*
X16301143Y-17711714D01*
X16329714Y-17726000D01*
X16344000Y-17740286D01*
X16358285Y-17768857D01*
X16372571Y-17826000D01*
X16372571Y-17897429D01*
X16358285Y-17954572D01*
X16344000Y-17983143D01*
X16329714Y-17997429D01*
X16301143Y-18011714D01*
X16272571Y-18011714D01*
X16244000Y-17997429D01*
X16229714Y-17983143D01*
X16215428Y-17954572D01*
X16201143Y-17897429D01*
X16201143Y-17826000D01*
X16215428Y-17768857D01*
X16229714Y-17740286D01*
X16244000Y-17726000D01*
X16272571Y-17711714D01*
X16472571Y-17711714D02*
X16658285Y-17711714D01*
X16558285Y-17826000D01*
X16601143Y-17826000D01*
X16629714Y-17840286D01*
X16644000Y-17854572D01*
X16658285Y-17883143D01*
X16658285Y-17954572D01*
X16644000Y-17983143D01*
X16629714Y-17997429D01*
X16601143Y-18011714D01*
X16515428Y-18011714D01*
X16486857Y-17997429D01*
X16472571Y-17983143D01*
X16929714Y-17711714D02*
X16786857Y-17711714D01*
X16772571Y-17854572D01*
X16786857Y-17840286D01*
X16815428Y-17826000D01*
X16886857Y-17826000D01*
X16915428Y-17840286D01*
X16929714Y-17854572D01*
X16944000Y-17883143D01*
X16944000Y-17954572D01*
X16929714Y-17983143D01*
X16915428Y-17997429D01*
X16886857Y-18011714D01*
X16815428Y-18011714D01*
X16786857Y-17997429D01*
X16772571Y-17983143D01*
X17058286Y-17711714D02*
X17058286Y-17768857D01*
X17172571Y-17711714D02*
X17172571Y-17768857D01*
X17615428Y-18126000D02*
X17601143Y-18111714D01*
X17572571Y-18068857D01*
X17558286Y-18040286D01*
X17544000Y-17997429D01*
X17529714Y-17926000D01*
X17529714Y-17868857D01*
X17544000Y-17797429D01*
X17558286Y-17754572D01*
X17572571Y-17726000D01*
X17601143Y-17683143D01*
X17615428Y-17668857D01*
X17701143Y-17711714D02*
X17886857Y-17711714D01*
X17786857Y-17826000D01*
X17829714Y-17826000D01*
X17858286Y-17840286D01*
X17872571Y-17854572D01*
X17886857Y-17883143D01*
X17886857Y-17954572D01*
X17872571Y-17983143D01*
X17858286Y-17997429D01*
X17829714Y-18011714D01*
X17744000Y-18011714D01*
X17715428Y-17997429D01*
X17701143Y-17983143D01*
X18144000Y-17711714D02*
X18086857Y-17711714D01*
X18058286Y-17726000D01*
X18044000Y-17740286D01*
X18015428Y-17783143D01*
X18001143Y-17840286D01*
X18001143Y-17954572D01*
X18015428Y-17983143D01*
X18029714Y-17997429D01*
X18058286Y-18011714D01*
X18115428Y-18011714D01*
X18144000Y-17997429D01*
X18158286Y-17983143D01*
X18172571Y-17954572D01*
X18172571Y-17883143D01*
X18158286Y-17854572D01*
X18144000Y-17840286D01*
X18115428Y-17826000D01*
X18058286Y-17826000D01*
X18029714Y-17840286D01*
X18015428Y-17854572D01*
X18001143Y-17883143D01*
X18529714Y-18011714D02*
X18529714Y-17711714D01*
X18658286Y-18011714D02*
X18658286Y-17854572D01*
X18644000Y-17826000D01*
X18615428Y-17811714D01*
X18572571Y-17811714D01*
X18544000Y-17826000D01*
X18529714Y-17840286D01*
X18844000Y-18011714D02*
X18815428Y-17997429D01*
X18801143Y-17983143D01*
X18786857Y-17954572D01*
X18786857Y-17868857D01*
X18801143Y-17840286D01*
X18815428Y-17826000D01*
X18844000Y-17811714D01*
X18886857Y-17811714D01*
X18915428Y-17826000D01*
X18929714Y-17840286D01*
X18944000Y-17868857D01*
X18944000Y-17954572D01*
X18929714Y-17983143D01*
X18915428Y-17997429D01*
X18886857Y-18011714D01*
X18844000Y-18011714D01*
X19115428Y-18011714D02*
X19086857Y-17997429D01*
X19072571Y-17968857D01*
X19072571Y-17711714D01*
X19344000Y-17997429D02*
X19315429Y-18011714D01*
X19258286Y-18011714D01*
X19229714Y-17997429D01*
X19215429Y-17968857D01*
X19215429Y-17854572D01*
X19229714Y-17826000D01*
X19258286Y-17811714D01*
X19315429Y-17811714D01*
X19344000Y-17826000D01*
X19358286Y-17854572D01*
X19358286Y-17883143D01*
X19215429Y-17911714D01*
X19472571Y-17997429D02*
X19501143Y-18011714D01*
X19558286Y-18011714D01*
X19586857Y-17997429D01*
X19601143Y-17968857D01*
X19601143Y-17954572D01*
X19586857Y-17926000D01*
X19558286Y-17911714D01*
X19515429Y-17911714D01*
X19486857Y-17897429D01*
X19472571Y-17868857D01*
X19472571Y-17854572D01*
X19486857Y-17826000D01*
X19515429Y-17811714D01*
X19558286Y-17811714D01*
X19586857Y-17826000D01*
X19701143Y-18126000D02*
X19715429Y-18111714D01*
X19744000Y-18068857D01*
X19758286Y-18040286D01*
X19772571Y-17997429D01*
X19786857Y-17926000D01*
X19786857Y-17868857D01*
X19772571Y-17797429D01*
X19758286Y-17754572D01*
X19744000Y-17726000D01*
X19715429Y-17683143D01*
X19701143Y-17668857D01*
X12894000Y-18222000D02*
X12894000Y-18322000D01*
X12844000Y-18272000D02*
X12944000Y-18272000D01*
X13372571Y-18407714D02*
X13201143Y-18407714D01*
X13286857Y-18407714D02*
X13286857Y-18107714D01*
X13258286Y-18150572D01*
X13229714Y-18179143D01*
X13201143Y-18193429D01*
X13501143Y-18379143D02*
X13515428Y-18393429D01*
X13501143Y-18407714D01*
X13486857Y-18393429D01*
X13501143Y-18379143D01*
X13501143Y-18407714D01*
X13701143Y-18107714D02*
X13729714Y-18107714D01*
X13758286Y-18122000D01*
X13772571Y-18136286D01*
X13786857Y-18164857D01*
X13801143Y-18222000D01*
X13801143Y-18293429D01*
X13786857Y-18350572D01*
X13772571Y-18379143D01*
X13758286Y-18393429D01*
X13729714Y-18407714D01*
X13701143Y-18407714D01*
X13672571Y-18393429D01*
X13658286Y-18379143D01*
X13644000Y-18350572D01*
X13629714Y-18293429D01*
X13629714Y-18222000D01*
X13644000Y-18164857D01*
X13658286Y-18136286D01*
X13672571Y-18122000D01*
X13701143Y-18107714D01*
X13986857Y-18107714D02*
X14015428Y-18107714D01*
X14044000Y-18122000D01*
X14058286Y-18136286D01*
X14072571Y-18164857D01*
X14086857Y-18222000D01*
X14086857Y-18293429D01*
X14072571Y-18350572D01*
X14058286Y-18379143D01*
X14044000Y-18393429D01*
X14015428Y-18407714D01*
X13986857Y-18407714D01*
X13958286Y-18393429D01*
X13944000Y-18379143D01*
X13929714Y-18350572D01*
X13915428Y-18293429D01*
X13915428Y-18222000D01*
X13929714Y-18164857D01*
X13944000Y-18136286D01*
X13958286Y-18122000D01*
X13986857Y-18107714D01*
X14215428Y-18407714D02*
X14215428Y-18207714D01*
X14215428Y-18236286D02*
X14229714Y-18222000D01*
X14258286Y-18207714D01*
X14301143Y-18207714D01*
X14329714Y-18222000D01*
X14344000Y-18250572D01*
X14344000Y-18407714D01*
X14344000Y-18250572D02*
X14358286Y-18222000D01*
X14386857Y-18207714D01*
X14429714Y-18207714D01*
X14458286Y-18222000D01*
X14472571Y-18250572D01*
X14472571Y-18407714D01*
X14615428Y-18407714D02*
X14615428Y-18207714D01*
X14615428Y-18236286D02*
X14629714Y-18222000D01*
X14658286Y-18207714D01*
X14701143Y-18207714D01*
X14729714Y-18222000D01*
X14744000Y-18250572D01*
X14744000Y-18407714D01*
X14744000Y-18250572D02*
X14758286Y-18222000D01*
X14786857Y-18207714D01*
X14829714Y-18207714D01*
X14858286Y-18222000D01*
X14872571Y-18250572D01*
X14872571Y-18407714D01*
X15458286Y-18093429D02*
X15201143Y-18479143D01*
X15844000Y-18107714D02*
X15872571Y-18107714D01*
X15901143Y-18122000D01*
X15915428Y-18136286D01*
X15929714Y-18164857D01*
X15944000Y-18222000D01*
X15944000Y-18293429D01*
X15929714Y-18350572D01*
X15915428Y-18379143D01*
X15901143Y-18393429D01*
X15872571Y-18407714D01*
X15844000Y-18407714D01*
X15815428Y-18393429D01*
X15801143Y-18379143D01*
X15786857Y-18350572D01*
X15772571Y-18293429D01*
X15772571Y-18222000D01*
X15786857Y-18164857D01*
X15801143Y-18136286D01*
X15815428Y-18122000D01*
X15844000Y-18107714D01*
X16072571Y-18379143D02*
X16086857Y-18393429D01*
X16072571Y-18407714D01*
X16058286Y-18393429D01*
X16072571Y-18379143D01*
X16072571Y-18407714D01*
X16272571Y-18107714D02*
X16301143Y-18107714D01*
X16329714Y-18122000D01*
X16344000Y-18136286D01*
X16358285Y-18164857D01*
X16372571Y-18222000D01*
X16372571Y-18293429D01*
X16358285Y-18350572D01*
X16344000Y-18379143D01*
X16329714Y-18393429D01*
X16301143Y-18407714D01*
X16272571Y-18407714D01*
X16244000Y-18393429D01*
X16229714Y-18379143D01*
X16215428Y-18350572D01*
X16201143Y-18293429D01*
X16201143Y-18222000D01*
X16215428Y-18164857D01*
X16229714Y-18136286D01*
X16244000Y-18122000D01*
X16272571Y-18107714D01*
X16472571Y-18107714D02*
X16658285Y-18107714D01*
X16558285Y-18222000D01*
X16601143Y-18222000D01*
X16629714Y-18236286D01*
X16644000Y-18250572D01*
X16658285Y-18279143D01*
X16658285Y-18350572D01*
X16644000Y-18379143D01*
X16629714Y-18393429D01*
X16601143Y-18407714D01*
X16515428Y-18407714D01*
X16486857Y-18393429D01*
X16472571Y-18379143D01*
X16801143Y-18407714D02*
X16858286Y-18407714D01*
X16886857Y-18393429D01*
X16901143Y-18379143D01*
X16929714Y-18336286D01*
X16944000Y-18279143D01*
X16944000Y-18164857D01*
X16929714Y-18136286D01*
X16915428Y-18122000D01*
X16886857Y-18107714D01*
X16829714Y-18107714D01*
X16801143Y-18122000D01*
X16786857Y-18136286D01*
X16772571Y-18164857D01*
X16772571Y-18236286D01*
X16786857Y-18264857D01*
X16801143Y-18279143D01*
X16829714Y-18293429D01*
X16886857Y-18293429D01*
X16915428Y-18279143D01*
X16929714Y-18264857D01*
X16944000Y-18236286D01*
X17058286Y-18107714D02*
X17058286Y-18164857D01*
X17172571Y-18107714D02*
X17172571Y-18164857D01*
X17615428Y-18522000D02*
X17601143Y-18507714D01*
X17572571Y-18464857D01*
X17558286Y-18436286D01*
X17544000Y-18393429D01*
X17529714Y-18322000D01*
X17529714Y-18264857D01*
X17544000Y-18193429D01*
X17558286Y-18150572D01*
X17572571Y-18122000D01*
X17601143Y-18079143D01*
X17615428Y-18064857D01*
X17701143Y-18107714D02*
X17901143Y-18107714D01*
X17772571Y-18407714D01*
X18244000Y-18407714D02*
X18244000Y-18107714D01*
X18372571Y-18407714D02*
X18372571Y-18250572D01*
X18358286Y-18222000D01*
X18329714Y-18207714D01*
X18286857Y-18207714D01*
X18258286Y-18222000D01*
X18244000Y-18236286D01*
X18558286Y-18407714D02*
X18529714Y-18393429D01*
X18515428Y-18379143D01*
X18501143Y-18350572D01*
X18501143Y-18264857D01*
X18515428Y-18236286D01*
X18529714Y-18222000D01*
X18558286Y-18207714D01*
X18601143Y-18207714D01*
X18629714Y-18222000D01*
X18644000Y-18236286D01*
X18658286Y-18264857D01*
X18658286Y-18350572D01*
X18644000Y-18379143D01*
X18629714Y-18393429D01*
X18601143Y-18407714D01*
X18558286Y-18407714D01*
X18829714Y-18407714D02*
X18801143Y-18393429D01*
X18786857Y-18364857D01*
X18786857Y-18107714D01*
X19058286Y-18393429D02*
X19029714Y-18407714D01*
X18972571Y-18407714D01*
X18944000Y-18393429D01*
X18929714Y-18364857D01*
X18929714Y-18250572D01*
X18944000Y-18222000D01*
X18972571Y-18207714D01*
X19029714Y-18207714D01*
X19058286Y-18222000D01*
X19072571Y-18250572D01*
X19072571Y-18279143D01*
X18929714Y-18307714D01*
X19186857Y-18393429D02*
X19215429Y-18407714D01*
X19272571Y-18407714D01*
X19301143Y-18393429D01*
X19315429Y-18364857D01*
X19315429Y-18350572D01*
X19301143Y-18322000D01*
X19272571Y-18307714D01*
X19229714Y-18307714D01*
X19201143Y-18293429D01*
X19186857Y-18264857D01*
X19186857Y-18250572D01*
X19201143Y-18222000D01*
X19229714Y-18207714D01*
X19272571Y-18207714D01*
X19301143Y-18222000D01*
X19415428Y-18522000D02*
X19429714Y-18507714D01*
X19458286Y-18464857D01*
X19472571Y-18436286D01*
X19486857Y-18393429D01*
X19501143Y-18322000D01*
X19501143Y-18264857D01*
X19486857Y-18193429D01*
X19472571Y-18150572D01*
X19458286Y-18122000D01*
X19429714Y-18079143D01*
X19415428Y-18064857D01*
X12923498Y-18717498D02*
X12923498Y-18618502D01*
X12824502Y-18618502D01*
X12824502Y-18717498D01*
X12923498Y-18717498D01*
X13372571Y-18803714D02*
X13201143Y-18803714D01*
X13286857Y-18803714D02*
X13286857Y-18503714D01*
X13258286Y-18546572D01*
X13229714Y-18575143D01*
X13201143Y-18589429D01*
X13501143Y-18775143D02*
X13515428Y-18789429D01*
X13501143Y-18803714D01*
X13486857Y-18789429D01*
X13501143Y-18775143D01*
X13501143Y-18803714D01*
X13772571Y-18603714D02*
X13772571Y-18803714D01*
X13701143Y-18489429D02*
X13629714Y-18703714D01*
X13815428Y-18703714D01*
X13986857Y-18503714D02*
X14015428Y-18503714D01*
X14044000Y-18518000D01*
X14058286Y-18532286D01*
X14072571Y-18560857D01*
X14086857Y-18618000D01*
X14086857Y-18689429D01*
X14072571Y-18746572D01*
X14058286Y-18775143D01*
X14044000Y-18789429D01*
X14015428Y-18803714D01*
X13986857Y-18803714D01*
X13958286Y-18789429D01*
X13944000Y-18775143D01*
X13929714Y-18746572D01*
X13915428Y-18689429D01*
X13915428Y-18618000D01*
X13929714Y-18560857D01*
X13944000Y-18532286D01*
X13958286Y-18518000D01*
X13986857Y-18503714D01*
X14215428Y-18803714D02*
X14215428Y-18603714D01*
X14215428Y-18632286D02*
X14229714Y-18618000D01*
X14258286Y-18603714D01*
X14301143Y-18603714D01*
X14329714Y-18618000D01*
X14344000Y-18646572D01*
X14344000Y-18803714D01*
X14344000Y-18646572D02*
X14358286Y-18618000D01*
X14386857Y-18603714D01*
X14429714Y-18603714D01*
X14458286Y-18618000D01*
X14472571Y-18646572D01*
X14472571Y-18803714D01*
X14615428Y-18803714D02*
X14615428Y-18603714D01*
X14615428Y-18632286D02*
X14629714Y-18618000D01*
X14658286Y-18603714D01*
X14701143Y-18603714D01*
X14729714Y-18618000D01*
X14744000Y-18646572D01*
X14744000Y-18803714D01*
X14744000Y-18646572D02*
X14758286Y-18618000D01*
X14786857Y-18603714D01*
X14829714Y-18603714D01*
X14858286Y-18618000D01*
X14872571Y-18646572D01*
X14872571Y-18803714D01*
X15458286Y-18489429D02*
X15201143Y-18875143D01*
X15844000Y-18503714D02*
X15872571Y-18503714D01*
X15901143Y-18518000D01*
X15915428Y-18532286D01*
X15929714Y-18560857D01*
X15944000Y-18618000D01*
X15944000Y-18689429D01*
X15929714Y-18746572D01*
X15915428Y-18775143D01*
X15901143Y-18789429D01*
X15872571Y-18803714D01*
X15844000Y-18803714D01*
X15815428Y-18789429D01*
X15801143Y-18775143D01*
X15786857Y-18746572D01*
X15772571Y-18689429D01*
X15772571Y-18618000D01*
X15786857Y-18560857D01*
X15801143Y-18532286D01*
X15815428Y-18518000D01*
X15844000Y-18503714D01*
X16072571Y-18775143D02*
X16086857Y-18789429D01*
X16072571Y-18803714D01*
X16058286Y-18789429D01*
X16072571Y-18775143D01*
X16072571Y-18803714D01*
X16272571Y-18503714D02*
X16301143Y-18503714D01*
X16329714Y-18518000D01*
X16344000Y-18532286D01*
X16358285Y-18560857D01*
X16372571Y-18618000D01*
X16372571Y-18689429D01*
X16358285Y-18746572D01*
X16344000Y-18775143D01*
X16329714Y-18789429D01*
X16301143Y-18803714D01*
X16272571Y-18803714D01*
X16244000Y-18789429D01*
X16229714Y-18775143D01*
X16215428Y-18746572D01*
X16201143Y-18689429D01*
X16201143Y-18618000D01*
X16215428Y-18560857D01*
X16229714Y-18532286D01*
X16244000Y-18518000D01*
X16272571Y-18503714D01*
X16644000Y-18503714D02*
X16501143Y-18503714D01*
X16486857Y-18646572D01*
X16501143Y-18632286D01*
X16529714Y-18618000D01*
X16601143Y-18618000D01*
X16629714Y-18632286D01*
X16644000Y-18646572D01*
X16658285Y-18675143D01*
X16658285Y-18746572D01*
X16644000Y-18775143D01*
X16629714Y-18789429D01*
X16601143Y-18803714D01*
X16529714Y-18803714D01*
X16501143Y-18789429D01*
X16486857Y-18775143D01*
X16929714Y-18503714D02*
X16786857Y-18503714D01*
X16772571Y-18646572D01*
X16786857Y-18632286D01*
X16815428Y-18618000D01*
X16886857Y-18618000D01*
X16915428Y-18632286D01*
X16929714Y-18646572D01*
X16944000Y-18675143D01*
X16944000Y-18746572D01*
X16929714Y-18775143D01*
X16915428Y-18789429D01*
X16886857Y-18803714D01*
X16815428Y-18803714D01*
X16786857Y-18789429D01*
X16772571Y-18775143D01*
X17058286Y-18503714D02*
X17058286Y-18560857D01*
X17172571Y-18503714D02*
X17172571Y-18560857D01*
X17615428Y-18918000D02*
X17601143Y-18903714D01*
X17572571Y-18860857D01*
X17558286Y-18832286D01*
X17544000Y-18789429D01*
X17529714Y-18718000D01*
X17529714Y-18660857D01*
X17544000Y-18589429D01*
X17558286Y-18546572D01*
X17572571Y-18518000D01*
X17601143Y-18475143D01*
X17615428Y-18460857D01*
X17858286Y-18503714D02*
X17801143Y-18503714D01*
X17772571Y-18518000D01*
X17758286Y-18532286D01*
X17729714Y-18575143D01*
X17715428Y-18632286D01*
X17715428Y-18746572D01*
X17729714Y-18775143D01*
X17744000Y-18789429D01*
X17772571Y-18803714D01*
X17829714Y-18803714D01*
X17858286Y-18789429D01*
X17872571Y-18775143D01*
X17886857Y-18746572D01*
X17886857Y-18675143D01*
X17872571Y-18646572D01*
X17858286Y-18632286D01*
X17829714Y-18618000D01*
X17772571Y-18618000D01*
X17744000Y-18632286D01*
X17729714Y-18646572D01*
X17715428Y-18675143D01*
X18244000Y-18803714D02*
X18244000Y-18503714D01*
X18372571Y-18803714D02*
X18372571Y-18646572D01*
X18358286Y-18618000D01*
X18329714Y-18603714D01*
X18286857Y-18603714D01*
X18258286Y-18618000D01*
X18244000Y-18632286D01*
X18558286Y-18803714D02*
X18529714Y-18789429D01*
X18515428Y-18775143D01*
X18501143Y-18746572D01*
X18501143Y-18660857D01*
X18515428Y-18632286D01*
X18529714Y-18618000D01*
X18558286Y-18603714D01*
X18601143Y-18603714D01*
X18629714Y-18618000D01*
X18644000Y-18632286D01*
X18658286Y-18660857D01*
X18658286Y-18746572D01*
X18644000Y-18775143D01*
X18629714Y-18789429D01*
X18601143Y-18803714D01*
X18558286Y-18803714D01*
X18829714Y-18803714D02*
X18801143Y-18789429D01*
X18786857Y-18760857D01*
X18786857Y-18503714D01*
X19058286Y-18789429D02*
X19029714Y-18803714D01*
X18972571Y-18803714D01*
X18944000Y-18789429D01*
X18929714Y-18760857D01*
X18929714Y-18646572D01*
X18944000Y-18618000D01*
X18972571Y-18603714D01*
X19029714Y-18603714D01*
X19058286Y-18618000D01*
X19072571Y-18646572D01*
X19072571Y-18675143D01*
X18929714Y-18703714D01*
X19186857Y-18789429D02*
X19215429Y-18803714D01*
X19272571Y-18803714D01*
X19301143Y-18789429D01*
X19315429Y-18760857D01*
X19315429Y-18746572D01*
X19301143Y-18718000D01*
X19272571Y-18703714D01*
X19229714Y-18703714D01*
X19201143Y-18689429D01*
X19186857Y-18660857D01*
X19186857Y-18646572D01*
X19201143Y-18618000D01*
X19229714Y-18603714D01*
X19272571Y-18603714D01*
X19301143Y-18618000D01*
X19415428Y-18918000D02*
X19429714Y-18903714D01*
X19458286Y-18860857D01*
X19472571Y-18832286D01*
X19486857Y-18789429D01*
X19501143Y-18718000D01*
X19501143Y-18660857D01*
X19486857Y-18589429D01*
X19472571Y-18546572D01*
X19458286Y-18518000D01*
X19429714Y-18475143D01*
X19415428Y-18460857D01*
X12744000Y-19264000D02*
X12944000Y-19064000D01*
X12744000Y-18864000D01*
X12544000Y-19064000D01*
X12744000Y-19264000D01*
X13344000Y-18999714D02*
X13344000Y-19199714D01*
X13272571Y-18885429D02*
X13201143Y-19099714D01*
X13386857Y-19099714D01*
X13501143Y-19171143D02*
X13515428Y-19185429D01*
X13501143Y-19199714D01*
X13486857Y-19185429D01*
X13501143Y-19171143D01*
X13501143Y-19199714D01*
X13701143Y-18899714D02*
X13729714Y-18899714D01*
X13758286Y-18914000D01*
X13772571Y-18928286D01*
X13786857Y-18956857D01*
X13801143Y-19014000D01*
X13801143Y-19085429D01*
X13786857Y-19142572D01*
X13772571Y-19171143D01*
X13758286Y-19185429D01*
X13729714Y-19199714D01*
X13701143Y-19199714D01*
X13672571Y-19185429D01*
X13658286Y-19171143D01*
X13644000Y-19142572D01*
X13629714Y-19085429D01*
X13629714Y-19014000D01*
X13644000Y-18956857D01*
X13658286Y-18928286D01*
X13672571Y-18914000D01*
X13701143Y-18899714D01*
X13986857Y-18899714D02*
X14015428Y-18899714D01*
X14044000Y-18914000D01*
X14058286Y-18928286D01*
X14072571Y-18956857D01*
X14086857Y-19014000D01*
X14086857Y-19085429D01*
X14072571Y-19142572D01*
X14058286Y-19171143D01*
X14044000Y-19185429D01*
X14015428Y-19199714D01*
X13986857Y-19199714D01*
X13958286Y-19185429D01*
X13944000Y-19171143D01*
X13929714Y-19142572D01*
X13915428Y-19085429D01*
X13915428Y-19014000D01*
X13929714Y-18956857D01*
X13944000Y-18928286D01*
X13958286Y-18914000D01*
X13986857Y-18899714D01*
X14215428Y-19199714D02*
X14215428Y-18999714D01*
X14215428Y-19028286D02*
X14229714Y-19014000D01*
X14258286Y-18999714D01*
X14301143Y-18999714D01*
X14329714Y-19014000D01*
X14344000Y-19042572D01*
X14344000Y-19199714D01*
X14344000Y-19042572D02*
X14358286Y-19014000D01*
X14386857Y-18999714D01*
X14429714Y-18999714D01*
X14458286Y-19014000D01*
X14472571Y-19042572D01*
X14472571Y-19199714D01*
X14615428Y-19199714D02*
X14615428Y-18999714D01*
X14615428Y-19028286D02*
X14629714Y-19014000D01*
X14658286Y-18999714D01*
X14701143Y-18999714D01*
X14729714Y-19014000D01*
X14744000Y-19042572D01*
X14744000Y-19199714D01*
X14744000Y-19042572D02*
X14758286Y-19014000D01*
X14786857Y-18999714D01*
X14829714Y-18999714D01*
X14858286Y-19014000D01*
X14872571Y-19042572D01*
X14872571Y-19199714D01*
X15458286Y-18885429D02*
X15201143Y-19271143D01*
X15844000Y-18899714D02*
X15872571Y-18899714D01*
X15901143Y-18914000D01*
X15915428Y-18928286D01*
X15929714Y-18956857D01*
X15944000Y-19014000D01*
X15944000Y-19085429D01*
X15929714Y-19142572D01*
X15915428Y-19171143D01*
X15901143Y-19185429D01*
X15872571Y-19199714D01*
X15844000Y-19199714D01*
X15815428Y-19185429D01*
X15801143Y-19171143D01*
X15786857Y-19142572D01*
X15772571Y-19085429D01*
X15772571Y-19014000D01*
X15786857Y-18956857D01*
X15801143Y-18928286D01*
X15815428Y-18914000D01*
X15844000Y-18899714D01*
X16072571Y-19171143D02*
X16086857Y-19185429D01*
X16072571Y-19199714D01*
X16058286Y-19185429D01*
X16072571Y-19171143D01*
X16072571Y-19199714D01*
X16372571Y-19199714D02*
X16201143Y-19199714D01*
X16286857Y-19199714D02*
X16286857Y-18899714D01*
X16258285Y-18942572D01*
X16229714Y-18971143D01*
X16201143Y-18985429D01*
X16644000Y-18899714D02*
X16501143Y-18899714D01*
X16486857Y-19042572D01*
X16501143Y-19028286D01*
X16529714Y-19014000D01*
X16601143Y-19014000D01*
X16629714Y-19028286D01*
X16644000Y-19042572D01*
X16658285Y-19071143D01*
X16658285Y-19142572D01*
X16644000Y-19171143D01*
X16629714Y-19185429D01*
X16601143Y-19199714D01*
X16529714Y-19199714D01*
X16501143Y-19185429D01*
X16486857Y-19171143D01*
X16758285Y-18899714D02*
X16958286Y-18899714D01*
X16829714Y-19199714D01*
X17058286Y-18899714D02*
X17058286Y-18956857D01*
X17172571Y-18899714D02*
X17172571Y-18956857D01*
X17615428Y-19314000D02*
X17601143Y-19299714D01*
X17572571Y-19256857D01*
X17558286Y-19228286D01*
X17544000Y-19185429D01*
X17529714Y-19114000D01*
X17529714Y-19056857D01*
X17544000Y-18985429D01*
X17558286Y-18942572D01*
X17572571Y-18914000D01*
X17601143Y-18871143D01*
X17615428Y-18856857D01*
X17858286Y-18899714D02*
X17801143Y-18899714D01*
X17772571Y-18914000D01*
X17758286Y-18928286D01*
X17729714Y-18971143D01*
X17715428Y-19028286D01*
X17715428Y-19142572D01*
X17729714Y-19171143D01*
X17744000Y-19185429D01*
X17772571Y-19199714D01*
X17829714Y-19199714D01*
X17858286Y-19185429D01*
X17872571Y-19171143D01*
X17886857Y-19142572D01*
X17886857Y-19071143D01*
X17872571Y-19042572D01*
X17858286Y-19028286D01*
X17829714Y-19014000D01*
X17772571Y-19014000D01*
X17744000Y-19028286D01*
X17729714Y-19042572D01*
X17715428Y-19071143D01*
X18244000Y-19199714D02*
X18244000Y-18899714D01*
X18372571Y-19199714D02*
X18372571Y-19042572D01*
X18358286Y-19014000D01*
X18329714Y-18999714D01*
X18286857Y-18999714D01*
X18258286Y-19014000D01*
X18244000Y-19028286D01*
X18558286Y-19199714D02*
X18529714Y-19185429D01*
X18515428Y-19171143D01*
X18501143Y-19142572D01*
X18501143Y-19056857D01*
X18515428Y-19028286D01*
X18529714Y-19014000D01*
X18558286Y-18999714D01*
X18601143Y-18999714D01*
X18629714Y-19014000D01*
X18644000Y-19028286D01*
X18658286Y-19056857D01*
X18658286Y-19142572D01*
X18644000Y-19171143D01*
X18629714Y-19185429D01*
X18601143Y-19199714D01*
X18558286Y-19199714D01*
X18829714Y-19199714D02*
X18801143Y-19185429D01*
X18786857Y-19156857D01*
X18786857Y-18899714D01*
X19058286Y-19185429D02*
X19029714Y-19199714D01*
X18972571Y-19199714D01*
X18944000Y-19185429D01*
X18929714Y-19156857D01*
X18929714Y-19042572D01*
X18944000Y-19014000D01*
X18972571Y-18999714D01*
X19029714Y-18999714D01*
X19058286Y-19014000D01*
X19072571Y-19042572D01*
X19072571Y-19071143D01*
X18929714Y-19099714D01*
X19186857Y-19185429D02*
X19215429Y-19199714D01*
X19272571Y-19199714D01*
X19301143Y-19185429D01*
X19315429Y-19156857D01*
X19315429Y-19142572D01*
X19301143Y-19114000D01*
X19272571Y-19099714D01*
X19229714Y-19099714D01*
X19201143Y-19085429D01*
X19186857Y-19056857D01*
X19186857Y-19042572D01*
X19201143Y-19014000D01*
X19229714Y-18999714D01*
X19272571Y-18999714D01*
X19301143Y-19014000D01*
X19415428Y-19314000D02*
X19429714Y-19299714D01*
X19458286Y-19256857D01*
X19472571Y-19228286D01*
X19486857Y-19185429D01*
X19501143Y-19114000D01*
X19501143Y-19056857D01*
X19486857Y-18985429D01*
X19472571Y-18942572D01*
X19458286Y-18914000D01*
X19429714Y-18871143D01*
X19415428Y-18856857D01*
M02*
