G04 #@! TF.FileFunction,Legend,Top*
%FSLAX46Y46*%
G04 Gerber Fmt 4.6, Leading zero omitted, Abs format (unit mm)*
G04 Created by KiCad (PCBNEW 4.0.7) date 03/08/18 20:01:15*
%MOMM*%
%LPD*%
G01*
G04 APERTURE LIST*
%ADD10C,0.200000*%
%ADD11C,0.150000*%
%ADD12C,0.120000*%
G04 APERTURE END LIST*
D10*
D11*
X189230000Y-156210000D02*
X187960000Y-156210000D01*
X187960000Y-148590000D02*
X189230000Y-148590000D01*
X187960000Y-67310000D02*
X189230000Y-67310000D01*
X163830000Y-67310000D02*
X166370000Y-67310000D01*
X166370000Y-105410000D02*
X163830000Y-105410000D01*
X187960000Y-105410000D02*
X189230000Y-105410000D01*
X185420000Y-148590000D02*
X187960000Y-148590000D01*
X189230000Y-148590000D02*
X189230000Y-156210000D01*
X187960000Y-156210000D02*
X165100000Y-156210000D01*
X165100000Y-156210000D02*
X165100000Y-148590000D01*
X165100000Y-148590000D02*
X167640000Y-148590000D01*
X185420000Y-105410000D02*
X187960000Y-105410000D01*
X189230000Y-105410000D02*
X189230000Y-67310000D01*
X187960000Y-67310000D02*
X166370000Y-67310000D01*
X163830000Y-67310000D02*
X163830000Y-105410000D01*
X166370000Y-105410000D02*
X167640000Y-105410000D01*
D12*
X170180000Y-110490000D02*
X170180000Y-107950000D01*
X170180000Y-107950000D02*
X167510000Y-107950000D01*
X167510000Y-110490000D02*
X167510000Y-148720000D01*
X167510000Y-105280000D02*
X167510000Y-107950000D01*
X182880000Y-107950000D02*
X185550000Y-107950000D01*
X182880000Y-107950000D02*
X182880000Y-146050000D01*
X182880000Y-146050000D02*
X185550000Y-146050000D01*
X170180000Y-110490000D02*
X167510000Y-110490000D01*
X170180000Y-110490000D02*
X170180000Y-146050000D01*
X170180000Y-146050000D02*
X167510000Y-146050000D01*
X167510000Y-148720000D02*
X185550000Y-148720000D01*
X185550000Y-148720000D02*
X185550000Y-105280000D01*
X185550000Y-105280000D02*
X167510000Y-105280000D01*
X190420000Y-124500000D02*
X190420000Y-114260000D01*
X195061000Y-124500000D02*
X195061000Y-114260000D01*
X190420000Y-124500000D02*
X195061000Y-124500000D01*
X190420000Y-114260000D02*
X195061000Y-114260000D01*
X191930000Y-124500000D02*
X191930000Y-114260000D01*
X190420000Y-121230000D02*
X191930000Y-121230000D01*
X190420000Y-117529000D02*
X191930000Y-117529000D01*
X193670000Y-151830000D02*
X197490000Y-151830000D01*
X197490000Y-151830000D02*
X197490000Y-142810000D01*
X197490000Y-142810000D02*
X193670000Y-142810000D01*
X193670000Y-142810000D02*
X193670000Y-151830000D01*
X195580000Y-152090000D02*
X195580000Y-151830000D01*
X195580000Y-142550000D02*
X195580000Y-142810000D01*
X193670000Y-150435000D02*
X197490000Y-150435000D01*
X204960000Y-86360000D02*
G75*
G03X204960000Y-86360000I-5090000J0D01*
G01*
X199870000Y-81310000D02*
X199870000Y-91410000D01*
X199910000Y-81310000D02*
X199910000Y-91410000D01*
X199950000Y-81310000D02*
X199950000Y-91410000D01*
X199990000Y-81311000D02*
X199990000Y-91409000D01*
X200030000Y-81312000D02*
X200030000Y-91408000D01*
X200070000Y-81313000D02*
X200070000Y-91407000D01*
X200110000Y-81315000D02*
X200110000Y-91405000D01*
X200150000Y-81317000D02*
X200150000Y-91403000D01*
X200190000Y-81320000D02*
X200190000Y-91400000D01*
X200230000Y-81322000D02*
X200230000Y-91398000D01*
X200270000Y-81325000D02*
X200270000Y-91395000D01*
X200310000Y-81329000D02*
X200310000Y-91391000D01*
X200350000Y-81332000D02*
X200350000Y-91388000D01*
X200390000Y-81336000D02*
X200390000Y-91384000D01*
X200430000Y-81340000D02*
X200430000Y-91380000D01*
X200470000Y-81345000D02*
X200470000Y-85179000D01*
X200470000Y-87541000D02*
X200470000Y-91375000D01*
X200510000Y-81350000D02*
X200510000Y-85179000D01*
X200510000Y-87541000D02*
X200510000Y-91370000D01*
X200550000Y-81355000D02*
X200550000Y-85179000D01*
X200550000Y-87541000D02*
X200550000Y-91365000D01*
X200591000Y-81361000D02*
X200591000Y-85179000D01*
X200591000Y-87541000D02*
X200591000Y-91359000D01*
X200631000Y-81367000D02*
X200631000Y-85179000D01*
X200631000Y-87541000D02*
X200631000Y-91353000D01*
X200671000Y-81373000D02*
X200671000Y-85179000D01*
X200671000Y-87541000D02*
X200671000Y-91347000D01*
X200711000Y-81379000D02*
X200711000Y-85179000D01*
X200711000Y-87541000D02*
X200711000Y-91341000D01*
X200751000Y-81386000D02*
X200751000Y-85179000D01*
X200751000Y-87541000D02*
X200751000Y-91334000D01*
X200791000Y-81393000D02*
X200791000Y-85179000D01*
X200791000Y-87541000D02*
X200791000Y-91327000D01*
X200831000Y-81401000D02*
X200831000Y-85179000D01*
X200831000Y-87541000D02*
X200831000Y-91319000D01*
X200871000Y-81409000D02*
X200871000Y-85179000D01*
X200871000Y-87541000D02*
X200871000Y-91311000D01*
X200911000Y-81417000D02*
X200911000Y-85179000D01*
X200911000Y-87541000D02*
X200911000Y-91303000D01*
X200951000Y-81425000D02*
X200951000Y-85179000D01*
X200951000Y-87541000D02*
X200951000Y-91295000D01*
X200991000Y-81434000D02*
X200991000Y-85179000D01*
X200991000Y-87541000D02*
X200991000Y-91286000D01*
X201031000Y-81443000D02*
X201031000Y-85179000D01*
X201031000Y-87541000D02*
X201031000Y-91277000D01*
X201071000Y-81453000D02*
X201071000Y-85179000D01*
X201071000Y-87541000D02*
X201071000Y-91267000D01*
X201111000Y-81463000D02*
X201111000Y-85179000D01*
X201111000Y-87541000D02*
X201111000Y-91257000D01*
X201151000Y-81473000D02*
X201151000Y-85179000D01*
X201151000Y-87541000D02*
X201151000Y-91247000D01*
X201191000Y-81484000D02*
X201191000Y-85179000D01*
X201191000Y-87541000D02*
X201191000Y-91236000D01*
X201231000Y-81495000D02*
X201231000Y-85179000D01*
X201231000Y-87541000D02*
X201231000Y-91225000D01*
X201271000Y-81506000D02*
X201271000Y-85179000D01*
X201271000Y-87541000D02*
X201271000Y-91214000D01*
X201311000Y-81517000D02*
X201311000Y-85179000D01*
X201311000Y-87541000D02*
X201311000Y-91203000D01*
X201351000Y-81529000D02*
X201351000Y-85179000D01*
X201351000Y-87541000D02*
X201351000Y-91191000D01*
X201391000Y-81542000D02*
X201391000Y-85179000D01*
X201391000Y-87541000D02*
X201391000Y-91178000D01*
X201431000Y-81554000D02*
X201431000Y-85179000D01*
X201431000Y-87541000D02*
X201431000Y-91166000D01*
X201471000Y-81568000D02*
X201471000Y-85179000D01*
X201471000Y-87541000D02*
X201471000Y-91152000D01*
X201511000Y-81581000D02*
X201511000Y-85179000D01*
X201511000Y-87541000D02*
X201511000Y-91139000D01*
X201551000Y-81595000D02*
X201551000Y-85179000D01*
X201551000Y-87541000D02*
X201551000Y-91125000D01*
X201591000Y-81609000D02*
X201591000Y-85179000D01*
X201591000Y-87541000D02*
X201591000Y-91111000D01*
X201631000Y-81623000D02*
X201631000Y-85179000D01*
X201631000Y-87541000D02*
X201631000Y-91097000D01*
X201671000Y-81638000D02*
X201671000Y-85179000D01*
X201671000Y-87541000D02*
X201671000Y-91082000D01*
X201711000Y-81654000D02*
X201711000Y-85179000D01*
X201711000Y-87541000D02*
X201711000Y-91066000D01*
X201751000Y-81669000D02*
X201751000Y-85179000D01*
X201751000Y-87541000D02*
X201751000Y-91051000D01*
X201791000Y-81686000D02*
X201791000Y-85179000D01*
X201791000Y-87541000D02*
X201791000Y-91034000D01*
X201831000Y-81702000D02*
X201831000Y-85179000D01*
X201831000Y-87541000D02*
X201831000Y-91018000D01*
X201871000Y-81719000D02*
X201871000Y-85179000D01*
X201871000Y-87541000D02*
X201871000Y-91001000D01*
X201911000Y-81736000D02*
X201911000Y-85179000D01*
X201911000Y-87541000D02*
X201911000Y-90984000D01*
X201951000Y-81754000D02*
X201951000Y-85179000D01*
X201951000Y-87541000D02*
X201951000Y-90966000D01*
X201991000Y-81772000D02*
X201991000Y-85179000D01*
X201991000Y-87541000D02*
X201991000Y-90948000D01*
X202031000Y-81791000D02*
X202031000Y-85179000D01*
X202031000Y-87541000D02*
X202031000Y-90929000D01*
X202071000Y-81810000D02*
X202071000Y-85179000D01*
X202071000Y-87541000D02*
X202071000Y-90910000D01*
X202111000Y-81829000D02*
X202111000Y-85179000D01*
X202111000Y-87541000D02*
X202111000Y-90891000D01*
X202151000Y-81849000D02*
X202151000Y-85179000D01*
X202151000Y-87541000D02*
X202151000Y-90871000D01*
X202191000Y-81869000D02*
X202191000Y-85179000D01*
X202191000Y-87541000D02*
X202191000Y-90851000D01*
X202231000Y-81890000D02*
X202231000Y-85179000D01*
X202231000Y-87541000D02*
X202231000Y-90830000D01*
X202271000Y-81911000D02*
X202271000Y-85179000D01*
X202271000Y-87541000D02*
X202271000Y-90809000D01*
X202311000Y-81932000D02*
X202311000Y-85179000D01*
X202311000Y-87541000D02*
X202311000Y-90788000D01*
X202351000Y-81955000D02*
X202351000Y-85179000D01*
X202351000Y-87541000D02*
X202351000Y-90765000D01*
X202391000Y-81977000D02*
X202391000Y-85179000D01*
X202391000Y-87541000D02*
X202391000Y-90743000D01*
X202431000Y-82000000D02*
X202431000Y-85179000D01*
X202431000Y-87541000D02*
X202431000Y-90720000D01*
X202471000Y-82024000D02*
X202471000Y-85179000D01*
X202471000Y-87541000D02*
X202471000Y-90696000D01*
X202511000Y-82048000D02*
X202511000Y-85179000D01*
X202511000Y-87541000D02*
X202511000Y-90672000D01*
X202551000Y-82072000D02*
X202551000Y-85179000D01*
X202551000Y-87541000D02*
X202551000Y-90648000D01*
X202591000Y-82097000D02*
X202591000Y-85179000D01*
X202591000Y-87541000D02*
X202591000Y-90623000D01*
X202631000Y-82123000D02*
X202631000Y-85179000D01*
X202631000Y-87541000D02*
X202631000Y-90597000D01*
X202671000Y-82149000D02*
X202671000Y-85179000D01*
X202671000Y-87541000D02*
X202671000Y-90571000D01*
X202711000Y-82175000D02*
X202711000Y-85179000D01*
X202711000Y-87541000D02*
X202711000Y-90545000D01*
X202751000Y-82203000D02*
X202751000Y-85179000D01*
X202751000Y-87541000D02*
X202751000Y-90517000D01*
X202791000Y-82230000D02*
X202791000Y-85179000D01*
X202791000Y-87541000D02*
X202791000Y-90490000D01*
X202831000Y-82259000D02*
X202831000Y-90461000D01*
X202871000Y-82288000D02*
X202871000Y-90432000D01*
X202911000Y-82317000D02*
X202911000Y-90403000D01*
X202951000Y-82347000D02*
X202951000Y-90373000D01*
X202991000Y-82378000D02*
X202991000Y-90342000D01*
X203031000Y-82409000D02*
X203031000Y-90311000D01*
X203071000Y-82441000D02*
X203071000Y-90279000D01*
X203111000Y-82474000D02*
X203111000Y-90246000D01*
X203151000Y-82507000D02*
X203151000Y-90213000D01*
X203191000Y-82541000D02*
X203191000Y-90179000D01*
X203231000Y-82576000D02*
X203231000Y-90144000D01*
X203271000Y-82612000D02*
X203271000Y-90108000D01*
X203311000Y-82648000D02*
X203311000Y-90072000D01*
X203351000Y-82685000D02*
X203351000Y-90035000D01*
X203391000Y-82723000D02*
X203391000Y-89997000D01*
X203431000Y-82762000D02*
X203431000Y-89958000D01*
X203471000Y-82801000D02*
X203471000Y-89919000D01*
X203511000Y-82842000D02*
X203511000Y-89878000D01*
X203551000Y-82883000D02*
X203551000Y-89837000D01*
X203591000Y-82925000D02*
X203591000Y-89795000D01*
X203631000Y-82969000D02*
X203631000Y-89751000D01*
X203671000Y-83013000D02*
X203671000Y-89707000D01*
X203711000Y-83058000D02*
X203711000Y-89662000D01*
X203751000Y-83105000D02*
X203751000Y-89615000D01*
X203791000Y-83153000D02*
X203791000Y-89567000D01*
X203831000Y-83202000D02*
X203831000Y-89518000D01*
X203871000Y-83252000D02*
X203871000Y-89468000D01*
X203911000Y-83303000D02*
X203911000Y-89417000D01*
X203951000Y-83356000D02*
X203951000Y-89364000D01*
X203991000Y-83411000D02*
X203991000Y-89309000D01*
X204031000Y-83466000D02*
X204031000Y-89254000D01*
X204071000Y-83524000D02*
X204071000Y-89196000D01*
X204111000Y-83583000D02*
X204111000Y-89137000D01*
X204151000Y-83645000D02*
X204151000Y-89075000D01*
X204191000Y-83708000D02*
X204191000Y-89012000D01*
X204231000Y-83773000D02*
X204231000Y-88947000D01*
X204271000Y-83841000D02*
X204271000Y-88879000D01*
X204311000Y-83911000D02*
X204311000Y-88809000D01*
X204351000Y-83983000D02*
X204351000Y-88737000D01*
X204391000Y-84059000D02*
X204391000Y-88661000D01*
X204431000Y-84138000D02*
X204431000Y-88582000D01*
X204471000Y-84220000D02*
X204471000Y-88500000D01*
X204511000Y-84307000D02*
X204511000Y-88413000D01*
X204551000Y-84398000D02*
X204551000Y-88322000D01*
X204591000Y-84494000D02*
X204591000Y-88226000D01*
X204631000Y-84597000D02*
X204631000Y-88123000D01*
X204671000Y-84706000D02*
X204671000Y-88014000D01*
X204711000Y-84824000D02*
X204711000Y-87896000D01*
X204751000Y-84953000D02*
X204751000Y-87767000D01*
X204791000Y-85095000D02*
X204791000Y-87625000D01*
X204831000Y-85256000D02*
X204831000Y-87464000D01*
X204871000Y-85447000D02*
X204871000Y-87273000D01*
X204911000Y-85688000D02*
X204911000Y-87032000D01*
X204951000Y-86081000D02*
X204951000Y-86639000D01*
X195420000Y-86360000D02*
X196920000Y-86360000D01*
X196170000Y-85610000D02*
X196170000Y-87110000D01*
X165270000Y-114430000D02*
X165270000Y-111630000D01*
X165270000Y-111630000D02*
X152230000Y-111630000D01*
X152230000Y-111630000D02*
X152230000Y-114430000D01*
X152230000Y-114430000D02*
X165270000Y-114430000D01*
X162560000Y-114430000D02*
X162560000Y-111630000D01*
X159152335Y-134811392D02*
G75*
G03X155920000Y-134654484I-1672335J-1078608D01*
G01*
X159152335Y-136968608D02*
G75*
G02X155920000Y-137125516I-1672335J1078608D01*
G01*
X158521130Y-134810163D02*
G75*
G03X156439039Y-134810000I-1041130J-1079837D01*
G01*
X158521130Y-136969837D02*
G75*
G02X156439039Y-136970000I-1041130J1079837D01*
G01*
X155920000Y-134654000D02*
X155920000Y-134810000D01*
X155920000Y-136970000D02*
X155920000Y-137126000D01*
X164232335Y-134811392D02*
G75*
G03X161000000Y-134654484I-1672335J-1078608D01*
G01*
X164232335Y-136968608D02*
G75*
G02X161000000Y-137125516I-1672335J1078608D01*
G01*
X163601130Y-134810163D02*
G75*
G03X161519039Y-134810000I-1041130J-1079837D01*
G01*
X163601130Y-136969837D02*
G75*
G02X161519039Y-136970000I-1041130J1079837D01*
G01*
X161000000Y-134654000D02*
X161000000Y-134810000D01*
X161000000Y-136970000D02*
X161000000Y-137126000D01*
X156170000Y-159420000D02*
X158790000Y-159420000D01*
X158790000Y-159420000D02*
X158790000Y-153000000D01*
X158790000Y-153000000D02*
X156170000Y-153000000D01*
X156170000Y-153000000D02*
X156170000Y-159420000D01*
X157480000Y-160310000D02*
X157480000Y-159420000D01*
X157480000Y-152110000D02*
X157480000Y-153000000D01*
X159980000Y-159420000D02*
X162600000Y-159420000D01*
X162600000Y-159420000D02*
X162600000Y-153000000D01*
X162600000Y-153000000D02*
X159980000Y-153000000D01*
X159980000Y-153000000D02*
X159980000Y-159420000D01*
X161290000Y-160310000D02*
X161290000Y-159420000D01*
X161290000Y-152110000D02*
X161290000Y-153000000D01*
X190754278Y-134529723D02*
G75*
G03X195365580Y-134530000I2305722J1179723D01*
G01*
X190754278Y-132170277D02*
G75*
G02X195365580Y-132170000I2305722J-1179723D01*
G01*
X190754278Y-132170277D02*
G75*
G03X190754420Y-134530000I2305722J-1179723D01*
G01*
X193060000Y-135900000D02*
X193060000Y-130800000D01*
X193020000Y-135900000D02*
X193020000Y-130800000D01*
X192980000Y-135899000D02*
X192980000Y-130801000D01*
X192940000Y-135898000D02*
X192940000Y-130802000D01*
X192900000Y-135896000D02*
X192900000Y-130804000D01*
X192860000Y-135893000D02*
X192860000Y-130807000D01*
X192820000Y-135889000D02*
X192820000Y-130811000D01*
X192780000Y-135885000D02*
X192780000Y-134330000D01*
X192780000Y-132370000D02*
X192780000Y-130815000D01*
X192740000Y-135881000D02*
X192740000Y-134330000D01*
X192740000Y-132370000D02*
X192740000Y-130819000D01*
X192700000Y-135875000D02*
X192700000Y-134330000D01*
X192700000Y-132370000D02*
X192700000Y-130825000D01*
X192660000Y-135869000D02*
X192660000Y-134330000D01*
X192660000Y-132370000D02*
X192660000Y-130831000D01*
X192620000Y-135863000D02*
X192620000Y-134330000D01*
X192620000Y-132370000D02*
X192620000Y-130837000D01*
X192580000Y-135856000D02*
X192580000Y-134330000D01*
X192580000Y-132370000D02*
X192580000Y-130844000D01*
X192540000Y-135848000D02*
X192540000Y-134330000D01*
X192540000Y-132370000D02*
X192540000Y-130852000D01*
X192500000Y-135839000D02*
X192500000Y-134330000D01*
X192500000Y-132370000D02*
X192500000Y-130861000D01*
X192460000Y-135830000D02*
X192460000Y-134330000D01*
X192460000Y-132370000D02*
X192460000Y-130870000D01*
X192420000Y-135820000D02*
X192420000Y-134330000D01*
X192420000Y-132370000D02*
X192420000Y-130880000D01*
X192380000Y-135810000D02*
X192380000Y-134330000D01*
X192380000Y-132370000D02*
X192380000Y-130890000D01*
X192339000Y-135798000D02*
X192339000Y-134330000D01*
X192339000Y-132370000D02*
X192339000Y-130902000D01*
X192299000Y-135786000D02*
X192299000Y-134330000D01*
X192299000Y-132370000D02*
X192299000Y-130914000D01*
X192259000Y-135774000D02*
X192259000Y-134330000D01*
X192259000Y-132370000D02*
X192259000Y-130926000D01*
X192219000Y-135760000D02*
X192219000Y-134330000D01*
X192219000Y-132370000D02*
X192219000Y-130940000D01*
X192179000Y-135746000D02*
X192179000Y-134330000D01*
X192179000Y-132370000D02*
X192179000Y-130954000D01*
X192139000Y-135732000D02*
X192139000Y-134330000D01*
X192139000Y-132370000D02*
X192139000Y-130968000D01*
X192099000Y-135716000D02*
X192099000Y-134330000D01*
X192099000Y-132370000D02*
X192099000Y-130984000D01*
X192059000Y-135700000D02*
X192059000Y-134330000D01*
X192059000Y-132370000D02*
X192059000Y-131000000D01*
X192019000Y-135683000D02*
X192019000Y-134330000D01*
X192019000Y-132370000D02*
X192019000Y-131017000D01*
X191979000Y-135665000D02*
X191979000Y-134330000D01*
X191979000Y-132370000D02*
X191979000Y-131035000D01*
X191939000Y-135646000D02*
X191939000Y-134330000D01*
X191939000Y-132370000D02*
X191939000Y-131054000D01*
X191899000Y-135626000D02*
X191899000Y-134330000D01*
X191899000Y-132370000D02*
X191899000Y-131074000D01*
X191859000Y-135606000D02*
X191859000Y-134330000D01*
X191859000Y-132370000D02*
X191859000Y-131094000D01*
X191819000Y-135584000D02*
X191819000Y-134330000D01*
X191819000Y-132370000D02*
X191819000Y-131116000D01*
X191779000Y-135562000D02*
X191779000Y-134330000D01*
X191779000Y-132370000D02*
X191779000Y-131138000D01*
X191739000Y-135539000D02*
X191739000Y-134330000D01*
X191739000Y-132370000D02*
X191739000Y-131161000D01*
X191699000Y-135515000D02*
X191699000Y-134330000D01*
X191699000Y-132370000D02*
X191699000Y-131185000D01*
X191659000Y-135490000D02*
X191659000Y-134330000D01*
X191659000Y-132370000D02*
X191659000Y-131210000D01*
X191619000Y-135463000D02*
X191619000Y-134330000D01*
X191619000Y-132370000D02*
X191619000Y-131237000D01*
X191579000Y-135436000D02*
X191579000Y-134330000D01*
X191579000Y-132370000D02*
X191579000Y-131264000D01*
X191539000Y-135408000D02*
X191539000Y-134330000D01*
X191539000Y-132370000D02*
X191539000Y-131292000D01*
X191499000Y-135378000D02*
X191499000Y-134330000D01*
X191499000Y-132370000D02*
X191499000Y-131322000D01*
X191459000Y-135347000D02*
X191459000Y-134330000D01*
X191459000Y-132370000D02*
X191459000Y-131353000D01*
X191419000Y-135315000D02*
X191419000Y-134330000D01*
X191419000Y-132370000D02*
X191419000Y-131385000D01*
X191379000Y-135282000D02*
X191379000Y-134330000D01*
X191379000Y-132370000D02*
X191379000Y-131418000D01*
X191339000Y-135247000D02*
X191339000Y-134330000D01*
X191339000Y-132370000D02*
X191339000Y-131453000D01*
X191299000Y-135211000D02*
X191299000Y-134330000D01*
X191299000Y-132370000D02*
X191299000Y-131489000D01*
X191259000Y-135173000D02*
X191259000Y-134330000D01*
X191259000Y-132370000D02*
X191259000Y-131527000D01*
X191219000Y-135133000D02*
X191219000Y-134330000D01*
X191219000Y-132370000D02*
X191219000Y-131567000D01*
X191179000Y-135092000D02*
X191179000Y-134330000D01*
X191179000Y-132370000D02*
X191179000Y-131608000D01*
X191139000Y-135049000D02*
X191139000Y-134330000D01*
X191139000Y-132370000D02*
X191139000Y-131651000D01*
X191099000Y-135004000D02*
X191099000Y-134330000D01*
X191099000Y-132370000D02*
X191099000Y-131696000D01*
X191059000Y-134956000D02*
X191059000Y-134330000D01*
X191059000Y-132370000D02*
X191059000Y-131744000D01*
X191019000Y-134906000D02*
X191019000Y-134330000D01*
X191019000Y-132370000D02*
X191019000Y-131794000D01*
X190979000Y-134854000D02*
X190979000Y-134330000D01*
X190979000Y-132370000D02*
X190979000Y-131846000D01*
X190939000Y-134798000D02*
X190939000Y-134330000D01*
X190939000Y-132370000D02*
X190939000Y-131902000D01*
X190899000Y-134740000D02*
X190899000Y-134330000D01*
X190899000Y-132370000D02*
X190899000Y-131960000D01*
X190859000Y-134677000D02*
X190859000Y-134330000D01*
X190859000Y-132370000D02*
X190859000Y-132023000D01*
X190819000Y-134611000D02*
X190819000Y-132089000D01*
X190779000Y-134539000D02*
X190779000Y-132161000D01*
X190739000Y-134462000D02*
X190739000Y-132238000D01*
X190699000Y-134378000D02*
X190699000Y-132322000D01*
X190659000Y-134284000D02*
X190659000Y-132416000D01*
X190619000Y-134179000D02*
X190619000Y-132521000D01*
X190579000Y-134057000D02*
X190579000Y-132643000D01*
X190539000Y-133909000D02*
X190539000Y-132791000D01*
X190499000Y-133704000D02*
X190499000Y-132996000D01*
X196510000Y-133350000D02*
X195310000Y-133350000D01*
X195910000Y-134000000D02*
X195910000Y-132700000D01*
X145380000Y-157440000D02*
X145380000Y-160060000D01*
X145380000Y-160060000D02*
X151800000Y-160060000D01*
X151800000Y-160060000D02*
X151800000Y-157440000D01*
X151800000Y-157440000D02*
X145380000Y-157440000D01*
X144490000Y-158750000D02*
X145380000Y-158750000D01*
X152690000Y-158750000D02*
X151800000Y-158750000D01*
X145380000Y-154900000D02*
X145380000Y-157520000D01*
X145380000Y-157520000D02*
X151800000Y-157520000D01*
X151800000Y-157520000D02*
X151800000Y-154900000D01*
X151800000Y-154900000D02*
X145380000Y-154900000D01*
X144490000Y-156210000D02*
X145380000Y-156210000D01*
X152690000Y-156210000D02*
X151800000Y-156210000D01*
X189860000Y-151830000D02*
X193680000Y-151830000D01*
X193680000Y-151830000D02*
X193680000Y-142810000D01*
X193680000Y-142810000D02*
X189860000Y-142810000D01*
X189860000Y-142810000D02*
X189860000Y-151830000D01*
X191770000Y-152090000D02*
X191770000Y-151830000D01*
X191770000Y-142550000D02*
X191770000Y-142810000D01*
X189860000Y-150435000D02*
X193680000Y-150435000D01*
X193610000Y-73020000D02*
X193610000Y-76840000D01*
X193610000Y-76840000D02*
X202630000Y-76840000D01*
X202630000Y-76840000D02*
X202630000Y-73020000D01*
X202630000Y-73020000D02*
X193610000Y-73020000D01*
X193350000Y-74930000D02*
X193610000Y-74930000D01*
X202890000Y-74930000D02*
X202630000Y-74930000D01*
X195005000Y-73020000D02*
X195005000Y-76840000D01*
X163960000Y-128410000D02*
X163960000Y-127140000D01*
X163960000Y-128410000D02*
X161420000Y-128410000D01*
X163760000Y-128210000D02*
X153740000Y-128210000D01*
X153740000Y-128210000D02*
X153740000Y-118170000D01*
X153740000Y-118170000D02*
X163760000Y-118170000D01*
X163760000Y-118170000D02*
X163760000Y-128210000D01*
X160780000Y-126365000D02*
X160780000Y-125095000D01*
X160780000Y-125095000D02*
X156720000Y-125095000D01*
X156720000Y-125095000D02*
X156720000Y-126365000D01*
X156720000Y-126365000D02*
X160780000Y-126365000D01*
X158750000Y-126365000D02*
X158750000Y-125095000D01*
X160780000Y-123825000D02*
X160780000Y-122555000D01*
X160780000Y-122555000D02*
X156720000Y-122555000D01*
X156720000Y-122555000D02*
X156720000Y-123825000D01*
X156720000Y-123825000D02*
X160780000Y-123825000D01*
X158750000Y-123825000D02*
X158750000Y-122555000D01*
X160780000Y-121285000D02*
X160780000Y-120015000D01*
X160780000Y-120015000D02*
X156720000Y-120015000D01*
X156720000Y-120015000D02*
X156720000Y-121285000D01*
X156720000Y-121285000D02*
X160780000Y-121285000D01*
X158750000Y-121285000D02*
X158750000Y-120015000D01*
X138320000Y-76990000D02*
X138320000Y-81090000D01*
X138320000Y-81090000D02*
X151120000Y-81090000D01*
X151120000Y-81090000D02*
X151120000Y-76990000D01*
X151120000Y-76990000D02*
X138320000Y-76990000D01*
X138320000Y-78740000D02*
X138820000Y-78740000D01*
X138820000Y-78740000D02*
X138820000Y-77490000D01*
X138820000Y-77490000D02*
X150620000Y-77490000D01*
X150620000Y-77490000D02*
X150620000Y-78740000D01*
X150620000Y-78740000D02*
X151120000Y-78740000D01*
X138320000Y-79590000D02*
X139320000Y-79590000D01*
X139320000Y-79590000D02*
X139320000Y-81090000D01*
X151120000Y-79590000D02*
X150120000Y-79590000D01*
X150120000Y-79590000D02*
X150120000Y-81090000D01*
X138020000Y-78890000D02*
X138020000Y-81390000D01*
X138020000Y-81390000D02*
X140520000Y-81390000D01*
X138320000Y-87150000D02*
X138320000Y-91250000D01*
X138320000Y-91250000D02*
X151120000Y-91250000D01*
X151120000Y-91250000D02*
X151120000Y-87150000D01*
X151120000Y-87150000D02*
X138320000Y-87150000D01*
X138320000Y-88900000D02*
X138820000Y-88900000D01*
X138820000Y-88900000D02*
X138820000Y-87650000D01*
X138820000Y-87650000D02*
X150620000Y-87650000D01*
X150620000Y-87650000D02*
X150620000Y-88900000D01*
X150620000Y-88900000D02*
X151120000Y-88900000D01*
X138320000Y-89750000D02*
X139320000Y-89750000D01*
X139320000Y-89750000D02*
X139320000Y-91250000D01*
X151120000Y-89750000D02*
X150120000Y-89750000D01*
X150120000Y-89750000D02*
X150120000Y-91250000D01*
X138020000Y-89050000D02*
X138020000Y-91550000D01*
X138020000Y-91550000D02*
X140520000Y-91550000D01*
X138320000Y-97310000D02*
X138320000Y-101410000D01*
X138320000Y-101410000D02*
X151120000Y-101410000D01*
X151120000Y-101410000D02*
X151120000Y-97310000D01*
X151120000Y-97310000D02*
X138320000Y-97310000D01*
X138320000Y-99060000D02*
X138820000Y-99060000D01*
X138820000Y-99060000D02*
X138820000Y-97810000D01*
X138820000Y-97810000D02*
X150620000Y-97810000D01*
X150620000Y-97810000D02*
X150620000Y-99060000D01*
X150620000Y-99060000D02*
X151120000Y-99060000D01*
X138320000Y-99910000D02*
X139320000Y-99910000D01*
X139320000Y-99910000D02*
X139320000Y-101410000D01*
X151120000Y-99910000D02*
X150120000Y-99910000D01*
X150120000Y-99910000D02*
X150120000Y-101410000D01*
X138020000Y-99210000D02*
X138020000Y-101710000D01*
X138020000Y-101710000D02*
X140520000Y-101710000D01*
X138320000Y-107470000D02*
X138320000Y-111570000D01*
X138320000Y-111570000D02*
X151120000Y-111570000D01*
X151120000Y-111570000D02*
X151120000Y-107470000D01*
X151120000Y-107470000D02*
X138320000Y-107470000D01*
X138320000Y-109220000D02*
X138820000Y-109220000D01*
X138820000Y-109220000D02*
X138820000Y-107970000D01*
X138820000Y-107970000D02*
X150620000Y-107970000D01*
X150620000Y-107970000D02*
X150620000Y-109220000D01*
X150620000Y-109220000D02*
X151120000Y-109220000D01*
X138320000Y-110070000D02*
X139320000Y-110070000D01*
X139320000Y-110070000D02*
X139320000Y-111570000D01*
X151120000Y-110070000D02*
X150120000Y-110070000D01*
X150120000Y-110070000D02*
X150120000Y-111570000D01*
X138020000Y-109370000D02*
X138020000Y-111870000D01*
X138020000Y-111870000D02*
X140520000Y-111870000D01*
X138320000Y-117630000D02*
X138320000Y-121730000D01*
X138320000Y-121730000D02*
X151120000Y-121730000D01*
X151120000Y-121730000D02*
X151120000Y-117630000D01*
X151120000Y-117630000D02*
X138320000Y-117630000D01*
X138320000Y-119380000D02*
X138820000Y-119380000D01*
X138820000Y-119380000D02*
X138820000Y-118130000D01*
X138820000Y-118130000D02*
X150620000Y-118130000D01*
X150620000Y-118130000D02*
X150620000Y-119380000D01*
X150620000Y-119380000D02*
X151120000Y-119380000D01*
X138320000Y-120230000D02*
X139320000Y-120230000D01*
X139320000Y-120230000D02*
X139320000Y-121730000D01*
X151120000Y-120230000D02*
X150120000Y-120230000D01*
X150120000Y-120230000D02*
X150120000Y-121730000D01*
X138020000Y-119530000D02*
X138020000Y-122030000D01*
X138020000Y-122030000D02*
X140520000Y-122030000D01*
X138320000Y-127790000D02*
X138320000Y-131890000D01*
X138320000Y-131890000D02*
X151120000Y-131890000D01*
X151120000Y-131890000D02*
X151120000Y-127790000D01*
X151120000Y-127790000D02*
X138320000Y-127790000D01*
X138320000Y-129540000D02*
X138820000Y-129540000D01*
X138820000Y-129540000D02*
X138820000Y-128290000D01*
X138820000Y-128290000D02*
X150620000Y-128290000D01*
X150620000Y-128290000D02*
X150620000Y-129540000D01*
X150620000Y-129540000D02*
X151120000Y-129540000D01*
X138320000Y-130390000D02*
X139320000Y-130390000D01*
X139320000Y-130390000D02*
X139320000Y-131890000D01*
X151120000Y-130390000D02*
X150120000Y-130390000D01*
X150120000Y-130390000D02*
X150120000Y-131890000D01*
X138020000Y-129690000D02*
X138020000Y-132190000D01*
X138020000Y-132190000D02*
X140520000Y-132190000D01*
X138320000Y-148110000D02*
X138320000Y-152210000D01*
X138320000Y-152210000D02*
X151120000Y-152210000D01*
X151120000Y-152210000D02*
X151120000Y-148110000D01*
X151120000Y-148110000D02*
X138320000Y-148110000D01*
X138320000Y-149860000D02*
X138820000Y-149860000D01*
X138820000Y-149860000D02*
X138820000Y-148610000D01*
X138820000Y-148610000D02*
X150620000Y-148610000D01*
X150620000Y-148610000D02*
X150620000Y-149860000D01*
X150620000Y-149860000D02*
X151120000Y-149860000D01*
X138320000Y-150710000D02*
X139320000Y-150710000D01*
X139320000Y-150710000D02*
X139320000Y-152210000D01*
X151120000Y-150710000D02*
X150120000Y-150710000D01*
X150120000Y-150710000D02*
X150120000Y-152210000D01*
X138020000Y-150010000D02*
X138020000Y-152510000D01*
X138020000Y-152510000D02*
X140520000Y-152510000D01*
X138320000Y-137950000D02*
X138320000Y-142050000D01*
X138320000Y-142050000D02*
X151120000Y-142050000D01*
X151120000Y-142050000D02*
X151120000Y-137950000D01*
X151120000Y-137950000D02*
X138320000Y-137950000D01*
X138320000Y-139700000D02*
X138820000Y-139700000D01*
X138820000Y-139700000D02*
X138820000Y-138450000D01*
X138820000Y-138450000D02*
X150620000Y-138450000D01*
X150620000Y-138450000D02*
X150620000Y-139700000D01*
X150620000Y-139700000D02*
X151120000Y-139700000D01*
X138320000Y-140550000D02*
X139320000Y-140550000D01*
X139320000Y-140550000D02*
X139320000Y-142050000D01*
X151120000Y-140550000D02*
X150120000Y-140550000D01*
X150120000Y-140550000D02*
X150120000Y-142050000D01*
X138020000Y-139850000D02*
X138020000Y-142350000D01*
X138020000Y-142350000D02*
X140520000Y-142350000D01*
D11*
X175768095Y-103592381D02*
X175768095Y-104401905D01*
X175815714Y-104497143D01*
X175863333Y-104544762D01*
X175958571Y-104592381D01*
X176149048Y-104592381D01*
X176244286Y-104544762D01*
X176291905Y-104497143D01*
X176339524Y-104401905D01*
X176339524Y-103592381D01*
X176768095Y-103687619D02*
X176815714Y-103640000D01*
X176910952Y-103592381D01*
X177149048Y-103592381D01*
X177244286Y-103640000D01*
X177291905Y-103687619D01*
X177339524Y-103782857D01*
X177339524Y-103878095D01*
X177291905Y-104020952D01*
X176720476Y-104592381D01*
X177339524Y-104592381D01*
X188872381Y-120141905D02*
X189681905Y-120141905D01*
X189777143Y-120094286D01*
X189824762Y-120046667D01*
X189872381Y-119951429D01*
X189872381Y-119760952D01*
X189824762Y-119665714D01*
X189777143Y-119618095D01*
X189681905Y-119570476D01*
X188872381Y-119570476D01*
X189872381Y-118570476D02*
X189872381Y-119141905D01*
X189872381Y-118856191D02*
X188872381Y-118856191D01*
X189015238Y-118951429D01*
X189110476Y-119046667D01*
X189158095Y-119141905D01*
X190960477Y-156932381D02*
X190960477Y-157646667D01*
X190912857Y-157789524D01*
X190817619Y-157884762D01*
X190674762Y-157932381D01*
X190579524Y-157932381D01*
X191960477Y-157932381D02*
X191389048Y-157932381D01*
X191674762Y-157932381D02*
X191674762Y-156932381D01*
X191579524Y-157075238D01*
X191484286Y-157170476D01*
X191389048Y-157218095D01*
X192579524Y-156932381D02*
X192674763Y-156932381D01*
X192770001Y-156980000D01*
X192817620Y-157027619D01*
X192865239Y-157122857D01*
X192912858Y-157313333D01*
X192912858Y-157551429D01*
X192865239Y-157741905D01*
X192817620Y-157837143D01*
X192770001Y-157884762D01*
X192674763Y-157932381D01*
X192579524Y-157932381D01*
X192484286Y-157884762D01*
X192436667Y-157837143D01*
X192389048Y-157741905D01*
X192341429Y-157551429D01*
X192341429Y-157313333D01*
X192389048Y-157122857D01*
X192436667Y-157027619D01*
X192484286Y-156980000D01*
X192579524Y-156932381D01*
X195246667Y-156932381D02*
X195246667Y-157646667D01*
X195199047Y-157789524D01*
X195103809Y-157884762D01*
X194960952Y-157932381D01*
X194865714Y-157932381D01*
X195770476Y-157932381D02*
X195960952Y-157932381D01*
X196056191Y-157884762D01*
X196103810Y-157837143D01*
X196199048Y-157694286D01*
X196246667Y-157503810D01*
X196246667Y-157122857D01*
X196199048Y-157027619D01*
X196151429Y-156980000D01*
X196056191Y-156932381D01*
X195865714Y-156932381D01*
X195770476Y-156980000D01*
X195722857Y-157027619D01*
X195675238Y-157122857D01*
X195675238Y-157360952D01*
X195722857Y-157456190D01*
X195770476Y-157503810D01*
X195865714Y-157551429D01*
X196056191Y-157551429D01*
X196151429Y-157503810D01*
X196199048Y-157456190D01*
X196246667Y-157360952D01*
X196032381Y-148058095D02*
X195032381Y-148058095D01*
X195032381Y-147820000D01*
X195080000Y-147677142D01*
X195175238Y-147581904D01*
X195270476Y-147534285D01*
X195460952Y-147486666D01*
X195603810Y-147486666D01*
X195794286Y-147534285D01*
X195889524Y-147581904D01*
X195984762Y-147677142D01*
X196032381Y-147820000D01*
X196032381Y-148058095D01*
X195127619Y-147105714D02*
X195080000Y-147058095D01*
X195032381Y-146962857D01*
X195032381Y-146724761D01*
X195080000Y-146629523D01*
X195127619Y-146581904D01*
X195222857Y-146534285D01*
X195318095Y-146534285D01*
X195460952Y-146581904D01*
X196032381Y-147153333D01*
X196032381Y-146534285D01*
X199703334Y-80407143D02*
X199655715Y-80454762D01*
X199512858Y-80502381D01*
X199417620Y-80502381D01*
X199274762Y-80454762D01*
X199179524Y-80359524D01*
X199131905Y-80264286D01*
X199084286Y-80073810D01*
X199084286Y-79930952D01*
X199131905Y-79740476D01*
X199179524Y-79645238D01*
X199274762Y-79550000D01*
X199417620Y-79502381D01*
X199512858Y-79502381D01*
X199655715Y-79550000D01*
X199703334Y-79597619D01*
X200084286Y-79597619D02*
X200131905Y-79550000D01*
X200227143Y-79502381D01*
X200465239Y-79502381D01*
X200560477Y-79550000D01*
X200608096Y-79597619D01*
X200655715Y-79692857D01*
X200655715Y-79788095D01*
X200608096Y-79930952D01*
X200036667Y-80502381D01*
X200655715Y-80502381D01*
X156789524Y-115882381D02*
X156456190Y-115406190D01*
X156218095Y-115882381D02*
X156218095Y-114882381D01*
X156599048Y-114882381D01*
X156694286Y-114930000D01*
X156741905Y-114977619D01*
X156789524Y-115072857D01*
X156789524Y-115215714D01*
X156741905Y-115310952D01*
X156694286Y-115358571D01*
X156599048Y-115406190D01*
X156218095Y-115406190D01*
X157218095Y-115882381D02*
X157218095Y-114882381D01*
X157789524Y-115882381D01*
X157789524Y-114882381D01*
X158789524Y-115882381D02*
X158218095Y-115882381D01*
X158503809Y-115882381D02*
X158503809Y-114882381D01*
X158408571Y-115025238D01*
X158313333Y-115120476D01*
X158218095Y-115168095D01*
X156741905Y-133382381D02*
X156741905Y-132382381D01*
X156980000Y-132382381D01*
X157122858Y-132430000D01*
X157218096Y-132525238D01*
X157265715Y-132620476D01*
X157313334Y-132810952D01*
X157313334Y-132953810D01*
X157265715Y-133144286D01*
X157218096Y-133239524D01*
X157122858Y-133334762D01*
X156980000Y-133382381D01*
X156741905Y-133382381D01*
X158170477Y-132715714D02*
X158170477Y-133382381D01*
X157932381Y-132334762D02*
X157694286Y-133049048D01*
X158313334Y-133049048D01*
X161821905Y-133382381D02*
X161821905Y-132382381D01*
X162060000Y-132382381D01*
X162202858Y-132430000D01*
X162298096Y-132525238D01*
X162345715Y-132620476D01*
X162393334Y-132810952D01*
X162393334Y-132953810D01*
X162345715Y-133144286D01*
X162298096Y-133239524D01*
X162202858Y-133334762D01*
X162060000Y-133382381D01*
X161821905Y-133382381D01*
X163298096Y-132382381D02*
X162821905Y-132382381D01*
X162774286Y-132858571D01*
X162821905Y-132810952D01*
X162917143Y-132763333D01*
X163155239Y-132763333D01*
X163250477Y-132810952D01*
X163298096Y-132858571D01*
X163345715Y-132953810D01*
X163345715Y-133191905D01*
X163298096Y-133287143D01*
X163250477Y-133334762D01*
X163155239Y-133382381D01*
X162917143Y-133382381D01*
X162821905Y-133334762D01*
X162774286Y-133287143D01*
X157932381Y-156376666D02*
X157456190Y-156710000D01*
X157932381Y-156948095D02*
X156932381Y-156948095D01*
X156932381Y-156567142D01*
X156980000Y-156471904D01*
X157027619Y-156424285D01*
X157122857Y-156376666D01*
X157265714Y-156376666D01*
X157360952Y-156424285D01*
X157408571Y-156471904D01*
X157456190Y-156567142D01*
X157456190Y-156948095D01*
X157932381Y-155424285D02*
X157932381Y-155995714D01*
X157932381Y-155710000D02*
X156932381Y-155710000D01*
X157075238Y-155805238D01*
X157170476Y-155900476D01*
X157218095Y-155995714D01*
X161742381Y-156376666D02*
X161266190Y-156710000D01*
X161742381Y-156948095D02*
X160742381Y-156948095D01*
X160742381Y-156567142D01*
X160790000Y-156471904D01*
X160837619Y-156424285D01*
X160932857Y-156376666D01*
X161075714Y-156376666D01*
X161170952Y-156424285D01*
X161218571Y-156471904D01*
X161266190Y-156567142D01*
X161266190Y-156948095D01*
X160837619Y-155995714D02*
X160790000Y-155948095D01*
X160742381Y-155852857D01*
X160742381Y-155614761D01*
X160790000Y-155519523D01*
X160837619Y-155471904D01*
X160932857Y-155424285D01*
X161028095Y-155424285D01*
X161170952Y-155471904D01*
X161742381Y-156043333D01*
X161742381Y-155424285D01*
X192893334Y-137517143D02*
X192845715Y-137564762D01*
X192702858Y-137612381D01*
X192607620Y-137612381D01*
X192464762Y-137564762D01*
X192369524Y-137469524D01*
X192321905Y-137374286D01*
X192274286Y-137183810D01*
X192274286Y-137040952D01*
X192321905Y-136850476D01*
X192369524Y-136755238D01*
X192464762Y-136660000D01*
X192607620Y-136612381D01*
X192702858Y-136612381D01*
X192845715Y-136660000D01*
X192893334Y-136707619D01*
X193845715Y-137612381D02*
X193274286Y-137612381D01*
X193560000Y-137612381D02*
X193560000Y-136612381D01*
X193464762Y-136755238D01*
X193369524Y-136850476D01*
X193274286Y-136898095D01*
X148423334Y-159202381D02*
X148090000Y-158726190D01*
X147851905Y-159202381D02*
X147851905Y-158202381D01*
X148232858Y-158202381D01*
X148328096Y-158250000D01*
X148375715Y-158297619D01*
X148423334Y-158392857D01*
X148423334Y-158535714D01*
X148375715Y-158630952D01*
X148328096Y-158678571D01*
X148232858Y-158726190D01*
X147851905Y-158726190D01*
X148756667Y-158202381D02*
X149375715Y-158202381D01*
X149042381Y-158583333D01*
X149185239Y-158583333D01*
X149280477Y-158630952D01*
X149328096Y-158678571D01*
X149375715Y-158773810D01*
X149375715Y-159011905D01*
X149328096Y-159107143D01*
X149280477Y-159154762D01*
X149185239Y-159202381D01*
X148899524Y-159202381D01*
X148804286Y-159154762D01*
X148756667Y-159107143D01*
X148423334Y-156662381D02*
X148090000Y-156186190D01*
X147851905Y-156662381D02*
X147851905Y-155662381D01*
X148232858Y-155662381D01*
X148328096Y-155710000D01*
X148375715Y-155757619D01*
X148423334Y-155852857D01*
X148423334Y-155995714D01*
X148375715Y-156090952D01*
X148328096Y-156138571D01*
X148232858Y-156186190D01*
X147851905Y-156186190D01*
X149280477Y-155995714D02*
X149280477Y-156662381D01*
X149042381Y-155614762D02*
X148804286Y-156329048D01*
X149423334Y-156329048D01*
X191222381Y-148986667D02*
X191222381Y-148415238D01*
X192222381Y-148700953D02*
X191222381Y-148700953D01*
X191222381Y-148224762D02*
X192222381Y-147891429D01*
X191222381Y-147558095D01*
X192174762Y-147272381D02*
X192222381Y-147129524D01*
X192222381Y-146891428D01*
X192174762Y-146796190D01*
X192127143Y-146748571D01*
X192031905Y-146700952D01*
X191936667Y-146700952D01*
X191841429Y-146748571D01*
X191793810Y-146796190D01*
X191746190Y-146891428D01*
X191698571Y-147081905D01*
X191650952Y-147177143D01*
X191603333Y-147224762D01*
X191508095Y-147272381D01*
X191412857Y-147272381D01*
X191317619Y-147224762D01*
X191270000Y-147177143D01*
X191222381Y-147081905D01*
X191222381Y-146843809D01*
X191270000Y-146700952D01*
X192222381Y-145748571D02*
X192222381Y-146320000D01*
X192222381Y-146034286D02*
X191222381Y-146034286D01*
X191365238Y-146129524D01*
X191460476Y-146224762D01*
X191508095Y-146320000D01*
X196453333Y-71472381D02*
X197024762Y-71472381D01*
X196739047Y-72472381D02*
X196739047Y-71472381D01*
X197215238Y-71472381D02*
X197548571Y-72472381D01*
X197881905Y-71472381D01*
X198167619Y-72424762D02*
X198310476Y-72472381D01*
X198548572Y-72472381D01*
X198643810Y-72424762D01*
X198691429Y-72377143D01*
X198739048Y-72281905D01*
X198739048Y-72186667D01*
X198691429Y-72091429D01*
X198643810Y-72043810D01*
X198548572Y-71996190D01*
X198358095Y-71948571D01*
X198262857Y-71900952D01*
X198215238Y-71853333D01*
X198167619Y-71758095D01*
X198167619Y-71662857D01*
X198215238Y-71567619D01*
X198262857Y-71520000D01*
X198358095Y-71472381D01*
X198596191Y-71472381D01*
X198739048Y-71520000D01*
X199120000Y-71567619D02*
X199167619Y-71520000D01*
X199262857Y-71472381D01*
X199500953Y-71472381D01*
X199596191Y-71520000D01*
X199643810Y-71567619D01*
X199691429Y-71662857D01*
X199691429Y-71758095D01*
X199643810Y-71900952D01*
X199072381Y-72472381D01*
X199691429Y-72472381D01*
X157416667Y-129614762D02*
X157559524Y-129662381D01*
X157797620Y-129662381D01*
X157892858Y-129614762D01*
X157940477Y-129567143D01*
X157988096Y-129471905D01*
X157988096Y-129376667D01*
X157940477Y-129281429D01*
X157892858Y-129233810D01*
X157797620Y-129186190D01*
X157607143Y-129138571D01*
X157511905Y-129090952D01*
X157464286Y-129043333D01*
X157416667Y-128948095D01*
X157416667Y-128852857D01*
X157464286Y-128757619D01*
X157511905Y-128710000D01*
X157607143Y-128662381D01*
X157845239Y-128662381D01*
X157988096Y-128710000D01*
X158321429Y-128662381D02*
X158559524Y-129662381D01*
X158750001Y-128948095D01*
X158940477Y-129662381D01*
X159178572Y-128662381D01*
X160083334Y-129662381D02*
X159511905Y-129662381D01*
X159797619Y-129662381D02*
X159797619Y-128662381D01*
X159702381Y-128805238D01*
X159607143Y-128900476D01*
X159511905Y-128948095D01*
X144386667Y-75192381D02*
X144386667Y-75906667D01*
X144339047Y-76049524D01*
X144243809Y-76144762D01*
X144100952Y-76192381D01*
X144005714Y-76192381D01*
X145386667Y-76192381D02*
X144815238Y-76192381D01*
X145100952Y-76192381D02*
X145100952Y-75192381D01*
X145005714Y-75335238D01*
X144910476Y-75430476D01*
X144815238Y-75478095D01*
X144386667Y-85352381D02*
X144386667Y-86066667D01*
X144339047Y-86209524D01*
X144243809Y-86304762D01*
X144100952Y-86352381D01*
X144005714Y-86352381D01*
X144815238Y-85447619D02*
X144862857Y-85400000D01*
X144958095Y-85352381D01*
X145196191Y-85352381D01*
X145291429Y-85400000D01*
X145339048Y-85447619D01*
X145386667Y-85542857D01*
X145386667Y-85638095D01*
X145339048Y-85780952D01*
X144767619Y-86352381D01*
X145386667Y-86352381D01*
X144386667Y-95512381D02*
X144386667Y-96226667D01*
X144339047Y-96369524D01*
X144243809Y-96464762D01*
X144100952Y-96512381D01*
X144005714Y-96512381D01*
X144767619Y-95512381D02*
X145386667Y-95512381D01*
X145053333Y-95893333D01*
X145196191Y-95893333D01*
X145291429Y-95940952D01*
X145339048Y-95988571D01*
X145386667Y-96083810D01*
X145386667Y-96321905D01*
X145339048Y-96417143D01*
X145291429Y-96464762D01*
X145196191Y-96512381D01*
X144910476Y-96512381D01*
X144815238Y-96464762D01*
X144767619Y-96417143D01*
X144386667Y-105672381D02*
X144386667Y-106386667D01*
X144339047Y-106529524D01*
X144243809Y-106624762D01*
X144100952Y-106672381D01*
X144005714Y-106672381D01*
X145291429Y-106005714D02*
X145291429Y-106672381D01*
X145053333Y-105624762D02*
X144815238Y-106339048D01*
X145434286Y-106339048D01*
X144386667Y-115832381D02*
X144386667Y-116546667D01*
X144339047Y-116689524D01*
X144243809Y-116784762D01*
X144100952Y-116832381D01*
X144005714Y-116832381D01*
X145339048Y-115832381D02*
X144862857Y-115832381D01*
X144815238Y-116308571D01*
X144862857Y-116260952D01*
X144958095Y-116213333D01*
X145196191Y-116213333D01*
X145291429Y-116260952D01*
X145339048Y-116308571D01*
X145386667Y-116403810D01*
X145386667Y-116641905D01*
X145339048Y-116737143D01*
X145291429Y-116784762D01*
X145196191Y-116832381D01*
X144958095Y-116832381D01*
X144862857Y-116784762D01*
X144815238Y-116737143D01*
X144386667Y-125992381D02*
X144386667Y-126706667D01*
X144339047Y-126849524D01*
X144243809Y-126944762D01*
X144100952Y-126992381D01*
X144005714Y-126992381D01*
X145291429Y-125992381D02*
X145100952Y-125992381D01*
X145005714Y-126040000D01*
X144958095Y-126087619D01*
X144862857Y-126230476D01*
X144815238Y-126420952D01*
X144815238Y-126801905D01*
X144862857Y-126897143D01*
X144910476Y-126944762D01*
X145005714Y-126992381D01*
X145196191Y-126992381D01*
X145291429Y-126944762D01*
X145339048Y-126897143D01*
X145386667Y-126801905D01*
X145386667Y-126563810D01*
X145339048Y-126468571D01*
X145291429Y-126420952D01*
X145196191Y-126373333D01*
X145005714Y-126373333D01*
X144910476Y-126420952D01*
X144862857Y-126468571D01*
X144815238Y-126563810D01*
X144386667Y-146312381D02*
X144386667Y-147026667D01*
X144339047Y-147169524D01*
X144243809Y-147264762D01*
X144100952Y-147312381D01*
X144005714Y-147312381D01*
X145005714Y-146740952D02*
X144910476Y-146693333D01*
X144862857Y-146645714D01*
X144815238Y-146550476D01*
X144815238Y-146502857D01*
X144862857Y-146407619D01*
X144910476Y-146360000D01*
X145005714Y-146312381D01*
X145196191Y-146312381D01*
X145291429Y-146360000D01*
X145339048Y-146407619D01*
X145386667Y-146502857D01*
X145386667Y-146550476D01*
X145339048Y-146645714D01*
X145291429Y-146693333D01*
X145196191Y-146740952D01*
X145005714Y-146740952D01*
X144910476Y-146788571D01*
X144862857Y-146836190D01*
X144815238Y-146931429D01*
X144815238Y-147121905D01*
X144862857Y-147217143D01*
X144910476Y-147264762D01*
X145005714Y-147312381D01*
X145196191Y-147312381D01*
X145291429Y-147264762D01*
X145339048Y-147217143D01*
X145386667Y-147121905D01*
X145386667Y-146931429D01*
X145339048Y-146836190D01*
X145291429Y-146788571D01*
X145196191Y-146740952D01*
X144386667Y-136152381D02*
X144386667Y-136866667D01*
X144339047Y-137009524D01*
X144243809Y-137104762D01*
X144100952Y-137152381D01*
X144005714Y-137152381D01*
X144767619Y-136152381D02*
X145434286Y-136152381D01*
X145005714Y-137152381D01*
X133286667Y-117792381D02*
X132953333Y-117316190D01*
X132715238Y-117792381D02*
X132715238Y-116792381D01*
X133096191Y-116792381D01*
X133191429Y-116840000D01*
X133239048Y-116887619D01*
X133286667Y-116982857D01*
X133286667Y-117125714D01*
X133239048Y-117220952D01*
X133191429Y-117268571D01*
X133096191Y-117316190D01*
X132715238Y-117316190D01*
X133715238Y-117268571D02*
X134048572Y-117268571D01*
X134191429Y-117792381D02*
X133715238Y-117792381D01*
X133715238Y-116792381D01*
X134191429Y-116792381D01*
X134953334Y-117268571D02*
X134620000Y-117268571D01*
X134620000Y-117792381D02*
X134620000Y-116792381D01*
X135096191Y-116792381D01*
X135620000Y-116792381D02*
X135620000Y-117030476D01*
X135381905Y-116935238D02*
X135620000Y-117030476D01*
X135858096Y-116935238D01*
X135477143Y-117220952D02*
X135620000Y-117030476D01*
X135762858Y-117220952D01*
X136381905Y-116792381D02*
X136381905Y-117030476D01*
X136143810Y-116935238D02*
X136381905Y-117030476D01*
X136620001Y-116935238D01*
X136239048Y-117220952D02*
X136381905Y-117030476D01*
X136524763Y-117220952D01*
X200596667Y-117792381D02*
X200263333Y-117316190D01*
X200025238Y-117792381D02*
X200025238Y-116792381D01*
X200406191Y-116792381D01*
X200501429Y-116840000D01*
X200549048Y-116887619D01*
X200596667Y-116982857D01*
X200596667Y-117125714D01*
X200549048Y-117220952D01*
X200501429Y-117268571D01*
X200406191Y-117316190D01*
X200025238Y-117316190D01*
X201025238Y-117268571D02*
X201358572Y-117268571D01*
X201501429Y-117792381D02*
X201025238Y-117792381D01*
X201025238Y-116792381D01*
X201501429Y-116792381D01*
X202263334Y-117268571D02*
X201930000Y-117268571D01*
X201930000Y-117792381D02*
X201930000Y-116792381D01*
X202406191Y-116792381D01*
X202930000Y-116792381D02*
X202930000Y-117030476D01*
X202691905Y-116935238D02*
X202930000Y-117030476D01*
X203168096Y-116935238D01*
X202787143Y-117220952D02*
X202930000Y-117030476D01*
X203072858Y-117220952D01*
X203691905Y-116792381D02*
X203691905Y-117030476D01*
X203453810Y-116935238D02*
X203691905Y-117030476D01*
X203930001Y-116935238D01*
X203549048Y-117220952D02*
X203691905Y-117030476D01*
X203834763Y-117220952D01*
M02*
