M48
;DRILL file {KiCad 4.0.7} date 03/09/18 13:05:58
;FORMAT={-:-/ absolute / metric / decimal}
FMAT,2
METRIC,TZ
T1C0.800
T2C0.900
T3C1.000
T4C1.400
T5C1.780
T6C3.500
T7C4.000
%
G90
G05
M71
T1
X143.51Y-156.21
X143.51Y-158.75
X153.67Y-113.03
X153.67Y-156.21
X153.67Y-158.75
X154.94Y-120.65
X154.94Y-123.19
X154.94Y-125.73
X156.21Y-113.03
X157.48Y-151.13
X157.48Y-161.29
X158.75Y-113.03
X161.29Y-113.03
X161.29Y-151.13
X161.29Y-161.29
X162.56Y-120.65
X162.56Y-123.19
X162.56Y-125.73
X163.83Y-113.03
X168.91Y-109.22
X168.91Y-111.76
X168.91Y-114.3
X168.91Y-116.84
X168.91Y-119.38
X168.91Y-121.92
X168.91Y-124.46
X168.91Y-127.
X168.91Y-129.54
X168.91Y-132.08
X168.91Y-134.62
X168.91Y-137.16
X168.91Y-139.7
X168.91Y-142.24
X168.91Y-144.78
X184.15Y-109.22
X184.15Y-111.76
X184.15Y-114.3
X184.15Y-116.84
X184.15Y-119.38
X184.15Y-121.92
X184.15Y-124.46
X184.15Y-127.
X184.15Y-129.54
X184.15Y-132.08
X184.15Y-134.62
X184.15Y-137.16
X184.15Y-139.7
X184.15Y-142.24
X184.15Y-144.78
X190.54Y-134.62
X193.04Y-134.62
T2
X140.97Y-78.74
X140.97Y-88.9
X140.97Y-99.06
X140.97Y-109.22
X140.97Y-119.38
X140.97Y-129.54
X140.97Y-139.7
X140.97Y-149.86
X143.47Y-78.74
X143.47Y-88.9
X143.47Y-99.06
X143.47Y-109.22
X143.47Y-119.38
X143.47Y-129.54
X143.47Y-139.7
X143.47Y-149.86
X145.97Y-78.74
X145.97Y-88.9
X145.97Y-99.06
X145.97Y-109.22
X145.97Y-119.38
X145.97Y-129.54
X145.97Y-139.7
X145.97Y-149.86
X148.47Y-78.74
X148.47Y-88.9
X148.47Y-99.06
X148.47Y-109.22
X148.47Y-119.38
X148.47Y-129.54
X148.47Y-139.7
X148.47Y-149.86
X156.21Y-135.89
X158.75Y-135.89
X161.29Y-135.89
X163.83Y-135.89
T3
X191.77Y-109.53
X191.77Y-113.03
X191.77Y-120.65
X191.77Y-123.19
X191.77Y-125.73
X194.31Y-160.02
X199.39Y-160.02
T4
X138.43Y-71.12
X151.13Y-71.12
X194.31Y-142.24
X194.31Y-154.94
X199.39Y-142.24
X199.39Y-154.94
T5
X168.91Y-106.68
X168.91Y-147.32
X184.15Y-106.68
X184.15Y-147.32
T6
X166.37Y-102.87
X166.37Y-149.86
X186.69Y-102.87
X186.69Y-149.86
T7
X134.62Y-103.886
X134.62Y-116.84
X134.62Y-129.794
X201.93Y-103.886
X201.93Y-116.84
X201.93Y-129.794
T0
M30
