G04 EasyPC Gerber Version 21.0.2 Build 4273 *
G04 #@! TF.Part,Single*
G04 #@! TF.FileFunction,Drillmap *
G04 #@! TF.FilePolarity,Positive *
%FSLAX35Y35*%
%MOIN*%
%ADD11C,0.00500*%
G04 #@! TA.AperFunction,SMDPad*
%ADD10C,0.10000*%
X0Y0D02*
D02*
D10*
X20600Y147923D03*
Y197135D03*
Y246348D03*
X50600Y40600D03*
Y90600D03*
Y135600D03*
Y180600D03*
Y225600D03*
Y270600D03*
Y315600D03*
Y360600D03*
X60443Y40600D03*
Y90600D03*
Y135600D03*
Y180600D03*
Y225600D03*
Y270600D03*
Y315600D03*
Y360600D03*
X70285Y40600D03*
Y90600D03*
Y135600D03*
Y180600D03*
Y225600D03*
Y270600D03*
Y315600D03*
Y360600D03*
X80128Y40600D03*
Y90600D03*
Y135600D03*
Y180600D03*
Y225600D03*
Y270600D03*
Y315600D03*
Y360600D03*
X105600Y198100D03*
X108100Y140817D03*
Y150817D03*
Y160817D03*
Y170817D03*
X110600Y10600D03*
Y50600D03*
Y93100D03*
Y103100D03*
X113100Y290600D03*
Y330600D03*
X115600Y198100D03*
X125600D03*
X128100Y10600D03*
Y50600D03*
X130600Y290600D03*
Y330600D03*
X135600Y198100D03*
X138100Y93100D03*
Y103100D03*
Y140817D03*
Y150817D03*
Y160817D03*
Y170817D03*
X145600Y198100D03*
X153100Y50600D03*
Y235600D03*
X163100Y70600D03*
Y80600D03*
Y90600D03*
Y100600D03*
Y110600D03*
Y120600D03*
Y130600D03*
Y140600D03*
Y150600D03*
Y160600D03*
Y170600D03*
Y180600D03*
Y190600D03*
Y200600D03*
Y210600D03*
X223100Y70600D03*
Y80600D03*
Y90600D03*
Y100600D03*
Y110600D03*
Y120600D03*
Y130600D03*
Y140600D03*
Y150600D03*
Y160600D03*
Y170600D03*
Y180600D03*
Y190600D03*
Y200600D03*
Y210600D03*
X233100Y50600D03*
Y235600D03*
X241561Y300600D03*
X263710Y210600D03*
X265600Y273100D03*
X271210Y328100D03*
Y365600D03*
X275600Y38100D03*
Y103139D03*
Y119303D03*
Y184342D03*
Y273100D03*
X277490Y210600D03*
X284990Y328100D03*
Y365600D03*
X285600Y16997D03*
Y273100D03*
X305600Y16997D03*
X306600Y300600D03*
X315600Y147923D03*
Y197135D03*
Y246348D03*
D02*
D11*
X30600Y154798D02*
X30913Y154173D01*
X31537Y153860*
X32787*
X33413Y154173*
X33725Y154798*
X33413Y155423*
X32787Y155735*
X31537*
X30913Y156048*
X30600Y156673*
X30913Y157298*
X31537Y157610*
X32787*
X33413Y157298*
X33725Y156673*
X30600Y204011D02*
X30913Y203385D01*
X31537Y203073*
X32787*
X33413Y203385*
X33725Y204011*
X33413Y204635*
X32787Y204948*
X31537*
X30913Y205261*
X30600Y205885*
X30913Y206511*
X31537Y206823*
X32787*
X33413Y206511*
X33725Y205885*
X30600Y253223D02*
X30913Y252598D01*
X31537Y252285*
X32787*
X33413Y252598*
X33725Y253223*
X33413Y253848*
X32787Y254161*
X31537*
X30913Y254473*
X30600Y255098*
X30913Y255723*
X31537Y256035*
X32787*
X33413Y255723*
X33725Y255098*
X60600Y47787D02*
Y49037D01*
X60913Y49663*
X61225Y49975*
X61850Y50287*
X62475*
X63100Y49975*
X63413Y49663*
X63725Y49037*
Y47787*
X63413Y47163*
X63100Y46850*
X62475Y46537*
X61850*
X61225Y46850*
X60913Y47163*
X60600Y47787*
Y97787D02*
Y99037D01*
X60913Y99663*
X61225Y99975*
X61850Y100287*
X62475*
X63100Y99975*
X63413Y99663*
X63725Y99037*
Y97787*
X63413Y97163*
X63100Y96850*
X62475Y96537*
X61850*
X61225Y96850*
X60913Y97163*
X60600Y97787*
Y142787D02*
Y144037D01*
X60913Y144663*
X61225Y144975*
X61850Y145287*
X62475*
X63100Y144975*
X63413Y144663*
X63725Y144037*
Y142787*
X63413Y142163*
X63100Y141850*
X62475Y141537*
X61850*
X61225Y141850*
X60913Y142163*
X60600Y142787*
Y187787D02*
Y189037D01*
X60913Y189663*
X61225Y189975*
X61850Y190287*
X62475*
X63100Y189975*
X63413Y189663*
X63725Y189037*
Y187787*
X63413Y187163*
X63100Y186850*
X62475Y186537*
X61850*
X61225Y186850*
X60913Y187163*
X60600Y187787*
Y232787D02*
Y234037D01*
X60913Y234663*
X61225Y234975*
X61850Y235287*
X62475*
X63100Y234975*
X63413Y234663*
X63725Y234037*
Y232787*
X63413Y232163*
X63100Y231850*
X62475Y231537*
X61850*
X61225Y231850*
X60913Y232163*
X60600Y232787*
Y277787D02*
Y279037D01*
X60913Y279663*
X61225Y279975*
X61850Y280287*
X62475*
X63100Y279975*
X63413Y279663*
X63725Y279037*
Y277787*
X63413Y277163*
X63100Y276850*
X62475Y276537*
X61850*
X61225Y276850*
X60913Y277163*
X60600Y277787*
Y322787D02*
Y324037D01*
X60913Y324663*
X61225Y324975*
X61850Y325287*
X62475*
X63100Y324975*
X63413Y324663*
X63725Y324037*
Y322787*
X63413Y322163*
X63100Y321850*
X62475Y321537*
X61850*
X61225Y321850*
X60913Y322163*
X60600Y322787*
Y367787D02*
Y369037D01*
X60913Y369663*
X61225Y369975*
X61850Y370287*
X62475*
X63100Y369975*
X63413Y369663*
X63725Y369037*
Y367787*
X63413Y367163*
X63100Y366850*
X62475Y366537*
X61850*
X61225Y366850*
X60913Y367163*
X60600Y367787*
X70443Y47787D02*
Y49037D01*
X70755Y49663*
X71068Y49975*
X71693Y50287*
X72318*
X72943Y49975*
X73255Y49663*
X73568Y49037*
Y47787*
X73255Y47163*
X72943Y46850*
X72318Y46537*
X71693*
X71068Y46850*
X70755Y47163*
X70443Y47787*
Y97787D02*
Y99037D01*
X70755Y99663*
X71068Y99975*
X71693Y100287*
X72318*
X72943Y99975*
X73255Y99663*
X73568Y99037*
Y97787*
X73255Y97163*
X72943Y96850*
X72318Y96537*
X71693*
X71068Y96850*
X70755Y97163*
X70443Y97787*
Y142787D02*
Y144037D01*
X70755Y144663*
X71068Y144975*
X71693Y145287*
X72318*
X72943Y144975*
X73255Y144663*
X73568Y144037*
Y142787*
X73255Y142163*
X72943Y141850*
X72318Y141537*
X71693*
X71068Y141850*
X70755Y142163*
X70443Y142787*
Y187787D02*
Y189037D01*
X70755Y189663*
X71068Y189975*
X71693Y190287*
X72318*
X72943Y189975*
X73255Y189663*
X73568Y189037*
Y187787*
X73255Y187163*
X72943Y186850*
X72318Y186537*
X71693*
X71068Y186850*
X70755Y187163*
X70443Y187787*
Y232787D02*
Y234037D01*
X70755Y234663*
X71068Y234975*
X71693Y235287*
X72318*
X72943Y234975*
X73255Y234663*
X73568Y234037*
Y232787*
X73255Y232163*
X72943Y231850*
X72318Y231537*
X71693*
X71068Y231850*
X70755Y232163*
X70443Y232787*
Y277787D02*
Y279037D01*
X70755Y279663*
X71068Y279975*
X71693Y280287*
X72318*
X72943Y279975*
X73255Y279663*
X73568Y279037*
Y277787*
X73255Y277163*
X72943Y276850*
X72318Y276537*
X71693*
X71068Y276850*
X70755Y277163*
X70443Y277787*
Y322787D02*
Y324037D01*
X70755Y324663*
X71068Y324975*
X71693Y325287*
X72318*
X72943Y324975*
X73255Y324663*
X73568Y324037*
Y322787*
X73255Y322163*
X72943Y321850*
X72318Y321537*
X71693*
X71068Y321850*
X70755Y322163*
X70443Y322787*
Y367787D02*
Y369037D01*
X70755Y369663*
X71068Y369975*
X71693Y370287*
X72318*
X72943Y369975*
X73255Y369663*
X73568Y369037*
Y367787*
X73255Y367163*
X72943Y366850*
X72318Y366537*
X71693*
X71068Y366850*
X70755Y367163*
X70443Y367787*
X80285Y47787D02*
Y49037D01*
X80598Y49663*
X80910Y49975*
X81535Y50287*
X82160*
X82785Y49975*
X83098Y49663*
X83410Y49037*
Y47787*
X83098Y47163*
X82785Y46850*
X82160Y46537*
X81535*
X80910Y46850*
X80598Y47163*
X80285Y47787*
Y97787D02*
Y99037D01*
X80598Y99663*
X80910Y99975*
X81535Y100287*
X82160*
X82785Y99975*
X83098Y99663*
X83410Y99037*
Y97787*
X83098Y97163*
X82785Y96850*
X82160Y96537*
X81535*
X80910Y96850*
X80598Y97163*
X80285Y97787*
Y142787D02*
Y144037D01*
X80598Y144663*
X80910Y144975*
X81535Y145287*
X82160*
X82785Y144975*
X83098Y144663*
X83410Y144037*
Y142787*
X83098Y142163*
X82785Y141850*
X82160Y141537*
X81535*
X80910Y141850*
X80598Y142163*
X80285Y142787*
Y187787D02*
Y189037D01*
X80598Y189663*
X80910Y189975*
X81535Y190287*
X82160*
X82785Y189975*
X83098Y189663*
X83410Y189037*
Y187787*
X83098Y187163*
X82785Y186850*
X82160Y186537*
X81535*
X80910Y186850*
X80598Y187163*
X80285Y187787*
Y232787D02*
Y234037D01*
X80598Y234663*
X80910Y234975*
X81535Y235287*
X82160*
X82785Y234975*
X83098Y234663*
X83410Y234037*
Y232787*
X83098Y232163*
X82785Y231850*
X82160Y231537*
X81535*
X80910Y231850*
X80598Y232163*
X80285Y232787*
Y277787D02*
Y279037D01*
X80598Y279663*
X80910Y279975*
X81535Y280287*
X82160*
X82785Y279975*
X83098Y279663*
X83410Y279037*
Y277787*
X83098Y277163*
X82785Y276850*
X82160Y276537*
X81535*
X80910Y276850*
X80598Y277163*
X80285Y277787*
Y322787D02*
Y324037D01*
X80598Y324663*
X80910Y324975*
X81535Y325287*
X82160*
X82785Y324975*
X83098Y324663*
X83410Y324037*
Y322787*
X83098Y322163*
X82785Y321850*
X82160Y321537*
X81535*
X80910Y321850*
X80598Y322163*
X80285Y322787*
Y367787D02*
Y369037D01*
X80598Y369663*
X80910Y369975*
X81535Y370287*
X82160*
X82785Y369975*
X83098Y369663*
X83410Y369037*
Y367787*
X83098Y367163*
X82785Y366850*
X82160Y366537*
X81535*
X80910Y366850*
X80598Y367163*
X80285Y367787*
X90128Y47787D02*
Y49037D01*
X90440Y49663*
X90753Y49975*
X91378Y50287*
X92003*
X92628Y49975*
X92940Y49663*
X93253Y49037*
Y47787*
X92940Y47163*
X92628Y46850*
X92003Y46537*
X91378*
X90753Y46850*
X90440Y47163*
X90128Y47787*
Y97787D02*
Y99037D01*
X90440Y99663*
X90753Y99975*
X91378Y100287*
X92003*
X92628Y99975*
X92940Y99663*
X93253Y99037*
Y97787*
X92940Y97163*
X92628Y96850*
X92003Y96537*
X91378*
X90753Y96850*
X90440Y97163*
X90128Y97787*
Y142787D02*
Y144037D01*
X90440Y144663*
X90753Y144975*
X91378Y145287*
X92003*
X92628Y144975*
X92940Y144663*
X93253Y144037*
Y142787*
X92940Y142163*
X92628Y141850*
X92003Y141537*
X91378*
X90753Y141850*
X90440Y142163*
X90128Y142787*
Y187787D02*
Y189037D01*
X90440Y189663*
X90753Y189975*
X91378Y190287*
X92003*
X92628Y189975*
X92940Y189663*
X93253Y189037*
Y187787*
X92940Y187163*
X92628Y186850*
X92003Y186537*
X91378*
X90753Y186850*
X90440Y187163*
X90128Y187787*
Y232787D02*
Y234037D01*
X90440Y234663*
X90753Y234975*
X91378Y235287*
X92003*
X92628Y234975*
X92940Y234663*
X93253Y234037*
Y232787*
X92940Y232163*
X92628Y231850*
X92003Y231537*
X91378*
X90753Y231850*
X90440Y232163*
X90128Y232787*
Y277787D02*
Y279037D01*
X90440Y279663*
X90753Y279975*
X91378Y280287*
X92003*
X92628Y279975*
X92940Y279663*
X93253Y279037*
Y277787*
X92940Y277163*
X92628Y276850*
X92003Y276537*
X91378*
X90753Y276850*
X90440Y277163*
X90128Y277787*
Y322787D02*
Y324037D01*
X90440Y324663*
X90753Y324975*
X91378Y325287*
X92003*
X92628Y324975*
X92940Y324663*
X93253Y324037*
Y322787*
X92940Y322163*
X92628Y321850*
X92003Y321537*
X91378*
X90753Y321850*
X90440Y322163*
X90128Y322787*
Y367787D02*
Y369037D01*
X90440Y369663*
X90753Y369975*
X91378Y370287*
X92003*
X92628Y369975*
X92940Y369663*
X93253Y369037*
Y367787*
X92940Y367163*
X92628Y366850*
X92003Y366537*
X91378*
X90753Y366850*
X90440Y367163*
X90128Y367787*
X115600Y204037D02*
Y207787D01*
X117163Y205913*
X118725Y207787*
Y204037*
X120287Y148629D02*
X120913Y148317D01*
X121225Y147692*
X120913Y147067*
X120287Y146754*
X118100*
Y150504*
X120287*
X120913Y150192*
X121225Y149567*
X120913Y148942*
X120287Y148629*
X118100*
X120287Y158629D02*
X120913Y158317D01*
X121225Y157692*
X120913Y157067*
X120287Y156754*
X118100*
Y160504*
X120287*
X120913Y160192*
X121225Y159567*
X120913Y158942*
X120287Y158629*
X118100*
X120287Y168629D02*
X120913Y168317D01*
X121225Y167692*
X120913Y167067*
X120287Y166754*
X118100*
Y170504*
X120287*
X120913Y170192*
X121225Y169567*
X120913Y168942*
X120287Y168629*
X118100*
X120287Y178629D02*
X120913Y178317D01*
X121225Y177692*
X120913Y177067*
X120287Y176754*
X118100*
Y180504*
X120287*
X120913Y180192*
X121225Y179567*
X120913Y178942*
X120287Y178629*
X118100*
X120600Y16537D02*
X122163Y20287D01*
X123725Y16537*
X121225Y18100D02*
X123100D01*
X120600Y56537D02*
X122163Y60287D01*
X123725Y56537*
X121225Y58100D02*
X123100D01*
X120600Y99037D02*
Y102787D01*
X122787*
X123413Y102475*
X123725Y101850*
X123413Y101225*
X122787Y100913*
X120600*
Y109037D02*
Y112787D01*
X122787*
X123413Y112475*
X123725Y111850*
X123413Y111225*
X122787Y110913*
X120600*
X123100Y296537D02*
X124663Y300287D01*
X126225Y296537*
X123725Y298100D02*
X125600D01*
X123100Y336537D02*
X124663Y340287D01*
X126225Y336537*
X123725Y338100D02*
X125600D01*
Y204037D02*
Y207787D01*
X127163Y205913*
X128725Y207787*
Y204037*
X135600D02*
Y207787D01*
X137163Y205913*
X138725Y207787*
Y204037*
X138100Y16537D02*
X139663Y20287D01*
X141225Y16537*
X138725Y18100D02*
X140600D01*
X138100Y56537D02*
X139663Y60287D01*
X141225Y56537*
X138725Y58100D02*
X140600D01*
Y296537D02*
X142163Y300287D01*
X143725Y296537*
X141225Y298100D02*
X143100D01*
X140600Y336537D02*
X142163Y340287D01*
X143725Y336537*
X141225Y338100D02*
X143100D01*
X145600Y204037D02*
Y207787D01*
X147163Y205913*
X148725Y207787*
Y204037*
X148100Y99037D02*
Y102787D01*
X150287*
X150913Y102475*
X151225Y101850*
X150913Y101225*
X150287Y100913*
X148100*
Y109037D02*
Y112787D01*
X150287*
X150913Y112475*
X151225Y111850*
X150913Y111225*
X150287Y110913*
X148100*
X150287Y148629D02*
X150913Y148317D01*
X151225Y147692*
X150913Y147067*
X150287Y146754*
X148100*
Y150504*
X150287*
X150913Y150192*
X151225Y149567*
X150913Y148942*
X150287Y148629*
X148100*
X150287Y158629D02*
X150913Y158317D01*
X151225Y157692*
X150913Y157067*
X150287Y156754*
X148100*
Y160504*
X150287*
X150913Y160192*
X151225Y159567*
X150913Y158942*
X150287Y158629*
X148100*
X150287Y168629D02*
X150913Y168317D01*
X151225Y167692*
X150913Y167067*
X150287Y166754*
X148100*
Y170504*
X150287*
X150913Y170192*
X151225Y169567*
X150913Y168942*
X150287Y168629*
X148100*
X150287Y178629D02*
X150913Y178317D01*
X151225Y177692*
X150913Y177067*
X150287Y176754*
X148100*
Y180504*
X150287*
X150913Y180192*
X151225Y179567*
X150913Y178942*
X150287Y178629*
X148100*
X155600Y204037D02*
Y207787D01*
X157163Y205913*
X158725Y207787*
Y204037*
X163100Y60287D02*
X163413Y56537D01*
X164663Y58413*
X165913Y56537*
X166225Y60287*
X163100Y245287D02*
X163413Y241537D01*
X164663Y243413*
X165913Y241537*
X166225Y245287*
X173100Y76537D02*
Y80287D01*
X174663Y78413*
X176225Y80287*
Y76537*
X173100Y86537D02*
Y90287D01*
X174663Y88413*
X176225Y90287*
Y86537*
X173100Y96537D02*
Y100287D01*
X174663Y98413*
X176225Y100287*
Y96537*
X173100Y106537D02*
Y110287D01*
X174663Y108413*
X176225Y110287*
Y106537*
X173100Y116537D02*
Y120287D01*
X174663Y118413*
X176225Y120287*
Y116537*
X173100Y126537D02*
Y130287D01*
X174663Y128413*
X176225Y130287*
Y126537*
X173100Y136537D02*
Y140287D01*
X174663Y138413*
X176225Y140287*
Y136537*
X173100Y146537D02*
Y150287D01*
X174663Y148413*
X176225Y150287*
Y146537*
X173100Y156537D02*
Y160287D01*
X174663Y158413*
X176225Y160287*
Y156537*
X173100Y166537D02*
Y170287D01*
X174663Y168413*
X176225Y170287*
Y166537*
X173100Y176537D02*
Y180287D01*
X174663Y178413*
X176225Y180287*
Y176537*
X173100Y186537D02*
Y190287D01*
X174663Y188413*
X176225Y190287*
Y186537*
X173100Y196537D02*
Y200287D01*
X174663Y198413*
X176225Y200287*
Y196537*
X173100Y206537D02*
Y210287D01*
X174663Y208413*
X176225Y210287*
Y206537*
X173100Y216537D02*
Y220287D01*
X174663Y218413*
X176225Y220287*
Y216537*
X233100Y76537D02*
Y80287D01*
X234663Y78413*
X236225Y80287*
Y76537*
X233100Y86537D02*
Y90287D01*
X234663Y88413*
X236225Y90287*
Y86537*
X233100Y96537D02*
Y100287D01*
X234663Y98413*
X236225Y100287*
Y96537*
X233100Y106537D02*
Y110287D01*
X234663Y108413*
X236225Y110287*
Y106537*
X233100Y116537D02*
Y120287D01*
X234663Y118413*
X236225Y120287*
Y116537*
X233100Y126537D02*
Y130287D01*
X234663Y128413*
X236225Y130287*
Y126537*
X233100Y136537D02*
Y140287D01*
X234663Y138413*
X236225Y140287*
Y136537*
X233100Y146537D02*
Y150287D01*
X234663Y148413*
X236225Y150287*
Y146537*
X233100Y156537D02*
Y160287D01*
X234663Y158413*
X236225Y160287*
Y156537*
X233100Y166537D02*
Y170287D01*
X234663Y168413*
X236225Y170287*
Y166537*
X233100Y176537D02*
Y180287D01*
X234663Y178413*
X236225Y180287*
Y176537*
X233100Y186537D02*
Y190287D01*
X234663Y188413*
X236225Y190287*
Y186537*
X233100Y196537D02*
Y200287D01*
X234663Y198413*
X236225Y200287*
Y196537*
X233100Y206537D02*
Y210287D01*
X234663Y208413*
X236225Y210287*
Y206537*
X233100Y216537D02*
Y220287D01*
X234663Y218413*
X236225Y220287*
Y216537*
X243100Y60287D02*
X243413Y56537D01*
X244663Y58413*
X245913Y56537*
X246225Y60287*
X243100Y245287D02*
X243413Y241537D01*
X244663Y243413*
X245913Y241537*
X246225Y245287*
X251561Y307787D02*
Y309037D01*
X251873Y309663*
X252186Y309975*
X252811Y310287*
X253436*
X254061Y309975*
X254373Y309663*
X254686Y309037*
Y307787*
X254373Y307163*
X254061Y306850*
X253436Y306537*
X252811*
X252186Y306850*
X251873Y307163*
X251561Y307787*
X253748Y307475D02*
X254686Y306537D01*
X273710Y217787D02*
Y219037D01*
X274023Y219663*
X274335Y219975*
X274960Y220287*
X275585*
X276210Y219975*
X276523Y219663*
X276835Y219037*
Y217787*
X276523Y217163*
X276210Y216850*
X275585Y216537*
X274960*
X274335Y216850*
X274023Y217163*
X273710Y217787*
X275600Y279037D02*
X278725Y282787D01*
X275600D02*
X278725Y279037D01*
X281210Y335287D02*
Y336537D01*
X281523Y337163*
X281835Y337475*
X282460Y337787*
X283085*
X283710Y337475*
X284023Y337163*
X284335Y336537*
Y335287*
X284023Y334663*
X283710Y334350*
X283085Y334037*
X282460*
X281835Y334350*
X281523Y334663*
X281210Y335287*
Y372787D02*
Y374037D01*
X281523Y374663*
X281835Y374975*
X282460Y375287*
X283085*
X283710Y374975*
X284023Y374663*
X284335Y374037*
Y372787*
X284023Y372163*
X283710Y371850*
X283085Y371537*
X282460*
X281835Y371850*
X281523Y372163*
X281210Y372787*
X285600Y45287D02*
Y46537D01*
X285913Y47163*
X286225Y47475*
X286850Y47787*
X287475*
X288100Y47475*
X288413Y47163*
X288725Y46537*
Y45287*
X288413Y44663*
X288100Y44350*
X287475Y44037*
X286850*
X286225Y44350*
X285913Y44663*
X285600Y45287*
X287787Y44975D02*
X288725Y44037D01*
X285600Y110327D02*
Y111577D01*
X285913Y112202*
X286225Y112515*
X286850Y112827*
X287475*
X288100Y112515*
X288413Y112202*
X288725Y111577*
Y110327*
X288413Y109702*
X288100Y109389*
X287475Y109077*
X286850*
X286225Y109389*
X285913Y109702*
X285600Y110327*
X287787Y110015D02*
X288725Y109077D01*
X285600Y126490D02*
Y127740D01*
X285913Y128365*
X286225Y128678*
X286850Y128990*
X287475*
X288100Y128678*
X288413Y128365*
X288725Y127740*
Y126490*
X288413Y125865*
X288100Y125553*
X287475Y125240*
X286850*
X286225Y125553*
X285913Y125865*
X285600Y126490*
X287787Y126178D02*
X288725Y125240D01*
X285600Y191530D02*
Y192780D01*
X285913Y193405*
X286225Y193717*
X286850Y194030*
X287475*
X288100Y193717*
X288413Y193405*
X288725Y192780*
Y191530*
X288413Y190905*
X288100Y190592*
X287475Y190280*
X286850*
X286225Y190592*
X285913Y190905*
X285600Y191530*
X287787Y191217D02*
X288725Y190280D01*
X285600Y279037D02*
X288725Y282787D01*
X285600D02*
X288725Y279037D01*
X287490Y217787D02*
Y219037D01*
X287802Y219663*
X288115Y219975*
X288740Y220287*
X289365*
X289990Y219975*
X290302Y219663*
X290615Y219037*
Y217787*
X290302Y217163*
X289990Y216850*
X289365Y216537*
X288740*
X288115Y216850*
X287802Y217163*
X287490Y217787*
X294990Y335287D02*
Y336537D01*
X295302Y337163*
X295615Y337475*
X296240Y337787*
X296865*
X297490Y337475*
X297802Y337163*
X298115Y336537*
Y335287*
X297802Y334663*
X297490Y334350*
X296865Y334037*
X296240*
X295615Y334350*
X295302Y334663*
X294990Y335287*
Y372787D02*
Y374037D01*
X295302Y374663*
X295615Y374975*
X296240Y375287*
X296865*
X297490Y374975*
X297802Y374663*
X298115Y374037*
Y372787*
X297802Y372163*
X297490Y371850*
X296865Y371537*
X296240*
X295615Y371850*
X295302Y372163*
X294990Y372787*
X295600Y22934D02*
Y26684D01*
X298725Y22934*
Y26684*
X295600Y279037D02*
X298725Y282787D01*
X295600D02*
X298725Y279037D01*
X315600Y22934D02*
Y26684D01*
X318725Y22934*
Y26684*
X316600Y307787D02*
Y309037D01*
X316913Y309663*
X317225Y309975*
X317850Y310287*
X318475*
X319100Y309975*
X319413Y309663*
X319725Y309037*
Y307787*
X319413Y307163*
X319100Y306850*
X318475Y306537*
X317850*
X317225Y306850*
X316913Y307163*
X316600Y307787*
X318787Y307475D02*
X319725Y306537D01*
X325600Y154798D02*
X325913Y154173D01*
X326537Y153860*
X327787*
X328413Y154173*
X328725Y154798*
X328413Y155423*
X327787Y155735*
X326537*
X325913Y156048*
X325600Y156673*
X325913Y157298*
X326537Y157610*
X327787*
X328413Y157298*
X328725Y156673*
X325600Y204011D02*
X325913Y203385D01*
X326537Y203073*
X327787*
X328413Y203385*
X328725Y204011*
X328413Y204635*
X327787Y204948*
X326537*
X325913Y205261*
X325600Y205885*
X325913Y206511*
X326537Y206823*
X327787*
X328413Y206511*
X328725Y205885*
X325600Y253223D02*
X325913Y252598D01*
X326537Y252285*
X327787*
X328413Y252598*
X328725Y253223*
X328413Y253848*
X327787Y254161*
X326537*
X325913Y254473*
X325600Y255098*
X325913Y255723*
X326537Y256035*
X327787*
X328413Y255723*
X328725Y255098*
X0Y0D02*
M02*
