G04 EasyPC Gerber Version 21.0.2 Build 4273 *
G04 #@! TF.Part,Single*
G04 #@! TF.FileFunction,Soldermask,Bot *
G04 #@! TF.FilePolarity,Negative *
%FSLAX35Y35*%
%MOIN*%
G04 #@! TA.AperFunction,ComponentPad*
%ADD80R,0.08874X0.08874*%
%ADD77R,0.09000X0.09000*%
%ADD150R,0.09799X0.09799*%
%ADD76R,0.16000X0.16000*%
%ADD82C,0.07000*%
G04 #@! TA.AperFunction,SMDPad*
%ADD73C,0.08874*%
G04 #@! TA.AperFunction,ComponentPad*
%ADD78C,0.09000*%
%ADD151C,0.09799*%
%ADD75C,0.13992*%
G04 #@! TA.AperFunction,SMDPad*
%ADD74C,0.16748*%
G04 #@! TA.AperFunction,ComponentPad*
%ADD79C,0.20685*%
%ADD81R,0.09000X0.07000*%
X0Y0D02*
D02*
D73*
X105600Y198100D03*
X108100Y140817D03*
Y150817D03*
Y160817D03*
Y170817D03*
X115600Y198100D03*
X125600D03*
X135600D03*
X138100Y140817D03*
Y150817D03*
Y160817D03*
Y170817D03*
X163100Y70600D03*
Y80600D03*
Y90600D03*
Y100600D03*
Y110600D03*
Y120600D03*
Y130600D03*
Y140600D03*
Y150600D03*
Y160600D03*
Y170600D03*
Y180600D03*
Y190600D03*
Y200600D03*
Y210600D03*
X223100Y70600D03*
Y80600D03*
Y90600D03*
Y100600D03*
Y110600D03*
Y120600D03*
Y130600D03*
Y140600D03*
Y150600D03*
Y160600D03*
Y170600D03*
Y180600D03*
Y190600D03*
Y200600D03*
Y210600D03*
D02*
D74*
X153100Y50600D03*
Y235600D03*
X233100Y50600D03*
Y235600D03*
D02*
D75*
X241561Y300600D03*
X275600Y38100D03*
Y103139D03*
Y119303D03*
Y184342D03*
X306600Y300600D03*
D02*
D76*
X285600Y16997D03*
X305600D03*
D02*
D77*
X50600Y40600D03*
Y90600D03*
Y135600D03*
Y180600D03*
Y225600D03*
Y270600D03*
Y315600D03*
Y360600D03*
D02*
D78*
X60443Y40600D03*
Y90600D03*
Y135600D03*
Y180600D03*
Y225600D03*
Y270600D03*
Y315600D03*
Y360600D03*
X70285Y40600D03*
Y90600D03*
Y135600D03*
Y180600D03*
Y225600D03*
Y270600D03*
Y315600D03*
Y360600D03*
X80128Y40600D03*
Y90600D03*
Y135600D03*
Y180600D03*
Y225600D03*
Y270600D03*
Y315600D03*
Y360600D03*
X263710Y210600D03*
X271210Y328100D03*
Y365600D03*
X277490Y210600D03*
X284990Y328100D03*
Y365600D03*
D02*
D79*
X20600Y147923D03*
Y197135D03*
Y246348D03*
X315600Y147923D03*
Y197135D03*
Y246348D03*
D02*
D80*
X145600Y198100D03*
D02*
D81*
X110600Y93100D03*
Y103100D03*
X138100Y93100D03*
Y103100D03*
D02*
D82*
X110600Y10600D03*
Y50600D03*
X113100Y290600D03*
Y330600D03*
X128100Y10600D03*
Y50600D03*
X130600Y290600D03*
Y330600D03*
D02*
D150*
X265600Y273100D03*
D02*
D151*
X275600D03*
X285600D03*
X0Y0D02*
M02*
