G05
M48
INCH
FMAT,2
T1C00.02500
T2C00.03000
T3C00.03200
T4C00.03500
T5C00.03937
T6C00.04500
T7C00.05866
T8C00.05906
T9C00.06299
T10C00.13780
T11C00.15748
%
T002
X110600Y93100
X110600Y103100
X138100Y93100
X138100Y103100
T003
X110600Y10600
X110600Y50600
X113100Y290600
X113100Y330600
X128100Y10600
X128100Y50600
X130600Y290600
X130600Y330600
T004
X108100Y140817
X108100Y150817
X108100Y160817
X108100Y170817
X138100Y140817
X138100Y150817
X138100Y160817
X138100Y170817
T005
X105600Y198100
X115600Y198100
X125600Y198100
X135600Y198100
X145600Y198100
X163100Y70600
X163100Y80600
X163100Y90600
X163100Y100600
X163100Y110600
X163100Y120600
X163100Y130600
X163100Y140600
X163100Y150600
X163100Y160600
X163100Y170600
X163100Y180600
X163100Y190600
X163100Y200600
X163100Y210600
X223100Y70600
X223100Y80600
X223100Y90600
X223100Y100600
X223100Y110600
X223100Y120600
X223100Y130600
X223100Y140600
X223100Y150600
X223100Y160600
X223100Y170600
X223100Y180600
X223100Y190600
X223100Y200600
X223100Y210600
T006
X50600Y40600
X50600Y90600
X50600Y135600
X50600Y180600
X50600Y225600
X50600Y270600
X50600Y315600
X50600Y360600
X60443Y40600
X60443Y90600
X60443Y135600
X60443Y180600
X60443Y225600
X60443Y270600
X60443Y315600
X60443Y360600
X70285Y40600
X70285Y90600
X70285Y135600
X70285Y180600
X70285Y225600
X70285Y270600
X70285Y315600
X70285Y360600
X80128Y40600
X80128Y90600
X80128Y135600
X80128Y180600
X80128Y225600
X80128Y270600
X80128Y315600
X80128Y360600
X263710Y210600
X271210Y328100
X271210Y365600
X277490Y210600
X284990Y328100
X284990Y365600
T007
X265600Y273100
X275600Y273100
X285600Y273100
T008
X285600Y16997
X305600Y16997
T009
X241561Y300600
X275600Y38100
X275600Y103139
X275600Y119303
X275600Y184342
X306600Y300600
T010
X153100Y50600
X153100Y235600
X233100Y50600
X233100Y235600
T011
X20600Y147923
X20600Y197135
X20600Y246348
X315600Y147923
X315600Y197135
X315600Y246348
T001
G00X600Y600
M15
G01X335600Y600
X335600Y413100
X600Y413100
X600Y600
M17
M30
