G04 EasyPC Gerber Version 21.0.2 Build 4273 *
G04 #@! TF.Part,Single*
G04 #@! TF.FileFunction,Legend,Top *
G04 #@! TF.FilePolarity,Positive *
%FSLAX35Y35*%
%MOIN*%
%ADD11C,0.00500*%
%ADD25C,0.00787*%
%ADD15C,0.01000*%
%ADD70C,0.02000*%
X0Y0D02*
D02*
D11*
X61100Y56163D02*
X61413Y55850D01*
X62037Y55537*
X62663Y55850*
X62975Y56163*
Y59287*
X63600*
X62975D02*
X61725D01*
X67037Y57413D02*
X67663D01*
X68287Y57725*
X68600Y58350*
X68287Y58975*
X67663Y59287*
X67037*
X66413Y58975*
X66100Y58350*
X66413Y57725*
X67037Y57413*
X66413Y57100*
X66100Y56475*
X66413Y55850*
X67037Y55537*
X67663*
X68287Y55850*
X68600Y56475*
X68287Y57100*
X67663Y57413*
X61100Y106163D02*
X61413Y105850D01*
X62037Y105537*
X62663Y105850*
X62975Y106163*
Y109287*
X63600*
X62975D02*
X61725D01*
X66100Y105537D02*
X68600Y109287D01*
X66100*
X61100Y151163D02*
X61413Y150850D01*
X62037Y150537*
X62663Y150850*
X62975Y151163*
Y154287*
X63600*
X62975D02*
X61725D01*
X66100Y151475D02*
X66413Y152100D01*
X67037Y152413*
X67663*
X68287Y152100*
X68600Y151475*
X68287Y150850*
X67663Y150537*
X67037*
X66413Y150850*
X66100Y151475*
Y152413*
X66413Y153350*
X67037Y153975*
X67663Y154287*
X61100Y196163D02*
X61413Y195850D01*
X62037Y195537*
X62663Y195850*
X62975Y196163*
Y199287*
X63600*
X62975D02*
X61725D01*
X66100Y195850D02*
X66725Y195537D01*
X67663*
X68287Y195850*
X68600Y196475*
Y196787*
X68287Y197413*
X67663Y197725*
X66100*
Y199287*
X68600*
X61100Y241163D02*
X61413Y240850D01*
X62037Y240537*
X62663Y240850*
X62975Y241163*
Y244287*
X63600*
X62975D02*
X61725D01*
X67663Y240537D02*
Y244287D01*
X66100Y241787*
X68600*
X61100Y286163D02*
X61413Y285850D01*
X62037Y285537*
X62663Y285850*
X62975Y286163*
Y289287*
X63600*
X62975D02*
X61725D01*
X66413Y285850D02*
X67037Y285537D01*
X67663*
X68287Y285850*
X68600Y286475*
X68287Y287100*
X67663Y287413*
X67037*
X67663D02*
X68287Y287725D01*
X68600Y288350*
X68287Y288975*
X67663Y289287*
X67037*
X66413Y288975*
X61100Y331163D02*
X61413Y330850D01*
X62037Y330537*
X62663Y330850*
X62975Y331163*
Y334287*
X63600*
X62975D02*
X61725D01*
X68600Y330537D02*
X66100D01*
X68287Y332725*
X68600Y333350*
X68287Y333975*
X67663Y334287*
X66725*
X66100Y333975*
X61100Y376163D02*
X61413Y375850D01*
X62037Y375537*
X62663Y375850*
X62975Y376163*
Y379287*
X63600*
X62975D02*
X61725D01*
X66725Y375537D02*
X67975D01*
X67350D02*
Y379287D01*
X66725Y378663*
X100462Y130817D02*
Y183100D01*
X145344*
Y130817*
X100462*
X103100Y117787D02*
Y114037D01*
X106225*
X108100D02*
Y117787D01*
X111225*
X110600Y115913D02*
X108100D01*
Y114037D02*
X111225D01*
X113100D02*
Y117787D01*
X114975*
X115600Y117475*
X115913Y117163*
X116225Y116537*
Y115287*
X115913Y114663*
X115600Y114350*
X114975Y114037*
X113100*
X118725D02*
X119975D01*
X119350D02*
Y117787D01*
X118725Y117163*
X105600Y40600D02*
X115600D01*
Y20600*
X105600*
Y40600*
X108100Y320600D02*
X118100D01*
Y300600*
X108100*
Y320600*
X110600Y20600D02*
Y15600D01*
Y45600D02*
Y40600D01*
X113100Y186537D02*
Y190287D01*
X114975*
X115600Y189975*
X115913Y189663*
X116225Y189037*
Y187787*
X115913Y187163*
X115600Y186850*
X114975Y186537*
X113100*
X119037D02*
X120287D01*
X119663D02*
Y190287D01*
X119037D02*
X120287D01*
X123100Y186537D02*
Y190287D01*
X125287*
X125913Y189975*
X126225Y189350*
X125913Y188725*
X125287Y188413*
X123100*
X128725Y186537D02*
X129975D01*
X129350D02*
Y190287D01*
X128725Y189663*
X113100Y300600D02*
Y295600D01*
Y325600D02*
Y320600D01*
X116537Y35600D02*
X120287D01*
Y33413*
X119975Y32787*
X119350Y32475*
X118725Y32787*
X118413Y33413*
Y35600*
Y33413D02*
X116537Y32475D01*
X116850Y30287D02*
X116537Y29663D01*
Y29037*
X116850Y28413*
X117475Y28100*
X118100Y28413*
X118413Y29037*
Y29663*
Y29037D02*
X118725Y28413D01*
X119350Y28100*
X119975Y28413*
X120287Y29037*
Y29663*
X119975Y30287*
X119037Y315600D02*
X122787D01*
Y313413*
X122475Y312787*
X121850Y312475*
X121225Y312787*
X120913Y313413*
Y315600*
Y313413D02*
X119037Y312475D01*
Y309975D02*
Y308725D01*
Y309350D02*
X122787D01*
X122163Y309975*
X120600Y206537D02*
Y210287D01*
X122787*
X123413Y209975*
X123725Y209350*
X123413Y208725*
X122787Y208413*
X120600*
X122787D02*
X123725Y206537D01*
X125600Y206850D02*
X126225Y206537D01*
X127163*
X127787Y206850*
X128100Y207475*
Y207787*
X127787Y208413*
X127163Y208725*
X125600*
Y210287*
X128100*
X121600Y98100D02*
G75*
G03X110600Y109100I-11000D01*
G01*
G75*
G03X99600Y98100J-11000*
G01*
G75*
G03X103900Y87800I14583J41*
G01*
X117300*
G75*
G03X121600Y98100I-10283J10341*
G01*
X123100Y40600D02*
X133100D01*
Y20600*
X123100*
Y40600*
X125600Y320600D02*
X135600D01*
Y300600*
X125600*
Y320600*
X128100Y20600D02*
Y15600D01*
Y45600D02*
Y40600D01*
X130600Y117787D02*
Y114037D01*
X133725*
X135600D02*
Y117787D01*
X138725*
X138100Y115913D02*
X135600D01*
Y114037D02*
X138725D01*
X140600D02*
Y117787D01*
X142475*
X143100Y117475*
X143413Y117163*
X143725Y116537*
Y115287*
X143413Y114663*
X143100Y114350*
X142475Y114037*
X140600*
X148100D02*
X145600D01*
X147787Y116225*
X148100Y116850*
X147787Y117475*
X147163Y117787*
X146225*
X145600Y117475*
X130600Y300600D02*
Y295600D01*
Y325600D02*
Y320600D01*
X134037Y35600D02*
X137787D01*
Y33413*
X137475Y32787*
X136850Y32475*
X136225Y32787*
X135913Y33413*
Y35600*
Y33413D02*
X134037Y32475D01*
Y29037D02*
X137787D01*
X135287Y30600*
Y28100*
X136537Y315600D02*
X140287D01*
Y313413*
X139975Y312787*
X139350Y312475*
X138725Y312787*
X138413Y313413*
Y315600*
Y313413D02*
X136537Y312475D01*
Y308100D02*
Y310600D01*
X138725Y308413*
X139350Y308100*
X139975Y308413*
X140287Y309037*
Y309975*
X139975Y310600*
X149100Y98100D02*
G75*
G03X138100Y109100I-11000D01*
G01*
G75*
G03X127100Y98100J-11000*
G01*
G75*
G03X131400Y87800I14583J41*
G01*
X144800*
G75*
G03X149100Y98100I-10283J10341*
G01*
X151600Y203100D02*
X100600D01*
Y193100*
X151600*
Y196600*
X150600*
Y199100*
X151600*
Y203100*
X246663Y209475D02*
X246350Y209787D01*
X246037Y210413*
Y211350*
X246350Y211975*
X246663Y212287*
X247287Y212600*
X248537*
X249163Y212287*
X249475Y211975*
X249787Y211350*
Y210413*
X249475Y209787*
X249163Y209475*
X246037Y206975D02*
Y205725D01*
Y206350D02*
X249787D01*
X249163Y206975*
X252350Y211350D02*
Y209350D01*
X251350Y210350D02*
X253350D01*
X266600Y300600D02*
X254100D01*
X270600Y159342D02*
X280600D01*
Y144342*
X270600*
Y159342*
Y251537D02*
Y255287D01*
X272475*
X273100Y254975*
X273413Y254663*
X273725Y254037*
Y252787*
X273413Y252163*
X273100Y251850*
X272475Y251537*
X270600*
X278725Y252163D02*
X278413Y251850D01*
X277787Y251537*
X276850*
X276225Y251850*
X275913Y252163*
X275600Y252787*
Y254037*
X275913Y254663*
X276225Y254975*
X276850Y255287*
X277787*
X278413Y254975*
X278725Y254663*
X281225Y251537D02*
X282475D01*
X281850D02*
Y255287D01*
X281225Y254663*
X273163Y288537D02*
Y292287D01*
X271600D02*
X274725D01*
X279100Y288537D02*
X276600D01*
X278787Y290725*
X279100Y291350*
X278787Y291975*
X278163Y292287*
X277225*
X276600Y291975*
X275600Y63100D02*
Y50600D01*
Y78100D02*
Y90600D01*
Y144342D02*
Y131842D01*
Y159342D02*
Y171842D01*
X280600Y63100D02*
X270600D01*
Y78100*
X280600*
Y63100*
X281537Y74037D02*
X285287D01*
Y75600D02*
Y72475D01*
X281537Y69975D02*
Y68725D01*
Y69350D02*
X285287D01*
X284663Y69975*
X281537Y154342D02*
X285287D01*
Y152467*
X284975Y151842*
X284663Y151530*
X284037Y151217*
X282787*
X282163Y151530*
X281850Y151842*
X281537Y152467*
Y154342*
Y148717D02*
Y147467D01*
Y148092D02*
X285287D01*
X284663Y148717*
X281600Y300600D02*
X294100D01*
X281600Y305600D02*
Y295600D01*
X266600*
Y305600*
X281600*
X296350Y327350D02*
Y329350D01*
X297350Y328350D02*
X295350D01*
X296350Y364850D02*
Y366850D01*
X297350Y365850D02*
X295350D01*
X302037Y329225D02*
X302350Y328913D01*
X302663Y328287*
Y327350*
X302350Y326725*
X302037Y326413*
X301413Y326100*
X300163*
X299537Y326413*
X299225Y326725*
X298913Y327350*
Y328287*
X299225Y328913*
X299537Y329225*
X302350Y331413D02*
X302663Y332037D01*
Y332663*
X302350Y333287*
X301725Y333600*
X301100Y333287*
X300787Y332663*
Y332037*
Y332663D02*
X300475Y333287D01*
X299850Y333600*
X299225Y333287*
X298913Y332663*
Y332037*
X299225Y331413*
X302037Y366725D02*
X302350Y366413D01*
X302663Y365787*
Y364850*
X302350Y364225*
X302037Y363913*
X301413Y363600*
X300163*
X299537Y363913*
X299225Y364225*
X298913Y364850*
Y365787*
X299225Y366413*
X299537Y366725*
X302663Y371100D02*
Y368600D01*
X300475Y370787*
X299850Y371100*
X299225Y370787*
X298913Y370163*
Y369225*
X299225Y368600*
D02*
D15*
X270100Y295900D02*
Y305300D01*
X270900Y66350D02*
X280300D01*
X270900Y74600D02*
X280300D01*
X278350Y295900D02*
Y305300D01*
X280300Y147842D02*
X270900D01*
D02*
D70*
X41350Y35100D02*
Y50600D01*
X89600*
Y35100*
X41350Y85100D02*
Y100600D01*
X89600*
Y85100*
X41350Y130100D02*
Y145600D01*
X89600*
Y130100*
X41350Y175100D02*
Y190600D01*
X89600*
Y175100*
X41350Y220100D02*
Y235600D01*
X89600*
Y220100*
X41350Y265100D02*
Y280600D01*
X89600*
Y265100*
X41350Y310100D02*
Y325600D01*
X89600*
Y310100*
X41350Y355100D02*
Y370600D01*
X89600*
Y355100*
D02*
D25*
X270600Y194852D02*
G75*
G02Y226348J15748D01*
G01*
Y194852D02*
G75*
G02Y226348J15748D01*
G01*
G75*
G02Y194852J-15748*
G01*
X278100Y343848D02*
G75*
G02Y312352J-15748D01*
G01*
Y343848D02*
G75*
G02Y312352J-15748D01*
G01*
G75*
G02Y343848J15748*
G01*
Y381348D02*
G75*
G02Y349852J-15748D01*
G01*
Y381348D02*
G75*
G02Y349852J-15748D01*
G01*
G75*
G02Y381348J15748*
G01*
X296584Y267175D02*
Y286191D01*
X254616*
Y273100*
X0Y0D02*
M02*
