%FSLAX35Y35*%
%MOIN*%
G04 EasyPC Gerber Version 18.0.8 Build 3632 *
%ADD11C,0.00500*%
%ADD10C,0.10000*%
X0Y0D02*
D02*
D10*
X9000Y165250D03*
Y180250D03*
X19000Y165250D03*
Y180250D03*
X29000Y165250D03*
Y180250D03*
X39000Y75250D03*
Y85250D03*
Y95250D03*
Y105250D03*
Y115250D03*
Y125250D03*
Y165250D03*
Y180250D03*
X54000Y20250D03*
Y30250D03*
Y40250D03*
Y50250D03*
Y60250D03*
Y70250D03*
Y80250D03*
Y90250D03*
Y100250D03*
Y110250D03*
Y120250D03*
Y130250D03*
Y140250D03*
Y150250D03*
Y160250D03*
Y170250D03*
X64000Y20250D03*
Y30250D03*
Y40250D03*
Y50250D03*
Y60250D03*
Y70250D03*
Y80250D03*
Y90250D03*
Y100250D03*
Y110250D03*
Y120250D03*
Y130250D03*
Y140250D03*
Y150250D03*
Y160250D03*
Y170250D03*
X74000Y10250D03*
Y20250D03*
Y30250D03*
Y40250D03*
Y50250D03*
Y60250D03*
Y70250D03*
Y80250D03*
Y90250D03*
Y100250D03*
Y110250D03*
Y120250D03*
Y130250D03*
Y140250D03*
Y150250D03*
Y160250D03*
Y170250D03*
Y180250D03*
X84000Y10250D03*
Y20250D03*
Y30250D03*
Y40250D03*
Y50250D03*
Y60250D03*
Y70250D03*
Y80250D03*
Y90250D03*
Y100250D03*
Y110250D03*
Y120250D03*
Y130250D03*
Y140250D03*
Y150250D03*
Y160250D03*
Y170250D03*
Y180250D03*
X94000Y20250D03*
Y30250D03*
Y40250D03*
Y50250D03*
Y60250D03*
Y70250D03*
Y80250D03*
Y90250D03*
Y100250D03*
Y110250D03*
Y120250D03*
Y130250D03*
Y140250D03*
Y150250D03*
Y160250D03*
Y170250D03*
X104000Y20250D03*
Y30250D03*
Y40250D03*
Y50250D03*
Y60250D03*
Y70250D03*
Y80250D03*
Y90250D03*
Y100250D03*
Y110250D03*
Y120250D03*
Y130250D03*
Y140250D03*
Y150250D03*
Y160250D03*
Y170250D03*
D02*
D11*
X19000Y171187D02*
X20563Y174937D01*
X22125Y171187*
X19625Y172750D02*
X21500D01*
X21187Y188063D02*
X21813Y187750D01*
X22125Y187125*
X21813Y186500*
X21187Y186187*
X19000*
Y189937*
X21187*
X21813Y189625*
X22125Y189000*
X21813Y188375*
X21187Y188063*
X19000*
X29000Y171187D02*
X30563Y174937D01*
X32125Y171187*
X29625Y172750D02*
X31500D01*
X31187Y188063D02*
X31813Y187750D01*
X32125Y187125*
X31813Y186500*
X31187Y186187*
X29000*
Y189937*
X31187*
X31813Y189625*
X32125Y189000*
X31813Y188375*
X31187Y188063*
X29000*
X39000Y171187D02*
X40563Y174937D01*
X42125Y171187*
X39625Y172750D02*
X41500D01*
X41187Y188063D02*
X41813Y187750D01*
X42125Y187125*
X41813Y186500*
X41187Y186187*
X39000*
Y189937*
X41187*
X41813Y189625*
X42125Y189000*
X41813Y188375*
X41187Y188063*
X39000*
X49000Y81187D02*
X50563Y84937D01*
X52125Y81187*
X49625Y82750D02*
X51500D01*
X49000Y91187D02*
X50563Y94937D01*
X52125Y91187*
X49625Y92750D02*
X51500D01*
X49000Y101187D02*
X50563Y104937D01*
X52125Y101187*
X49625Y102750D02*
X51500D01*
X49000Y111187D02*
X50563Y114937D01*
X52125Y111187*
X49625Y112750D02*
X51500D01*
X49000Y121187D02*
X50563Y124937D01*
X52125Y121187*
X49625Y122750D02*
X51500D01*
X49000Y131187D02*
X50563Y134937D01*
X52125Y131187*
X49625Y132750D02*
X51500D01*
X49000Y171187D02*
X50563Y174937D01*
X52125Y171187*
X49625Y172750D02*
X51500D01*
X51187Y188063D02*
X51813Y187750D01*
X52125Y187125*
X51813Y186500*
X51187Y186187*
X49000*
Y189937*
X51187*
X51813Y189625*
X52125Y189000*
X51813Y188375*
X51187Y188063*
X49000*
X66187Y28063D02*
X66813Y27750D01*
X67125Y27125*
X66813Y26500*
X66187Y26187*
X64000*
Y29937*
X66187*
X66813Y29625*
X67125Y29000*
X66813Y28375*
X66187Y28063*
X64000*
X66187Y38063D02*
X66813Y37750D01*
X67125Y37125*
X66813Y36500*
X66187Y36187*
X64000*
Y39937*
X66187*
X66813Y39625*
X67125Y39000*
X66813Y38375*
X66187Y38063*
X64000*
X66187Y48063D02*
X66813Y47750D01*
X67125Y47125*
X66813Y46500*
X66187Y46187*
X64000*
Y49937*
X66187*
X66813Y49625*
X67125Y49000*
X66813Y48375*
X66187Y48063*
X64000*
X66187Y58063D02*
X66813Y57750D01*
X67125Y57125*
X66813Y56500*
X66187Y56187*
X64000*
Y59937*
X66187*
X66813Y59625*
X67125Y59000*
X66813Y58375*
X66187Y58063*
X64000*
X66187Y68063D02*
X66813Y67750D01*
X67125Y67125*
X66813Y66500*
X66187Y66187*
X64000*
Y69937*
X66187*
X66813Y69625*
X67125Y69000*
X66813Y68375*
X66187Y68063*
X64000*
X66187Y78063D02*
X66813Y77750D01*
X67125Y77125*
X66813Y76500*
X66187Y76187*
X64000*
Y79937*
X66187*
X66813Y79625*
X67125Y79000*
X66813Y78375*
X66187Y78063*
X64000*
X66187Y88063D02*
X66813Y87750D01*
X67125Y87125*
X66813Y86500*
X66187Y86187*
X64000*
Y89937*
X66187*
X66813Y89625*
X67125Y89000*
X66813Y88375*
X66187Y88063*
X64000*
X66187Y98063D02*
X66813Y97750D01*
X67125Y97125*
X66813Y96500*
X66187Y96187*
X64000*
Y99937*
X66187*
X66813Y99625*
X67125Y99000*
X66813Y98375*
X66187Y98063*
X64000*
X66187Y108063D02*
X66813Y107750D01*
X67125Y107125*
X66813Y106500*
X66187Y106187*
X64000*
Y109937*
X66187*
X66813Y109625*
X67125Y109000*
X66813Y108375*
X66187Y108063*
X64000*
X66187Y118063D02*
X66813Y117750D01*
X67125Y117125*
X66813Y116500*
X66187Y116187*
X64000*
Y119937*
X66187*
X66813Y119625*
X67125Y119000*
X66813Y118375*
X66187Y118063*
X64000*
X66187Y128063D02*
X66813Y127750D01*
X67125Y127125*
X66813Y126500*
X66187Y126187*
X64000*
Y129937*
X66187*
X66813Y129625*
X67125Y129000*
X66813Y128375*
X66187Y128063*
X64000*
X66187Y138063D02*
X66813Y137750D01*
X67125Y137125*
X66813Y136500*
X66187Y136187*
X64000*
Y139937*
X66187*
X66813Y139625*
X67125Y139000*
X66813Y138375*
X66187Y138063*
X64000*
X66187Y148063D02*
X66813Y147750D01*
X67125Y147125*
X66813Y146500*
X66187Y146187*
X64000*
Y149937*
X66187*
X66813Y149625*
X67125Y149000*
X66813Y148375*
X66187Y148063*
X64000*
X66187Y158063D02*
X66813Y157750D01*
X67125Y157125*
X66813Y156500*
X66187Y156187*
X64000*
Y159937*
X66187*
X66813Y159625*
X67125Y159000*
X66813Y158375*
X66187Y158063*
X64000*
X66187Y168063D02*
X66813Y167750D01*
X67125Y167125*
X66813Y166500*
X66187Y166187*
X64000*
Y169937*
X66187*
X66813Y169625*
X67125Y169000*
X66813Y168375*
X66187Y168063*
X64000*
X66187Y178063D02*
X66813Y177750D01*
X67125Y177125*
X66813Y176500*
X66187Y176187*
X64000*
Y179937*
X66187*
X66813Y179625*
X67125Y179000*
X66813Y178375*
X66187Y178063*
X64000*
X74000Y26187D02*
X75563Y29937D01*
X77125Y26187*
X74625Y27750D02*
X76500D01*
X74000Y36187D02*
X75563Y39937D01*
X77125Y36187*
X74625Y37750D02*
X76500D01*
X74000Y46187D02*
X75563Y49937D01*
X77125Y46187*
X74625Y47750D02*
X76500D01*
X74000Y56187D02*
X75563Y59937D01*
X77125Y56187*
X74625Y57750D02*
X76500D01*
X74000Y66187D02*
X75563Y69937D01*
X77125Y66187*
X74625Y67750D02*
X76500D01*
X74000Y76187D02*
X75563Y79937D01*
X77125Y76187*
X74625Y77750D02*
X76500D01*
X74000Y86187D02*
X75563Y89937D01*
X77125Y86187*
X74625Y87750D02*
X76500D01*
X74000Y96187D02*
X75563Y99937D01*
X77125Y96187*
X74625Y97750D02*
X76500D01*
X74000Y106187D02*
X75563Y109937D01*
X77125Y106187*
X74625Y107750D02*
X76500D01*
X74000Y116187D02*
X75563Y119937D01*
X77125Y116187*
X74625Y117750D02*
X76500D01*
X74000Y126187D02*
X75563Y129937D01*
X77125Y126187*
X74625Y127750D02*
X76500D01*
X74000Y136187D02*
X75563Y139937D01*
X77125Y136187*
X74625Y137750D02*
X76500D01*
X74000Y146187D02*
X75563Y149937D01*
X77125Y146187*
X74625Y147750D02*
X76500D01*
X74000Y156187D02*
X75563Y159937D01*
X77125Y156187*
X74625Y157750D02*
X76500D01*
X74000Y166187D02*
X75563Y169937D01*
X77125Y166187*
X74625Y167750D02*
X76500D01*
X74000Y176187D02*
X75563Y179937D01*
X77125Y176187*
X74625Y177750D02*
X76500D01*
X86187Y18063D02*
X86813Y17750D01*
X87125Y17125*
X86813Y16500*
X86187Y16187*
X84000*
Y19937*
X86187*
X86813Y19625*
X87125Y19000*
X86813Y18375*
X86187Y18063*
X84000*
X86187Y28063D02*
X86813Y27750D01*
X87125Y27125*
X86813Y26500*
X86187Y26187*
X84000*
Y29937*
X86187*
X86813Y29625*
X87125Y29000*
X86813Y28375*
X86187Y28063*
X84000*
X86187Y38063D02*
X86813Y37750D01*
X87125Y37125*
X86813Y36500*
X86187Y36187*
X84000*
Y39937*
X86187*
X86813Y39625*
X87125Y39000*
X86813Y38375*
X86187Y38063*
X84000*
X86187Y48063D02*
X86813Y47750D01*
X87125Y47125*
X86813Y46500*
X86187Y46187*
X84000*
Y49937*
X86187*
X86813Y49625*
X87125Y49000*
X86813Y48375*
X86187Y48063*
X84000*
X86187Y58063D02*
X86813Y57750D01*
X87125Y57125*
X86813Y56500*
X86187Y56187*
X84000*
Y59937*
X86187*
X86813Y59625*
X87125Y59000*
X86813Y58375*
X86187Y58063*
X84000*
X86187Y68063D02*
X86813Y67750D01*
X87125Y67125*
X86813Y66500*
X86187Y66187*
X84000*
Y69937*
X86187*
X86813Y69625*
X87125Y69000*
X86813Y68375*
X86187Y68063*
X84000*
X86187Y78063D02*
X86813Y77750D01*
X87125Y77125*
X86813Y76500*
X86187Y76187*
X84000*
Y79937*
X86187*
X86813Y79625*
X87125Y79000*
X86813Y78375*
X86187Y78063*
X84000*
X86187Y88063D02*
X86813Y87750D01*
X87125Y87125*
X86813Y86500*
X86187Y86187*
X84000*
Y89937*
X86187*
X86813Y89625*
X87125Y89000*
X86813Y88375*
X86187Y88063*
X84000*
X86187Y98063D02*
X86813Y97750D01*
X87125Y97125*
X86813Y96500*
X86187Y96187*
X84000*
Y99937*
X86187*
X86813Y99625*
X87125Y99000*
X86813Y98375*
X86187Y98063*
X84000*
X86187Y108063D02*
X86813Y107750D01*
X87125Y107125*
X86813Y106500*
X86187Y106187*
X84000*
Y109937*
X86187*
X86813Y109625*
X87125Y109000*
X86813Y108375*
X86187Y108063*
X84000*
X86187Y118063D02*
X86813Y117750D01*
X87125Y117125*
X86813Y116500*
X86187Y116187*
X84000*
Y119937*
X86187*
X86813Y119625*
X87125Y119000*
X86813Y118375*
X86187Y118063*
X84000*
X86187Y128063D02*
X86813Y127750D01*
X87125Y127125*
X86813Y126500*
X86187Y126187*
X84000*
Y129937*
X86187*
X86813Y129625*
X87125Y129000*
X86813Y128375*
X86187Y128063*
X84000*
X86187Y138063D02*
X86813Y137750D01*
X87125Y137125*
X86813Y136500*
X86187Y136187*
X84000*
Y139937*
X86187*
X86813Y139625*
X87125Y139000*
X86813Y138375*
X86187Y138063*
X84000*
X86187Y148063D02*
X86813Y147750D01*
X87125Y147125*
X86813Y146500*
X86187Y146187*
X84000*
Y149937*
X86187*
X86813Y149625*
X87125Y149000*
X86813Y148375*
X86187Y148063*
X84000*
X86187Y158063D02*
X86813Y157750D01*
X87125Y157125*
X86813Y156500*
X86187Y156187*
X84000*
Y159937*
X86187*
X86813Y159625*
X87125Y159000*
X86813Y158375*
X86187Y158063*
X84000*
X86187Y168063D02*
X86813Y167750D01*
X87125Y167125*
X86813Y166500*
X86187Y166187*
X84000*
Y169937*
X86187*
X86813Y169625*
X87125Y169000*
X86813Y168375*
X86187Y168063*
X84000*
X86187Y178063D02*
X86813Y177750D01*
X87125Y177125*
X86813Y176500*
X86187Y176187*
X84000*
Y179937*
X86187*
X86813Y179625*
X87125Y179000*
X86813Y178375*
X86187Y178063*
X84000*
X86187Y188063D02*
X86813Y187750D01*
X87125Y187125*
X86813Y186500*
X86187Y186187*
X84000*
Y189937*
X86187*
X86813Y189625*
X87125Y189000*
X86813Y188375*
X86187Y188063*
X84000*
X96187Y18063D02*
X96813Y17750D01*
X97125Y17125*
X96813Y16500*
X96187Y16187*
X94000*
Y19937*
X96187*
X96813Y19625*
X97125Y19000*
X96813Y18375*
X96187Y18063*
X94000*
X96187Y28063D02*
X96813Y27750D01*
X97125Y27125*
X96813Y26500*
X96187Y26187*
X94000*
Y29937*
X96187*
X96813Y29625*
X97125Y29000*
X96813Y28375*
X96187Y28063*
X94000*
X96187Y38063D02*
X96813Y37750D01*
X97125Y37125*
X96813Y36500*
X96187Y36187*
X94000*
Y39937*
X96187*
X96813Y39625*
X97125Y39000*
X96813Y38375*
X96187Y38063*
X94000*
X96187Y48063D02*
X96813Y47750D01*
X97125Y47125*
X96813Y46500*
X96187Y46187*
X94000*
Y49937*
X96187*
X96813Y49625*
X97125Y49000*
X96813Y48375*
X96187Y48063*
X94000*
X96187Y58063D02*
X96813Y57750D01*
X97125Y57125*
X96813Y56500*
X96187Y56187*
X94000*
Y59937*
X96187*
X96813Y59625*
X97125Y59000*
X96813Y58375*
X96187Y58063*
X94000*
X96187Y68063D02*
X96813Y67750D01*
X97125Y67125*
X96813Y66500*
X96187Y66187*
X94000*
Y69937*
X96187*
X96813Y69625*
X97125Y69000*
X96813Y68375*
X96187Y68063*
X94000*
X96187Y78063D02*
X96813Y77750D01*
X97125Y77125*
X96813Y76500*
X96187Y76187*
X94000*
Y79937*
X96187*
X96813Y79625*
X97125Y79000*
X96813Y78375*
X96187Y78063*
X94000*
X96187Y88063D02*
X96813Y87750D01*
X97125Y87125*
X96813Y86500*
X96187Y86187*
X94000*
Y89937*
X96187*
X96813Y89625*
X97125Y89000*
X96813Y88375*
X96187Y88063*
X94000*
X96187Y98063D02*
X96813Y97750D01*
X97125Y97125*
X96813Y96500*
X96187Y96187*
X94000*
Y99937*
X96187*
X96813Y99625*
X97125Y99000*
X96813Y98375*
X96187Y98063*
X94000*
X96187Y108063D02*
X96813Y107750D01*
X97125Y107125*
X96813Y106500*
X96187Y106187*
X94000*
Y109937*
X96187*
X96813Y109625*
X97125Y109000*
X96813Y108375*
X96187Y108063*
X94000*
X96187Y118063D02*
X96813Y117750D01*
X97125Y117125*
X96813Y116500*
X96187Y116187*
X94000*
Y119937*
X96187*
X96813Y119625*
X97125Y119000*
X96813Y118375*
X96187Y118063*
X94000*
X96187Y128063D02*
X96813Y127750D01*
X97125Y127125*
X96813Y126500*
X96187Y126187*
X94000*
Y129937*
X96187*
X96813Y129625*
X97125Y129000*
X96813Y128375*
X96187Y128063*
X94000*
X96187Y138063D02*
X96813Y137750D01*
X97125Y137125*
X96813Y136500*
X96187Y136187*
X94000*
Y139937*
X96187*
X96813Y139625*
X97125Y139000*
X96813Y138375*
X96187Y138063*
X94000*
X96187Y148063D02*
X96813Y147750D01*
X97125Y147125*
X96813Y146500*
X96187Y146187*
X94000*
Y149937*
X96187*
X96813Y149625*
X97125Y149000*
X96813Y148375*
X96187Y148063*
X94000*
X96187Y158063D02*
X96813Y157750D01*
X97125Y157125*
X96813Y156500*
X96187Y156187*
X94000*
Y159937*
X96187*
X96813Y159625*
X97125Y159000*
X96813Y158375*
X96187Y158063*
X94000*
X96187Y168063D02*
X96813Y167750D01*
X97125Y167125*
X96813Y166500*
X96187Y166187*
X94000*
Y169937*
X96187*
X96813Y169625*
X97125Y169000*
X96813Y168375*
X96187Y168063*
X94000*
X96187Y178063D02*
X96813Y177750D01*
X97125Y177125*
X96813Y176500*
X96187Y176187*
X94000*
Y179937*
X96187*
X96813Y179625*
X97125Y179000*
X96813Y178375*
X96187Y178063*
X94000*
X96187Y188063D02*
X96813Y187750D01*
X97125Y187125*
X96813Y186500*
X96187Y186187*
X94000*
Y189937*
X96187*
X96813Y189625*
X97125Y189000*
X96813Y188375*
X96187Y188063*
X94000*
X106187Y28063D02*
X106813Y27750D01*
X107125Y27125*
X106813Y26500*
X106187Y26187*
X104000*
Y29937*
X106187*
X106813Y29625*
X107125Y29000*
X106813Y28375*
X106187Y28063*
X104000*
X106187Y38063D02*
X106813Y37750D01*
X107125Y37125*
X106813Y36500*
X106187Y36187*
X104000*
Y39937*
X106187*
X106813Y39625*
X107125Y39000*
X106813Y38375*
X106187Y38063*
X104000*
X106187Y48063D02*
X106813Y47750D01*
X107125Y47125*
X106813Y46500*
X106187Y46187*
X104000*
Y49937*
X106187*
X106813Y49625*
X107125Y49000*
X106813Y48375*
X106187Y48063*
X104000*
X106187Y58063D02*
X106813Y57750D01*
X107125Y57125*
X106813Y56500*
X106187Y56187*
X104000*
Y59937*
X106187*
X106813Y59625*
X107125Y59000*
X106813Y58375*
X106187Y58063*
X104000*
X106187Y68063D02*
X106813Y67750D01*
X107125Y67125*
X106813Y66500*
X106187Y66187*
X104000*
Y69937*
X106187*
X106813Y69625*
X107125Y69000*
X106813Y68375*
X106187Y68063*
X104000*
X106187Y78063D02*
X106813Y77750D01*
X107125Y77125*
X106813Y76500*
X106187Y76187*
X104000*
Y79937*
X106187*
X106813Y79625*
X107125Y79000*
X106813Y78375*
X106187Y78063*
X104000*
X106187Y88063D02*
X106813Y87750D01*
X107125Y87125*
X106813Y86500*
X106187Y86187*
X104000*
Y89937*
X106187*
X106813Y89625*
X107125Y89000*
X106813Y88375*
X106187Y88063*
X104000*
X106187Y98063D02*
X106813Y97750D01*
X107125Y97125*
X106813Y96500*
X106187Y96187*
X104000*
Y99937*
X106187*
X106813Y99625*
X107125Y99000*
X106813Y98375*
X106187Y98063*
X104000*
X106187Y108063D02*
X106813Y107750D01*
X107125Y107125*
X106813Y106500*
X106187Y106187*
X104000*
Y109937*
X106187*
X106813Y109625*
X107125Y109000*
X106813Y108375*
X106187Y108063*
X104000*
X106187Y118063D02*
X106813Y117750D01*
X107125Y117125*
X106813Y116500*
X106187Y116187*
X104000*
Y119937*
X106187*
X106813Y119625*
X107125Y119000*
X106813Y118375*
X106187Y118063*
X104000*
X106187Y128063D02*
X106813Y127750D01*
X107125Y127125*
X106813Y126500*
X106187Y126187*
X104000*
Y129937*
X106187*
X106813Y129625*
X107125Y129000*
X106813Y128375*
X106187Y128063*
X104000*
X106187Y138063D02*
X106813Y137750D01*
X107125Y137125*
X106813Y136500*
X106187Y136187*
X104000*
Y139937*
X106187*
X106813Y139625*
X107125Y139000*
X106813Y138375*
X106187Y138063*
X104000*
X106187Y148063D02*
X106813Y147750D01*
X107125Y147125*
X106813Y146500*
X106187Y146187*
X104000*
Y149937*
X106187*
X106813Y149625*
X107125Y149000*
X106813Y148375*
X106187Y148063*
X104000*
X106187Y158063D02*
X106813Y157750D01*
X107125Y157125*
X106813Y156500*
X106187Y156187*
X104000*
Y159937*
X106187*
X106813Y159625*
X107125Y159000*
X106813Y158375*
X106187Y158063*
X104000*
X106187Y168063D02*
X106813Y167750D01*
X107125Y167125*
X106813Y166500*
X106187Y166187*
X104000*
Y169937*
X106187*
X106813Y169625*
X107125Y169000*
X106813Y168375*
X106187Y168063*
X104000*
X106187Y178063D02*
X106813Y177750D01*
X107125Y177125*
X106813Y176500*
X106187Y176187*
X104000*
Y179937*
X106187*
X106813Y179625*
X107125Y179000*
X106813Y178375*
X106187Y178063*
X104000*
X116187Y28063D02*
X116813Y27750D01*
X117125Y27125*
X116813Y26500*
X116187Y26187*
X114000*
Y29937*
X116187*
X116813Y29625*
X117125Y29000*
X116813Y28375*
X116187Y28063*
X114000*
X116187Y38063D02*
X116813Y37750D01*
X117125Y37125*
X116813Y36500*
X116187Y36187*
X114000*
Y39937*
X116187*
X116813Y39625*
X117125Y39000*
X116813Y38375*
X116187Y38063*
X114000*
X116187Y48063D02*
X116813Y47750D01*
X117125Y47125*
X116813Y46500*
X116187Y46187*
X114000*
Y49937*
X116187*
X116813Y49625*
X117125Y49000*
X116813Y48375*
X116187Y48063*
X114000*
X116187Y58063D02*
X116813Y57750D01*
X117125Y57125*
X116813Y56500*
X116187Y56187*
X114000*
Y59937*
X116187*
X116813Y59625*
X117125Y59000*
X116813Y58375*
X116187Y58063*
X114000*
X116187Y68063D02*
X116813Y67750D01*
X117125Y67125*
X116813Y66500*
X116187Y66187*
X114000*
Y69937*
X116187*
X116813Y69625*
X117125Y69000*
X116813Y68375*
X116187Y68063*
X114000*
X116187Y78063D02*
X116813Y77750D01*
X117125Y77125*
X116813Y76500*
X116187Y76187*
X114000*
Y79937*
X116187*
X116813Y79625*
X117125Y79000*
X116813Y78375*
X116187Y78063*
X114000*
X116187Y88063D02*
X116813Y87750D01*
X117125Y87125*
X116813Y86500*
X116187Y86187*
X114000*
Y89937*
X116187*
X116813Y89625*
X117125Y89000*
X116813Y88375*
X116187Y88063*
X114000*
X116187Y98063D02*
X116813Y97750D01*
X117125Y97125*
X116813Y96500*
X116187Y96187*
X114000*
Y99937*
X116187*
X116813Y99625*
X117125Y99000*
X116813Y98375*
X116187Y98063*
X114000*
X116187Y108063D02*
X116813Y107750D01*
X117125Y107125*
X116813Y106500*
X116187Y106187*
X114000*
Y109937*
X116187*
X116813Y109625*
X117125Y109000*
X116813Y108375*
X116187Y108063*
X114000*
X116187Y118063D02*
X116813Y117750D01*
X117125Y117125*
X116813Y116500*
X116187Y116187*
X114000*
Y119937*
X116187*
X116813Y119625*
X117125Y119000*
X116813Y118375*
X116187Y118063*
X114000*
X116187Y128063D02*
X116813Y127750D01*
X117125Y127125*
X116813Y126500*
X116187Y126187*
X114000*
Y129937*
X116187*
X116813Y129625*
X117125Y129000*
X116813Y128375*
X116187Y128063*
X114000*
X116187Y138063D02*
X116813Y137750D01*
X117125Y137125*
X116813Y136500*
X116187Y136187*
X114000*
Y139937*
X116187*
X116813Y139625*
X117125Y139000*
X116813Y138375*
X116187Y138063*
X114000*
X116187Y148063D02*
X116813Y147750D01*
X117125Y147125*
X116813Y146500*
X116187Y146187*
X114000*
Y149937*
X116187*
X116813Y149625*
X117125Y149000*
X116813Y148375*
X116187Y148063*
X114000*
X116187Y158063D02*
X116813Y157750D01*
X117125Y157125*
X116813Y156500*
X116187Y156187*
X114000*
Y159937*
X116187*
X116813Y159625*
X117125Y159000*
X116813Y158375*
X116187Y158063*
X114000*
X116187Y168063D02*
X116813Y167750D01*
X117125Y167125*
X116813Y166500*
X116187Y166187*
X114000*
Y169937*
X116187*
X116813Y169625*
X117125Y169000*
X116813Y168375*
X116187Y168063*
X114000*
X116187Y178063D02*
X116813Y177750D01*
X117125Y177125*
X116813Y176500*
X116187Y176187*
X114000*
Y179937*
X116187*
X116813Y179625*
X117125Y179000*
X116813Y178375*
X116187Y178063*
X114000*
X0Y0D02*
M02*
