G04 EasyPC Gerber Version 20.0.2 Build 4112 *
G04 #@! TF.Part,Single*
G04 #@! TF.FileFunction,Copper,L1,Bot *
%FSLAX35Y35*%
%MOIN*%
G04 #@! TA.AperFunction,SMDPad*
%ADD98R,0.15748X0.19685*%
G04 #@! TA.AperFunction,ComponentPad*
%ADD111R,0.05400X0.05400*%
%ADD97R,0.06000X0.06000*%
%ADD106R,0.07500X0.07500*%
G04 #@! TA.AperFunction,SMDPad*
%ADD100R,0.07874X0.07874*%
G04 #@! TA.AperFunction,ComponentPad*
%ADD108R,0.08000X0.08000*%
G04 #@! TD.AperFunction*
%ADD114C,0.03150*%
%ADD20C,0.05000*%
G04 #@! TA.AperFunction,ComponentPad*
%ADD112C,0.05400*%
G04 #@! TD.AperFunction*
%ADD15C,0.06000*%
G04 #@! TA.AperFunction,ComponentPad*
%ADD107C,0.07500*%
G04 #@! TA.AperFunction,SMDPad*
%ADD101C,0.07874*%
G04 #@! TA.AperFunction,ComponentPad*
%ADD109C,0.08000*%
%ADD113C,0.11811*%
G04 #@! TA.AperFunction,WasherPad*
%ADD105C,0.15748*%
G04 #@! TA.AperFunction,SMDPad*
%ADD110R,0.08000X0.06000*%
X0Y0D02*
D02*
D15*
X60250Y70250D03*
Y100250D03*
X65250Y212750D03*
X70250Y70250D03*
Y100250D03*
X75250Y182750D03*
Y212750D03*
X80250Y70250D03*
Y100250D03*
X85250Y182750D03*
Y212750D03*
X90250Y70250D03*
Y100250D03*
X95250Y182750D03*
Y212750D03*
X100250Y70250D03*
Y100250D03*
X105250Y182750D03*
Y212750D03*
X110250Y70250D03*
Y100250D03*
X115250Y182750D03*
Y212750D03*
X120250Y70250D03*
Y100250D03*
X125250Y182750D03*
Y212750D03*
X130250Y70250D03*
Y100250D03*
X135250Y182750D03*
Y212750D03*
X140250Y70250D03*
X145250Y182750D03*
Y212750D03*
X177533Y182750D03*
Y212750D03*
X187533Y182750D03*
Y212750D03*
X197533Y182750D03*
Y212750D03*
X207533Y182750D03*
Y212750D03*
X240250Y190250D03*
Y230250D03*
D02*
D20*
X50250Y15250D02*
Y27750D01*
X70250Y47750*
Y70250*
X57750Y142750D02*
X67750D01*
X60250Y70250D02*
Y85250D01*
X165250*
X168380Y77750*
X60250Y85250D02*
X45250D01*
X35250Y95250*
Y195250*
X42750Y202750*
X140250*
X145250Y207750*
Y212750*
X60250Y100250D02*
Y130250D01*
X57750*
X65250Y212750D02*
Y227750D01*
X50250Y242750*
Y265289*
X67750Y130250D02*
X60250D01*
X70250Y15250D02*
Y30250D01*
X80250Y40250*
Y70250*
X75250Y212750D02*
Y242750D01*
X70250Y247750*
Y265289*
X85250Y212750D02*
Y247750D01*
X90250Y252750*
Y265289*
Y15250D02*
Y70250D01*
X95250Y212750D02*
Y240250D01*
X110250Y255250*
Y265289*
X105250Y212750D02*
Y232750D01*
X115250Y242750*
X122750*
X130250Y250250*
Y265289*
X110250Y15250D02*
Y27750D01*
X100250Y37750*
Y70250*
X115250Y212750D02*
Y227750D01*
X122750Y235250*
X130250*
X150250Y255250*
Y265289*
X125250Y212750D02*
Y217750D01*
X150250Y242750*
X162750*
X170250Y250250*
Y265289*
X130250Y15250D02*
Y27750D01*
X110250Y47750*
Y70250*
X135250Y212750D02*
Y213872D01*
X155250Y233872*
X177750*
X190250Y246372*
Y265289*
X145250Y182750D02*
Y192750D01*
X52750*
X47750Y187750*
Y132750*
X50250Y130250*
X57750*
X150250Y15250D02*
Y25250D01*
X120250Y55250*
Y70250*
X162750Y142750D02*
Y125950D01*
X170250Y15250D02*
Y27750D01*
X142750Y55250*
X137750*
X130250Y62750*
Y70250*
X177533Y212750D02*
X162750Y197967D01*
Y197750*
X157750Y192750*
X145250*
Y182750*
X177533Y212750D02*
X187533D01*
X182750Y155950D02*
Y142750D01*
X185250*
X67750*
X185250D02*
X227750D01*
X187533Y212750D02*
X197533D01*
X190250Y15250D02*
Y27750D01*
X152750Y65250*
X145250*
X140250Y70250*
X197533Y212750D02*
X207533D01*
X222750Y15250D02*
Y77750D01*
Y265250D02*
X242750D01*
X222750D02*
Y230250D01*
X217750Y225250*
X172750*
X160250Y212750*
X145250*
X227750Y142750D02*
X225250Y145250D01*
Y170250*
X240250Y190250D02*
X230250D01*
X225250Y185250*
Y170250*
X240250Y230250D02*
X247750Y232750D01*
X277750*
X242750Y40880D02*
Y15250D01*
Y139935D02*
Y140250D01*
X230250*
X227750Y142750*
X242750Y149778D02*
X247750D01*
Y149416*
X252750*
Y97750*
X250250Y95250*
X237750*
X232750*
X177750*
X172750Y100250*
Y125950*
X252750Y207750D02*
Y212750D01*
X207533*
X252750Y207750D02*
Y149416D01*
X277750Y222750D02*
X262750D01*
X252750Y212750*
Y207750*
D02*
D97*
X65250Y182750D03*
X140250Y100250D03*
D02*
D98*
X50250Y15250D03*
Y265289D03*
X70250Y15250D03*
Y265289D03*
X90250Y15250D03*
Y265289D03*
X110250Y15250D03*
Y265289D03*
X130250Y15250D03*
Y265289D03*
X150250Y15250D03*
Y265289D03*
X170250Y15250D03*
Y265289D03*
X190250Y15250D03*
Y265289D03*
X222750Y15250D03*
Y265250D03*
X242750Y15250D03*
Y265250D03*
D02*
D100*
X225250Y170250D03*
D02*
D101*
X185250D03*
X195250D03*
X205250D03*
X215250D03*
D02*
D105*
X20250Y22750D03*
Y257750D03*
X277750Y23118D03*
Y258118D03*
D02*
D106*
X82750Y125950D03*
D02*
D107*
Y155950D03*
X92750Y125950D03*
Y155950D03*
X102750Y125950D03*
Y155950D03*
X112750Y125950D03*
Y155950D03*
X122750Y125950D03*
Y155950D03*
X132750Y125950D03*
Y155950D03*
X142750Y125950D03*
Y155950D03*
X152750Y125950D03*
Y155950D03*
X162750Y125950D03*
Y155950D03*
X172750Y125950D03*
Y155950D03*
X182750Y125950D03*
Y155950D03*
X192750Y125950D03*
Y155950D03*
X202750Y125950D03*
Y155950D03*
X212750Y125950D03*
Y155950D03*
D02*
D108*
X242750Y120250D03*
D02*
D109*
Y130093D03*
Y139935D03*
Y149778D03*
D02*
D110*
X277750Y222750D03*
Y232750D03*
D02*
D111*
X57750Y142750D03*
X67750D03*
D02*
D112*
X57750Y130250D03*
X67750D03*
D02*
D113*
X20250Y80073D03*
Y129285D03*
Y178498D03*
X168380Y77750D03*
X220900D03*
X242750Y40880D03*
Y93400D03*
X277750Y80073D03*
Y129285D03*
Y178498D03*
D02*
D114*
X65250Y182750D02*
X82750Y155950D01*
X75250Y182750D02*
X92750Y155950D01*
X82750Y125950D02*
X70250Y100250D01*
X85250Y182750D02*
X102750Y155950D01*
X92750Y125950D02*
X80250Y100250D01*
X95250Y182750D02*
X112750Y155950D01*
X102750Y125950D02*
X90250Y100250D01*
X105250Y182750D02*
X122750Y155950D01*
X112750Y125950D02*
X100250Y100250D01*
X115250Y182750D02*
X132750Y155950D01*
X122750Y125950D02*
X110250Y100250D01*
X125250Y182750D02*
X142750Y155950D01*
X132750Y125950D02*
X120250Y100250D01*
X135250Y182750D02*
X152750Y155950D01*
X142750Y125950D02*
X130250Y100250D01*
X152750Y125950D02*
X140250Y100250D01*
X177533Y182750D02*
X185250Y170250D01*
X192750Y155950*
X187533Y182750D02*
X195250Y170250D01*
X202750Y155950*
X197533Y182750D02*
X205250Y170250D01*
X202750Y125950D02*
Y119716D01*
X207216Y115250*
X222750*
X227750Y120250*
Y126134*
X231866Y130250*
X242750*
Y130093*
X205250Y170250D02*
X212750Y155950D01*
X222750Y77750D02*
X220900D01*
X242750Y120250D02*
Y110250D01*
X240250Y107750*
X197216*
X192750Y112216*
Y125950*
X0Y0D02*
M02*
