G04 EasyPC Gerber Version 20.0.2 Build 4112 *
G04 #@! TF.Part,Single*
%FSLAX35Y35*%
%MOIN*%
%ADD14C,0.00500*%
%ADD27C,0.10000*%
X0Y0D02*
D02*
D14*
X30250Y28687D02*
Y32437D01*
X33375*
X32750Y30563D02*
X30250D01*
Y86010D02*
Y89760D01*
X32437*
X33063Y89448*
X33375Y88823*
X33063Y88198*
X32437Y87885*
X30250*
X32437D02*
X33375Y86010D01*
X30250Y135223D02*
Y138973D01*
X32437*
X33063Y138661*
X33375Y138035*
X33063Y137411*
X32437Y137098*
X30250*
X32437D02*
X33375Y135223D01*
X30250Y184435D02*
Y188185D01*
X32437*
X33063Y187873*
X33375Y187248*
X33063Y186623*
X32437Y186311*
X30250*
X32437D02*
X33375Y184435D01*
X30250Y263687D02*
Y267437D01*
X33375*
X32750Y265563D02*
X30250D01*
X60250Y21187D02*
Y24937D01*
Y23063D02*
X61187D01*
X63375Y24937*
X61187Y23063D02*
X63375Y21187D01*
X60250Y271227D02*
Y274977D01*
Y273102D02*
X61187D01*
X63375Y274977*
X61187Y273102D02*
X63375Y271227D01*
X69937Y137750D02*
X70875D01*
Y137437*
X70563Y136813*
X70250Y136500*
X69625Y136187*
X69000*
X68375Y136500*
X68063Y136813*
X67750Y137437*
Y138687*
X68063Y139313*
X68375Y139625*
X69000Y139937*
X69625*
X70250Y139625*
X70563Y139313*
X70875Y138687*
X69937Y150250D02*
X70875D01*
Y149937*
X70563Y149313*
X70250Y149000*
X69625Y148687*
X69000*
X68375Y149000*
X68063Y149313*
X67750Y149937*
Y151187*
X68063Y151813*
X68375Y152125*
X69000Y152437*
X69625*
X70250Y152125*
X70563Y151813*
X70875Y151187*
X72437Y78063D02*
X73063Y77750D01*
X73375Y77125*
X73063Y76500*
X72437Y76187*
X70250*
Y79937*
X72437*
X73063Y79625*
X73375Y79000*
X73063Y78375*
X72437Y78063*
X70250*
X72437Y108063D02*
X73063Y107750D01*
X73375Y107125*
X73063Y106500*
X72437Y106187*
X70250*
Y109937*
X72437*
X73063Y109625*
X73375Y109000*
X73063Y108375*
X72437Y108063*
X70250*
X77437Y190563D02*
X78063Y190250D01*
X78375Y189625*
X78063Y189000*
X77437Y188687*
X75250*
Y192437*
X77437*
X78063Y192125*
X78375Y191500*
X78063Y190875*
X77437Y190563*
X75250*
X77437Y220563D02*
X78063Y220250D01*
X78375Y219625*
X78063Y219000*
X77437Y218687*
X75250*
Y222437*
X77437*
X78063Y222125*
X78375Y221500*
X78063Y220875*
X77437Y220563*
X75250*
X79937Y137750D02*
X80875D01*
Y137437*
X80563Y136813*
X80250Y136500*
X79625Y136187*
X79000*
X78375Y136500*
X78063Y136813*
X77750Y137437*
Y138687*
X78063Y139313*
X78375Y139625*
X79000Y139937*
X79625*
X80250Y139625*
X80563Y139313*
X80875Y138687*
X79937Y150250D02*
X80875D01*
Y149937*
X80563Y149313*
X80250Y149000*
X79625Y148687*
X79000*
X78375Y149000*
X78063Y149313*
X77750Y149937*
Y151187*
X78063Y151813*
X78375Y152125*
X79000Y152437*
X79625*
X80250Y152125*
X80563Y151813*
X80875Y151187*
X80250Y21187D02*
Y24937D01*
Y23063D02*
X81187D01*
X83375Y24937*
X81187Y23063D02*
X83375Y21187D01*
X82437Y78063D02*
X83063Y77750D01*
X83375Y77125*
X83063Y76500*
X82437Y76187*
X80250*
Y79937*
X82437*
X83063Y79625*
X83375Y79000*
X83063Y78375*
X82437Y78063*
X80250*
X82437Y108063D02*
X83063Y107750D01*
X83375Y107125*
X83063Y106500*
X82437Y106187*
X80250*
Y109937*
X82437*
X83063Y109625*
X83375Y109000*
X83063Y108375*
X82437Y108063*
X80250*
Y271227D02*
Y274977D01*
Y273102D02*
X81187D01*
X83375Y274977*
X81187Y273102D02*
X83375Y271227D01*
X87437Y190563D02*
X88063Y190250D01*
X88375Y189625*
X88063Y189000*
X87437Y188687*
X85250*
Y192437*
X87437*
X88063Y192125*
X88375Y191500*
X88063Y190875*
X87437Y190563*
X85250*
X87437Y220563D02*
X88063Y220250D01*
X88375Y219625*
X88063Y219000*
X87437Y218687*
X85250*
Y222437*
X87437*
X88063Y222125*
X88375Y221500*
X88063Y220875*
X87437Y220563*
X85250*
X92437Y78063D02*
X93063Y77750D01*
X93375Y77125*
X93063Y76500*
X92437Y76187*
X90250*
Y79937*
X92437*
X93063Y79625*
X93375Y79000*
X93063Y78375*
X92437Y78063*
X90250*
X92437Y108063D02*
X93063Y107750D01*
X93375Y107125*
X93063Y106500*
X92437Y106187*
X90250*
Y109937*
X92437*
X93063Y109625*
X93375Y109000*
X93063Y108375*
X92437Y108063*
X90250*
X92750Y131887D02*
Y135637D01*
X94937*
X95563Y135325*
X95875Y134700*
X95563Y134075*
X94937Y133762*
X92750*
Y161887D02*
Y165637D01*
X94937*
X95563Y165325*
X95875Y164700*
X95563Y164075*
X94937Y163762*
X92750*
X97437Y190563D02*
X98063Y190250D01*
X98375Y189625*
X98063Y189000*
X97437Y188687*
X95250*
Y192437*
X97437*
X98063Y192125*
X98375Y191500*
X98063Y190875*
X97437Y190563*
X95250*
X97437Y220563D02*
X98063Y220250D01*
X98375Y219625*
X98063Y219000*
X97437Y218687*
X95250*
Y222437*
X97437*
X98063Y222125*
X98375Y221500*
X98063Y220875*
X97437Y220563*
X95250*
X100250Y21187D02*
Y24937D01*
Y23063D02*
X101187D01*
X103375Y24937*
X101187Y23063D02*
X103375Y21187D01*
X102437Y78063D02*
X103063Y77750D01*
X103375Y77125*
X103063Y76500*
X102437Y76187*
X100250*
Y79937*
X102437*
X103063Y79625*
X103375Y79000*
X103063Y78375*
X102437Y78063*
X100250*
X102437Y108063D02*
X103063Y107750D01*
X103375Y107125*
X103063Y106500*
X102437Y106187*
X100250*
Y109937*
X102437*
X103063Y109625*
X103375Y109000*
X103063Y108375*
X102437Y108063*
X100250*
Y271227D02*
Y274977D01*
Y273102D02*
X101187D01*
X103375Y274977*
X101187Y273102D02*
X103375Y271227D01*
X102750Y131887D02*
Y135637D01*
X104937*
X105563Y135325*
X105875Y134700*
X105563Y134075*
X104937Y133762*
X102750*
Y161887D02*
Y165637D01*
X104937*
X105563Y165325*
X105875Y164700*
X105563Y164075*
X104937Y163762*
X102750*
X107437Y190563D02*
X108063Y190250D01*
X108375Y189625*
X108063Y189000*
X107437Y188687*
X105250*
Y192437*
X107437*
X108063Y192125*
X108375Y191500*
X108063Y190875*
X107437Y190563*
X105250*
X107437Y220563D02*
X108063Y220250D01*
X108375Y219625*
X108063Y219000*
X107437Y218687*
X105250*
Y222437*
X107437*
X108063Y222125*
X108375Y221500*
X108063Y220875*
X107437Y220563*
X105250*
X112437Y78063D02*
X113063Y77750D01*
X113375Y77125*
X113063Y76500*
X112437Y76187*
X110250*
Y79937*
X112437*
X113063Y79625*
X113375Y79000*
X113063Y78375*
X112437Y78063*
X110250*
X112437Y108063D02*
X113063Y107750D01*
X113375Y107125*
X113063Y106500*
X112437Y106187*
X110250*
Y109937*
X112437*
X113063Y109625*
X113375Y109000*
X113063Y108375*
X112437Y108063*
X110250*
X112750Y131887D02*
Y135637D01*
X114937*
X115563Y135325*
X115875Y134700*
X115563Y134075*
X114937Y133762*
X112750*
Y161887D02*
Y165637D01*
X114937*
X115563Y165325*
X115875Y164700*
X115563Y164075*
X114937Y163762*
X112750*
X117437Y190563D02*
X118063Y190250D01*
X118375Y189625*
X118063Y189000*
X117437Y188687*
X115250*
Y192437*
X117437*
X118063Y192125*
X118375Y191500*
X118063Y190875*
X117437Y190563*
X115250*
X117437Y220563D02*
X118063Y220250D01*
X118375Y219625*
X118063Y219000*
X117437Y218687*
X115250*
Y222437*
X117437*
X118063Y222125*
X118375Y221500*
X118063Y220875*
X117437Y220563*
X115250*
X120250Y21187D02*
Y24937D01*
Y23063D02*
X121187D01*
X123375Y24937*
X121187Y23063D02*
X123375Y21187D01*
X122437Y78063D02*
X123063Y77750D01*
X123375Y77125*
X123063Y76500*
X122437Y76187*
X120250*
Y79937*
X122437*
X123063Y79625*
X123375Y79000*
X123063Y78375*
X122437Y78063*
X120250*
X122437Y108063D02*
X123063Y107750D01*
X123375Y107125*
X123063Y106500*
X122437Y106187*
X120250*
Y109937*
X122437*
X123063Y109625*
X123375Y109000*
X123063Y108375*
X122437Y108063*
X120250*
Y271227D02*
Y274977D01*
Y273102D02*
X121187D01*
X123375Y274977*
X121187Y273102D02*
X123375Y271227D01*
X122750Y131887D02*
Y135637D01*
X124937*
X125563Y135325*
X125875Y134700*
X125563Y134075*
X124937Y133762*
X122750*
Y161887D02*
Y165637D01*
X124937*
X125563Y165325*
X125875Y164700*
X125563Y164075*
X124937Y163762*
X122750*
X127437Y190563D02*
X128063Y190250D01*
X128375Y189625*
X128063Y189000*
X127437Y188687*
X125250*
Y192437*
X127437*
X128063Y192125*
X128375Y191500*
X128063Y190875*
X127437Y190563*
X125250*
X127437Y220563D02*
X128063Y220250D01*
X128375Y219625*
X128063Y219000*
X127437Y218687*
X125250*
Y222437*
X127437*
X128063Y222125*
X128375Y221500*
X128063Y220875*
X127437Y220563*
X125250*
X132437Y78063D02*
X133063Y77750D01*
X133375Y77125*
X133063Y76500*
X132437Y76187*
X130250*
Y79937*
X132437*
X133063Y79625*
X133375Y79000*
X133063Y78375*
X132437Y78063*
X130250*
X132437Y108063D02*
X133063Y107750D01*
X133375Y107125*
X133063Y106500*
X132437Y106187*
X130250*
Y109937*
X132437*
X133063Y109625*
X133375Y109000*
X133063Y108375*
X132437Y108063*
X130250*
X132750Y131887D02*
Y135637D01*
X134937*
X135563Y135325*
X135875Y134700*
X135563Y134075*
X134937Y133762*
X132750*
Y161887D02*
Y165637D01*
X134937*
X135563Y165325*
X135875Y164700*
X135563Y164075*
X134937Y163762*
X132750*
X137437Y190563D02*
X138063Y190250D01*
X138375Y189625*
X138063Y189000*
X137437Y188687*
X135250*
Y192437*
X137437*
X138063Y192125*
X138375Y191500*
X138063Y190875*
X137437Y190563*
X135250*
X137437Y220563D02*
X138063Y220250D01*
X138375Y219625*
X138063Y219000*
X137437Y218687*
X135250*
Y222437*
X137437*
X138063Y222125*
X138375Y221500*
X138063Y220875*
X137437Y220563*
X135250*
X140250Y21187D02*
Y24937D01*
Y23063D02*
X141187D01*
X143375Y24937*
X141187Y23063D02*
X143375Y21187D01*
X142437Y78063D02*
X143063Y77750D01*
X143375Y77125*
X143063Y76500*
X142437Y76187*
X140250*
Y79937*
X142437*
X143063Y79625*
X143375Y79000*
X143063Y78375*
X142437Y78063*
X140250*
X142437Y108063D02*
X143063Y107750D01*
X143375Y107125*
X143063Y106500*
X142437Y106187*
X140250*
Y109937*
X142437*
X143063Y109625*
X143375Y109000*
X143063Y108375*
X142437Y108063*
X140250*
Y271227D02*
Y274977D01*
Y273102D02*
X141187D01*
X143375Y274977*
X141187Y273102D02*
X143375Y271227D01*
X142750Y131887D02*
Y135637D01*
X144937*
X145563Y135325*
X145875Y134700*
X145563Y134075*
X144937Y133762*
X142750*
Y161887D02*
Y165637D01*
X144937*
X145563Y165325*
X145875Y164700*
X145563Y164075*
X144937Y163762*
X142750*
X147437Y190563D02*
X148063Y190250D01*
X148375Y189625*
X148063Y189000*
X147437Y188687*
X145250*
Y192437*
X147437*
X148063Y192125*
X148375Y191500*
X148063Y190875*
X147437Y190563*
X145250*
X147437Y220563D02*
X148063Y220250D01*
X148375Y219625*
X148063Y219000*
X147437Y218687*
X145250*
Y222437*
X147437*
X148063Y222125*
X148375Y221500*
X148063Y220875*
X147437Y220563*
X145250*
X152437Y78063D02*
X153063Y77750D01*
X153375Y77125*
X153063Y76500*
X152437Y76187*
X150250*
Y79937*
X152437*
X153063Y79625*
X153375Y79000*
X153063Y78375*
X152437Y78063*
X150250*
X152437Y108063D02*
X153063Y107750D01*
X153375Y107125*
X153063Y106500*
X152437Y106187*
X150250*
Y109937*
X152437*
X153063Y109625*
X153375Y109000*
X153063Y108375*
X152437Y108063*
X150250*
X152750Y131887D02*
Y135637D01*
X154937*
X155563Y135325*
X155875Y134700*
X155563Y134075*
X154937Y133762*
X152750*
Y161887D02*
Y165637D01*
X154937*
X155563Y165325*
X155875Y164700*
X155563Y164075*
X154937Y163762*
X152750*
X157437Y190563D02*
X158063Y190250D01*
X158375Y189625*
X158063Y189000*
X157437Y188687*
X155250*
Y192437*
X157437*
X158063Y192125*
X158375Y191500*
X158063Y190875*
X157437Y190563*
X155250*
X157437Y220563D02*
X158063Y220250D01*
X158375Y219625*
X158063Y219000*
X157437Y218687*
X155250*
Y222437*
X157437*
X158063Y222125*
X158375Y221500*
X158063Y220875*
X157437Y220563*
X155250*
X160250Y21187D02*
Y24937D01*
Y23063D02*
X161187D01*
X163375Y24937*
X161187Y23063D02*
X163375Y21187D01*
X160250Y271227D02*
Y274977D01*
Y273102D02*
X161187D01*
X163375Y274977*
X161187Y273102D02*
X163375Y271227D01*
X162750Y131887D02*
Y135637D01*
X164937*
X165563Y135325*
X165875Y134700*
X165563Y134075*
X164937Y133762*
X162750*
Y161887D02*
Y165637D01*
X164937*
X165563Y165325*
X165875Y164700*
X165563Y164075*
X164937Y163762*
X162750*
X172750Y131887D02*
Y135637D01*
X174937*
X175563Y135325*
X175875Y134700*
X175563Y134075*
X174937Y133762*
X172750*
Y161887D02*
Y165637D01*
X174937*
X175563Y165325*
X175875Y164700*
X175563Y164075*
X174937Y163762*
X172750*
X178380Y84625D02*
X178693Y84000D01*
X179317Y83687*
X180567*
X181193Y84000*
X181505Y84625*
X181193Y85250*
X180567Y85563*
X179317*
X178693Y85875*
X178380Y86500*
X178693Y87125*
X179317Y87437*
X180567*
X181193Y87125*
X181505Y86500*
X180250Y21187D02*
Y24937D01*
Y23063D02*
X181187D01*
X183375Y24937*
X181187Y23063D02*
X183375Y21187D01*
X180250Y271227D02*
Y274977D01*
Y273102D02*
X181187D01*
X183375Y274977*
X181187Y273102D02*
X183375Y271227D01*
X182750Y131887D02*
Y135637D01*
X184937*
X185563Y135325*
X185875Y134700*
X185563Y134075*
X184937Y133762*
X182750*
Y161887D02*
Y165637D01*
X184937*
X185563Y165325*
X185875Y164700*
X185563Y164075*
X184937Y163762*
X182750*
X187533Y188687D02*
X189096Y192437D01*
X190659Y188687*
X188159Y190250D02*
X190033D01*
X187533Y218687D02*
X189096Y222437D01*
X190659Y218687*
X188159Y220250D02*
X190033D01*
X192750Y131887D02*
Y135637D01*
X194937*
X195563Y135325*
X195875Y134700*
X195563Y134075*
X194937Y133762*
X192750*
Y161887D02*
Y165637D01*
X194937*
X195563Y165325*
X195875Y164700*
X195563Y164075*
X194937Y163762*
X192750*
X195250Y177437D02*
Y178687D01*
X195563Y179313*
X195875Y179625*
X196500Y179937*
X197125*
X197750Y179625*
X198063Y179313*
X198375Y178687*
Y177437*
X198063Y176813*
X197750Y176500*
X197125Y176187*
X196500*
X195875Y176500*
X195563Y176813*
X195250Y177437*
X197533Y188687D02*
X199096Y192437D01*
X200659Y188687*
X198159Y190250D02*
X200033D01*
X197533Y218687D02*
X199096Y222437D01*
X200659Y218687*
X198159Y220250D02*
X200033D01*
X200250Y21187D02*
Y24937D01*
Y23063D02*
X201187D01*
X203375Y24937*
X201187Y23063D02*
X203375Y21187D01*
X200250Y271227D02*
Y274977D01*
Y273102D02*
X201187D01*
X203375Y274977*
X201187Y273102D02*
X203375Y271227D01*
X202750Y131887D02*
Y135637D01*
X204937*
X205563Y135325*
X205875Y134700*
X205563Y134075*
X204937Y133762*
X202750*
Y161887D02*
Y165637D01*
X204937*
X205563Y165325*
X205875Y164700*
X205563Y164075*
X204937Y163762*
X202750*
X205250Y177437D02*
Y178687D01*
X205563Y179313*
X205875Y179625*
X206500Y179937*
X207125*
X207750Y179625*
X208063Y179313*
X208375Y178687*
Y177437*
X208063Y176813*
X207750Y176500*
X207125Y176187*
X206500*
X205875Y176500*
X205563Y176813*
X205250Y177437*
X207533Y188687D02*
X209096Y192437D01*
X210659Y188687*
X208159Y190250D02*
X210033D01*
X207533Y218687D02*
X209096Y222437D01*
X210659Y218687*
X208159Y220250D02*
X210033D01*
X212750Y131887D02*
Y135637D01*
X214937*
X215563Y135325*
X215875Y134700*
X215563Y134075*
X214937Y133762*
X212750*
Y161887D02*
Y165637D01*
X214937*
X215563Y165325*
X215875Y164700*
X215563Y164075*
X214937Y163762*
X212750*
X215250Y177437D02*
Y178687D01*
X215563Y179313*
X215875Y179625*
X216500Y179937*
X217125*
X217750Y179625*
X218063Y179313*
X218375Y178687*
Y177437*
X218063Y176813*
X217750Y176500*
X217125Y176187*
X216500*
X215875Y176500*
X215563Y176813*
X215250Y177437*
X217533Y188687D02*
X219096Y192437D01*
X220659Y188687*
X218159Y190250D02*
X220033D01*
X217533Y218687D02*
X219096Y222437D01*
X220659Y218687*
X218159Y220250D02*
X220033D01*
X222750Y131887D02*
Y135637D01*
X224937*
X225563Y135325*
X225875Y134700*
X225563Y134075*
X224937Y133762*
X222750*
Y161887D02*
Y165637D01*
X224937*
X225563Y165325*
X225875Y164700*
X225563Y164075*
X224937Y163762*
X222750*
X225250Y177437D02*
Y178687D01*
X225563Y179313*
X225875Y179625*
X226500Y179937*
X227125*
X227750Y179625*
X228063Y179313*
X228375Y178687*
Y177437*
X228063Y176813*
X227750Y176500*
X227125Y176187*
X226500*
X225875Y176500*
X225563Y176813*
X225250Y177437*
X230900Y84625D02*
X231212Y84000D01*
X231837Y83687*
X233087*
X233712Y84000*
X234025Y84625*
X233712Y85250*
X233087Y85563*
X231837*
X231212Y85875*
X230900Y86500*
X231212Y87125*
X231837Y87437*
X233087*
X233712Y87125*
X234025Y86500*
X232750Y21187D02*
Y24937D01*
Y23063D02*
X233687D01*
X235875Y24937*
X233687Y23063D02*
X235875Y21187D01*
X232750Y271187D02*
Y274937D01*
Y273063D02*
X233687D01*
X235875Y274937*
X233687Y273063D02*
X235875Y271187D01*
X235250Y177437D02*
Y178687D01*
X235563Y179313*
X235875Y179625*
X236500Y179937*
X237125*
X237750Y179625*
X238063Y179313*
X238375Y178687*
Y177437*
X238063Y176813*
X237750Y176500*
X237125Y176187*
X236500*
X235875Y176500*
X235563Y176813*
X235250Y177437*
X252437Y198063D02*
X253063Y197750D01*
X253375Y197125*
X253063Y196500*
X252437Y196187*
X250250*
Y199937*
X252437*
X253063Y199625*
X253375Y199000*
X253063Y198375*
X252437Y198063*
X250250*
X252437Y238063D02*
X253063Y237750D01*
X253375Y237125*
X253063Y236500*
X252437Y236187*
X250250*
Y239937*
X252437*
X253063Y239625*
X253375Y239000*
X253063Y238375*
X252437Y238063*
X250250*
X252750Y21187D02*
Y24937D01*
Y23063D02*
X253687D01*
X255875Y24937*
X253687Y23063D02*
X255875Y21187D01*
X252750Y47755D02*
X253063Y47130D01*
X253687Y46817*
X254937*
X255563Y47130*
X255875Y47755*
X255563Y48380*
X254937Y48693*
X253687*
X253063Y49005*
X252750Y49630*
X253063Y50255*
X253687Y50567*
X254937*
X255563Y50255*
X255875Y49630*
X252750Y100275D02*
X253063Y99650D01*
X253687Y99337*
X254937*
X255563Y99650*
X255875Y100275*
X255563Y100900*
X254937Y101212*
X253687*
X253063Y101525*
X252750Y102150*
X253063Y102775*
X253687Y103087*
X254937*
X255563Y102775*
X255875Y102150*
X252750Y127437D02*
Y128687D01*
X253063Y129313*
X253375Y129625*
X254000Y129937*
X254625*
X255250Y129625*
X255563Y129313*
X255875Y128687*
Y127437*
X255563Y126813*
X255250Y126500*
X254625Y126187*
X254000*
X253375Y126500*
X253063Y126813*
X252750Y127437*
X254937Y127125D02*
X255875Y126187D01*
X252750Y137280D02*
Y138530D01*
X253063Y139155*
X253375Y139468*
X254000Y139780*
X254625*
X255250Y139468*
X255563Y139155*
X255875Y138530*
Y137280*
X255563Y136655*
X255250Y136343*
X254625Y136030*
X254000*
X253375Y136343*
X253063Y136655*
X252750Y137280*
X254937Y136968D02*
X255875Y136030D01*
X252750Y147122D02*
Y148372D01*
X253063Y148998*
X253375Y149310*
X254000Y149622*
X254625*
X255250Y149310*
X255563Y148998*
X255875Y148372*
Y147122*
X255563Y146498*
X255250Y146185*
X254625Y145872*
X254000*
X253375Y146185*
X253063Y146498*
X252750Y147122*
X254937Y146810D02*
X255875Y145872D01*
X252750Y156965D02*
Y158215D01*
X253063Y158840*
X253375Y159153*
X254000Y159465*
X254625*
X255250Y159153*
X255563Y158840*
X255875Y158215*
Y156965*
X255563Y156340*
X255250Y156028*
X254625Y155715*
X254000*
X253375Y156028*
X253063Y156340*
X252750Y156965*
X254937Y156653D02*
X255875Y155715D01*
X252750Y271187D02*
Y274937D01*
Y273063D02*
X253687D01*
X255875Y274937*
X253687Y273063D02*
X255875Y271187D01*
X287750Y29055D02*
Y32805D01*
X290875*
X290250Y30930D02*
X287750D01*
Y86010D02*
Y89760D01*
X289937*
X290563Y89448*
X290875Y88823*
X290563Y88198*
X289937Y87885*
X287750*
X289937D02*
X290875Y86010D01*
X287750Y135223D02*
Y138973D01*
X289937*
X290563Y138661*
X290875Y138035*
X290563Y137411*
X289937Y137098*
X287750*
X289937D02*
X290875Y135223D01*
X287750Y184435D02*
Y188185D01*
X289937*
X290563Y187873*
X290875Y187248*
X290563Y186623*
X289937Y186311*
X287750*
X289937D02*
X290875Y184435D01*
X287750Y228687D02*
Y232437D01*
X290875Y228687*
Y232437*
X287750Y238687D02*
Y242437D01*
X290875Y238687*
Y242437*
X287750Y264055D02*
Y267805D01*
X290875*
X290250Y265930D02*
X287750D01*
D02*
D27*
X20250Y22750D03*
Y80073D03*
Y129285D03*
Y178498D03*
Y257750D03*
X50250Y15250D03*
Y265289D03*
X57750Y130250D03*
Y142750D03*
X60250Y70250D03*
Y100250D03*
X65250Y182750D03*
Y212750D03*
X67750Y130250D03*
Y142750D03*
X70250Y15250D03*
Y70250D03*
Y100250D03*
Y265289D03*
X75250Y182750D03*
Y212750D03*
X80250Y70250D03*
Y100250D03*
X82750Y125950D03*
Y155950D03*
X85250Y182750D03*
Y212750D03*
X90250Y15250D03*
Y70250D03*
Y100250D03*
Y265289D03*
X92750Y125950D03*
Y155950D03*
X95250Y182750D03*
Y212750D03*
X100250Y70250D03*
Y100250D03*
X102750Y125950D03*
Y155950D03*
X105250Y182750D03*
Y212750D03*
X110250Y15250D03*
Y70250D03*
Y100250D03*
Y265289D03*
X112750Y125950D03*
Y155950D03*
X115250Y182750D03*
Y212750D03*
X120250Y70250D03*
Y100250D03*
X122750Y125950D03*
Y155950D03*
X125250Y182750D03*
Y212750D03*
X130250Y15250D03*
Y70250D03*
Y100250D03*
Y265289D03*
X132750Y125950D03*
Y155950D03*
X135250Y182750D03*
Y212750D03*
X140250Y70250D03*
Y100250D03*
X142750Y125950D03*
Y155950D03*
X145250Y182750D03*
Y212750D03*
X150250Y15250D03*
Y265289D03*
X152750Y125950D03*
Y155950D03*
X162750Y125950D03*
Y155950D03*
X168380Y77750D03*
X170250Y15250D03*
Y265289D03*
X172750Y125950D03*
Y155950D03*
X177533Y182750D03*
Y212750D03*
X182750Y125950D03*
Y155950D03*
X185250Y170250D03*
X187533Y182750D03*
Y212750D03*
X190250Y15250D03*
Y265289D03*
X192750Y125950D03*
Y155950D03*
X195250Y170250D03*
X197533Y182750D03*
Y212750D03*
X202750Y125950D03*
Y155950D03*
X205250Y170250D03*
X207533Y182750D03*
Y212750D03*
X212750Y125950D03*
Y155950D03*
X215250Y170250D03*
X220900Y77750D03*
X222750Y15250D03*
Y265250D03*
X225250Y170250D03*
X240250Y190250D03*
Y230250D03*
X242750Y15250D03*
Y40880D03*
Y93400D03*
Y120250D03*
Y130093D03*
Y139935D03*
Y149778D03*
Y265250D03*
X277750Y23118D03*
Y80073D03*
Y129285D03*
Y178498D03*
Y222750D03*
Y232750D03*
Y258118D03*
X0Y0D02*
M02*
