G04 EasyPC Gerber Version 20.0.2 Build 4112 *
G04 #@! TF.Part,Single*
%FSLAX35Y35*%
%MOIN*%
%ADD11C,0.00500*%
%ADD10C,0.10000*%
X0Y0D02*
D02*
D10*
X20250Y22750D03*
Y80073D03*
Y129285D03*
Y178498D03*
Y257750D03*
X50250Y15250D03*
Y265289D03*
X57750Y130250D03*
Y142750D03*
X60250Y70250D03*
Y100250D03*
X65250Y182750D03*
Y212750D03*
X67750Y130250D03*
Y142750D03*
X70250Y15250D03*
Y70250D03*
Y100250D03*
Y265289D03*
X75250Y182750D03*
Y212750D03*
X80250Y70250D03*
Y100250D03*
X82750Y125950D03*
Y155950D03*
X85250Y182750D03*
Y212750D03*
X90250Y15250D03*
Y70250D03*
Y100250D03*
Y265289D03*
X92750Y125950D03*
Y155950D03*
X95250Y182750D03*
Y212750D03*
X100250Y70250D03*
Y100250D03*
X102750Y125950D03*
Y155950D03*
X105250Y182750D03*
Y212750D03*
X110250Y15250D03*
Y70250D03*
Y100250D03*
Y265289D03*
X112750Y125950D03*
Y155950D03*
X115250Y182750D03*
Y212750D03*
X120250Y70250D03*
Y100250D03*
X122750Y125950D03*
Y155950D03*
X125250Y182750D03*
Y212750D03*
X130250Y15250D03*
Y70250D03*
Y100250D03*
Y265289D03*
X132750Y125950D03*
Y155950D03*
X135250Y182750D03*
Y212750D03*
X140250Y70250D03*
Y100250D03*
X142750Y125950D03*
Y155950D03*
X145250Y182750D03*
Y212750D03*
X150250Y15250D03*
Y265289D03*
X152750Y125950D03*
Y155950D03*
X162750Y125950D03*
Y155950D03*
X170250Y15250D03*
Y265289D03*
X172750Y125950D03*
Y155950D03*
X177533Y182750D03*
Y212750D03*
X182750Y57750D03*
Y125950D03*
Y155950D03*
X183211Y77750D03*
X185250Y170250D03*
X187533Y182750D03*
Y212750D03*
X190250Y15250D03*
Y265289D03*
X192750Y125950D03*
Y155950D03*
X195250Y170250D03*
X197533Y182750D03*
Y212750D03*
X202750Y125950D03*
Y155950D03*
X205250Y170250D03*
X207533Y182750D03*
Y212750D03*
X212750Y125950D03*
Y155950D03*
X215250Y170250D03*
X222750Y15250D03*
Y265250D03*
X225250Y170250D03*
X240250Y190250D03*
Y230250D03*
X242750Y15250D03*
Y120250D03*
Y130093D03*
Y139935D03*
Y149778D03*
Y265250D03*
X247789Y57750D03*
X248250Y77750D03*
X277750Y23118D03*
Y80073D03*
Y129285D03*
Y178498D03*
Y222750D03*
Y232750D03*
Y258118D03*
D02*
D11*
X30250Y29625D02*
X30563Y29000D01*
X31187Y28687*
X32437*
X33063Y29000*
X33375Y29625*
X33063Y30250*
X32437Y30563*
X31187*
X30563Y30875*
X30250Y31500*
X30563Y32125*
X31187Y32437*
X32437*
X33063Y32125*
X33375Y31500*
X32437Y87573D02*
X33375D01*
Y87260*
X33063Y86635*
X32750Y86323*
X32125Y86010*
X31500*
X30875Y86323*
X30563Y86635*
X30250Y87260*
Y88510*
X30563Y89135*
X30875Y89448*
X31500Y89760*
X32125*
X32750Y89448*
X33063Y89135*
X33375Y88510*
X32437Y136785D02*
X33375D01*
Y136473*
X33063Y135848*
X32750Y135535*
X32125Y135223*
X31500*
X30875Y135535*
X30563Y135848*
X30250Y136473*
Y137723*
X30563Y138348*
X30875Y138661*
X31500Y138973*
X32125*
X32750Y138661*
X33063Y138348*
X33375Y137723*
X32437Y185998D02*
X33375D01*
Y185685*
X33063Y185061*
X32750Y184748*
X32125Y184435*
X31500*
X30875Y184748*
X30563Y185061*
X30250Y185685*
Y186935*
X30563Y187561*
X30875Y187873*
X31500Y188185*
X32125*
X32750Y187873*
X33063Y187561*
X33375Y186935*
X30250Y264625D02*
X30563Y264000D01*
X31187Y263687*
X32437*
X33063Y264000*
X33375Y264625*
X33063Y265250*
X32437Y265563*
X31187*
X30563Y265875*
X30250Y266500*
X30563Y267125*
X31187Y267437*
X32437*
X33063Y267125*
X33375Y266500*
X60250Y21187D02*
Y24937D01*
X63375Y21187*
Y24937*
X60250Y271227D02*
Y274977D01*
X63375Y271227*
Y274977*
X68687Y136187D02*
X69937D01*
X69313D02*
Y139937D01*
X68687D02*
X69937D01*
X68687Y148687D02*
X69937D01*
X69313D02*
Y152437D01*
X68687D02*
X69937D01*
X70250Y76187D02*
X71813Y79937D01*
X73375Y76187*
X70875Y77750D02*
X72750D01*
X70250Y106187D02*
X71813Y109937D01*
X73375Y106187*
X70875Y107750D02*
X72750D01*
X75250Y188687D02*
X76813Y192437D01*
X78375Y188687*
X75875Y190250D02*
X77750D01*
X75250Y218687D02*
X76813Y222437D01*
X78375Y218687*
X75875Y220250D02*
X77750D01*
X78687Y136187D02*
X79937D01*
X79313D02*
Y139937D01*
X78687D02*
X79937D01*
X78687Y148687D02*
X79937D01*
X79313D02*
Y152437D01*
X78687D02*
X79937D01*
X80250Y21187D02*
Y24937D01*
X83375Y21187*
Y24937*
X80250Y76187D02*
X81813Y79937D01*
X83375Y76187*
X80875Y77750D02*
X82750D01*
X80250Y106187D02*
X81813Y109937D01*
X83375Y106187*
X80875Y107750D02*
X82750D01*
X80250Y271227D02*
Y274977D01*
X83375Y271227*
Y274977*
X85250Y188687D02*
X86813Y192437D01*
X88375Y188687*
X85875Y190250D02*
X87750D01*
X85250Y218687D02*
X86813Y222437D01*
X88375Y218687*
X85875Y220250D02*
X87750D01*
X90250Y76187D02*
X91813Y79937D01*
X93375Y76187*
X90875Y77750D02*
X92750D01*
X90250Y106187D02*
X91813Y109937D01*
X93375Y106187*
X90875Y107750D02*
X92750D01*
X94313Y131887D02*
Y135637D01*
X92750D02*
X95875D01*
X94313Y161887D02*
Y165637D01*
X92750D02*
X95875D01*
X95250Y188687D02*
X96813Y192437D01*
X98375Y188687*
X95875Y190250D02*
X97750D01*
X95250Y218687D02*
X96813Y222437D01*
X98375Y218687*
X95875Y220250D02*
X97750D01*
X100250Y21187D02*
Y24937D01*
X103375Y21187*
Y24937*
X100250Y76187D02*
X101813Y79937D01*
X103375Y76187*
X100875Y77750D02*
X102750D01*
X100250Y106187D02*
X101813Y109937D01*
X103375Y106187*
X100875Y107750D02*
X102750D01*
X100250Y271227D02*
Y274977D01*
X103375Y271227*
Y274977*
X104313Y131887D02*
Y135637D01*
X102750D02*
X105875D01*
X104313Y161887D02*
Y165637D01*
X102750D02*
X105875D01*
X105250Y188687D02*
X106813Y192437D01*
X108375Y188687*
X105875Y190250D02*
X107750D01*
X105250Y218687D02*
X106813Y222437D01*
X108375Y218687*
X105875Y220250D02*
X107750D01*
X110250Y76187D02*
X111813Y79937D01*
X113375Y76187*
X110875Y77750D02*
X112750D01*
X110250Y106187D02*
X111813Y109937D01*
X113375Y106187*
X110875Y107750D02*
X112750D01*
X114313Y131887D02*
Y135637D01*
X112750D02*
X115875D01*
X114313Y161887D02*
Y165637D01*
X112750D02*
X115875D01*
X115250Y188687D02*
X116813Y192437D01*
X118375Y188687*
X115875Y190250D02*
X117750D01*
X115250Y218687D02*
X116813Y222437D01*
X118375Y218687*
X115875Y220250D02*
X117750D01*
X120250Y21187D02*
Y24937D01*
X123375Y21187*
Y24937*
X120250Y76187D02*
X121813Y79937D01*
X123375Y76187*
X120875Y77750D02*
X122750D01*
X120250Y106187D02*
X121813Y109937D01*
X123375Y106187*
X120875Y107750D02*
X122750D01*
X120250Y271227D02*
Y274977D01*
X123375Y271227*
Y274977*
X124313Y131887D02*
Y135637D01*
X122750D02*
X125875D01*
X124313Y161887D02*
Y165637D01*
X122750D02*
X125875D01*
X125250Y188687D02*
X126813Y192437D01*
X128375Y188687*
X125875Y190250D02*
X127750D01*
X125250Y218687D02*
X126813Y222437D01*
X128375Y218687*
X125875Y220250D02*
X127750D01*
X130250Y76187D02*
X131813Y79937D01*
X133375Y76187*
X130875Y77750D02*
X132750D01*
X130250Y106187D02*
X131813Y109937D01*
X133375Y106187*
X130875Y107750D02*
X132750D01*
X134313Y131887D02*
Y135637D01*
X132750D02*
X135875D01*
X134313Y161887D02*
Y165637D01*
X132750D02*
X135875D01*
X135250Y188687D02*
X136813Y192437D01*
X138375Y188687*
X135875Y190250D02*
X137750D01*
X135250Y218687D02*
X136813Y222437D01*
X138375Y218687*
X135875Y220250D02*
X137750D01*
X140250Y21187D02*
Y24937D01*
X143375Y21187*
Y24937*
X140250Y76187D02*
X141813Y79937D01*
X143375Y76187*
X140875Y77750D02*
X142750D01*
X140250Y106187D02*
X141813Y109937D01*
X143375Y106187*
X140875Y107750D02*
X142750D01*
X140250Y271227D02*
Y274977D01*
X143375Y271227*
Y274977*
X144313Y131887D02*
Y135637D01*
X142750D02*
X145875D01*
X144313Y161887D02*
Y165637D01*
X142750D02*
X145875D01*
X145250Y188687D02*
X146813Y192437D01*
X148375Y188687*
X145875Y190250D02*
X147750D01*
X145250Y218687D02*
X146813Y222437D01*
X148375Y218687*
X145875Y220250D02*
X147750D01*
X150250Y76187D02*
X151813Y79937D01*
X153375Y76187*
X150875Y77750D02*
X152750D01*
X150250Y106187D02*
X151813Y109937D01*
X153375Y106187*
X150875Y107750D02*
X152750D01*
X154313Y131887D02*
Y135637D01*
X152750D02*
X155875D01*
X154313Y161887D02*
Y165637D01*
X152750D02*
X155875D01*
X155250Y188687D02*
X156813Y192437D01*
X158375Y188687*
X155875Y190250D02*
X157750D01*
X155250Y218687D02*
X156813Y222437D01*
X158375Y218687*
X155875Y220250D02*
X157750D01*
X160250Y21187D02*
Y24937D01*
X163375Y21187*
Y24937*
X160250Y271227D02*
Y274977D01*
X163375Y271227*
Y274977*
X164313Y131887D02*
Y135637D01*
X162750D02*
X165875D01*
X164313Y161887D02*
Y165637D01*
X162750D02*
X165875D01*
X174313Y131887D02*
Y135637D01*
X172750D02*
X175875D01*
X174313Y161887D02*
Y165637D01*
X172750D02*
X175875D01*
X180250Y21187D02*
Y24937D01*
X183375Y21187*
Y24937*
X180250Y271227D02*
Y274977D01*
X183375Y271227*
Y274977*
X184313Y131887D02*
Y135637D01*
X182750D02*
X185875D01*
X184313Y161887D02*
Y165637D01*
X182750D02*
X185875D01*
X189721Y190563D02*
X190346Y190250D01*
X190659Y189625*
X190346Y189000*
X189721Y188687*
X187533*
Y192437*
X189721*
X190346Y192125*
X190659Y191500*
X190346Y190875*
X189721Y190563*
X187533*
X189721Y220563D02*
X190346Y220250D01*
X190659Y219625*
X190346Y219000*
X189721Y218687*
X187533*
Y222437*
X189721*
X190346Y222125*
X190659Y221500*
X190346Y220875*
X189721Y220563*
X187533*
X192750Y64937D02*
Y66187D01*
X193063Y66813*
X193375Y67125*
X194000Y67437*
X194625*
X195250Y67125*
X195563Y66813*
X195875Y66187*
Y64937*
X195563Y64313*
X195250Y64000*
X194625Y63687*
X194000*
X193375Y64000*
X193063Y64313*
X192750Y64937*
X194937Y64625D02*
X195875Y63687D01*
X194313Y131887D02*
Y135637D01*
X192750D02*
X195875D01*
X194313Y161887D02*
Y165637D01*
X192750D02*
X195875D01*
X193211Y84937D02*
Y86187D01*
X193523Y86813*
X193836Y87125*
X194461Y87437*
X195086*
X195711Y87125*
X196023Y86813*
X196336Y86187*
Y84937*
X196023Y84313*
X195711Y84000*
X195086Y83687*
X194461*
X193836Y84000*
X193523Y84313*
X193211Y84937*
X195398Y84625D02*
X196336Y83687D01*
X195250Y176187D02*
Y179937D01*
X196813Y178063*
X198375Y179937*
Y176187*
X199721Y190563D02*
X200346Y190250D01*
X200659Y189625*
X200346Y189000*
X199721Y188687*
X197533*
Y192437*
X199721*
X200346Y192125*
X200659Y191500*
X200346Y190875*
X199721Y190563*
X197533*
X199721Y220563D02*
X200346Y220250D01*
X200659Y219625*
X200346Y219000*
X199721Y218687*
X197533*
Y222437*
X199721*
X200346Y222125*
X200659Y221500*
X200346Y220875*
X199721Y220563*
X197533*
X200250Y21187D02*
Y24937D01*
X203375Y21187*
Y24937*
X200250Y271227D02*
Y274977D01*
X203375Y271227*
Y274977*
X204313Y131887D02*
Y135637D01*
X202750D02*
X205875D01*
X204313Y161887D02*
Y165637D01*
X202750D02*
X205875D01*
X205250Y176187D02*
Y179937D01*
X206813Y178063*
X208375Y179937*
Y176187*
X209721Y190563D02*
X210346Y190250D01*
X210659Y189625*
X210346Y189000*
X209721Y188687*
X207533*
Y192437*
X209721*
X210346Y192125*
X210659Y191500*
X210346Y190875*
X209721Y190563*
X207533*
X209721Y220563D02*
X210346Y220250D01*
X210659Y219625*
X210346Y219000*
X209721Y218687*
X207533*
Y222437*
X209721*
X210346Y222125*
X210659Y221500*
X210346Y220875*
X209721Y220563*
X207533*
X214313Y131887D02*
Y135637D01*
X212750D02*
X215875D01*
X214313Y161887D02*
Y165637D01*
X212750D02*
X215875D01*
X215250Y176187D02*
Y179937D01*
X216813Y178063*
X218375Y179937*
Y176187*
X219721Y190563D02*
X220346Y190250D01*
X220659Y189625*
X220346Y189000*
X219721Y188687*
X217533*
Y192437*
X219721*
X220346Y192125*
X220659Y191500*
X220346Y190875*
X219721Y190563*
X217533*
X219721Y220563D02*
X220346Y220250D01*
X220659Y219625*
X220346Y219000*
X219721Y218687*
X217533*
Y222437*
X219721*
X220346Y222125*
X220659Y221500*
X220346Y220875*
X219721Y220563*
X217533*
X224313Y131887D02*
Y135637D01*
X222750D02*
X225875D01*
X224313Y161887D02*
Y165637D01*
X222750D02*
X225875D01*
X225250Y176187D02*
Y179937D01*
X226813Y178063*
X228375Y179937*
Y176187*
X232750Y21187D02*
Y24937D01*
X235875Y21187*
Y24937*
X232750Y271187D02*
Y274937D01*
X235875Y271187*
Y274937*
X235250Y176187D02*
Y179937D01*
X236813Y178063*
X238375Y179937*
Y176187*
X250250Y196187D02*
X251813Y199937D01*
X253375Y196187*
X250875Y197750D02*
X252750D01*
X250250Y236187D02*
X251813Y239937D01*
X253375Y236187*
X250875Y237750D02*
X252750D01*
Y21187D02*
Y24937D01*
X255875Y21187*
Y24937*
X252750Y127437D02*
Y128687D01*
X253063Y129313*
X253375Y129625*
X254000Y129937*
X254625*
X255250Y129625*
X255563Y129313*
X255875Y128687*
Y127437*
X255563Y126813*
X255250Y126500*
X254625Y126187*
X254000*
X253375Y126500*
X253063Y126813*
X252750Y127437*
Y137280D02*
Y138530D01*
X253063Y139155*
X253375Y139468*
X254000Y139780*
X254625*
X255250Y139468*
X255563Y139155*
X255875Y138530*
Y137280*
X255563Y136655*
X255250Y136343*
X254625Y136030*
X254000*
X253375Y136343*
X253063Y136655*
X252750Y137280*
Y147122D02*
Y148372D01*
X253063Y148998*
X253375Y149310*
X254000Y149622*
X254625*
X255250Y149310*
X255563Y148998*
X255875Y148372*
Y147122*
X255563Y146498*
X255250Y146185*
X254625Y145872*
X254000*
X253375Y146185*
X253063Y146498*
X252750Y147122*
Y156965D02*
Y158215D01*
X253063Y158840*
X253375Y159153*
X254000Y159465*
X254625*
X255250Y159153*
X255563Y158840*
X255875Y158215*
Y156965*
X255563Y156340*
X255250Y156028*
X254625Y155715*
X254000*
X253375Y156028*
X253063Y156340*
X252750Y156965*
Y271187D02*
Y274937D01*
X255875Y271187*
Y274937*
X257789Y64937D02*
Y66187D01*
X258102Y66813*
X258415Y67125*
X259039Y67437*
X259665*
X260289Y67125*
X260602Y66813*
X260915Y66187*
Y64937*
X260602Y64313*
X260289Y64000*
X259665Y63687*
X259039*
X258415Y64000*
X258102Y64313*
X257789Y64937*
X259977Y64625D02*
X260915Y63687D01*
X258250Y84937D02*
Y86187D01*
X258563Y86813*
X258875Y87125*
X259500Y87437*
X260125*
X260750Y87125*
X261063Y86813*
X261375Y86187*
Y84937*
X261063Y84313*
X260750Y84000*
X260125Y83687*
X259500*
X258875Y84000*
X258563Y84313*
X258250Y84937*
X260437Y84625D02*
X261375Y83687D01*
X287750Y29993D02*
X288063Y29368D01*
X288687Y29055*
X289937*
X290563Y29368*
X290875Y29993*
X290563Y30618*
X289937Y30930*
X288687*
X288063Y31243*
X287750Y31868*
X288063Y32493*
X288687Y32805*
X289937*
X290563Y32493*
X290875Y31868*
X289937Y87573D02*
X290875D01*
Y87260*
X290563Y86635*
X290250Y86323*
X289625Y86010*
X289000*
X288375Y86323*
X288063Y86635*
X287750Y87260*
Y88510*
X288063Y89135*
X288375Y89448*
X289000Y89760*
X289625*
X290250Y89448*
X290563Y89135*
X290875Y88510*
X289937Y136785D02*
X290875D01*
Y136473*
X290563Y135848*
X290250Y135535*
X289625Y135223*
X289000*
X288375Y135535*
X288063Y135848*
X287750Y136473*
Y137723*
X288063Y138348*
X288375Y138661*
X289000Y138973*
X289625*
X290250Y138661*
X290563Y138348*
X290875Y137723*
X289937Y185998D02*
X290875D01*
Y185685*
X290563Y185061*
X290250Y184748*
X289625Y184435*
X289000*
X288375Y184748*
X288063Y185061*
X287750Y185685*
Y186935*
X288063Y187561*
X288375Y187873*
X289000Y188185*
X289625*
X290250Y187873*
X290563Y187561*
X290875Y186935*
X287750Y228687D02*
Y232437D01*
X289937*
X290563Y232125*
X290875Y231500*
X290563Y230875*
X289937Y230563*
X287750*
Y238687D02*
Y242437D01*
X289937*
X290563Y242125*
X290875Y241500*
X290563Y240875*
X289937Y240563*
X287750*
Y264993D02*
X288063Y264368D01*
X288687Y264055*
X289937*
X290563Y264368*
X290875Y264993*
X290563Y265618*
X289937Y265930*
X288687*
X288063Y266243*
X287750Y266868*
X288063Y267493*
X288687Y267805*
X289937*
X290563Y267493*
X290875Y266868*
X0Y0D02*
M02*
