G04 EasyPC Gerber Version 20.0.2 Build 4112 *
G04 #@! TF.Part,Single*
G04 #@! TF.FileFunction,Soldermask,Bot *
%FSLAX35Y35*%
%MOIN*%
G04 #@! TA.AperFunction,SMDPad*
%ADD128R,0.16748X0.20685*%
G04 #@! TA.AperFunction,ComponentPad*
%ADD118R,0.06400X0.06400*%
%ADD140R,0.07000X0.07000*%
%ADD135R,0.08500X0.08500*%
%ADD124R,0.08874X0.08874*%
%ADD121R,0.09000X0.09000*%
%ADD119C,0.06400*%
G04 #@! TD.AperFunction*
%ADD27C,0.07000*%
G04 #@! TA.AperFunction,ComponentPad*
%ADD136C,0.08500*%
%ADD123C,0.08874*%
%ADD122C,0.09000*%
%ADD126C,0.13992*%
G04 #@! TA.AperFunction,SMDPad*
%ADD129R,0.09000X0.07000*%
G04 #@! TA.AperFunction,WasherPad*
%ADD134C,0.20685*%
%ADD139C,0.24622*%
X0Y0D02*
D02*
D27*
X60250Y70250D03*
Y100250D03*
X65250Y212750D03*
X70250Y70250D03*
Y100250D03*
X75250Y182750D03*
Y212750D03*
X80250Y70250D03*
Y100250D03*
X85250Y182750D03*
Y212750D03*
X90250Y70250D03*
Y100250D03*
X95250Y182750D03*
Y212750D03*
X100250Y70250D03*
Y100250D03*
X105250Y182750D03*
Y212750D03*
X110250Y70250D03*
Y100250D03*
X115250Y182750D03*
Y212750D03*
X120250Y70250D03*
Y100250D03*
X125250Y182750D03*
Y212750D03*
X130250Y70250D03*
Y100250D03*
X135250Y182750D03*
Y212750D03*
X140250Y70250D03*
X145250Y182750D03*
Y212750D03*
X240250Y190250D03*
Y230250D03*
D02*
D118*
X57750Y142750D03*
X67750D03*
D02*
D119*
X57750Y130250D03*
X67750D03*
D02*
D121*
X242750Y120250D03*
D02*
D122*
Y130093D03*
Y139935D03*
Y149778D03*
D02*
D123*
X177533Y182750D03*
Y212750D03*
X185250Y170250D03*
X187533Y182750D03*
Y212750D03*
X195250Y170250D03*
X197533Y182750D03*
Y212750D03*
X205250Y170250D03*
X207533Y182750D03*
Y212750D03*
X215250Y170250D03*
D02*
D124*
X225250D03*
D02*
D126*
X182750Y57750D03*
X183211Y77750D03*
X247789Y57750D03*
X248250Y77750D03*
D02*
D128*
X50250Y15250D03*
Y265289D03*
X70250Y15250D03*
Y265289D03*
X90250Y15250D03*
Y265289D03*
X110250Y15250D03*
Y265289D03*
X130250Y15250D03*
Y265289D03*
X150250Y15250D03*
Y265289D03*
X170250Y15250D03*
Y265289D03*
X190250Y15250D03*
Y265289D03*
X222750Y15250D03*
Y265250D03*
X242750Y15250D03*
Y265250D03*
D02*
D129*
X277750Y222750D03*
Y232750D03*
D02*
D134*
X20250Y80073D03*
Y129285D03*
Y178498D03*
X277750Y80073D03*
Y129285D03*
Y178498D03*
D02*
D135*
X82750Y125950D03*
D02*
D136*
Y155950D03*
X92750Y125950D03*
Y155950D03*
X102750Y125950D03*
Y155950D03*
X112750Y125950D03*
Y155950D03*
X122750Y125950D03*
Y155950D03*
X132750Y125950D03*
Y155950D03*
X142750Y125950D03*
Y155950D03*
X152750Y125950D03*
Y155950D03*
X162750Y125950D03*
Y155950D03*
X172750Y125950D03*
Y155950D03*
X182750Y125950D03*
Y155950D03*
X192750Y125950D03*
Y155950D03*
X202750Y125950D03*
Y155950D03*
X212750Y125950D03*
Y155950D03*
D02*
D139*
X20250Y22750D03*
Y257750D03*
X277750Y23118D03*
Y258118D03*
D02*
D140*
X65250Y182750D03*
X140250Y100250D03*
X0Y0D02*
M02*
