G04 EasyPC Gerber Version 20.0.2 Build 4112 *
G04 #@! TF.Part,Single*
%FSLAX35Y35*%
%MOIN*%
%ADD14C,0.00500*%
%ADD27C,0.10000*%
X0Y0D02*
D02*
D14*
X27750Y44313D02*
X28063Y44000D01*
X28687Y43687*
X29313Y44000*
X29625Y44313*
Y47437*
X30250*
X29625D02*
X28375D01*
X27750Y299313D02*
X28063Y299000D01*
X28687Y298687*
X29313Y299000*
X29625Y299313*
Y302437*
X30250*
X29625D02*
X28375D01*
X57750Y43687D02*
Y47437D01*
Y45563D02*
X58687D01*
X60875Y47437*
X58687Y45563D02*
X60875Y43687D01*
X57750Y298687D02*
Y302437D01*
Y300563D02*
X58687D01*
X60875Y302437*
X58687Y300563D02*
X60875Y298687D01*
X77750Y43687D02*
Y47437D01*
Y45563D02*
X78687D01*
X80875Y47437*
X78687Y45563D02*
X80875Y43687D01*
X77750Y298687D02*
Y302437D01*
Y300563D02*
X78687D01*
X80875Y302437*
X78687Y300563D02*
X80875Y298687D01*
X97437Y75563D02*
X98063Y75250D01*
X98375Y74625*
X98063Y74000*
X97437Y73687*
X95250*
Y77437*
X97437*
X98063Y77125*
X98375Y76500*
X98063Y75875*
X97437Y75563*
X95250*
X97437Y105563D02*
X98063Y105250D01*
X98375Y104625*
X98063Y104000*
X97437Y103687*
X95250*
Y107437*
X97437*
X98063Y107125*
X98375Y106500*
X98063Y105875*
X97437Y105563*
X95250*
X96187Y191187D02*
X97437D01*
X96813D02*
Y194937D01*
X96187D02*
X97437D01*
X96187Y221187D02*
X97437D01*
X96813D02*
Y224937D01*
X96187D02*
X97437D01*
X97750Y43687D02*
Y47437D01*
Y45563D02*
X98687D01*
X100875Y47437*
X98687Y45563D02*
X100875Y43687D01*
X97750Y298687D02*
Y302437D01*
Y300563D02*
X98687D01*
X100875Y302437*
X98687Y300563D02*
X100875Y298687D01*
X107437Y75563D02*
X108063Y75250D01*
X108375Y74625*
X108063Y74000*
X107437Y73687*
X105250*
Y77437*
X107437*
X108063Y77125*
X108375Y76500*
X108063Y75875*
X107437Y75563*
X105250*
X107437Y105563D02*
X108063Y105250D01*
X108375Y104625*
X108063Y104000*
X107437Y103687*
X105250*
Y107437*
X107437*
X108063Y107125*
X108375Y106500*
X108063Y105875*
X107437Y105563*
X105250*
X106187Y116187D02*
X107437D01*
X106813D02*
Y119937D01*
X106187D02*
X107437D01*
X106187Y146187D02*
X107437D01*
X106813D02*
Y149937D01*
X106187D02*
X107437D01*
X106187Y191187D02*
X107437D01*
X106813D02*
Y194937D01*
X106187D02*
X107437D01*
X106187Y221187D02*
X107437D01*
X106813D02*
Y224937D01*
X106187D02*
X107437D01*
Y235563D02*
X108063Y235250D01*
X108375Y234625*
X108063Y234000*
X107437Y233687*
X105250*
Y237437*
X107437*
X108063Y237125*
X108375Y236500*
X108063Y235875*
X107437Y235563*
X105250*
X107437Y265563D02*
X108063Y265250D01*
X108375Y264625*
X108063Y264000*
X107437Y263687*
X105250*
Y267437*
X107437*
X108063Y267125*
X108375Y266500*
X108063Y265875*
X107437Y265563*
X105250*
X117437Y75563D02*
X118063Y75250D01*
X118375Y74625*
X118063Y74000*
X117437Y73687*
X115250*
Y77437*
X117437*
X118063Y77125*
X118375Y76500*
X118063Y75875*
X117437Y75563*
X115250*
X117437Y105563D02*
X118063Y105250D01*
X118375Y104625*
X118063Y104000*
X117437Y103687*
X115250*
Y107437*
X117437*
X118063Y107125*
X118375Y106500*
X118063Y105875*
X117437Y105563*
X115250*
X116187Y116187D02*
X117437D01*
X116813D02*
Y119937D01*
X116187D02*
X117437D01*
X116187Y146187D02*
X117437D01*
X116813D02*
Y149937D01*
X116187D02*
X117437D01*
Y163063D02*
X118063Y162750D01*
X118375Y162125*
X118063Y161500*
X117437Y161187*
X115250*
Y164937*
X117437*
X118063Y164625*
X118375Y164000*
X118063Y163375*
X117437Y163063*
X115250*
X116187Y191187D02*
X117437D01*
X116813D02*
Y194937D01*
X116187D02*
X117437D01*
X116187Y221187D02*
X117437D01*
X116813D02*
Y224937D01*
X116187D02*
X117437D01*
Y235563D02*
X118063Y235250D01*
X118375Y234625*
X118063Y234000*
X117437Y233687*
X115250*
Y237437*
X117437*
X118063Y237125*
X118375Y236500*
X118063Y235875*
X117437Y235563*
X115250*
X117437Y265563D02*
X118063Y265250D01*
X118375Y264625*
X118063Y264000*
X117437Y263687*
X115250*
Y267437*
X117437*
X118063Y267125*
X118375Y266500*
X118063Y265875*
X117437Y265563*
X115250*
X117750Y43687D02*
Y47437D01*
Y45563D02*
X118687D01*
X120875Y47437*
X118687Y45563D02*
X120875Y43687D01*
X117750Y298687D02*
Y302437D01*
Y300563D02*
X118687D01*
X120875Y302437*
X118687Y300563D02*
X120875Y298687D01*
X127437Y75563D02*
X128063Y75250D01*
X128375Y74625*
X128063Y74000*
X127437Y73687*
X125250*
Y77437*
X127437*
X128063Y77125*
X128375Y76500*
X128063Y75875*
X127437Y75563*
X125250*
X127437Y105563D02*
X128063Y105250D01*
X128375Y104625*
X128063Y104000*
X127437Y103687*
X125250*
Y107437*
X127437*
X128063Y107125*
X128375Y106500*
X128063Y105875*
X127437Y105563*
X125250*
X126187Y116187D02*
X127437D01*
X126813D02*
Y119937D01*
X126187D02*
X127437D01*
X126187Y146187D02*
X127437D01*
X126813D02*
Y149937D01*
X126187D02*
X127437D01*
Y173063D02*
X128063Y172750D01*
X128375Y172125*
X128063Y171500*
X127437Y171187*
X125250*
Y174937*
X127437*
X128063Y174625*
X128375Y174000*
X128063Y173375*
X127437Y173063*
X125250*
X126187Y191187D02*
X127437D01*
X126813D02*
Y194937D01*
X126187D02*
X127437D01*
X126187Y221187D02*
X127437D01*
X126813D02*
Y224937D01*
X126187D02*
X127437D01*
Y235563D02*
X128063Y235250D01*
X128375Y234625*
X128063Y234000*
X127437Y233687*
X125250*
Y237437*
X127437*
X128063Y237125*
X128375Y236500*
X128063Y235875*
X127437Y235563*
X125250*
X127437Y265563D02*
X128063Y265250D01*
X128375Y264625*
X128063Y264000*
X127437Y263687*
X125250*
Y267437*
X127437*
X128063Y267125*
X128375Y266500*
X128063Y265875*
X127437Y265563*
X125250*
X137437Y75563D02*
X138063Y75250D01*
X138375Y74625*
X138063Y74000*
X137437Y73687*
X135250*
Y77437*
X137437*
X138063Y77125*
X138375Y76500*
X138063Y75875*
X137437Y75563*
X135250*
X137437Y105563D02*
X138063Y105250D01*
X138375Y104625*
X138063Y104000*
X137437Y103687*
X135250*
Y107437*
X137437*
X138063Y107125*
X138375Y106500*
X138063Y105875*
X137437Y105563*
X135250*
X136187Y116187D02*
X137437D01*
X136813D02*
Y119937D01*
X136187D02*
X137437D01*
X136187Y146187D02*
X137437D01*
X136813D02*
Y149937D01*
X136187D02*
X137437D01*
Y183063D02*
X138063Y182750D01*
X138375Y182125*
X138063Y181500*
X137437Y181187*
X135250*
Y184937*
X137437*
X138063Y184625*
X138375Y184000*
X138063Y183375*
X137437Y183063*
X135250*
X136187Y191187D02*
X137437D01*
X136813D02*
Y194937D01*
X136187D02*
X137437D01*
X136187Y221187D02*
X137437D01*
X136813D02*
Y224937D01*
X136187D02*
X137437D01*
Y235563D02*
X138063Y235250D01*
X138375Y234625*
X138063Y234000*
X137437Y233687*
X135250*
Y237437*
X137437*
X138063Y237125*
X138375Y236500*
X138063Y235875*
X137437Y235563*
X135250*
X137437Y265563D02*
X138063Y265250D01*
X138375Y264625*
X138063Y264000*
X137437Y263687*
X135250*
Y267437*
X137437*
X138063Y267125*
X138375Y266500*
X138063Y265875*
X137437Y265563*
X135250*
X137750Y43687D02*
Y47437D01*
Y45563D02*
X138687D01*
X140875Y47437*
X138687Y45563D02*
X140875Y43687D01*
X137750Y298687D02*
Y302437D01*
Y300563D02*
X138687D01*
X140875Y302437*
X138687Y300563D02*
X140875Y298687D01*
X147437Y75563D02*
X148063Y75250D01*
X148375Y74625*
X148063Y74000*
X147437Y73687*
X145250*
Y77437*
X147437*
X148063Y77125*
X148375Y76500*
X148063Y75875*
X147437Y75563*
X145250*
X147437Y105563D02*
X148063Y105250D01*
X148375Y104625*
X148063Y104000*
X147437Y103687*
X145250*
Y107437*
X147437*
X148063Y107125*
X148375Y106500*
X148063Y105875*
X147437Y105563*
X145250*
X146187Y116187D02*
X147437D01*
X146813D02*
Y119937D01*
X146187D02*
X147437D01*
X146187Y146187D02*
X147437D01*
X146813D02*
Y149937D01*
X146187D02*
X147437D01*
Y173063D02*
X148063Y172750D01*
X148375Y172125*
X148063Y171500*
X147437Y171187*
X145250*
Y174937*
X147437*
X148063Y174625*
X148375Y174000*
X148063Y173375*
X147437Y173063*
X145250*
X146187Y191187D02*
X147437D01*
X146813D02*
Y194937D01*
X146187D02*
X147437D01*
X146187Y221187D02*
X147437D01*
X146813D02*
Y224937D01*
X146187D02*
X147437D01*
Y235563D02*
X148063Y235250D01*
X148375Y234625*
X148063Y234000*
X147437Y233687*
X145250*
Y237437*
X147437*
X148063Y237125*
X148375Y236500*
X148063Y235875*
X147437Y235563*
X145250*
X147437Y265563D02*
X148063Y265250D01*
X148375Y264625*
X148063Y264000*
X147437Y263687*
X145250*
Y267437*
X147437*
X148063Y267125*
X148375Y266500*
X148063Y265875*
X147437Y265563*
X145250*
X157437Y75563D02*
X158063Y75250D01*
X158375Y74625*
X158063Y74000*
X157437Y73687*
X155250*
Y77437*
X157437*
X158063Y77125*
X158375Y76500*
X158063Y75875*
X157437Y75563*
X155250*
X157437Y105563D02*
X158063Y105250D01*
X158375Y104625*
X158063Y104000*
X157437Y103687*
X155250*
Y107437*
X157437*
X158063Y107125*
X158375Y106500*
X158063Y105875*
X157437Y105563*
X155250*
X156187Y116187D02*
X157437D01*
X156813D02*
Y119937D01*
X156187D02*
X157437D01*
X156187Y146187D02*
X157437D01*
X156813D02*
Y149937D01*
X156187D02*
X157437D01*
Y163063D02*
X158063Y162750D01*
X158375Y162125*
X158063Y161500*
X157437Y161187*
X155250*
Y164937*
X157437*
X158063Y164625*
X158375Y164000*
X158063Y163375*
X157437Y163063*
X155250*
X156187Y191187D02*
X157437D01*
X156813D02*
Y194937D01*
X156187D02*
X157437D01*
X156187Y221187D02*
X157437D01*
X156813D02*
Y224937D01*
X156187D02*
X157437D01*
Y235563D02*
X158063Y235250D01*
X158375Y234625*
X158063Y234000*
X157437Y233687*
X155250*
Y237437*
X157437*
X158063Y237125*
X158375Y236500*
X158063Y235875*
X157437Y235563*
X155250*
X157437Y265563D02*
X158063Y265250D01*
X158375Y264625*
X158063Y264000*
X157437Y263687*
X155250*
Y267437*
X157437*
X158063Y267125*
X158375Y266500*
X158063Y265875*
X157437Y265563*
X155250*
X157750Y43687D02*
Y47437D01*
Y45563D02*
X158687D01*
X160875Y47437*
X158687Y45563D02*
X160875Y43687D01*
X157750Y298687D02*
Y302437D01*
Y300563D02*
X158687D01*
X160875Y302437*
X158687Y300563D02*
X160875Y298687D01*
X167437Y75563D02*
X168063Y75250D01*
X168375Y74625*
X168063Y74000*
X167437Y73687*
X165250*
Y77437*
X167437*
X168063Y77125*
X168375Y76500*
X168063Y75875*
X167437Y75563*
X165250*
X167437Y105563D02*
X168063Y105250D01*
X168375Y104625*
X168063Y104000*
X167437Y103687*
X165250*
Y107437*
X167437*
X168063Y107125*
X168375Y106500*
X168063Y105875*
X167437Y105563*
X165250*
X166187Y116187D02*
X167437D01*
X166813D02*
Y119937D01*
X166187D02*
X167437D01*
X166187Y146187D02*
X167437D01*
X166813D02*
Y149937D01*
X166187D02*
X167437D01*
X166187Y191187D02*
X167437D01*
X166813D02*
Y194937D01*
X166187D02*
X167437D01*
X166187Y221187D02*
X167437D01*
X166813D02*
Y224937D01*
X166187D02*
X167437D01*
Y235563D02*
X168063Y235250D01*
X168375Y234625*
X168063Y234000*
X167437Y233687*
X165250*
Y237437*
X167437*
X168063Y237125*
X168375Y236500*
X168063Y235875*
X167437Y235563*
X165250*
X167437Y265563D02*
X168063Y265250D01*
X168375Y264625*
X168063Y264000*
X167437Y263687*
X165250*
Y267437*
X167437*
X168063Y267125*
X168375Y266500*
X168063Y265875*
X167437Y265563*
X165250*
X176187Y116187D02*
X177437D01*
X176813D02*
Y119937D01*
X176187D02*
X177437D01*
X176187Y146187D02*
X177437D01*
X176813D02*
Y149937D01*
X176187D02*
X177437D01*
Y235563D02*
X178063Y235250D01*
X178375Y234625*
X178063Y234000*
X177437Y233687*
X175250*
Y237437*
X177437*
X178063Y237125*
X178375Y236500*
X178063Y235875*
X177437Y235563*
X175250*
X177437Y265563D02*
X178063Y265250D01*
X178375Y264625*
X178063Y264000*
X177437Y263687*
X175250*
Y267437*
X177437*
X178063Y267125*
X178375Y266500*
X178063Y265875*
X177437Y265563*
X175250*
X177750Y43687D02*
Y47437D01*
Y45563D02*
X178687D01*
X180875Y47437*
X178687Y45563D02*
X180875Y43687D01*
X177750Y298687D02*
Y302437D01*
Y300563D02*
X178687D01*
X180875Y302437*
X178687Y300563D02*
X180875Y298687D01*
X197750Y43687D02*
Y47437D01*
Y45563D02*
X198687D01*
X200875Y47437*
X198687Y45563D02*
X200875Y43687D01*
X197750Y298687D02*
Y302437D01*
Y300563D02*
X198687D01*
X200875Y302437*
X198687Y300563D02*
X200875Y298687D01*
X217750Y43687D02*
Y47437D01*
Y45563D02*
X218687D01*
X220875Y47437*
X218687Y45563D02*
X220875Y43687D01*
X217750Y298687D02*
Y302437D01*
Y300563D02*
X218687D01*
X220875Y302437*
X218687Y300563D02*
X220875Y298687D01*
X237750Y43687D02*
Y47437D01*
Y45563D02*
X238687D01*
X240875Y47437*
X238687Y45563D02*
X240875Y43687D01*
X237750Y298687D02*
Y302437D01*
Y300563D02*
X238687D01*
X240875Y302437*
X238687Y300563D02*
X240875Y298687D01*
X257437Y75563D02*
X258063Y75250D01*
X258375Y74625*
X258063Y74000*
X257437Y73687*
X255250*
Y77437*
X257437*
X258063Y77125*
X258375Y76500*
X258063Y75875*
X257437Y75563*
X255250*
X257437Y105563D02*
X258063Y105250D01*
X258375Y104625*
X258063Y104000*
X257437Y103687*
X255250*
Y107437*
X257437*
X258063Y107125*
X258375Y106500*
X258063Y105875*
X257437Y105563*
X255250*
X256187Y191187D02*
X257437D01*
X256813D02*
Y194937D01*
X256187D02*
X257437D01*
X256187Y221187D02*
X257437D01*
X256813D02*
Y224937D01*
X256187D02*
X257437D01*
X257750Y43687D02*
Y47437D01*
Y45563D02*
X258687D01*
X260875Y47437*
X258687Y45563D02*
X260875Y43687D01*
X257750Y298687D02*
Y302437D01*
Y300563D02*
X258687D01*
X260875Y302437*
X258687Y300563D02*
X260875Y298687D01*
X267437Y75563D02*
X268063Y75250D01*
X268375Y74625*
X268063Y74000*
X267437Y73687*
X265250*
Y77437*
X267437*
X268063Y77125*
X268375Y76500*
X268063Y75875*
X267437Y75563*
X265250*
X267437Y105563D02*
X268063Y105250D01*
X268375Y104625*
X268063Y104000*
X267437Y103687*
X265250*
Y107437*
X267437*
X268063Y107125*
X268375Y106500*
X268063Y105875*
X267437Y105563*
X265250*
X266187Y116187D02*
X267437D01*
X266813D02*
Y119937D01*
X266187D02*
X267437D01*
X266187Y146187D02*
X267437D01*
X266813D02*
Y149937D01*
X266187D02*
X267437D01*
X266187Y191187D02*
X267437D01*
X266813D02*
Y194937D01*
X266187D02*
X267437D01*
X266187Y221187D02*
X267437D01*
X266813D02*
Y224937D01*
X266187D02*
X267437D01*
Y235563D02*
X268063Y235250D01*
X268375Y234625*
X268063Y234000*
X267437Y233687*
X265250*
Y237437*
X267437*
X268063Y237125*
X268375Y236500*
X268063Y235875*
X267437Y235563*
X265250*
X267437Y265563D02*
X268063Y265250D01*
X268375Y264625*
X268063Y264000*
X267437Y263687*
X265250*
Y267437*
X267437*
X268063Y267125*
X268375Y266500*
X268063Y265875*
X267437Y265563*
X265250*
X277437Y75563D02*
X278063Y75250D01*
X278375Y74625*
X278063Y74000*
X277437Y73687*
X275250*
Y77437*
X277437*
X278063Y77125*
X278375Y76500*
X278063Y75875*
X277437Y75563*
X275250*
X277437Y105563D02*
X278063Y105250D01*
X278375Y104625*
X278063Y104000*
X277437Y103687*
X275250*
Y107437*
X277437*
X278063Y107125*
X278375Y106500*
X278063Y105875*
X277437Y105563*
X275250*
X276187Y116187D02*
X277437D01*
X276813D02*
Y119937D01*
X276187D02*
X277437D01*
X276187Y146187D02*
X277437D01*
X276813D02*
Y149937D01*
X276187D02*
X277437D01*
Y163063D02*
X278063Y162750D01*
X278375Y162125*
X278063Y161500*
X277437Y161187*
X275250*
Y164937*
X277437*
X278063Y164625*
X278375Y164000*
X278063Y163375*
X277437Y163063*
X275250*
X276187Y191187D02*
X277437D01*
X276813D02*
Y194937D01*
X276187D02*
X277437D01*
X276187Y221187D02*
X277437D01*
X276813D02*
Y224937D01*
X276187D02*
X277437D01*
Y235563D02*
X278063Y235250D01*
X278375Y234625*
X278063Y234000*
X277437Y233687*
X275250*
Y237437*
X277437*
X278063Y237125*
X278375Y236500*
X278063Y235875*
X277437Y235563*
X275250*
X277437Y265563D02*
X278063Y265250D01*
X278375Y264625*
X278063Y264000*
X277437Y263687*
X275250*
Y267437*
X277437*
X278063Y267125*
X278375Y266500*
X278063Y265875*
X277437Y265563*
X275250*
X277750Y43687D02*
Y47437D01*
Y45563D02*
X278687D01*
X280875Y47437*
X278687Y45563D02*
X280875Y43687D01*
X277750Y298687D02*
Y302437D01*
Y300563D02*
X278687D01*
X280875Y302437*
X278687Y300563D02*
X280875Y298687D01*
X287437Y75563D02*
X288063Y75250D01*
X288375Y74625*
X288063Y74000*
X287437Y73687*
X285250*
Y77437*
X287437*
X288063Y77125*
X288375Y76500*
X288063Y75875*
X287437Y75563*
X285250*
X287437Y105563D02*
X288063Y105250D01*
X288375Y104625*
X288063Y104000*
X287437Y103687*
X285250*
Y107437*
X287437*
X288063Y107125*
X288375Y106500*
X288063Y105875*
X287437Y105563*
X285250*
X286187Y116187D02*
X287437D01*
X286813D02*
Y119937D01*
X286187D02*
X287437D01*
X286187Y146187D02*
X287437D01*
X286813D02*
Y149937D01*
X286187D02*
X287437D01*
Y173063D02*
X288063Y172750D01*
X288375Y172125*
X288063Y171500*
X287437Y171187*
X285250*
Y174937*
X287437*
X288063Y174625*
X288375Y174000*
X288063Y173375*
X287437Y173063*
X285250*
X286187Y191187D02*
X287437D01*
X286813D02*
Y194937D01*
X286187D02*
X287437D01*
X286187Y221187D02*
X287437D01*
X286813D02*
Y224937D01*
X286187D02*
X287437D01*
Y235563D02*
X288063Y235250D01*
X288375Y234625*
X288063Y234000*
X287437Y233687*
X285250*
Y237437*
X287437*
X288063Y237125*
X288375Y236500*
X288063Y235875*
X287437Y235563*
X285250*
X287437Y265563D02*
X288063Y265250D01*
X288375Y264625*
X288063Y264000*
X287437Y263687*
X285250*
Y267437*
X287437*
X288063Y267125*
X288375Y266500*
X288063Y265875*
X287437Y265563*
X285250*
X297437Y75563D02*
X298063Y75250D01*
X298375Y74625*
X298063Y74000*
X297437Y73687*
X295250*
Y77437*
X297437*
X298063Y77125*
X298375Y76500*
X298063Y75875*
X297437Y75563*
X295250*
X297437Y105563D02*
X298063Y105250D01*
X298375Y104625*
X298063Y104000*
X297437Y103687*
X295250*
Y107437*
X297437*
X298063Y107125*
X298375Y106500*
X298063Y105875*
X297437Y105563*
X295250*
X296187Y116187D02*
X297437D01*
X296813D02*
Y119937D01*
X296187D02*
X297437D01*
X296187Y146187D02*
X297437D01*
X296813D02*
Y149937D01*
X296187D02*
X297437D01*
Y183063D02*
X298063Y182750D01*
X298375Y182125*
X298063Y181500*
X297437Y181187*
X295250*
Y184937*
X297437*
X298063Y184625*
X298375Y184000*
X298063Y183375*
X297437Y183063*
X295250*
X296187Y191187D02*
X297437D01*
X296813D02*
Y194937D01*
X296187D02*
X297437D01*
X296187Y221187D02*
X297437D01*
X296813D02*
Y224937D01*
X296187D02*
X297437D01*
Y235563D02*
X298063Y235250D01*
X298375Y234625*
X298063Y234000*
X297437Y233687*
X295250*
Y237437*
X297437*
X298063Y237125*
X298375Y236500*
X298063Y235875*
X297437Y235563*
X295250*
X297437Y265563D02*
X298063Y265250D01*
X298375Y264625*
X298063Y264000*
X297437Y263687*
X295250*
Y267437*
X297437*
X298063Y267125*
X298375Y266500*
X298063Y265875*
X297437Y265563*
X295250*
X297750Y43687D02*
Y47437D01*
Y45563D02*
X298687D01*
X300875Y47437*
X298687Y45563D02*
X300875Y43687D01*
X297750Y298687D02*
Y302437D01*
Y300563D02*
X298687D01*
X300875Y302437*
X298687Y300563D02*
X300875Y298687D01*
X307437Y75563D02*
X308063Y75250D01*
X308375Y74625*
X308063Y74000*
X307437Y73687*
X305250*
Y77437*
X307437*
X308063Y77125*
X308375Y76500*
X308063Y75875*
X307437Y75563*
X305250*
X307437Y105563D02*
X308063Y105250D01*
X308375Y104625*
X308063Y104000*
X307437Y103687*
X305250*
Y107437*
X307437*
X308063Y107125*
X308375Y106500*
X308063Y105875*
X307437Y105563*
X305250*
X306187Y116187D02*
X307437D01*
X306813D02*
Y119937D01*
X306187D02*
X307437D01*
X306187Y146187D02*
X307437D01*
X306813D02*
Y149937D01*
X306187D02*
X307437D01*
Y173063D02*
X308063Y172750D01*
X308375Y172125*
X308063Y171500*
X307437Y171187*
X305250*
Y174937*
X307437*
X308063Y174625*
X308375Y174000*
X308063Y173375*
X307437Y173063*
X305250*
X306187Y191187D02*
X307437D01*
X306813D02*
Y194937D01*
X306187D02*
X307437D01*
X306187Y221187D02*
X307437D01*
X306813D02*
Y224937D01*
X306187D02*
X307437D01*
Y235563D02*
X308063Y235250D01*
X308375Y234625*
X308063Y234000*
X307437Y233687*
X305250*
Y237437*
X307437*
X308063Y237125*
X308375Y236500*
X308063Y235875*
X307437Y235563*
X305250*
X307437Y265563D02*
X308063Y265250D01*
X308375Y264625*
X308063Y264000*
X307437Y263687*
X305250*
Y267437*
X307437*
X308063Y267125*
X308375Y266500*
X308063Y265875*
X307437Y265563*
X305250*
X317437Y75563D02*
X318063Y75250D01*
X318375Y74625*
X318063Y74000*
X317437Y73687*
X315250*
Y77437*
X317437*
X318063Y77125*
X318375Y76500*
X318063Y75875*
X317437Y75563*
X315250*
X317437Y105563D02*
X318063Y105250D01*
X318375Y104625*
X318063Y104000*
X317437Y103687*
X315250*
Y107437*
X317437*
X318063Y107125*
X318375Y106500*
X318063Y105875*
X317437Y105563*
X315250*
X316187Y116187D02*
X317437D01*
X316813D02*
Y119937D01*
X316187D02*
X317437D01*
X316187Y146187D02*
X317437D01*
X316813D02*
Y149937D01*
X316187D02*
X317437D01*
Y163063D02*
X318063Y162750D01*
X318375Y162125*
X318063Y161500*
X317437Y161187*
X315250*
Y164937*
X317437*
X318063Y164625*
X318375Y164000*
X318063Y163375*
X317437Y163063*
X315250*
X316187Y191187D02*
X317437D01*
X316813D02*
Y194937D01*
X316187D02*
X317437D01*
X316187Y221187D02*
X317437D01*
X316813D02*
Y224937D01*
X316187D02*
X317437D01*
Y235563D02*
X318063Y235250D01*
X318375Y234625*
X318063Y234000*
X317437Y233687*
X315250*
Y237437*
X317437*
X318063Y237125*
X318375Y236500*
X318063Y235875*
X317437Y235563*
X315250*
X317437Y265563D02*
X318063Y265250D01*
X318375Y264625*
X318063Y264000*
X317437Y263687*
X315250*
Y267437*
X317437*
X318063Y267125*
X318375Y266500*
X318063Y265875*
X317437Y265563*
X315250*
X317750Y43687D02*
Y47437D01*
Y45563D02*
X318687D01*
X320875Y47437*
X318687Y45563D02*
X320875Y43687D01*
X317750Y298687D02*
Y302437D01*
Y300563D02*
X318687D01*
X320875Y302437*
X318687Y300563D02*
X320875Y298687D01*
X327437Y75563D02*
X328063Y75250D01*
X328375Y74625*
X328063Y74000*
X327437Y73687*
X325250*
Y77437*
X327437*
X328063Y77125*
X328375Y76500*
X328063Y75875*
X327437Y75563*
X325250*
X327437Y105563D02*
X328063Y105250D01*
X328375Y104625*
X328063Y104000*
X327437Y103687*
X325250*
Y107437*
X327437*
X328063Y107125*
X328375Y106500*
X328063Y105875*
X327437Y105563*
X325250*
X326187Y116187D02*
X327437D01*
X326813D02*
Y119937D01*
X326187D02*
X327437D01*
X326187Y146187D02*
X327437D01*
X326813D02*
Y149937D01*
X326187D02*
X327437D01*
X326187Y191187D02*
X327437D01*
X326813D02*
Y194937D01*
X326187D02*
X327437D01*
X326187Y221187D02*
X327437D01*
X326813D02*
Y224937D01*
X326187D02*
X327437D01*
Y235563D02*
X328063Y235250D01*
X328375Y234625*
X328063Y234000*
X327437Y233687*
X325250*
Y237437*
X327437*
X328063Y237125*
X328375Y236500*
X328063Y235875*
X327437Y235563*
X325250*
X327437Y265563D02*
X328063Y265250D01*
X328375Y264625*
X328063Y264000*
X327437Y263687*
X325250*
Y267437*
X327437*
X328063Y267125*
X328375Y266500*
X328063Y265875*
X327437Y265563*
X325250*
X336187Y116187D02*
X337437D01*
X336813D02*
Y119937D01*
X336187D02*
X337437D01*
X336187Y146187D02*
X337437D01*
X336813D02*
Y149937D01*
X336187D02*
X337437D01*
Y235563D02*
X338063Y235250D01*
X338375Y234625*
X338063Y234000*
X337437Y233687*
X335250*
Y237437*
X337437*
X338063Y237125*
X338375Y236500*
X338063Y235875*
X337437Y235563*
X335250*
X337437Y265563D02*
X338063Y265250D01*
X338375Y264625*
X338063Y264000*
X337437Y263687*
X335250*
Y267437*
X337437*
X338063Y267125*
X338375Y266500*
X338063Y265875*
X337437Y265563*
X335250*
X337750Y43687D02*
Y47437D01*
Y45563D02*
X338687D01*
X340875Y47437*
X338687Y45563D02*
X340875Y43687D01*
X337750Y298687D02*
Y302437D01*
Y300563D02*
X338687D01*
X340875Y302437*
X338687Y300563D02*
X340875Y298687D01*
X357750Y43687D02*
Y47437D01*
Y45563D02*
X358687D01*
X360875Y47437*
X358687Y45563D02*
X360875Y43687D01*
X357750Y298687D02*
Y302437D01*
Y300563D02*
X358687D01*
X360875Y302437*
X358687Y300563D02*
X360875Y298687D01*
X377750Y43687D02*
Y47437D01*
Y45563D02*
X378687D01*
X380875Y47437*
X378687Y45563D02*
X380875Y43687D01*
X377750Y298687D02*
Y302437D01*
Y300563D02*
X378687D01*
X380875Y302437*
X378687Y300563D02*
X380875Y298687D01*
X397750Y43687D02*
Y47437D01*
Y45563D02*
X398687D01*
X400875Y47437*
X398687Y45563D02*
X400875Y43687D01*
X397750Y298687D02*
Y302437D01*
Y300563D02*
X398687D01*
X400875Y302437*
X398687Y300563D02*
X400875Y298687D01*
X417437Y75563D02*
X418063Y75250D01*
X418375Y74625*
X418063Y74000*
X417437Y73687*
X415250*
Y77437*
X417437*
X418063Y77125*
X418375Y76500*
X418063Y75875*
X417437Y75563*
X415250*
X417437Y105563D02*
X418063Y105250D01*
X418375Y104625*
X418063Y104000*
X417437Y103687*
X415250*
Y107437*
X417437*
X418063Y107125*
X418375Y106500*
X418063Y105875*
X417437Y105563*
X415250*
X416187Y191187D02*
X417437D01*
X416813D02*
Y194937D01*
X416187D02*
X417437D01*
X416187Y221187D02*
X417437D01*
X416813D02*
Y224937D01*
X416187D02*
X417437D01*
X417750Y43687D02*
Y47437D01*
Y45563D02*
X418687D01*
X420875Y47437*
X418687Y45563D02*
X420875Y43687D01*
X417750Y298687D02*
Y302437D01*
Y300563D02*
X418687D01*
X420875Y302437*
X418687Y300563D02*
X420875Y298687D01*
X427437Y75563D02*
X428063Y75250D01*
X428375Y74625*
X428063Y74000*
X427437Y73687*
X425250*
Y77437*
X427437*
X428063Y77125*
X428375Y76500*
X428063Y75875*
X427437Y75563*
X425250*
X427437Y105563D02*
X428063Y105250D01*
X428375Y104625*
X428063Y104000*
X427437Y103687*
X425250*
Y107437*
X427437*
X428063Y107125*
X428375Y106500*
X428063Y105875*
X427437Y105563*
X425250*
X426187Y116187D02*
X427437D01*
X426813D02*
Y119937D01*
X426187D02*
X427437D01*
X426187Y146187D02*
X427437D01*
X426813D02*
Y149937D01*
X426187D02*
X427437D01*
X426187Y191187D02*
X427437D01*
X426813D02*
Y194937D01*
X426187D02*
X427437D01*
X426187Y221187D02*
X427437D01*
X426813D02*
Y224937D01*
X426187D02*
X427437D01*
Y235563D02*
X428063Y235250D01*
X428375Y234625*
X428063Y234000*
X427437Y233687*
X425250*
Y237437*
X427437*
X428063Y237125*
X428375Y236500*
X428063Y235875*
X427437Y235563*
X425250*
X427437Y265563D02*
X428063Y265250D01*
X428375Y264625*
X428063Y264000*
X427437Y263687*
X425250*
Y267437*
X427437*
X428063Y267125*
X428375Y266500*
X428063Y265875*
X427437Y265563*
X425250*
X437437Y75563D02*
X438063Y75250D01*
X438375Y74625*
X438063Y74000*
X437437Y73687*
X435250*
Y77437*
X437437*
X438063Y77125*
X438375Y76500*
X438063Y75875*
X437437Y75563*
X435250*
X437437Y105563D02*
X438063Y105250D01*
X438375Y104625*
X438063Y104000*
X437437Y103687*
X435250*
Y107437*
X437437*
X438063Y107125*
X438375Y106500*
X438063Y105875*
X437437Y105563*
X435250*
X436187Y116187D02*
X437437D01*
X436813D02*
Y119937D01*
X436187D02*
X437437D01*
X436187Y146187D02*
X437437D01*
X436813D02*
Y149937D01*
X436187D02*
X437437D01*
Y163063D02*
X438063Y162750D01*
X438375Y162125*
X438063Y161500*
X437437Y161187*
X435250*
Y164937*
X437437*
X438063Y164625*
X438375Y164000*
X438063Y163375*
X437437Y163063*
X435250*
X436187Y191187D02*
X437437D01*
X436813D02*
Y194937D01*
X436187D02*
X437437D01*
X436187Y221187D02*
X437437D01*
X436813D02*
Y224937D01*
X436187D02*
X437437D01*
Y235563D02*
X438063Y235250D01*
X438375Y234625*
X438063Y234000*
X437437Y233687*
X435250*
Y237437*
X437437*
X438063Y237125*
X438375Y236500*
X438063Y235875*
X437437Y235563*
X435250*
X437437Y265563D02*
X438063Y265250D01*
X438375Y264625*
X438063Y264000*
X437437Y263687*
X435250*
Y267437*
X437437*
X438063Y267125*
X438375Y266500*
X438063Y265875*
X437437Y265563*
X435250*
X437750Y43687D02*
Y47437D01*
Y45563D02*
X438687D01*
X440875Y47437*
X438687Y45563D02*
X440875Y43687D01*
X437750Y298687D02*
Y302437D01*
Y300563D02*
X438687D01*
X440875Y302437*
X438687Y300563D02*
X440875Y298687D01*
X447437Y75563D02*
X448063Y75250D01*
X448375Y74625*
X448063Y74000*
X447437Y73687*
X445250*
Y77437*
X447437*
X448063Y77125*
X448375Y76500*
X448063Y75875*
X447437Y75563*
X445250*
X447437Y105563D02*
X448063Y105250D01*
X448375Y104625*
X448063Y104000*
X447437Y103687*
X445250*
Y107437*
X447437*
X448063Y107125*
X448375Y106500*
X448063Y105875*
X447437Y105563*
X445250*
X446187Y116187D02*
X447437D01*
X446813D02*
Y119937D01*
X446187D02*
X447437D01*
X446187Y146187D02*
X447437D01*
X446813D02*
Y149937D01*
X446187D02*
X447437D01*
Y173063D02*
X448063Y172750D01*
X448375Y172125*
X448063Y171500*
X447437Y171187*
X445250*
Y174937*
X447437*
X448063Y174625*
X448375Y174000*
X448063Y173375*
X447437Y173063*
X445250*
X446187Y191187D02*
X447437D01*
X446813D02*
Y194937D01*
X446187D02*
X447437D01*
X446187Y221187D02*
X447437D01*
X446813D02*
Y224937D01*
X446187D02*
X447437D01*
Y235563D02*
X448063Y235250D01*
X448375Y234625*
X448063Y234000*
X447437Y233687*
X445250*
Y237437*
X447437*
X448063Y237125*
X448375Y236500*
X448063Y235875*
X447437Y235563*
X445250*
X447437Y265563D02*
X448063Y265250D01*
X448375Y264625*
X448063Y264000*
X447437Y263687*
X445250*
Y267437*
X447437*
X448063Y267125*
X448375Y266500*
X448063Y265875*
X447437Y265563*
X445250*
X457437Y75563D02*
X458063Y75250D01*
X458375Y74625*
X458063Y74000*
X457437Y73687*
X455250*
Y77437*
X457437*
X458063Y77125*
X458375Y76500*
X458063Y75875*
X457437Y75563*
X455250*
X457437Y105563D02*
X458063Y105250D01*
X458375Y104625*
X458063Y104000*
X457437Y103687*
X455250*
Y107437*
X457437*
X458063Y107125*
X458375Y106500*
X458063Y105875*
X457437Y105563*
X455250*
X456187Y116187D02*
X457437D01*
X456813D02*
Y119937D01*
X456187D02*
X457437D01*
X456187Y146187D02*
X457437D01*
X456813D02*
Y149937D01*
X456187D02*
X457437D01*
Y183063D02*
X458063Y182750D01*
X458375Y182125*
X458063Y181500*
X457437Y181187*
X455250*
Y184937*
X457437*
X458063Y184625*
X458375Y184000*
X458063Y183375*
X457437Y183063*
X455250*
X456187Y191187D02*
X457437D01*
X456813D02*
Y194937D01*
X456187D02*
X457437D01*
X456187Y221187D02*
X457437D01*
X456813D02*
Y224937D01*
X456187D02*
X457437D01*
Y235563D02*
X458063Y235250D01*
X458375Y234625*
X458063Y234000*
X457437Y233687*
X455250*
Y237437*
X457437*
X458063Y237125*
X458375Y236500*
X458063Y235875*
X457437Y235563*
X455250*
X457437Y265563D02*
X458063Y265250D01*
X458375Y264625*
X458063Y264000*
X457437Y263687*
X455250*
Y267437*
X457437*
X458063Y267125*
X458375Y266500*
X458063Y265875*
X457437Y265563*
X455250*
X457750Y43687D02*
Y47437D01*
Y45563D02*
X458687D01*
X460875Y47437*
X458687Y45563D02*
X460875Y43687D01*
X457750Y298687D02*
Y302437D01*
Y300563D02*
X458687D01*
X460875Y302437*
X458687Y300563D02*
X460875Y298687D01*
X467437Y75563D02*
X468063Y75250D01*
X468375Y74625*
X468063Y74000*
X467437Y73687*
X465250*
Y77437*
X467437*
X468063Y77125*
X468375Y76500*
X468063Y75875*
X467437Y75563*
X465250*
X467437Y105563D02*
X468063Y105250D01*
X468375Y104625*
X468063Y104000*
X467437Y103687*
X465250*
Y107437*
X467437*
X468063Y107125*
X468375Y106500*
X468063Y105875*
X467437Y105563*
X465250*
X466187Y116187D02*
X467437D01*
X466813D02*
Y119937D01*
X466187D02*
X467437D01*
X466187Y146187D02*
X467437D01*
X466813D02*
Y149937D01*
X466187D02*
X467437D01*
Y173063D02*
X468063Y172750D01*
X468375Y172125*
X468063Y171500*
X467437Y171187*
X465250*
Y174937*
X467437*
X468063Y174625*
X468375Y174000*
X468063Y173375*
X467437Y173063*
X465250*
X466187Y191187D02*
X467437D01*
X466813D02*
Y194937D01*
X466187D02*
X467437D01*
X466187Y221187D02*
X467437D01*
X466813D02*
Y224937D01*
X466187D02*
X467437D01*
Y235563D02*
X468063Y235250D01*
X468375Y234625*
X468063Y234000*
X467437Y233687*
X465250*
Y237437*
X467437*
X468063Y237125*
X468375Y236500*
X468063Y235875*
X467437Y235563*
X465250*
X467437Y265563D02*
X468063Y265250D01*
X468375Y264625*
X468063Y264000*
X467437Y263687*
X465250*
Y267437*
X467437*
X468063Y267125*
X468375Y266500*
X468063Y265875*
X467437Y265563*
X465250*
X477437Y75563D02*
X478063Y75250D01*
X478375Y74625*
X478063Y74000*
X477437Y73687*
X475250*
Y77437*
X477437*
X478063Y77125*
X478375Y76500*
X478063Y75875*
X477437Y75563*
X475250*
X477437Y105563D02*
X478063Y105250D01*
X478375Y104625*
X478063Y104000*
X477437Y103687*
X475250*
Y107437*
X477437*
X478063Y107125*
X478375Y106500*
X478063Y105875*
X477437Y105563*
X475250*
X476187Y116187D02*
X477437D01*
X476813D02*
Y119937D01*
X476187D02*
X477437D01*
X476187Y146187D02*
X477437D01*
X476813D02*
Y149937D01*
X476187D02*
X477437D01*
Y163063D02*
X478063Y162750D01*
X478375Y162125*
X478063Y161500*
X477437Y161187*
X475250*
Y164937*
X477437*
X478063Y164625*
X478375Y164000*
X478063Y163375*
X477437Y163063*
X475250*
X476187Y191187D02*
X477437D01*
X476813D02*
Y194937D01*
X476187D02*
X477437D01*
X476187Y221187D02*
X477437D01*
X476813D02*
Y224937D01*
X476187D02*
X477437D01*
Y235563D02*
X478063Y235250D01*
X478375Y234625*
X478063Y234000*
X477437Y233687*
X475250*
Y237437*
X477437*
X478063Y237125*
X478375Y236500*
X478063Y235875*
X477437Y235563*
X475250*
X477437Y265563D02*
X478063Y265250D01*
X478375Y264625*
X478063Y264000*
X477437Y263687*
X475250*
Y267437*
X477437*
X478063Y267125*
X478375Y266500*
X478063Y265875*
X477437Y265563*
X475250*
X477750Y43687D02*
Y47437D01*
Y45563D02*
X478687D01*
X480875Y47437*
X478687Y45563D02*
X480875Y43687D01*
X477750Y298687D02*
Y302437D01*
Y300563D02*
X478687D01*
X480875Y302437*
X478687Y300563D02*
X480875Y298687D01*
X487437Y75563D02*
X488063Y75250D01*
X488375Y74625*
X488063Y74000*
X487437Y73687*
X485250*
Y77437*
X487437*
X488063Y77125*
X488375Y76500*
X488063Y75875*
X487437Y75563*
X485250*
X487437Y105563D02*
X488063Y105250D01*
X488375Y104625*
X488063Y104000*
X487437Y103687*
X485250*
Y107437*
X487437*
X488063Y107125*
X488375Y106500*
X488063Y105875*
X487437Y105563*
X485250*
X486187Y116187D02*
X487437D01*
X486813D02*
Y119937D01*
X486187D02*
X487437D01*
X486187Y146187D02*
X487437D01*
X486813D02*
Y149937D01*
X486187D02*
X487437D01*
X486187Y191187D02*
X487437D01*
X486813D02*
Y194937D01*
X486187D02*
X487437D01*
X486187Y221187D02*
X487437D01*
X486813D02*
Y224937D01*
X486187D02*
X487437D01*
Y235563D02*
X488063Y235250D01*
X488375Y234625*
X488063Y234000*
X487437Y233687*
X485250*
Y237437*
X487437*
X488063Y237125*
X488375Y236500*
X488063Y235875*
X487437Y235563*
X485250*
X487437Y265563D02*
X488063Y265250D01*
X488375Y264625*
X488063Y264000*
X487437Y263687*
X485250*
Y267437*
X487437*
X488063Y267125*
X488375Y266500*
X488063Y265875*
X487437Y265563*
X485250*
X496187Y116187D02*
X497437D01*
X496813D02*
Y119937D01*
X496187D02*
X497437D01*
X496187Y146187D02*
X497437D01*
X496813D02*
Y149937D01*
X496187D02*
X497437D01*
Y235563D02*
X498063Y235250D01*
X498375Y234625*
X498063Y234000*
X497437Y233687*
X495250*
Y237437*
X497437*
X498063Y237125*
X498375Y236500*
X498063Y235875*
X497437Y235563*
X495250*
X497437Y265563D02*
X498063Y265250D01*
X498375Y264625*
X498063Y264000*
X497437Y263687*
X495250*
Y267437*
X497437*
X498063Y267125*
X498375Y266500*
X498063Y265875*
X497437Y265563*
X495250*
X497750Y43687D02*
Y47437D01*
Y45563D02*
X498687D01*
X500875Y47437*
X498687Y45563D02*
X500875Y43687D01*
X497750Y298687D02*
Y302437D01*
Y300563D02*
X498687D01*
X500875Y302437*
X498687Y300563D02*
X500875Y298687D01*
X517750Y43687D02*
Y47437D01*
Y45563D02*
X518687D01*
X520875Y47437*
X518687Y45563D02*
X520875Y43687D01*
X517750Y298687D02*
Y302437D01*
Y300563D02*
X518687D01*
X520875Y302437*
X518687Y300563D02*
X520875Y298687D01*
X537750Y43687D02*
Y47437D01*
Y45563D02*
X538687D01*
X540875Y47437*
X538687Y45563D02*
X540875Y43687D01*
X537750Y298687D02*
Y302437D01*
Y300563D02*
X538687D01*
X540875Y302437*
X538687Y300563D02*
X540875Y298687D01*
X557750Y43687D02*
Y47437D01*
Y45563D02*
X558687D01*
X560875Y47437*
X558687Y45563D02*
X560875Y43687D01*
X557750Y298687D02*
Y302437D01*
Y300563D02*
X558687D01*
X560875Y302437*
X558687Y300563D02*
X560875Y298687D01*
X562437Y125563D02*
X563063Y125250D01*
X563375Y124625*
X563063Y124000*
X562437Y123687*
X560250*
Y127437*
X562437*
X563063Y127125*
X563375Y126500*
X563063Y125875*
X562437Y125563*
X560250*
X562437Y155563D02*
X563063Y155250D01*
X563375Y154625*
X563063Y154000*
X562437Y153687*
X560250*
Y157437*
X562437*
X563063Y157125*
X563375Y156500*
X563063Y155875*
X562437Y155563*
X560250*
X562437Y163063D02*
X563063Y162750D01*
X563375Y162125*
X563063Y161500*
X562437Y161187*
X560250*
Y164937*
X562437*
X563063Y164625*
X563375Y164000*
X563063Y163375*
X562437Y163063*
X560250*
X577437Y75563D02*
X578063Y75250D01*
X578375Y74625*
X578063Y74000*
X577437Y73687*
X575250*
Y77437*
X577437*
X578063Y77125*
X578375Y76500*
X578063Y75875*
X577437Y75563*
X575250*
X577437Y105563D02*
X578063Y105250D01*
X578375Y104625*
X578063Y104000*
X577437Y103687*
X575250*
Y107437*
X577437*
X578063Y107125*
X578375Y106500*
X578063Y105875*
X577437Y105563*
X575250*
X576187Y191187D02*
X577437D01*
X576813D02*
Y194937D01*
X576187D02*
X577437D01*
X576187Y221187D02*
X577437D01*
X576813D02*
Y224937D01*
X576187D02*
X577437D01*
X577750Y43687D02*
Y47437D01*
Y45563D02*
X578687D01*
X580875Y47437*
X578687Y45563D02*
X580875Y43687D01*
X577750Y298687D02*
Y302437D01*
Y300563D02*
X578687D01*
X580875Y302437*
X578687Y300563D02*
X580875Y298687D01*
X587437Y75563D02*
X588063Y75250D01*
X588375Y74625*
X588063Y74000*
X587437Y73687*
X585250*
Y77437*
X587437*
X588063Y77125*
X588375Y76500*
X588063Y75875*
X587437Y75563*
X585250*
X587437Y105563D02*
X588063Y105250D01*
X588375Y104625*
X588063Y104000*
X587437Y103687*
X585250*
Y107437*
X587437*
X588063Y107125*
X588375Y106500*
X588063Y105875*
X587437Y105563*
X585250*
X586187Y116187D02*
X587437D01*
X586813D02*
Y119937D01*
X586187D02*
X587437D01*
X586187Y146187D02*
X587437D01*
X586813D02*
Y149937D01*
X586187D02*
X587437D01*
X586187Y191187D02*
X587437D01*
X586813D02*
Y194937D01*
X586187D02*
X587437D01*
X586187Y221187D02*
X587437D01*
X586813D02*
Y224937D01*
X586187D02*
X587437D01*
Y235563D02*
X588063Y235250D01*
X588375Y234625*
X588063Y234000*
X587437Y233687*
X585250*
Y237437*
X587437*
X588063Y237125*
X588375Y236500*
X588063Y235875*
X587437Y235563*
X585250*
X587437Y265563D02*
X588063Y265250D01*
X588375Y264625*
X588063Y264000*
X587437Y263687*
X585250*
Y267437*
X587437*
X588063Y267125*
X588375Y266500*
X588063Y265875*
X587437Y265563*
X585250*
X597437Y75563D02*
X598063Y75250D01*
X598375Y74625*
X598063Y74000*
X597437Y73687*
X595250*
Y77437*
X597437*
X598063Y77125*
X598375Y76500*
X598063Y75875*
X597437Y75563*
X595250*
X597437Y105563D02*
X598063Y105250D01*
X598375Y104625*
X598063Y104000*
X597437Y103687*
X595250*
Y107437*
X597437*
X598063Y107125*
X598375Y106500*
X598063Y105875*
X597437Y105563*
X595250*
X596187Y116187D02*
X597437D01*
X596813D02*
Y119937D01*
X596187D02*
X597437D01*
X596187Y146187D02*
X597437D01*
X596813D02*
Y149937D01*
X596187D02*
X597437D01*
Y163063D02*
X598063Y162750D01*
X598375Y162125*
X598063Y161500*
X597437Y161187*
X595250*
Y164937*
X597437*
X598063Y164625*
X598375Y164000*
X598063Y163375*
X597437Y163063*
X595250*
X596187Y191187D02*
X597437D01*
X596813D02*
Y194937D01*
X596187D02*
X597437D01*
X596187Y221187D02*
X597437D01*
X596813D02*
Y224937D01*
X596187D02*
X597437D01*
Y235563D02*
X598063Y235250D01*
X598375Y234625*
X598063Y234000*
X597437Y233687*
X595250*
Y237437*
X597437*
X598063Y237125*
X598375Y236500*
X598063Y235875*
X597437Y235563*
X595250*
X597437Y265563D02*
X598063Y265250D01*
X598375Y264625*
X598063Y264000*
X597437Y263687*
X595250*
Y267437*
X597437*
X598063Y267125*
X598375Y266500*
X598063Y265875*
X597437Y265563*
X595250*
X597750Y43687D02*
Y47437D01*
Y45563D02*
X598687D01*
X600875Y47437*
X598687Y45563D02*
X600875Y43687D01*
X597750Y298687D02*
Y302437D01*
Y300563D02*
X598687D01*
X600875Y302437*
X598687Y300563D02*
X600875Y298687D01*
X607437Y75563D02*
X608063Y75250D01*
X608375Y74625*
X608063Y74000*
X607437Y73687*
X605250*
Y77437*
X607437*
X608063Y77125*
X608375Y76500*
X608063Y75875*
X607437Y75563*
X605250*
X607437Y105563D02*
X608063Y105250D01*
X608375Y104625*
X608063Y104000*
X607437Y103687*
X605250*
Y107437*
X607437*
X608063Y107125*
X608375Y106500*
X608063Y105875*
X607437Y105563*
X605250*
X606187Y116187D02*
X607437D01*
X606813D02*
Y119937D01*
X606187D02*
X607437D01*
X606187Y146187D02*
X607437D01*
X606813D02*
Y149937D01*
X606187D02*
X607437D01*
Y173063D02*
X608063Y172750D01*
X608375Y172125*
X608063Y171500*
X607437Y171187*
X605250*
Y174937*
X607437*
X608063Y174625*
X608375Y174000*
X608063Y173375*
X607437Y173063*
X605250*
X606187Y191187D02*
X607437D01*
X606813D02*
Y194937D01*
X606187D02*
X607437D01*
X606187Y221187D02*
X607437D01*
X606813D02*
Y224937D01*
X606187D02*
X607437D01*
Y235563D02*
X608063Y235250D01*
X608375Y234625*
X608063Y234000*
X607437Y233687*
X605250*
Y237437*
X607437*
X608063Y237125*
X608375Y236500*
X608063Y235875*
X607437Y235563*
X605250*
X607437Y265563D02*
X608063Y265250D01*
X608375Y264625*
X608063Y264000*
X607437Y263687*
X605250*
Y267437*
X607437*
X608063Y267125*
X608375Y266500*
X608063Y265875*
X607437Y265563*
X605250*
X617437Y75563D02*
X618063Y75250D01*
X618375Y74625*
X618063Y74000*
X617437Y73687*
X615250*
Y77437*
X617437*
X618063Y77125*
X618375Y76500*
X618063Y75875*
X617437Y75563*
X615250*
X617437Y105563D02*
X618063Y105250D01*
X618375Y104625*
X618063Y104000*
X617437Y103687*
X615250*
Y107437*
X617437*
X618063Y107125*
X618375Y106500*
X618063Y105875*
X617437Y105563*
X615250*
X616187Y116187D02*
X617437D01*
X616813D02*
Y119937D01*
X616187D02*
X617437D01*
X616187Y146187D02*
X617437D01*
X616813D02*
Y149937D01*
X616187D02*
X617437D01*
Y183063D02*
X618063Y182750D01*
X618375Y182125*
X618063Y181500*
X617437Y181187*
X615250*
Y184937*
X617437*
X618063Y184625*
X618375Y184000*
X618063Y183375*
X617437Y183063*
X615250*
X616187Y191187D02*
X617437D01*
X616813D02*
Y194937D01*
X616187D02*
X617437D01*
X616187Y221187D02*
X617437D01*
X616813D02*
Y224937D01*
X616187D02*
X617437D01*
Y235563D02*
X618063Y235250D01*
X618375Y234625*
X618063Y234000*
X617437Y233687*
X615250*
Y237437*
X617437*
X618063Y237125*
X618375Y236500*
X618063Y235875*
X617437Y235563*
X615250*
X617437Y265563D02*
X618063Y265250D01*
X618375Y264625*
X618063Y264000*
X617437Y263687*
X615250*
Y267437*
X617437*
X618063Y267125*
X618375Y266500*
X618063Y265875*
X617437Y265563*
X615250*
X617750Y43687D02*
Y47437D01*
Y45563D02*
X618687D01*
X620875Y47437*
X618687Y45563D02*
X620875Y43687D01*
X617750Y298687D02*
Y302437D01*
Y300563D02*
X618687D01*
X620875Y302437*
X618687Y300563D02*
X620875Y298687D01*
X627437Y75563D02*
X628063Y75250D01*
X628375Y74625*
X628063Y74000*
X627437Y73687*
X625250*
Y77437*
X627437*
X628063Y77125*
X628375Y76500*
X628063Y75875*
X627437Y75563*
X625250*
X627437Y105563D02*
X628063Y105250D01*
X628375Y104625*
X628063Y104000*
X627437Y103687*
X625250*
Y107437*
X627437*
X628063Y107125*
X628375Y106500*
X628063Y105875*
X627437Y105563*
X625250*
X626187Y116187D02*
X627437D01*
X626813D02*
Y119937D01*
X626187D02*
X627437D01*
X626187Y146187D02*
X627437D01*
X626813D02*
Y149937D01*
X626187D02*
X627437D01*
Y173063D02*
X628063Y172750D01*
X628375Y172125*
X628063Y171500*
X627437Y171187*
X625250*
Y174937*
X627437*
X628063Y174625*
X628375Y174000*
X628063Y173375*
X627437Y173063*
X625250*
X626187Y191187D02*
X627437D01*
X626813D02*
Y194937D01*
X626187D02*
X627437D01*
X626187Y221187D02*
X627437D01*
X626813D02*
Y224937D01*
X626187D02*
X627437D01*
Y235563D02*
X628063Y235250D01*
X628375Y234625*
X628063Y234000*
X627437Y233687*
X625250*
Y237437*
X627437*
X628063Y237125*
X628375Y236500*
X628063Y235875*
X627437Y235563*
X625250*
X627437Y265563D02*
X628063Y265250D01*
X628375Y264625*
X628063Y264000*
X627437Y263687*
X625250*
Y267437*
X627437*
X628063Y267125*
X628375Y266500*
X628063Y265875*
X627437Y265563*
X625250*
X637437Y75563D02*
X638063Y75250D01*
X638375Y74625*
X638063Y74000*
X637437Y73687*
X635250*
Y77437*
X637437*
X638063Y77125*
X638375Y76500*
X638063Y75875*
X637437Y75563*
X635250*
X637437Y105563D02*
X638063Y105250D01*
X638375Y104625*
X638063Y104000*
X637437Y103687*
X635250*
Y107437*
X637437*
X638063Y107125*
X638375Y106500*
X638063Y105875*
X637437Y105563*
X635250*
X636187Y116187D02*
X637437D01*
X636813D02*
Y119937D01*
X636187D02*
X637437D01*
X636187Y146187D02*
X637437D01*
X636813D02*
Y149937D01*
X636187D02*
X637437D01*
Y163063D02*
X638063Y162750D01*
X638375Y162125*
X638063Y161500*
X637437Y161187*
X635250*
Y164937*
X637437*
X638063Y164625*
X638375Y164000*
X638063Y163375*
X637437Y163063*
X635250*
X636187Y191187D02*
X637437D01*
X636813D02*
Y194937D01*
X636187D02*
X637437D01*
X636187Y221187D02*
X637437D01*
X636813D02*
Y224937D01*
X636187D02*
X637437D01*
Y235563D02*
X638063Y235250D01*
X638375Y234625*
X638063Y234000*
X637437Y233687*
X635250*
Y237437*
X637437*
X638063Y237125*
X638375Y236500*
X638063Y235875*
X637437Y235563*
X635250*
X637437Y265563D02*
X638063Y265250D01*
X638375Y264625*
X638063Y264000*
X637437Y263687*
X635250*
Y267437*
X637437*
X638063Y267125*
X638375Y266500*
X638063Y265875*
X637437Y265563*
X635250*
X637750Y43687D02*
Y47437D01*
Y45563D02*
X638687D01*
X640875Y47437*
X638687Y45563D02*
X640875Y43687D01*
X637750Y298687D02*
Y302437D01*
Y300563D02*
X638687D01*
X640875Y302437*
X638687Y300563D02*
X640875Y298687D01*
X647437Y75563D02*
X648063Y75250D01*
X648375Y74625*
X648063Y74000*
X647437Y73687*
X645250*
Y77437*
X647437*
X648063Y77125*
X648375Y76500*
X648063Y75875*
X647437Y75563*
X645250*
X647437Y105563D02*
X648063Y105250D01*
X648375Y104625*
X648063Y104000*
X647437Y103687*
X645250*
Y107437*
X647437*
X648063Y107125*
X648375Y106500*
X648063Y105875*
X647437Y105563*
X645250*
X646187Y116187D02*
X647437D01*
X646813D02*
Y119937D01*
X646187D02*
X647437D01*
X646187Y146187D02*
X647437D01*
X646813D02*
Y149937D01*
X646187D02*
X647437D01*
X646187Y191187D02*
X647437D01*
X646813D02*
Y194937D01*
X646187D02*
X647437D01*
X646187Y221187D02*
X647437D01*
X646813D02*
Y224937D01*
X646187D02*
X647437D01*
Y235563D02*
X648063Y235250D01*
X648375Y234625*
X648063Y234000*
X647437Y233687*
X645250*
Y237437*
X647437*
X648063Y237125*
X648375Y236500*
X648063Y235875*
X647437Y235563*
X645250*
X647437Y265563D02*
X648063Y265250D01*
X648375Y264625*
X648063Y264000*
X647437Y263687*
X645250*
Y267437*
X647437*
X648063Y267125*
X648375Y266500*
X648063Y265875*
X647437Y265563*
X645250*
X656187Y116187D02*
X657437D01*
X656813D02*
Y119937D01*
X656187D02*
X657437D01*
X656187Y146187D02*
X657437D01*
X656813D02*
Y149937D01*
X656187D02*
X657437D01*
Y235563D02*
X658063Y235250D01*
X658375Y234625*
X658063Y234000*
X657437Y233687*
X655250*
Y237437*
X657437*
X658063Y237125*
X658375Y236500*
X658063Y235875*
X657437Y235563*
X655250*
X657437Y265563D02*
X658063Y265250D01*
X658375Y264625*
X658063Y264000*
X657437Y263687*
X655250*
Y267437*
X657437*
X658063Y267125*
X658375Y266500*
X658063Y265875*
X657437Y265563*
X655250*
X657750Y43687D02*
Y47437D01*
Y45563D02*
X658687D01*
X660875Y47437*
X658687Y45563D02*
X660875Y43687D01*
X657750Y298687D02*
Y302437D01*
Y300563D02*
X658687D01*
X660875Y302437*
X658687Y300563D02*
X660875Y298687D01*
X669640Y83215D02*
Y86965D01*
X671202Y85090*
X672765Y86965*
Y83215*
X669640Y108806D02*
Y112556D01*
X671202Y110681*
X672765Y112556*
Y108806*
X677750Y43687D02*
Y47437D01*
Y45563D02*
X678687D01*
X680875Y47437*
X678687Y45563D02*
X680875Y43687D01*
X677750Y298687D02*
Y302437D01*
Y300563D02*
X678687D01*
X680875Y302437*
X678687Y300563D02*
X680875Y298687D01*
X687437Y188063D02*
X688063Y187750D01*
X688375Y187125*
X688063Y186500*
X687437Y186187*
X685250*
Y189937*
X687437*
X688063Y189625*
X688375Y189000*
X688063Y188375*
X687437Y188063*
X685250*
X687437Y198063D02*
X688063Y197750D01*
X688375Y197125*
X688063Y196500*
X687437Y196187*
X685250*
Y199937*
X687437*
X688063Y199625*
X688375Y199000*
X688063Y198375*
X687437Y198063*
X685250*
X687437Y208063D02*
X688063Y207750D01*
X688375Y207125*
X688063Y206500*
X687437Y206187*
X685250*
Y209937*
X687437*
X688063Y209625*
X688375Y209000*
X688063Y208375*
X687437Y208063*
X685250*
X687356Y83215D02*
Y86965D01*
X688919Y85090*
X690481Y86965*
Y83215*
X687356Y108806D02*
Y112556D01*
X688919Y110681*
X690481Y112556*
Y108806*
X689937Y128063D02*
X690563Y127750D01*
X690875Y127125*
X690563Y126500*
X689937Y126187*
X687750*
Y129937*
X689937*
X690563Y129625*
X690875Y129000*
X690563Y128375*
X689937Y128063*
X687750*
X689937Y168063D02*
X690563Y167750D01*
X690875Y167125*
X690563Y166500*
X689937Y166187*
X687750*
Y169937*
X689937*
X690563Y169625*
X690875Y169000*
X690563Y168375*
X689937Y168063*
X687750*
X694937Y208063D02*
X695563Y207750D01*
X695875Y207125*
X695563Y206500*
X694937Y206187*
X692750*
Y209937*
X694937*
X695563Y209625*
X695875Y209000*
X695563Y208375*
X694937Y208063*
X692750*
X694937Y248063D02*
X695563Y247750D01*
X695875Y247125*
X695563Y246500*
X694937Y246187*
X692750*
Y249937*
X694937*
X695563Y249625*
X695875Y249000*
X695563Y248375*
X694937Y248063*
X692750*
X710250Y106187D02*
Y109937D01*
Y108063D02*
X711187D01*
X713375Y109937*
X711187Y108063D02*
X713375Y106187D01*
X710250Y117437D02*
Y118687D01*
X710563Y119313*
X710875Y119625*
X711500Y119937*
X712125*
X712750Y119625*
X713063Y119313*
X713375Y118687*
Y117437*
X713063Y116813*
X712750Y116500*
X712125Y116187*
X711500*
X710875Y116500*
X710563Y116813*
X710250Y117437*
Y127437D02*
Y128687D01*
X710563Y129313*
X710875Y129625*
X711500Y129937*
X712125*
X712750Y129625*
X713063Y129313*
X713375Y128687*
Y127437*
X713063Y126813*
X712750Y126500*
X712125Y126187*
X711500*
X710875Y126500*
X710563Y126813*
X710250Y127437*
Y137437D02*
Y138687D01*
X710563Y139313*
X710875Y139625*
X711500Y139937*
X712125*
X712750Y139625*
X713063Y139313*
X713375Y138687*
Y137437*
X713063Y136813*
X712750Y136500*
X712125Y136187*
X711500*
X710875Y136500*
X710563Y136813*
X710250Y137437*
Y147437D02*
Y148687D01*
X710563Y149313*
X710875Y149625*
X711500Y149937*
X712125*
X712750Y149625*
X713063Y149313*
X713375Y148687*
Y147437*
X713063Y146813*
X712750Y146500*
X712125Y146187*
X711500*
X710875Y146500*
X710563Y146813*
X710250Y147437*
Y157437D02*
Y158687D01*
X710563Y159313*
X710875Y159625*
X711500Y159937*
X712125*
X712750Y159625*
X713063Y159313*
X713375Y158687*
Y157437*
X713063Y156813*
X712750Y156500*
X712125Y156187*
X711500*
X710875Y156500*
X710563Y156813*
X710250Y157437*
Y167437D02*
Y168687D01*
X710563Y169313*
X710875Y169625*
X711500Y169937*
X712125*
X712750Y169625*
X713063Y169313*
X713375Y168687*
Y167437*
X713063Y166813*
X712750Y166500*
X712125Y166187*
X711500*
X710875Y166500*
X710563Y166813*
X710250Y167437*
Y177437D02*
Y178687D01*
X710563Y179313*
X710875Y179625*
X711500Y179937*
X712125*
X712750Y179625*
X713063Y179313*
X713375Y178687*
Y177437*
X713063Y176813*
X712750Y176500*
X712125Y176187*
X711500*
X710875Y176500*
X710563Y176813*
X710250Y177437*
Y187437D02*
Y188687D01*
X710563Y189313*
X710875Y189625*
X711500Y189937*
X712125*
X712750Y189625*
X713063Y189313*
X713375Y188687*
Y187437*
X713063Y186813*
X712750Y186500*
X712125Y186187*
X711500*
X710875Y186500*
X710563Y186813*
X710250Y187437*
Y197437D02*
Y198687D01*
X710563Y199313*
X710875Y199625*
X711500Y199937*
X712125*
X712750Y199625*
X713063Y199313*
X713375Y198687*
Y197437*
X713063Y196813*
X712750Y196500*
X712125Y196187*
X711500*
X710875Y196500*
X710563Y196813*
X710250Y197437*
Y207437D02*
Y208687D01*
X710563Y209313*
X710875Y209625*
X711500Y209937*
X712125*
X712750Y209625*
X713063Y209313*
X713375Y208687*
Y207437*
X713063Y206813*
X712750Y206500*
X712125Y206187*
X711500*
X710875Y206500*
X710563Y206813*
X710250Y207437*
Y217437D02*
Y218687D01*
X710563Y219313*
X710875Y219625*
X711500Y219937*
X712125*
X712750Y219625*
X713063Y219313*
X713375Y218687*
Y217437*
X713063Y216813*
X712750Y216500*
X712125Y216187*
X711500*
X710875Y216500*
X710563Y216813*
X710250Y217437*
Y227437D02*
Y228687D01*
X710563Y229313*
X710875Y229625*
X711500Y229937*
X712125*
X712750Y229625*
X713063Y229313*
X713375Y228687*
Y227437*
X713063Y226813*
X712750Y226500*
X712125Y226187*
X711500*
X710875Y226500*
X710563Y226813*
X710250Y227437*
Y237437D02*
Y238687D01*
X710563Y239313*
X710875Y239625*
X711500Y239937*
X712125*
X712750Y239625*
X713063Y239313*
X713375Y238687*
Y237437*
X713063Y236813*
X712750Y236500*
X712125Y236187*
X711500*
X710875Y236500*
X710563Y236813*
X710250Y237437*
Y247437D02*
Y248687D01*
X710563Y249313*
X710875Y249625*
X711500Y249937*
X712125*
X712750Y249625*
X713063Y249313*
X713375Y248687*
Y247437*
X713063Y246813*
X712750Y246500*
X712125Y246187*
X711500*
X710875Y246500*
X710563Y246813*
X710250Y247437*
Y257437D02*
Y258687D01*
X710563Y259313*
X710875Y259625*
X711500Y259937*
X712125*
X712750Y259625*
X713063Y259313*
X713375Y258687*
Y257437*
X713063Y256813*
X712750Y256500*
X712125Y256187*
X711500*
X710875Y256500*
X710563Y256813*
X710250Y257437*
Y266187D02*
Y269937D01*
Y268063D02*
X711187D01*
X713375Y269937*
X711187Y268063D02*
X713375Y266187D01*
X770250Y106187D02*
Y109937D01*
Y108063D02*
X771187D01*
X773375Y109937*
X771187Y108063D02*
X773375Y106187D01*
X770250Y117437D02*
Y118687D01*
X770563Y119313*
X770875Y119625*
X771500Y119937*
X772125*
X772750Y119625*
X773063Y119313*
X773375Y118687*
Y117437*
X773063Y116813*
X772750Y116500*
X772125Y116187*
X771500*
X770875Y116500*
X770563Y116813*
X770250Y117437*
Y127437D02*
Y128687D01*
X770563Y129313*
X770875Y129625*
X771500Y129937*
X772125*
X772750Y129625*
X773063Y129313*
X773375Y128687*
Y127437*
X773063Y126813*
X772750Y126500*
X772125Y126187*
X771500*
X770875Y126500*
X770563Y126813*
X770250Y127437*
Y137437D02*
Y138687D01*
X770563Y139313*
X770875Y139625*
X771500Y139937*
X772125*
X772750Y139625*
X773063Y139313*
X773375Y138687*
Y137437*
X773063Y136813*
X772750Y136500*
X772125Y136187*
X771500*
X770875Y136500*
X770563Y136813*
X770250Y137437*
Y147437D02*
Y148687D01*
X770563Y149313*
X770875Y149625*
X771500Y149937*
X772125*
X772750Y149625*
X773063Y149313*
X773375Y148687*
Y147437*
X773063Y146813*
X772750Y146500*
X772125Y146187*
X771500*
X770875Y146500*
X770563Y146813*
X770250Y147437*
Y157437D02*
Y158687D01*
X770563Y159313*
X770875Y159625*
X771500Y159937*
X772125*
X772750Y159625*
X773063Y159313*
X773375Y158687*
Y157437*
X773063Y156813*
X772750Y156500*
X772125Y156187*
X771500*
X770875Y156500*
X770563Y156813*
X770250Y157437*
Y167437D02*
Y168687D01*
X770563Y169313*
X770875Y169625*
X771500Y169937*
X772125*
X772750Y169625*
X773063Y169313*
X773375Y168687*
Y167437*
X773063Y166813*
X772750Y166500*
X772125Y166187*
X771500*
X770875Y166500*
X770563Y166813*
X770250Y167437*
Y177437D02*
Y178687D01*
X770563Y179313*
X770875Y179625*
X771500Y179937*
X772125*
X772750Y179625*
X773063Y179313*
X773375Y178687*
Y177437*
X773063Y176813*
X772750Y176500*
X772125Y176187*
X771500*
X770875Y176500*
X770563Y176813*
X770250Y177437*
Y187437D02*
Y188687D01*
X770563Y189313*
X770875Y189625*
X771500Y189937*
X772125*
X772750Y189625*
X773063Y189313*
X773375Y188687*
Y187437*
X773063Y186813*
X772750Y186500*
X772125Y186187*
X771500*
X770875Y186500*
X770563Y186813*
X770250Y187437*
Y197437D02*
Y198687D01*
X770563Y199313*
X770875Y199625*
X771500Y199937*
X772125*
X772750Y199625*
X773063Y199313*
X773375Y198687*
Y197437*
X773063Y196813*
X772750Y196500*
X772125Y196187*
X771500*
X770875Y196500*
X770563Y196813*
X770250Y197437*
Y207437D02*
Y208687D01*
X770563Y209313*
X770875Y209625*
X771500Y209937*
X772125*
X772750Y209625*
X773063Y209313*
X773375Y208687*
Y207437*
X773063Y206813*
X772750Y206500*
X772125Y206187*
X771500*
X770875Y206500*
X770563Y206813*
X770250Y207437*
Y217437D02*
Y218687D01*
X770563Y219313*
X770875Y219625*
X771500Y219937*
X772125*
X772750Y219625*
X773063Y219313*
X773375Y218687*
Y217437*
X773063Y216813*
X772750Y216500*
X772125Y216187*
X771500*
X770875Y216500*
X770563Y216813*
X770250Y217437*
Y227437D02*
Y228687D01*
X770563Y229313*
X770875Y229625*
X771500Y229937*
X772125*
X772750Y229625*
X773063Y229313*
X773375Y228687*
Y227437*
X773063Y226813*
X772750Y226500*
X772125Y226187*
X771500*
X770875Y226500*
X770563Y226813*
X770250Y227437*
Y237437D02*
Y238687D01*
X770563Y239313*
X770875Y239625*
X771500Y239937*
X772125*
X772750Y239625*
X773063Y239313*
X773375Y238687*
Y237437*
X773063Y236813*
X772750Y236500*
X772125Y236187*
X771500*
X770875Y236500*
X770563Y236813*
X770250Y237437*
Y247437D02*
Y248687D01*
X770563Y249313*
X770875Y249625*
X771500Y249937*
X772125*
X772750Y249625*
X773063Y249313*
X773375Y248687*
Y247437*
X773063Y246813*
X772750Y246500*
X772125Y246187*
X771500*
X770875Y246500*
X770563Y246813*
X770250Y247437*
Y257437D02*
Y258687D01*
X770563Y259313*
X770875Y259625*
X771500Y259937*
X772125*
X772750Y259625*
X773063Y259313*
X773375Y258687*
Y257437*
X773063Y256813*
X772750Y256500*
X772125Y256187*
X771500*
X770875Y256500*
X770563Y256813*
X770250Y257437*
Y266187D02*
Y269937D01*
Y268063D02*
X771187D01*
X773375Y269937*
X771187Y268063D02*
X773375Y266187D01*
X799937Y163063D02*
X800563Y162750D01*
X800875Y162125*
X800563Y161500*
X799937Y161187*
X797750*
Y164937*
X799937*
X800563Y164625*
X800875Y164000*
X800563Y163375*
X799937Y163063*
X797750*
X799937Y193063D02*
X800563Y192750D01*
X800875Y192125*
X800563Y191500*
X799937Y191187*
X797750*
Y194937*
X799937*
X800563Y194625*
X800875Y194000*
X800563Y193375*
X799937Y193063*
X797750*
X799937Y218063D02*
X800563Y217750D01*
X800875Y217125*
X800563Y216500*
X799937Y216187*
X797750*
Y219937*
X799937*
X800563Y219625*
X800875Y219000*
X800563Y218375*
X799937Y218063*
X797750*
X807750Y43024D02*
Y46774D01*
Y44899D02*
X808687D01*
X810875Y46774*
X808687Y44899D02*
X810875Y43024D01*
X807750Y246187D02*
Y249937D01*
X810875Y246187*
Y249937*
X817750Y246187D02*
Y249937D01*
X820875Y246187*
Y249937*
X822750Y154937D02*
Y151187D01*
X825875*
X822750Y164937D02*
Y161187D01*
X825875*
X822750Y174937D02*
Y171187D01*
X825875*
X827750Y43024D02*
Y46774D01*
Y44899D02*
X828687D01*
X830875Y46774*
X828687Y44899D02*
X830875Y43024D01*
X839937Y218063D02*
X840563Y217750D01*
X840875Y217125*
X840563Y216500*
X839937Y216187*
X837750*
Y219937*
X839937*
X840563Y219625*
X840875Y219000*
X840563Y218375*
X839937Y218063*
X837750*
X847750Y43024D02*
Y46774D01*
Y44899D02*
X848687D01*
X850875Y46774*
X848687Y44899D02*
X850875Y43024D01*
X867750D02*
Y46774D01*
Y44899D02*
X868687D01*
X870875Y46774*
X868687Y44899D02*
X870875Y43024D01*
X892750Y44313D02*
X893063Y44000D01*
X893687Y43687*
X894313Y44000*
X894625Y44313*
Y47437*
X895250*
X894625D02*
X893375D01*
X892750Y299313D02*
X893063Y299000D01*
X893687Y298687*
X894313Y299000*
X894625Y299313*
Y302437*
X895250*
X894625D02*
X893375D01*
D02*
D27*
X17750Y37750D03*
Y292750D03*
X47750Y37750D03*
Y292750D03*
X67750Y37750D03*
Y292750D03*
X85250Y67750D03*
Y97750D03*
Y185250D03*
Y215250D03*
X87750Y37750D03*
Y292750D03*
X95250Y67750D03*
Y97750D03*
Y110250D03*
Y140250D03*
Y185250D03*
Y215250D03*
Y227750D03*
Y257750D03*
X105250Y67750D03*
Y97750D03*
Y110250D03*
Y140250D03*
Y155250D03*
Y185250D03*
Y215250D03*
Y227750D03*
Y257750D03*
X107750Y37750D03*
Y292750D03*
X115250Y67750D03*
Y97750D03*
Y110250D03*
Y140250D03*
Y165250D03*
Y185250D03*
Y215250D03*
Y227750D03*
Y257750D03*
X125250Y67750D03*
Y97750D03*
Y110250D03*
Y140250D03*
Y175250D03*
Y185250D03*
Y215250D03*
Y227750D03*
Y257750D03*
X127750Y37750D03*
Y292750D03*
X135250Y67750D03*
Y97750D03*
Y110250D03*
Y140250D03*
Y165250D03*
Y185250D03*
Y215250D03*
Y227750D03*
Y257750D03*
X145250Y67750D03*
Y97750D03*
Y110250D03*
Y140250D03*
Y155250D03*
Y185250D03*
Y215250D03*
Y227750D03*
Y257750D03*
X147750Y37750D03*
Y292750D03*
X155250Y67750D03*
Y97750D03*
Y110250D03*
Y140250D03*
Y185250D03*
Y215250D03*
Y227750D03*
Y257750D03*
X165250Y110250D03*
Y140250D03*
Y227750D03*
Y257750D03*
X167750Y37750D03*
Y292750D03*
X187750Y37750D03*
Y292750D03*
X207750Y37750D03*
Y292750D03*
X227750Y37750D03*
Y292750D03*
X245250Y67750D03*
Y97750D03*
Y185250D03*
Y215250D03*
X247750Y37750D03*
Y292750D03*
X255250Y67750D03*
Y97750D03*
Y110250D03*
Y140250D03*
Y185250D03*
Y215250D03*
Y227750D03*
Y257750D03*
X265250Y67750D03*
Y97750D03*
Y110250D03*
Y140250D03*
Y155250D03*
Y185250D03*
Y215250D03*
Y227750D03*
Y257750D03*
X267750Y37750D03*
Y292750D03*
X275250Y67750D03*
Y97750D03*
Y110250D03*
Y140250D03*
Y165250D03*
Y185250D03*
Y215250D03*
Y227750D03*
Y257750D03*
X285250Y67750D03*
Y97750D03*
Y110250D03*
Y140250D03*
Y175250D03*
Y185250D03*
Y215250D03*
Y227750D03*
Y257750D03*
X287750Y37750D03*
Y292750D03*
X295250Y67750D03*
Y97750D03*
Y110250D03*
Y140250D03*
Y165250D03*
Y185250D03*
Y215250D03*
Y227750D03*
Y257750D03*
X305250Y67750D03*
Y97750D03*
Y110250D03*
Y140250D03*
Y155250D03*
Y185250D03*
Y215250D03*
Y227750D03*
Y257750D03*
X307750Y37750D03*
Y292750D03*
X315250Y67750D03*
Y97750D03*
Y110250D03*
Y140250D03*
Y185250D03*
Y215250D03*
Y227750D03*
Y257750D03*
X325250Y110250D03*
Y140250D03*
Y227750D03*
Y257750D03*
X327750Y37750D03*
Y292750D03*
X347750Y37750D03*
Y292750D03*
X367750Y37750D03*
Y292750D03*
X387750Y37750D03*
Y292750D03*
X405250Y67750D03*
Y97750D03*
Y185250D03*
Y215250D03*
X407750Y37750D03*
Y292750D03*
X415250Y67750D03*
Y97750D03*
Y110250D03*
Y140250D03*
Y185250D03*
Y215250D03*
Y227750D03*
Y257750D03*
X425250Y67750D03*
Y97750D03*
Y110250D03*
Y140250D03*
Y155250D03*
Y185250D03*
Y215250D03*
Y227750D03*
Y257750D03*
X427750Y37750D03*
Y292750D03*
X435250Y67750D03*
Y97750D03*
Y110250D03*
Y140250D03*
Y165250D03*
Y185250D03*
Y215250D03*
Y227750D03*
Y257750D03*
X445250Y67750D03*
Y97750D03*
Y110250D03*
Y140250D03*
Y175250D03*
Y185250D03*
Y215250D03*
Y227750D03*
Y257750D03*
X447750Y37750D03*
Y292750D03*
X455250Y67750D03*
Y97750D03*
Y110250D03*
Y140250D03*
Y165250D03*
Y185250D03*
Y215250D03*
Y227750D03*
Y257750D03*
X465250Y67750D03*
Y97750D03*
Y110250D03*
Y140250D03*
Y155250D03*
Y185250D03*
Y215250D03*
Y227750D03*
Y257750D03*
X467750Y37750D03*
Y292750D03*
X475250Y67750D03*
Y97750D03*
Y110250D03*
Y140250D03*
Y185250D03*
Y215250D03*
Y227750D03*
Y257750D03*
X485250Y110250D03*
Y140250D03*
Y227750D03*
Y257750D03*
X487750Y37750D03*
Y292750D03*
X507750Y37750D03*
Y292750D03*
X527750Y37750D03*
Y292750D03*
X547750Y37750D03*
Y292750D03*
X550250Y117750D03*
Y147750D03*
Y155250D03*
X565250Y67750D03*
Y97750D03*
Y185250D03*
Y215250D03*
X567750Y37750D03*
Y292750D03*
X575250Y67750D03*
Y97750D03*
Y110250D03*
Y140250D03*
Y185250D03*
Y215250D03*
Y227750D03*
Y257750D03*
X585250Y67750D03*
Y97750D03*
Y110250D03*
Y140250D03*
Y155250D03*
Y185250D03*
Y215250D03*
Y227750D03*
Y257750D03*
X587750Y37750D03*
Y292750D03*
X595250Y67750D03*
Y97750D03*
Y110250D03*
Y140250D03*
Y165250D03*
Y185250D03*
Y215250D03*
Y227750D03*
Y257750D03*
X605250Y67750D03*
Y97750D03*
Y110250D03*
Y140250D03*
Y175250D03*
Y185250D03*
Y215250D03*
Y227750D03*
Y257750D03*
X607750Y37750D03*
Y292750D03*
X615250Y67750D03*
Y97750D03*
Y110250D03*
Y140250D03*
Y165250D03*
Y185250D03*
Y215250D03*
Y227750D03*
Y257750D03*
X625250Y67750D03*
Y97750D03*
Y110250D03*
Y140250D03*
Y155250D03*
Y185250D03*
Y215250D03*
Y227750D03*
Y257750D03*
X627750Y37750D03*
Y292750D03*
X635250Y67750D03*
Y97750D03*
Y110250D03*
Y140250D03*
Y185250D03*
Y215250D03*
Y227750D03*
Y257750D03*
X645250Y110250D03*
Y140250D03*
Y227750D03*
Y257750D03*
X647750Y37750D03*
Y292750D03*
X659640Y77278D03*
Y102868D03*
X667750Y37750D03*
Y292750D03*
X675250Y180250D03*
Y190250D03*
Y200250D03*
X677356Y77278D03*
Y102868D03*
X677750Y120250D03*
Y160250D03*
X682750Y200250D03*
Y240250D03*
X700250Y100250D03*
Y110250D03*
Y120250D03*
Y130250D03*
Y140250D03*
Y150250D03*
Y160250D03*
Y170250D03*
Y180250D03*
Y190250D03*
Y200250D03*
Y210250D03*
Y220250D03*
Y230250D03*
Y240250D03*
Y250250D03*
Y260250D03*
X760250Y100250D03*
Y110250D03*
Y120250D03*
Y130250D03*
Y140250D03*
Y150250D03*
Y160250D03*
Y170250D03*
Y180250D03*
Y190250D03*
Y200250D03*
Y210250D03*
Y220250D03*
Y230250D03*
Y240250D03*
Y250250D03*
Y260250D03*
X787750Y155250D03*
Y185250D03*
Y210250D03*
X797750Y37087D03*
Y240250D03*
X807750D03*
X812750Y145250D03*
Y155250D03*
Y165250D03*
X817750Y37087D03*
X827750Y210250D03*
X837750Y37087D03*
X857750D03*
X882750Y37750D03*
Y292750D03*
X0Y0D02*
M02*
