G04 EasyPC Gerber Version 20.0.2 Build 4112 *
G04 #@! TF.Part,Single*
G04 #@! TF.FileFunction,Copper,L1,Top *
%FSLAX35Y35*%
%MOIN*%
G04 #@! TA.AperFunction,ComponentPad*
%ADD95R,0.05100X0.05100*%
%ADD97R,0.06000X0.06000*%
G04 #@! TD.AperFunction*
%ADD28C,0.00100*%
%ADD14C,0.00500*%
%ADD20C,0.05000*%
G04 #@! TA.AperFunction,ComponentPad*
%ADD96C,0.05100*%
G04 #@! TD.AperFunction*
%ADD89C,0.05600*%
%ADD15C,0.06000*%
G04 #@! TA.AperFunction,WasherPad*
%ADD94C,0.19685*%
X0Y0D02*
D02*
D14*
X250Y250D02*
X897750D01*
Y327750*
X250*
Y250*
D02*
D15*
X85250Y67750D03*
Y97750D03*
X95250Y67750D03*
Y97750D03*
Y257750D03*
X105250Y67750D03*
Y97750D03*
Y227750D03*
Y257750D03*
X115250Y67750D03*
Y97750D03*
Y227750D03*
Y257750D03*
X125250Y67750D03*
Y97750D03*
Y227750D03*
Y257750D03*
X135250Y67750D03*
Y97750D03*
Y227750D03*
Y257750D03*
X145250Y67750D03*
Y97750D03*
Y227750D03*
Y257750D03*
X155250Y67750D03*
Y227750D03*
Y257750D03*
X165250Y227750D03*
Y257750D03*
X245250Y67750D03*
Y97750D03*
X255250Y67750D03*
Y97750D03*
Y257750D03*
X265250Y67750D03*
Y97750D03*
Y227750D03*
Y257750D03*
X275250Y67750D03*
Y97750D03*
Y227750D03*
Y257750D03*
X285250Y67750D03*
Y97750D03*
Y227750D03*
Y257750D03*
X295250Y67750D03*
Y97750D03*
Y227750D03*
Y257750D03*
X305250Y67750D03*
Y97750D03*
Y227750D03*
Y257750D03*
X315250Y67750D03*
Y227750D03*
Y257750D03*
X325250Y227750D03*
Y257750D03*
X405250Y67750D03*
Y97750D03*
X415250Y67750D03*
Y97750D03*
Y257750D03*
X425250Y67750D03*
Y97750D03*
Y227750D03*
Y257750D03*
X435250Y67750D03*
Y97750D03*
Y227750D03*
Y257750D03*
X445250Y67750D03*
Y97750D03*
Y227750D03*
Y257750D03*
X455250Y67750D03*
Y97750D03*
Y227750D03*
Y257750D03*
X465250Y67750D03*
Y97750D03*
Y227750D03*
Y257750D03*
X475250Y67750D03*
Y227750D03*
Y257750D03*
X485250Y227750D03*
Y257750D03*
X565250Y67750D03*
Y97750D03*
X575250Y67750D03*
Y97750D03*
Y257750D03*
X585250Y67750D03*
Y97750D03*
Y227750D03*
Y257750D03*
X595250Y67750D03*
Y97750D03*
Y227750D03*
Y257750D03*
X605250Y67750D03*
Y97750D03*
Y227750D03*
Y257750D03*
X615250Y67750D03*
Y97750D03*
Y227750D03*
Y257750D03*
X625250Y67750D03*
Y97750D03*
Y227750D03*
Y257750D03*
X635250Y67750D03*
Y227750D03*
Y257750D03*
X645250Y227750D03*
Y257750D03*
D02*
D20*
X105250Y155250D02*
X145250D01*
X115250Y165250D02*
X135250D01*
X275250*
X145250Y155250D02*
X265250D01*
X305250*
X275250Y165250D02*
X295250D01*
X285250Y175250D02*
X445250D01*
X285250D02*
X125250D01*
X295250Y165250D02*
X435250D01*
X305250Y155250D02*
X425250D01*
X465250*
X435250Y165250D02*
X455250D01*
X445250Y175250D02*
X605250D01*
X455250Y165250D02*
X595250D01*
X465250Y155250D02*
X550250D01*
X585250*
X625250*
X595250Y165250D02*
X615250D01*
X657750*
X667750Y175250*
Y185250*
X672750Y190250*
X675250*
X625250Y155250D02*
X660250D01*
X675250Y170250*
Y180250*
Y200250D02*
X665250D01*
X657750Y192750*
Y180250*
X652750Y175250*
X605250*
D02*
D28*
X45250Y11195D02*
X49187D01*
X47219Y9226D02*
Y13163D01*
X47750Y318695D02*
X51687D01*
X49719Y316726D02*
Y320663D01*
X205250Y13695D02*
X209187D01*
X207219Y11726D02*
Y15663D01*
X207750Y318695D02*
X211687D01*
X209719Y316726D02*
Y320663D01*
X367750Y13695D02*
X371687D01*
X369719Y11726D02*
Y15663D01*
X367750Y318695D02*
X371687D01*
X369719Y316726D02*
Y320663D01*
X527750Y13695D02*
X531687D01*
X529719Y11726D02*
Y15663D01*
X527750Y318695D02*
X531687D01*
X529719Y316726D02*
Y320663D01*
X798695Y14187D02*
X800171D01*
Y13695*
X799679Y12711*
X799187Y12219*
X798203Y11726*
X797219*
X796234Y12219*
X795742Y12711*
X795250Y13695*
Y15663*
X795742Y16648*
X796234Y17140*
X797219Y17632*
X798203*
X799187Y17140*
X799679Y16648*
X800171Y15663*
X803124Y11726D02*
Y17632D01*
X808045Y11726*
Y17632*
X810998Y11726D02*
Y17632D01*
X813951*
X814935Y17140*
X815427Y16648*
X815919Y15663*
Y13695*
X815427Y12711*
X814935Y12219*
X813951Y11726*
X810998*
X830250Y13695D02*
X834187D01*
X832219Y11726D02*
Y15663D01*
X842061Y11726D02*
X838124D01*
X841569Y15171*
X842061Y16156*
X841569Y17140*
X840585Y17632*
X839108*
X838124Y17140*
X848459Y11726D02*
Y17632D01*
X845998Y13695*
X849935*
X853872Y17632D02*
X856333Y11726D01*
X858793Y17632*
D02*
D89*
X105250Y155250D03*
X115250Y165250D03*
X125250Y175250D03*
X135250Y165250D03*
X145250Y155250D03*
X265250D03*
X275250Y165250D03*
X285250Y175250D03*
X295250Y165250D03*
X305250Y155250D03*
X425250D03*
X435250Y165250D03*
X445250Y175250D03*
X455250Y165250D03*
X465250Y155250D03*
X550250D03*
X585250D03*
X595250Y165250D03*
X605250Y175250D03*
X615250Y165250D03*
X625250Y155250D03*
X675250Y180250D03*
Y190250D03*
Y200250D03*
D02*
D94*
X17750Y37750D03*
Y292750D03*
X882750Y37750D03*
Y292750D03*
D02*
D95*
X95250Y110250D03*
X155250Y215250D03*
X255250Y110250D03*
X315250Y215250D03*
X415250Y110250D03*
X475250Y215250D03*
X575250Y110250D03*
X635250Y215250D03*
D02*
D96*
X85250Y185250D03*
Y215250D03*
X95250Y140250D03*
Y185250D03*
Y215250D03*
X105250Y110250D03*
Y140250D03*
Y185250D03*
Y215250D03*
X115250Y110250D03*
Y140250D03*
Y185250D03*
Y215250D03*
X125250Y110250D03*
Y140250D03*
Y185250D03*
Y215250D03*
X135250Y110250D03*
Y140250D03*
Y185250D03*
Y215250D03*
X145250Y110250D03*
Y140250D03*
Y185250D03*
Y215250D03*
X155250Y110250D03*
Y140250D03*
Y185250D03*
X165250Y110250D03*
Y140250D03*
X245250Y185250D03*
Y215250D03*
X255250Y140250D03*
Y185250D03*
Y215250D03*
X265250Y110250D03*
Y140250D03*
Y185250D03*
Y215250D03*
X275250Y110250D03*
Y140250D03*
Y185250D03*
Y215250D03*
X285250Y110250D03*
Y140250D03*
Y185250D03*
Y215250D03*
X295250Y110250D03*
Y140250D03*
Y185250D03*
Y215250D03*
X305250Y110250D03*
Y140250D03*
Y185250D03*
Y215250D03*
X315250Y110250D03*
Y140250D03*
Y185250D03*
X325250Y110250D03*
Y140250D03*
X405250Y185250D03*
Y215250D03*
X415250Y140250D03*
Y185250D03*
Y215250D03*
X425250Y110250D03*
Y140250D03*
Y185250D03*
Y215250D03*
X435250Y110250D03*
Y140250D03*
Y185250D03*
Y215250D03*
X445250Y110250D03*
Y140250D03*
Y185250D03*
Y215250D03*
X455250Y110250D03*
Y140250D03*
Y185250D03*
Y215250D03*
X465250Y110250D03*
Y140250D03*
Y185250D03*
Y215250D03*
X475250Y110250D03*
Y140250D03*
Y185250D03*
X485250Y110250D03*
Y140250D03*
X565250Y185250D03*
Y215250D03*
X575250Y140250D03*
Y185250D03*
Y215250D03*
X585250Y110250D03*
Y140250D03*
Y185250D03*
Y215250D03*
X595250Y110250D03*
Y140250D03*
Y185250D03*
Y215250D03*
X605250Y110250D03*
Y140250D03*
Y185250D03*
Y215250D03*
X615250Y110250D03*
Y140250D03*
Y185250D03*
Y215250D03*
X625250Y110250D03*
Y140250D03*
Y185250D03*
Y215250D03*
X635250Y110250D03*
Y140250D03*
Y185250D03*
X645250Y110250D03*
Y140250D03*
D02*
D97*
X95250Y227750D03*
X155250Y97750D03*
X255250Y227750D03*
X315250Y97750D03*
X415250Y227750D03*
X475250Y97750D03*
X575250Y227750D03*
X635250Y97750D03*
X0Y0D02*
M02*
